<svg xmlns="http://www.w3.org/2000/svg" width="485.434" height="376.844" viewBox="0 0 485.434 376.844">
  <g id="Grupo_842630" data-name="Grupo 842630" transform="translate(-800 -2089.156)">
    <g id="Grupo_842629" data-name="Grupo 842629" transform="translate(17808.5 5082.197)">
      <g id="Grupo_842595" data-name="Grupo 842595" transform="translate(-16900.697 -2705.096)">
        <g id="Grupo_60292" data-name="Grupo 60292" transform="translate(14.394 41.797)">
          <path id="Trazado_120211" data-name="Trazado 120211" d="M172.635,479.365a3.412,3.412,0,1,1,3.413,3.412A3.413,3.413,0,0,1,172.635,479.365Z" transform="translate(28.877 -475.952)" fill="#ffab1d"/>
          <path id="Trazado_120212" data-name="Trazado 120212" d="M150.6,479.365a3.412,3.412,0,1,1,3.412,3.412A3.413,3.413,0,0,1,150.6,479.365Z" transform="translate(22.129 -475.952)" fill="#ffab1d"/>
          <path id="Trazado_120213" data-name="Trazado 120213" d="M128.556,479.365a3.412,3.412,0,1,1,3.412,3.412A3.412,3.412,0,0,1,128.556,479.365Z" transform="translate(15.382 -475.952)" fill="#ffab1d"/>
          <path id="Trazado_120214" data-name="Trazado 120214" d="M106.516,479.365a3.412,3.412,0,1,1,3.412,3.412A3.412,3.412,0,0,1,106.516,479.365Z" transform="translate(8.634 -475.952)" fill="#ffab1d"/>
          <path id="Trazado_120215" data-name="Trazado 120215" d="M84.476,479.365a3.412,3.412,0,1,1,3.412,3.412A3.412,3.412,0,0,1,84.476,479.365Z" transform="translate(1.887 -475.952)" fill="#ffab1d"/>
          <path id="Trazado_120216" data-name="Trazado 120216" d="M62.436,479.365a3.412,3.412,0,1,1,3.412,3.412A3.412,3.412,0,0,1,62.436,479.365Z" transform="translate(-4.861 -475.952)" fill="#ffab1d"/>
          <path id="Trazado_120217" data-name="Trazado 120217" d="M40.4,479.365a3.412,3.412,0,1,1,3.412,3.412A3.412,3.412,0,0,1,40.4,479.365Z" transform="translate(-11.608 -475.952)" fill="#ffab1d"/>
          <path id="Trazado_120218" data-name="Trazado 120218" d="M18.356,479.365a3.412,3.412,0,1,1,3.412,3.412A3.412,3.412,0,0,1,18.356,479.365Z" transform="translate(-18.356 -475.952)" fill="#ffab1d"/>
        </g>
        <g id="Grupo_60293" data-name="Grupo 60293" transform="translate(0 28.149)">
          <circle id="Elipse_4516" data-name="Elipse 4516" cx="3.412" cy="3.412" r="3.412" transform="translate(201.512)" fill="#ffab1d"/>
          <path id="Trazado_120219" data-name="Trazado 120219" d="M139.576,468.915a3.412,3.412,0,1,1,3.41,3.413A3.411,3.411,0,0,1,139.576,468.915Z" transform="translate(33.149 -465.503)" fill="#ffab1d"/>
          <circle id="Elipse_4517" data-name="Elipse 4517" cx="3.412" cy="3.412" r="3.412" transform="translate(143.937)" fill="#ffab1d"/>
          <circle id="Elipse_4518" data-name="Elipse 4518" cx="3.412" cy="3.412" r="3.412" transform="translate(115.15)" fill="#ffab1d"/>
          <circle id="Elipse_4519" data-name="Elipse 4519" cx="3.412" cy="3.412" r="3.412" transform="translate(86.362)" fill="#ffab1d"/>
          <path id="Trazado_120220" data-name="Trazado 120220" d="M51.416,468.915a3.412,3.412,0,1,1,3.412,3.413A3.412,3.412,0,0,1,51.416,468.915Z" transform="translate(6.159 -465.503)" fill="#ffab1d"/>
          <circle id="Elipse_4520" data-name="Elipse 4520" cx="3.412" cy="3.412" r="3.412" transform="translate(28.788)" fill="#ffab1d"/>
          <circle id="Elipse_4521" data-name="Elipse 4521" cx="3.412" cy="3.412" r="3.412" fill="#ffab1d"/>
        </g>
        <g id="Grupo_60294" data-name="Grupo 60294" transform="translate(14.394 13.648)">
          <path id="Trazado_120221" data-name="Trazado 120221" d="M172.635,457.814a3.412,3.412,0,1,1,3.413,3.41A3.412,3.412,0,0,1,172.635,457.814Z" transform="translate(28.877 -454.401)" fill="#ffab1d"/>
          <path id="Trazado_120222" data-name="Trazado 120222" d="M150.6,457.814a3.412,3.412,0,1,1,3.412,3.41A3.412,3.412,0,0,1,150.6,457.814Z" transform="translate(22.129 -454.401)" fill="#ffab1d"/>
          <path id="Trazado_120223" data-name="Trazado 120223" d="M128.556,457.814a3.412,3.412,0,1,1,3.412,3.41A3.411,3.411,0,0,1,128.556,457.814Z" transform="translate(15.382 -454.401)" fill="#ffab1d"/>
          <path id="Trazado_120224" data-name="Trazado 120224" d="M106.516,457.814a3.412,3.412,0,1,1,3.412,3.41A3.411,3.411,0,0,1,106.516,457.814Z" transform="translate(8.634 -454.401)" fill="#ffab1d"/>
          <path id="Trazado_120225" data-name="Trazado 120225" d="M84.476,457.814a3.412,3.412,0,1,1,3.412,3.41A3.411,3.411,0,0,1,84.476,457.814Z" transform="translate(1.887 -454.401)" fill="#ffab1d"/>
          <path id="Trazado_120226" data-name="Trazado 120226" d="M62.436,457.814a3.412,3.412,0,1,1,3.412,3.41A3.411,3.411,0,0,1,62.436,457.814Z" transform="translate(-4.861 -454.401)" fill="#ffab1d"/>
          <path id="Trazado_120227" data-name="Trazado 120227" d="M40.4,457.814a3.412,3.412,0,1,1,3.412,3.41A3.411,3.411,0,0,1,40.4,457.814Z" transform="translate(-11.608 -454.401)" fill="#ffab1d"/>
          <path id="Trazado_120228" data-name="Trazado 120228" d="M18.356,457.814a3.412,3.412,0,1,1,3.412,3.41A3.411,3.411,0,0,1,18.356,457.814Z" transform="translate(-18.356 -454.401)" fill="#ffab1d"/>
        </g>
        <g id="Grupo_60295" data-name="Grupo 60295" transform="translate(0)">
          <path id="Trazado_120229" data-name="Trazado 120229" d="M161.615,447.365a3.412,3.412,0,1,1,3.413,3.412A3.412,3.412,0,0,1,161.615,447.365Z" transform="translate(39.897 -443.952)" fill="#ffab1d"/>
          <path id="Trazado_120230" data-name="Trazado 120230" d="M139.576,447.365a3.412,3.412,0,1,1,3.41,3.412A3.411,3.411,0,0,1,139.576,447.365Z" transform="translate(33.149 -443.952)" fill="#ffab1d"/>
          <path id="Trazado_120231" data-name="Trazado 120231" d="M117.536,447.365a3.412,3.412,0,1,1,3.412,3.412A3.411,3.411,0,0,1,117.536,447.365Z" transform="translate(26.402 -443.952)" fill="#ffab1d"/>
          <path id="Trazado_120232" data-name="Trazado 120232" d="M95.5,447.365a3.412,3.412,0,1,1,3.412,3.412A3.411,3.411,0,0,1,95.5,447.365Z" transform="translate(19.654 -443.952)" fill="#ffab1d"/>
          <path id="Trazado_120233" data-name="Trazado 120233" d="M73.456,447.365a3.412,3.412,0,1,1,3.412,3.412A3.411,3.411,0,0,1,73.456,447.365Z" transform="translate(12.907 -443.952)" fill="#ffab1d"/>
          <path id="Trazado_120234" data-name="Trazado 120234" d="M51.416,447.365a3.412,3.412,0,1,1,3.412,3.412A3.411,3.411,0,0,1,51.416,447.365Z" transform="translate(6.159 -443.952)" fill="#ffab1d"/>
          <path id="Trazado_120235" data-name="Trazado 120235" d="M29.376,447.365a3.412,3.412,0,1,1,3.412,3.412A3.411,3.411,0,0,1,29.376,447.365Z" transform="translate(-0.588 -443.952)" fill="#ffab1d"/>
          <path id="Trazado_120236" data-name="Trazado 120236" d="M7.336,447.365a3.412,3.412,0,1,1,3.412,3.412A3.411,3.411,0,0,1,7.336,447.365Z" transform="translate(-7.336 -443.952)" fill="#ffab1d"/>
        </g>
      </g>
      <g id="Elipse_5681" data-name="Elipse 5681" transform="translate(-17001.914 -2972.063)" fill="none" stroke="#66e2fb" stroke-width="6">
        <circle cx="39.207" cy="39.207" r="39.207" stroke="none"/>
        <circle cx="39.207" cy="39.207" r="36.207" fill="none"/>
      </g>
      <circle id="Elipse_5685" data-name="Elipse 5685" cx="39.207" cy="39.207" r="39.207" transform="translate(-16686.914 -2765.063)" fill="#ffee93"/>
      <circle id="Elipse_5682" data-name="Elipse 5682" cx="6.856" cy="6.856" r="6.856" transform="translate(-16672.139 -2854.856)" fill="#005bff"/>
    </g>
    <g id="Grupo_840760" data-name="Grupo 840760" transform="translate(537.92 -5889.844)">
      <rect id="Rectángulo_205303" data-name="Rectángulo 205303" width="315.566" height="315.566" transform="translate(262.081 7979)" fill="none"/>
      <g id="Grupo_840761" data-name="Grupo 840761" transform="translate(284.44 8000.31)">
        <g id="Grupo_62104" data-name="Grupo 62104" transform="translate(0 8.506)" opacity="0.4">
          <path id="Trazado_122258" data-name="Trazado 122258" d="M370.789,184.663c25.126,12.443,65.735,12.443,90.7,0,24.973-12.421,24.838-32.574-.3-45.008s-65.73-12.436-90.7,0-24.833,32.586.3,45.008" transform="translate(-351.848 -130.328)" fill="#fcfdfd" opacity="0"/>
          <path id="Trazado_122259" data-name="Trazado 122259" d="M371.245,189.159c23.612,11.913,61.779,11.913,85.244,0,23.47-11.9,23.344-31.2-.28-43.1s-61.777-11.906-85.247,0-23.337,31.208.283,43.1" transform="translate(-349.584 -120.688)" fill="#fdfdfd" opacity="0.167"/>
          <path id="Trazado_122260" data-name="Trazado 122260" d="M371.7,193.655c22.1,11.384,57.821,11.384,79.785,0s21.85-29.815-.264-41.2-57.824-11.381-79.785,0-21.845,29.825.264,41.2" transform="translate(-347.319 -111.049)" fill="#fdfefe" opacity="0.333"/>
          <path id="Trazado_122261" data-name="Trazado 122261" d="M372.158,198.15c20.585,10.854,53.866,10.854,74.328,0s20.353-28.436-.247-39.293-53.868-10.854-74.325,0-20.351,28.444.244,39.293" transform="translate(-345.054 -101.408)" fill="#fefefe" opacity="0.5"/>
          <path id="Trazado_122262" data-name="Trazado 122262" d="M372.614,202.645c19.074,10.329,49.911,10.329,68.868,0s18.859-27.055-.227-37.387-49.913-10.327-68.864,0-18.859,27.063.222,37.387" transform="translate(-342.79 -91.769)" fill="#fefefe" opacity="0.667"/>
          <path id="Trazado_122263" data-name="Trazado 122263" d="M373.071,207.142c17.558,9.8,45.95,9.8,63.407,0s17.367-25.679-.208-35.484-45.962-9.8-63.4,0-17.365,25.682.205,35.484" transform="translate(-340.525 -82.128)" fill="#fff" opacity="0.833"/>
          <path id="Trazado_122264" data-name="Trazado 122264" d="M373.527,211.637c16.047,9.27,42,9.27,57.947,0s15.873-24.3-.189-33.578-42.007-9.272-57.945,0-15.87,24.3.186,33.578" transform="translate(-338.261 -72.489)" fill="#fff"/>
        </g>
        <g id="Grupo_62111" data-name="Grupo 62111" transform="translate(114.195 157.248)">
          <g id="Grupo_62110" data-name="Grupo 62110" style="isolation: isolate">
            <g id="Grupo_62105" data-name="Grupo 62105" transform="translate(7.996 4.216)">
              <path id="Trazado_122265" data-name="Trazado 122265" d="M419.822,204.105l18.117,10.529,18.233-10.529-18.114-10.531Z" transform="translate(-419.822 -193.574)" fill="#b6d119"/>
            </g>
            <g id="Grupo_62106" data-name="Grupo 62106" transform="translate(29.738 16.854)">
              <path id="Trazado_122266" data-name="Trazado 122266" d="M428.815,209.331l18.117,10.531,18.235-10.531L447.049,198.8Z" transform="translate(-428.815 -198.8)" fill="#b6d119"/>
            </g>
            <g id="Grupo_62107" data-name="Grupo 62107" transform="translate(52.929 30.335)">
              <path id="Trazado_122267" data-name="Trazado 122267" d="M438.406,214.9l18.117,10.531L474.758,214.9l-18.117-10.529Z" transform="translate(-438.406 -204.374)" fill="#b6d119"/>
            </g>
            <g id="Grupo_62108" data-name="Grupo 62108" transform="translate(74.656 42.963)">
              <path id="Trazado_122268" data-name="Trazado 122268" d="M447.393,220.127l18.117,10.531,18.235-10.531L465.63,209.6Z" transform="translate(-447.393 -209.596)" fill="#b6d119"/>
            </g>
            <g id="Grupo_62109" data-name="Grupo 62109">
              <path id="Trazado_122269" data-name="Trazado 122269" d="M536.977,246.59l-26.257,15.164-94.2-54.759,26.257-15.164Zm-49.417-3.364,18.235-10.532-18.117-10.528-18.235,10.528,18.117,10.532ZM464.37,229.748l18.235-10.532-18.119-10.53-18.235,10.53,18.119,10.532Zm-21.743-12.641,18.233-10.528-18.114-10.532-18.235,10.532,18.117,10.528Zm66.661,38.751,18.235-10.532L509.407,234.8l-18.235,10.53,18.116,10.532Z" transform="translate(-416.515 -191.831)" fill="#f3f4f4"/>
            </g>
          </g>
        </g>
        <g id="Grupo_62118" data-name="Grupo 62118" transform="translate(147.831 142.316)">
          <g id="Grupo_62117" data-name="Grupo 62117" style="isolation: isolate">
            <g id="Grupo_62112" data-name="Grupo 62112" transform="translate(7.947 4.204)">
              <path id="Trazado_122270" data-name="Trazado 122270" d="M433.714,199.221l18.83,9.19,17.425-11.826-18.835-9.19Z" transform="translate(-433.714 -187.395)" fill="#d51f1c"/>
            </g>
            <g id="Grupo_62113" data-name="Grupo 62113" transform="translate(30.548 15.232)">
              <path id="Trazado_122271" data-name="Trazado 122271" d="M443.061,203.783l18.832,9.187,17.42-11.828-18.83-9.187Z" transform="translate(-443.061 -191.955)" fill="#d51f1c"/>
            </g>
            <g id="Grupo_62114" data-name="Grupo 62114" transform="translate(54.655 26.994)">
              <path id="Trazado_122272" data-name="Trazado 122272" d="M453.032,208.644l18.832,9.19,17.42-11.828-18.832-9.187Z" transform="translate(-453.032 -196.818)" fill="#d51f1c"/>
            </g>
            <g id="Grupo_62115" data-name="Grupo 62115" transform="translate(77.239 38.013)">
              <path id="Trazado_122273" data-name="Trazado 122273" d="M462.373,213.2l18.835,9.188,17.423-11.828-18.83-9.187Z" transform="translate(-462.373 -201.375)" fill="#d51f1c"/>
            </g>
            <g id="Grupo_62116" data-name="Grupo 62116">
              <path id="Trazado_122274" data-name="Trazado 122274" d="M553.444,233.436l-25.087,17.026-97.93-47.777,25.087-17.028Zm-49.531.23,17.42-11.829L502.5,212.649l-17.42,11.826,18.832,9.19ZM479.808,221.9l17.42-11.829-18.83-9.188-17.425,11.829,18.835,9.188Zm-22.6-11.028,17.425-11.826-18.835-9.19-17.42,11.826,18.83,9.19Zm69.3,33.81,17.423-11.829-18.83-9.188L507.666,235.5l18.835,9.188Z" transform="translate(-430.427 -185.657)" fill="#f3f4f4"/>
            </g>
          </g>
        </g>
        <path id="Trazado_122276" data-name="Trazado 122276" d="M491.886,281.785,503.6,170.223l-113.095.522L402.2,284.957h.29c1.081,5.7,5.387,11.243,12.952,15.611,17.58,10.15,45.989,10.148,63.44,0,7.028-4.08,11.163-9.193,12.51-14.5h.046l.034-.324A15.534,15.534,0,0,0,491.886,281.785Z" transform="translate(-303.852 -65.234)" fill="#d2feff"/>
        <g id="Grupo_62120" data-name="Grupo 62120" transform="translate(104.802 191.034)">
          <path id="Trazado_122277" data-name="Trazado 122277" d="M463.478,212.318c15.046,8.692,15.128,22.772.174,31.469s-39.258,8.687-54.306,0-15.121-22.782-.181-31.469C424.121,203.629,448.427,203.629,463.478,212.318Z" transform="translate(-398.009 -205.801)" fill="#298bed"/>
        </g>
        <path id="Trazado_122278" data-name="Trazado 122278" d="M480.268,274.538l-76.389-.952L393.87,175.815l96.811-.444Z" transform="translate(-299.076 -57.931)" fill="#298bed"/>
        <g id="Grupo_62121" data-name="Grupo 62121" transform="translate(94.793 88.989)">
          <path id="Trazado_122279" data-name="Trazado 122279" d="M476.4,171.82c18.97,10.958,19.069,28.717.222,39.675s-49.5,10.956-68.465,0-19.062-28.724-.227-39.67C426.784,160.869,457.432,160.869,476.4,171.82Z" transform="translate(-393.869 -163.607)" fill="#298bed"/>
        </g>
        <g id="Grupo_62122" data-name="Grupo 62122" transform="translate(109.777 141.515)">
          <path id="Trazado_122280" data-name="Trazado 122280" d="M401.693,195.16c-.66,5.9,2.372,11.081,6.758,11.572s8.489-3.9,9.137-9.8c.67-5.9-2.36-11.077-6.753-11.572S402.348,189.256,401.693,195.16Z" transform="translate(-397.89 -185.326)" fill="#fff" opacity="0.5"/>
          <path id="Trazado_122281" data-name="Trazado 122281" d="M400.118,200.579c.336,2.764,2.348,4.793,4.48,4.535s3.6-2.716,3.252-5.485-2.345-4.8-4.485-4.535S399.772,197.807,400.118,200.579Z" transform="translate(-400.067 -171.504)" fill="#fff" opacity="0.5"/>
        </g>
        <path id="Trazado_122282" data-name="Trazado 122282" d="M395.73,283.39c1.081,5.7,5.387,11.243,12.952,15.611,17.58,10.15,45.989,10.148,63.44,0,7.029-4.08,11.163-9.193,12.51-14.5h.046l.034-.324a15.529,15.529,0,0,0,.418-3.964l11.487-108.889-7.9,3.724s-4.035,83.911-44.763,105.22c-25.87,13.543-41.11,3.359-48.685,1.405l.174,1.712Z" transform="translate(-297.097 -63.666)" opacity="0.1"/>
        <g id="Grupo_62123" data-name="Grupo 62123" transform="translate(85.333 65.258)">
          <path id="Trazado_122283" data-name="Trazado 122283" d="M488.613,163.615c22.667,13.094,22.785,34.323.264,47.417s-59.171,13.091-81.837,0-22.793-34.321-.266-47.417S465.941,150.521,488.613,163.615Z" transform="translate(-389.957 -153.794)" fill="#89d2f5"/>
        </g>
        <g id="Grupo_62124" data-name="Grupo 62124" transform="translate(94.964 70.526)">
          <path id="Trazado_122284" data-name="Trazado 122284" d="M477.1,164.249c19.11,11.035,19.21,28.932.227,39.968s-49.877,11.038-68.987,0-19.217-28.93-.225-39.968S457.994,153.214,477.1,164.249Z" transform="translate(-393.94 -155.973)" fill="#298bed"/>
        </g>
        <path id="Trazado_122285" data-name="Trazado 122285" d="M407.049,192.139c19.11,11.038,50,11.04,68.987,0a34.6,34.6,0,0,0,9.386-7.691c-2.285-4.273-6.347-8.3-12.2-11.684-19.108-11.035-50-11.035-68.984,0a34.565,34.565,0,0,0-9.386,7.7C397.133,184.733,401.2,188.758,407.049,192.139Z" transform="translate(-297.685 -73.369)" fill="#0467d8"/>
        <path id="Trazado_122286" data-name="Trazado 122286" d="M428.147,181.634s7.894,15.759,4.321,25.234-7.657,8.032-7.657,16.421,1.6,8.745,4.628,18.24-1.8,16.53-8.656,21.074-17.476,16.506-17.476,16.506,21.407,11.775,45.28,2.552c0,0-14.606-10.7-13.346-19.058s4.884-11.761,2.062-18.119-6.825-11.045.617-21.2,13.794-21.549-2.679-41.849Z" transform="translate(-285.696 -49.321)" fill="#b6d119"/>
        <path id="Trazado_122287" data-name="Trazado 122287" d="M441.85,178.876c0,3.862-7.009,6.994-15.658,6.994s-21.908-3.376-21.908-7.238,2.834-9.023,11.484-9.023S441.85,175.011,441.85,178.876Z" transform="translate(-284.309 -66.106)" fill="#b6d119"/>
        <path id="Trazado_122288" data-name="Trazado 122288" d="M404.328,174.593l20.7,13.887,8.063.073s7.778-10.915,8.694-14.281S404.328,174.593,404.328,174.593Z" transform="translate(-284.248 -61.502)" fill="#b6d119"/>
        <g id="Grupo_62169" data-name="Grupo 62169" transform="translate(38.447 0)">
          <g id="Grupo_62125" data-name="Grupo 62125" transform="translate(0 122.404)" opacity="0.1">
            <path id="Trazado_122289" data-name="Trazado 122289" d="M375.163,181.546c-9.84,5.492-9.891,14.4-.114,19.89s25.689,5.492,35.534,0,9.9-14.4.119-19.892S385.011,176.051,375.163,181.546Z" transform="translate(-367.75 -177.423)"/>
          </g>
          <path id="Trazado_122290" data-name="Trazado 122290" d="M379.36,141.62c-1.572,1.579-1.838,5.966,4.64,6.344s20.242,1.734,21.934-.249c1.373-1.611,2.4-5.033-5.679-6.153S383.242,137.731,379.36,141.62Z" transform="translate(-352.618 -108.676)" fill="#dddada"/>
          <g id="Grupo_62127" data-name="Grupo 62127" transform="translate(23.538 124.546)">
            <g id="Grupo_62126" data-name="Grupo 62126">
              <path id="Trazado_122291" data-name="Trazado 122291" d="M378.056,179.477s-1.284,3,0,3.78,1.463,1.62,3.523,1.454,1.76.515,2.466,1.282,8,3.954,9.371,2.4-2.493-3.357-3.861-4.252-4.635-4.5-4.722-5.531S378.056,179.477,378.056,179.477Z" transform="translate(-377.485 -178.309)" fill="#111114"/>
            </g>
          </g>
          <g id="Grupo_62129" data-name="Grupo 62129" transform="translate(23.537 125.904)">
            <g id="Grupo_62128" data-name="Grupo 62128">
              <path id="Trazado_122292" data-name="Trazado 122292" d="M378.056,182.46c1.286.767,1.463,1.62,3.523,1.453s1.76.515,2.466,1.282,8,3.954,9.371,2.4a1.142,1.142,0,0,0-.123-1.625c-.505.087-1.211.218-2.14.38-2.14.372-4.91-2.1-5.969-3.018s-2.413-.566-4.255-.871-1.586-3.12-1.586-3.12l-1.364-.474C377.725,179.543,376.966,181.795,378.056,182.46Z" transform="translate(-377.485 -178.871)" fill="#0a0a0a"/>
            </g>
          </g>
          <g id="Grupo_62131" data-name="Grupo 62131" transform="translate(11.001 135.46)">
            <g id="Grupo_62130" data-name="Grupo 62130">
              <path id="Trazado_122293" data-name="Trazado 122293" d="M372.409,182.822s-.551,3.548.817,5.473,4.357,5.243,5.653,5.093,1.506-.733,1.506-.733a12.942,12.942,0,0,0-.411-5.763,18.179,18.179,0,0,1-1.02-4.07Z" transform="translate(-372.3 -182.822)" fill="#111114"/>
            </g>
          </g>
          <g id="Grupo_62133" data-name="Grupo 62133" transform="translate(11.001 135.46)">
            <g id="Grupo_62132" data-name="Grupo 62132">
              <path id="Trazado_122294" data-name="Trazado 122294" d="M373.227,188.295c1.2,1.686,3.658,4.457,5.116,5-1.922-2.472.962-1.961-1.209-3.137-2.979-1.618-1.076-2.965-2.4-3.342s-.358-3.662-.358-3.662l-.718-.331h-1.245S371.858,186.37,373.227,188.295Z" transform="translate(-372.3 -182.822)" fill="#0a0a0a"/>
            </g>
          </g>
          <g id="Grupo_62135" data-name="Grupo 62135" transform="translate(23.539 72.509)">
            <g id="Grupo_62134" data-name="Grupo 62134">
              <path id="Trazado_122295" data-name="Trazado 122295" d="M380.444,162.752s6.5-1.42,8.559-5.959a150.431,150.431,0,0,1-.682,21.616c-1.238,11.611-2.268,32.028-2.268,32.028s-3.965,3.729-8.058,0c0,0-1.146-13.481,0-20.954,0,0-.767-13.077.51-19.614S380.444,162.752,380.444,162.752Z" transform="translate(-377.485 -156.793)" fill="#471bce"/>
            </g>
          </g>
          <g id="Grupo_62137" data-name="Grupo 62137" transform="translate(27.288 71.365)">
            <g id="Grupo_62136" data-name="Grupo 62136">
              <path id="Trazado_122296" data-name="Trazado 122296" d="M383.855,211.108s1.03-20.417,2.268-32.028a166.377,166.377,0,0,0,.682-22.76,13.336,13.336,0,0,1-7.316,6.406c.143,4.433.824,17.227.757,21.568-.065,4.131-.861,21.237-1.209,28.427A6.516,6.516,0,0,0,383.855,211.108Z" transform="translate(-379.036 -156.32)" fill="#632bee"/>
            </g>
          </g>
          <g id="Grupo_62139" data-name="Grupo 62139" transform="translate(9.82 76.299)">
            <g id="Grupo_62138" data-name="Grupo 62138">
              <path id="Trazado_122297" data-name="Trazado 122297" d="M374.545,158.36s-.658,7.5-.781,18.049-.9,14.523-1.156,16.141-1.156,19.273-.641,24.424c0,0,3.329,5.149,8.576,0,0,0,.89-18.1,1.789-22.216s5.907-24.124,7.926-31.307c.895-3.173,1.107-4.373,1.107-4.373S382.6,164.716,374.545,158.36Z" transform="translate(-371.811 -158.36)" fill="#471bce"/>
            </g>
          </g>
          <g id="Grupo_62141" data-name="Grupo 62141" transform="translate(13.67 75.525)">
            <g id="Grupo_62140" data-name="Grupo 62140">
              <path id="Trazado_122298" data-name="Trazado 122298" d="M378.286,217.428s.89-18.1,1.789-22.216S385.982,171.088,388,163.9a16.637,16.637,0,0,1,3.392-5.865s-6.223,4.319-11.243,4.3c-.223,1.555-2.345,16.329-2.848,22.78-.493,6.409-4.874,28.937-3.7,34.589C374.9,219.745,376.475,219.2,378.286,217.428Z" transform="translate(-373.403 -158.04)" fill="#632bee"/>
            </g>
          </g>
          <g id="Grupo_62143" data-name="Grupo 62143" transform="translate(9.634 31.435)">
            <g id="Grupo_62142" data-name="Grupo 62142">
              <path id="Trazado_122299" data-name="Trazado 122299" d="M382.364,142.145c-2.539,1.221-9.427,5.081-9.652,5.821s-2.645,2.564,1.081,10.861c0,0,4.939,8.994,2.771,18.143-1.255,5.3-2.217,5.429-1.985,7.529.442,4.034,10.2,4.813,15.73,2.09,2.295-1.129,5.822-3.127,6.983-5.792a91.006,91.006,0,0,1,.508-18.049c1.281-9.125,1.845-20.934-3.349-22.381C394.451,140.367,390.362,138.292,382.364,142.145Z" transform="translate(-371.734 -139.809)" fill="#61d2c9"/>
            </g>
          </g>
          <g id="Grupo_62145" data-name="Grupo 62145" transform="translate(19.556 33.541)">
            <g id="Grupo_62144" data-name="Grupo 62144">
              <path id="Trazado_122300" data-name="Trazado 122300" d="M391.474,179.562a91,91,0,0,1,.508-18.049c1.059-7.6,1.627-17.057-1.221-20.833-1.216,1.091-3.6,3.567-4.1,6.467-.672,3.932-5.051,6.249-7.224,6.827s-4.093,4.443-1.83,9.693c5.37,12.455,2.877,17.522-1.77,23.266,4.279-.024,5.215-.085,8.634-1.429C386.853,184.563,390.313,182.227,391.474,179.562Z" transform="translate(-375.838 -140.68)" fill="#61d2c9"/>
            </g>
          </g>
          <path id="Trazado_122301" data-name="Trazado 122301" d="M379.6,143.973s11.883,7.4,1.4,69.347c0,0,6.185-1.746,9.168-6.658,0,0-.525-26.847,0-34.741s2.737-36.292-8.278-31.834C381.894,140.087,375.86,141.995,379.6,143.973Z" transform="translate(-352.682 -108.65)" fill="#dddada"/>
          <path id="Trazado_122302" data-name="Trazado 122302" d="M384.009,141.249s16.83,13.125,2.744,72.9c0,0-11.192,5.55-17.246-2.871,0,0,3.825-26.888,6.753-33.576,2.331-5.335,4.7-12.02-1.886-23.341C374.374,154.357,368.779,145.709,384.009,141.249Z" transform="translate(-365.258 -106.332)" fill="#dddada"/>
          <path id="Trazado_122303" data-name="Trazado 122303" d="M379.036,144.682s8.075,11.188,4.9,37.82c0,0,2.676-21.111,3.726-23.217l-2.1-1.229,1.373-4.735s-1.867-8.832-5.97-13.705Z" transform="translate(-351.748 -108.65)" fill="#c4c4c4"/>
          <g id="Grupo_62161" data-name="Grupo 62161" transform="translate(17.096 14.888)">
            <g id="Grupo_62147" data-name="Grupo 62147" transform="translate(1.63 11.908)">
              <g id="Grupo_62146" data-name="Grupo 62146">
                <path id="Trazado_122304" data-name="Trazado 122304" d="M375.577,137.891s2.7,4.564.259,7.444c-1.368,1.608,1.487,5.71,6.692,5.63,0,0,2.341-.464,2.142-1.311-.445-1.935.37-2.98,1.26-4.4S375.577,137.891,375.577,137.891Z" transform="translate(-375.495 -137.891)" fill="#efb185"/>
              </g>
            </g>
            <g id="Grupo_62149" data-name="Grupo 62149" transform="translate(1.655 12.215)">
              <g id="Grupo_62148" data-name="Grupo 62148">
                <path id="Trazado_122305" data-name="Trazado 122305" d="M375.822,145.155a1.5,1.5,0,0,0-.317.677c2.048-1.894,5.781-1.867,5.781-1.867l-4.669-5.683c-.189-.1-.353-.189-.488-.264l-.172.474C376.6,139.924,377.652,143.007,375.822,145.155Z" transform="translate(-375.505 -138.018)" fill="#dd9569"/>
              </g>
            </g>
            <g id="Grupo_62151" data-name="Grupo 62151" transform="translate(7.525 17.294)">
              <g id="Grupo_62150" data-name="Grupo 62150">
                <path id="Trazado_122306" data-name="Trazado 122306" d="M381.214,146.5c-.343-3.057.37-2.98,1.26-4.4.249-.392-.428-1.12-1.53-1.976a3.681,3.681,0,0,0-.882.914c-2.152,3.006-2.246,5.422-2.067,6.728a5.3,5.3,0,0,0,1.078.046C379.691,147.741,381.327,147.441,381.214,146.5Z" transform="translate(-377.933 -140.118)" fill="#f2b78f"/>
              </g>
            </g>
            <g id="Grupo_62160" data-name="Grupo 62160">
              <g id="Grupo_62153" data-name="Grupo 62153" transform="translate(0.483 0.209)">
                <g id="Grupo_62152" data-name="Grupo 62152">
                  <path id="Trazado_122307" data-name="Trazado 122307" d="M375.276,142.225s1,5.913,4.906,8.76c3.465,2.518,7.546,4.252,8.5.022.774-3.355,2.829-11.9-.085-13.776-3.752-2.4-5.031-5.226-9.574-3.785C379.026,133.446,373.825,135.552,375.276,142.225Z" transform="translate(-375.02 -133.054)" fill="#efb185"/>
                </g>
              </g>
              <g id="Grupo_62155" data-name="Grupo 62155" transform="translate(0.486 2.149)">
                <g id="Grupo_62154" data-name="Grupo 62154">
                  <path id="Trazado_122308" data-name="Trazado 122308" d="M375.274,141.087a13.176,13.176,0,0,0,4.881,8.832,16.976,16.976,0,0,0,3.3,1.957,15.927,15.927,0,0,1-3.366-3.669c-1.38-1.765,2.21-.941-.063-5.384-.774-1.521,3.264.573,4.195.59,5.5.116,5.234-3.05,5.4-4.373a8.93,8.93,0,0,0-.382-1.652l-.469-1.021c-.063-.094-.114-.189-.177-.276a18.13,18.13,0,0,0-1.69-2.039c-2.352-.06-9.047-.223-9.185-.2-.09.017-1.31,1.524-2.449,2.96A9.077,9.077,0,0,0,375.274,141.087Z" transform="translate(-375.021 -133.856)" fill="#e6a376"/>
                </g>
              </g>
              <g id="Grupo_62157" data-name="Grupo 62157">
                <g id="Grupo_62156" data-name="Grupo 62156">
                  <path id="Trazado_122309" data-name="Trazado 122309" d="M377.716,148.128s-4.26-4.288-2.445-10.083a6.847,6.847,0,0,1,6.3-5.055,7.886,7.886,0,0,1,8.445,5.741c.525,1.606-.015,5.562-6.129,3.666-.875-.271-2.686-1.625-3.549-.912a3.237,3.237,0,0,0-.677,3.33c.3,1.066-.629,1.137-.747.907s-1.158-3.277-2.34-2.152C375.513,144.577,377.616,147.922,377.716,148.128Z" transform="translate(-374.821 -132.967)" fill="#231202"/>
                </g>
              </g>
              <g id="Grupo_62159" data-name="Grupo 62159" transform="translate(0 1.794)">
                <g id="Grupo_62158" data-name="Grupo 62158">
                  <path id="Trazado_122310" data-name="Trazado 122310" d="M377.716,147.076c-.1-.206-2.2-3.55-1.144-4.556,1.182-1.125,2.232,1.92,2.34,2.152s1.049.16.747-.907a3.237,3.237,0,0,1,.677-3.33c.783-.648,2.345.4,3.281.81a7.8,7.8,0,0,1-2.882-3.606,6.088,6.088,0,0,0-3.474-3.93,7.023,7.023,0,0,0-1.99,3.284C373.455,142.788,377.716,147.076,377.716,147.076Z" transform="translate(-374.821 -133.709)" fill="#301806"/>
                </g>
              </g>
            </g>
          </g>
          <path id="Trazado_122311" data-name="Trazado 122311" d="M379.63,140.969s11.4,11.4,7.628,42.06c0,0-2.082-19.174-5.2-22.156l2.043-2.455-3.982-1.93s-2.889-10.98-7.3-12.071C372.819,144.418,376.675,141.039,379.63,140.969Z" transform="translate(-360.562 -106.729)" fill="#c4c4c4"/>
          <g id="Grupo_62165" data-name="Grupo 62165" transform="translate(31.473)">
            <path id="Trazado_122312" data-name="Trazado 122312" d="M398.456,130.622l-.044-.053-.041-.048v0a9.9,9.9,0,0,0-17.526,4.8,9.7,9.7,0,0,0,3.01,8.3l35.5,43.356a3.553,3.553,0,0,1-.394-.622c-.024-.058-.051-.106-.072-.164a3.347,3.347,0,0,1-.242-.723,3.806,3.806,0,0,1-.085-.566.3.3,0,0,1,0-.048c-.01-.177-.01-.356,0-.539a.742.742,0,0,1,0-.1,3.439,3.439,0,0,1,.063-.583.912.912,0,0,0,.014-.1c.034-.206.077-.411.131-.629a.264.264,0,0,0,.019-.068c.065-.23.135-.467.227-.7v0l.007-.017c.089-.247.2-.486.307-.73a.421.421,0,0,0,.034-.082c.121-.242.239-.476.37-.711.01-.007.012-.022.024-.031.123-.23.271-.462.426-.694a.616.616,0,0,1,.041-.06c.15-.23.309-.452.474-.677l.031-.031c.179-.23.358-.455.546-.677a.564.564,0,0,0,.051-.056c.184-.215.382-.428.578-.638l.019-.017c.208-.21.418-.416.641-.617a.9.9,0,0,1,.07-.068c.176-.16.358-.322.549-.476.046-.041.1-.087.15-.128.116-.094.237-.184.351-.271.143-.114.278-.22.425-.324.222-.162.445-.322.679-.469l.012-.01,0,0c.254-.162.5-.319.764-.464l.029-.017,0,0c.254-.148.51-.283.771-.411a.573.573,0,0,0,.065-.034c.242-.119.491-.23.735-.334a.425.425,0,0,0,.092-.036c.239-.1.491-.193.737-.276a.643.643,0,0,1,.072-.024c.254-.087.513-.165.769-.23l.036-.012c.271-.065.544-.123.808-.167a7.525,7.525,0,0,1,.766-.094.362.362,0,0,1,.051,0,5.937,5.937,0,0,1,.713-.022l.034,0c.222.007.435.027.638.053l.06,0a5.692,5.692,0,0,1,.573.123.216.216,0,0,1,.056.019,3.407,3.407,0,0,1,.5.169c.036.015.068.031.1.044a4.667,4.667,0,0,1,.464.239.99.99,0,0,0,.085.065,3.283,3.283,0,0,1,.341.252,3.887,3.887,0,0,1,.409.414Z" transform="translate(-380.767 -126.811)" fill="#2bb4da"/>
            <path id="Trazado_122313" data-name="Trazado 122313" d="M383.854,141.167l25.029,30.567,6.091-5.2-32.449-37.984a9.586,9.586,0,0,0-1.68,4.322A9.7,9.7,0,0,0,383.854,141.167Z" transform="translate(-380.767 -124.352)" fill="#27a7c4"/>
            <path id="Trazado_122314" data-name="Trazado 122314" d="M389.774,145.811a2.794,2.794,0,0,1,.128-.3c.022-.051.051-.1.07-.152a.431.431,0,0,0,.022-.046.646.646,0,0,1,.053-.109c.048-.1.1-.2.15-.3s.114-.208.169-.307.121-.206.181-.307.128-.208.193-.312a.968.968,0,0,0,.073-.111c.014-.022.029-.044.041-.065a1.557,1.557,0,0,1,.1-.133c.07-.106.143-.208.215-.312.053-.073.109-.148.162-.218.017-.019.027-.036.044-.056l.024-.031c.077-.1.152-.2.232-.3s.155-.2.234-.29l.053-.051a.306.306,0,0,1,.034-.044c.056-.06.1-.116.16-.177.08-.089.157-.176.242-.268.058-.063.118-.123.176-.184l.044-.046.031-.029c.08-.089.167-.177.259-.264s.191-.186.293-.278a.23.23,0,0,0,.048-.048c.017-.012.032-.031.053-.046.082-.073.162-.148.246-.218a3.819,3.819,0,0,1,.3-.256c.056-.051.114-.1.172-.148a.334.334,0,0,0,.051-.051c.09-.065.181-.131.271-.2.14-.114.288-.225.438-.336a.481.481,0,0,1,.068-.048c.2-.15.416-.293.629-.433.14-.089.285-.184.43-.266.118-.075.234-.145.36-.213v0l0,0c.119-.068.242-.135.36-.2s.242-.126.36-.184a.655.655,0,0,1,.058-.031.473.473,0,0,0,.06-.031c.082-.036.164-.08.249-.119.126-.058.249-.114.375-.169l.121-.046a.413.413,0,0,1,.085-.034c.056-.027.116-.053.179-.077q.2-.076.384-.145c.058-.019.114-.039.179-.058.022-.007.046-.014.068-.024.046-.015.087-.029.133-.046.121-.036.242-.075.365-.111l.268-.07a.149.149,0,0,1,.039-.01l.051-.015c.114-.024.225-.056.341-.077s.227-.044.341-.068l.075-.01c.085-.017.167-.031.252-.041l.314-.039c.075-.007.143-.01.215-.012l.027-.007a.593.593,0,0,0,.068,0c.1,0,.2-.012.3-.015s.2,0,.3,0l.06,0h.031l.2.007c.1.007.2.015.3.029.043,0,.094.012.145.017l.051.007.09.015c.1.019.206.039.3.063.063.012.118.029.179.044a.279.279,0,0,1,.058.017.234.234,0,0,1,.065.017c.106.029.208.065.312.1.039.019.085.039.126.056s.068.029.1.046l.1.041a3.178,3.178,0,0,1,.355.2l.01,0a.35.35,0,0,1,.051.039,3.179,3.179,0,0,1,.343.249l.027.022a3.288,3.288,0,0,1,.406.416l37.386,45.668a3.177,3.177,0,0,0-.411-.416,3.252,3.252,0,0,0-.339-.254.649.649,0,0,1-.082-.065,4.168,4.168,0,0,0-.464-.235l-.1-.048a4.412,4.412,0,0,0-.5-.172.549.549,0,0,0-.06-.015,5.1,5.1,0,0,0-.573-.126l-.056,0c-.205-.027-.416-.046-.638-.053l-.036,0c-.23,0-.471,0-.711.017a.312.312,0,0,1-.044,0c-.254.022-.513.048-.776.092s-.534.1-.808.172l-.036.01c-.254.068-.513.143-.766.232a.2.2,0,0,0-.073.024c-.249.082-.5.172-.74.276l-.087.034c-.251.106-.493.218-.737.334l-.07.036c-.259.128-.517.264-.771.409v0l-.027.019c-.259.145-.513.3-.764.467l-.007,0-.01.007c-.23.15-.459.307-.677.469-.143.1-.283.213-.428.324-.114.089-.237.179-.348.273-.051.044-.106.085-.155.128-.184.155-.365.317-.544.474-.022.024-.051.043-.07.063-.225.2-.435.411-.641.626l-.022.017c-.193.206-.389.418-.58.636a.468.468,0,0,1-.046.053c-.2.225-.377.447-.546.677l-.029.034c-.164.22-.329.445-.476.675l-.043.06c-.15.232-.3.462-.428.7l-.019.031c-.128.237-.251.472-.372.711a.581.581,0,0,1-.034.082c-.111.242-.218.486-.3.728l0,.019h0a6.931,6.931,0,0,0-.223.706l-.022.065c-.056.218-.1.423-.131.629l-.019.1a4.875,4.875,0,0,0-.06.588.741.741,0,0,0,0,.1,4.94,4.94,0,0,0,.007.535l0,.053a5.278,5.278,0,0,0,.082.566,4.087,4.087,0,0,0,.242.723c.029.056.051.106.077.162.106.22.225.167.382.356l-37.377-45.4a3.092,3.092,0,0,1-.389-.622c-.024-.053-.058-.106-.082-.16a4.031,4.031,0,0,1-.237-.728l0,0a3.547,3.547,0,0,1-.082-.537v-.024a.155.155,0,0,0,0-.046c0-.116-.01-.235-.012-.358,0-.06.007-.121,0-.186,0-.031,0-.06,0-.094s0-.065,0-.1c.012-.121.027-.242.041-.365.007-.041.014-.092.024-.133l.01-.082c0-.039.012-.08.019-.126.022-.109.048-.218.075-.327a1.41,1.41,0,0,1,.048-.181l.012-.073a.326.326,0,0,0,.017-.073c.034-.1.063-.206.1-.312a2.718,2.718,0,0,1,.111-.317l0-.019Q389.713,145.956,389.774,145.811Z" transform="translate(-368.836 -112.072)" fill="#edf9f5"/>
            <path id="Trazado_122315" data-name="Trazado 122315" d="M436.2,180.956a9.612,9.612,0,0,1-1.622,4.232,3.07,3.07,0,0,1,.679,2.339,3.163,3.163,0,0,1-5.684,1.427,9.928,9.928,0,0,1-9.62-1.879l-24.79-30.158c3.017-9.485,12.706-12.051,15.264-12.175l23.237,28.388A9.685,9.685,0,0,1,436.2,180.956Z" transform="translate(-360.363 -101.378)" fill="#ffce00"/>
            <g id="Grupo_62164" data-name="Grupo 62164" transform="translate(13.27 17.581)">
              <g id="Grupo_62162" data-name="Grupo 62162">
                <path id="Trazado_122316" data-name="Trazado 122316" d="M403.215,134.255c-6.647,1.1-13.922,7.067-16.24,13.331s1.177,10.453,7.824,9.36c6.671-1.1,13.946-7.072,16.264-13.331S409.881,133.157,403.215,134.255Z" transform="translate(-386.255 -134.081)" fill="#abd9ce"/>
              </g>
              <g id="Grupo_62163" data-name="Grupo 62163" transform="translate(1.726 1.63)">
                <path id="Trazado_122317" data-name="Trazado 122317" d="M403.1,134.925c-6.318,1.052-13.228,6.75-15.442,12.724s1.1,9.957,7.408,8.9c6.337-1.059,13.254-6.75,15.467-12.726S409.423,133.868,403.1,134.925Z" transform="translate(-386.969 -134.755)" fill="#edf9f5"/>
              </g>
            </g>
            <path id="Trazado_122318" data-name="Trazado 122318" d="M401.286,136.271c4.439-.74,7.053,1.613,6.472,5.422l-1.294-1.582a3.28,3.28,0,0,0-.406-.416l-.027-.022a3.187,3.187,0,0,0-.343-.249.362.362,0,0,0-.051-.039l-.01,0a3.149,3.149,0,0,0-.355-.2l-.1-.041c-.031-.017-.065-.031-.1-.046s-.087-.036-.126-.056c-.1-.036-.206-.073-.312-.1a.234.234,0,0,0-.065-.017.284.284,0,0,0-.058-.017c-.06-.014-.116-.031-.179-.044-.1-.024-.2-.044-.3-.063l-.09-.015-.051-.007c-.051,0-.1-.012-.145-.017-.1-.015-.2-.022-.3-.029l-.2-.007h-.031l-.06,0c-.094,0-.2,0-.3,0s-.2.01-.3.015a.577.577,0,0,1-.068,0l-.027.007c-.072,0-.14,0-.215.012l-.314.039c-.085.01-.167.024-.252.041l-.075.01c-.113.024-.227.044-.341.068s-.227.053-.341.077l-.051.015a.153.153,0,0,0-.039.01l-.268.07c-.123.036-.244.075-.365.111-.046.017-.087.031-.133.046-.022.01-.046.017-.068.024-.065.019-.121.039-.179.058q-.189.069-.384.145c-.063.024-.123.051-.179.077a.411.411,0,0,0-.085.034l-.121.046c-.126.056-.249.111-.375.169-.085.039-.167.082-.249.118a.48.48,0,0,1-.06.031c-.017.01-.041.019-.058.031-.118.058-.239.118-.36.184s-.242.131-.36.2l0,0v0c-.126.068-.242.138-.36.213-.145.082-.29.177-.43.266-.213.14-.425.283-.629.433a.478.478,0,0,0-.068.048c-.15.111-.3.222-.438.336-.089.07-.181.135-.271.2a.336.336,0,0,1-.051.051c-.058.046-.116.1-.172.148a3.816,3.816,0,0,0-.3.256c-.085.07-.164.145-.247.218-.022.015-.036.034-.053.046a.231.231,0,0,1-.048.048c-.1.092-.2.186-.292.278s-.179.174-.259.264l-.031.029-.044.046c-.058.06-.119.121-.177.184-.085.092-.162.179-.242.268-.056.06-.1.116-.16.177a.3.3,0,0,0-.034.044l-.053.051c-.08.094-.157.193-.234.29s-.155.2-.232.3l-.024.031c-.017.019-.027.036-.043.056-.053.07-.109.145-.162.218-.072.1-.145.206-.215.312a1.53,1.53,0,0,0-.1.133c-.012.022-.027.044-.041.065a.953.953,0,0,1-.073.111c-.065.1-.133.206-.193.312s-.121.2-.181.307-.114.206-.169.307-.1.2-.15.3a.664.664,0,0,0-.053.109.4.4,0,0,1-.022.046c-.019.053-.048.1-.07.152a2.833,2.833,0,0,0-.128.3q-.062.145-.116.29l0,.019a2.738,2.738,0,0,0-.111.317c-.039.106-.068.208-.1.312a.329.329,0,0,1-.017.073l-.012.073a1.459,1.459,0,0,0-.048.181c-.026.109-.053.218-.075.327-.007.046-.014.087-.019.126l-.01.082c-.01.041-.017.092-.024.133-.015.123-.029.244-.041.365,0,.036,0,.065,0,.1s0,.063,0,.094c0,.065,0,.126,0,.186,0,.123.007.242.012.358a.155.155,0,0,1,0,.046v.024a3.562,3.562,0,0,0,.082.537l0,0a4,4,0,0,0,.237.73c.024.053.058.106.082.16a3.092,3.092,0,0,0,.389.622l1.129,1.388c-3.561-.353-5.206-3.255-3.709-7.3C390.57,141.739,396.168,137.127,401.286,136.271Z" transform="translate(-370.198 -113.586)" fill="#abd9ce"/>
            <path id="Trazado_122319" data-name="Trazado 122319" d="M411.372,164.216s-3.5,5.292-.945,7.473S413.5,167.1,411.372,164.216Z" transform="translate(-340.038 -73.754)" fill="#ffce00"/>
            <path id="Trazado_122320" data-name="Trazado 122320" d="M391.95,139.566a.307.307,0,0,0-.034.044l-.053.051c-.08.094-.157.193-.234.29s-.155.2-.232.3l-.024.031c-.017.019-.027.036-.044.056-.053.07-.109.145-.162.218-.073.1-.145.206-.215.312a1.553,1.553,0,0,0-.1.133c-.012.022-.027.044-.041.065a.974.974,0,0,1-.073.111c-.065.1-.133.206-.193.312s-.121.2-.181.307-.114.206-.169.307-.1.2-.15.3a.646.646,0,0,0-.053.109.436.436,0,0,1-.022.046c-.019.053-.048.1-.07.152a2.792,2.792,0,0,0-.128.3q-.062.145-.116.29l0,.019a2.716,2.716,0,0,0-.111.317c-.039.106-.068.208-.1.312a.326.326,0,0,1-.017.073l-.012.073a1.409,1.409,0,0,0-.048.181c-.027.109-.053.218-.075.326-.007.046-.015.087-.019.126l-.01.082c-.01.041-.017.092-.024.133-.015.123-.029.244-.041.365,0,.036,0,.065,0,.1s0,.063,0,.094c0,.065,0,.126,0,.186,0,.123.007.242.012.358a.155.155,0,0,1,0,.046v.024a3.547,3.547,0,0,0,.082.537l0,0a4,4,0,0,0,.237.73c.024.053.058.106.082.16a3.091,3.091,0,0,0,.389.622l13.661,16.591-.022.051,23.39,28.453a.437.437,0,0,0,.075.094l1.325,1.611a9.928,9.928,0,0,0,9.621,1.879,3.159,3.159,0,0,0,2.154,1.27,3.208,3.208,0,0,0,.341.01L392.3,139.174c-.065.075-.133.143-.193.215S392.006,139.505,391.95,139.566Z" transform="translate(-368.836 -109.276)" fill="#fff" opacity="0.2"/>
          </g>
          <g id="Grupo_62168" data-name="Grupo 62168" transform="translate(8.648 31.273)">
            <path id="Trazado_122321" data-name="Trazado 122321" d="M372.97,144c-1.961,1.1-3.339,5.384,3,7.654s19.652,7.657,21.838,6.184c1.777-1.195,3.665-4.293-4.076-7.773S377.807,141.282,372.97,144Z" transform="translate(-371.326 -134.76)" fill="#dddada"/>
            <g id="Grupo_62167" data-name="Grupo 62167" transform="translate(38.244)">
              <g id="Grupo_62166" data-name="Grupo 62166">
                <path id="Trazado_122322" data-name="Trazado 122322" d="M389.1,148.206a29.955,29.955,0,0,1,4.393-1.632c.921-.089,2.606-1.971,2.984-3.084s1.064-4.206-.592-3.691-2.319,1.115-3.4,1.287A7.419,7.419,0,0,0,389.076,143c-.462.634-1.932,2.665-1.932,2.665Z" transform="translate(-387.144 -139.742)" fill="#efb185"/>
              </g>
            </g>
            <path id="Trazado_122323" data-name="Trazado 122323" d="M380.159,157.215s1.939,4.634,5.827,2.9S400.212,145.7,400.212,145.7s-3.259-2.131-2.568-4.075C397.644,141.626,380.519,152.8,380.159,157.215Z" transform="translate(-358.804 -137.07)" fill="#dddada"/>
          </g>
        </g>
      </g>
    </g>
    <g id="Grupo_840764" data-name="Grupo 840764" transform="translate(767.486 -5768.867)">
      <rect id="Rectángulo_205303-2" data-name="Rectángulo 205303" width="255.867" height="255.867" transform="translate(262.081 7979)" fill="none"/>
      <g id="Grupo_840765" data-name="Grupo 840765" transform="translate(302.155 7997.166)">
        <g id="Grupo_62210" data-name="Grupo 62210" transform="translate(3.409 123.72)">
          <path id="Trazado_122390" data-name="Trazado 122390" d="M261.643,447.745c15,8.662,15.079,22.705.177,31.37s-39.137,8.657-54.137-.005-15.069-22.7-.177-31.359S246.651,439.085,261.643,447.745Z" transform="translate(-196.387 -441.251)" fill="#b5dbdc"/>
        </g>
        <g id="Grupo_62211" data-name="Grupo 62211" transform="translate(3.409 121.095)">
          <path id="Trazado_122391" data-name="Trazado 122391" d="M261.643,446.723c15,8.662,15.079,22.708.177,31.369s-39.137,8.659-54.137,0-15.069-22.705-.177-31.362S246.651,438.064,261.643,446.723Z" transform="translate(-196.387 -440.229)" fill="#5abce5"/>
        </g>
        <g id="Grupo_62212" data-name="Grupo 62212" transform="translate(3.409 49.403)">
          <path id="Trazado_122392" data-name="Trazado 122392" d="M261.643,418.812c15,8.662,15.079,22.705.177,31.372s-39.137,8.657-54.137-.005-15.069-22.705-.177-31.362S246.651,410.155,261.643,418.812Z" transform="translate(-196.387 -412.32)" fill="#5abce5"/>
        </g>
        <rect id="Rectángulo_34010" data-name="Rectángulo 34010" width="76.293" height="105.251" transform="translate(3.408 40.65)" fill="#5abce5"/>
        <g id="Grupo_62213" data-name="Grupo 62213" transform="translate(3.409 86.961)">
          <path id="Trazado_122393" data-name="Trazado 122393" d="M261.643,433.433c15,8.662,15.079,22.708.177,31.369s-39.137,8.659-54.137,0-15.069-22.705-.177-31.362S246.651,424.776,261.643,433.433Z" transform="translate(-196.387 -426.941)" fill="#b5dbdc"/>
        </g>
        <g id="Grupo_62214" data-name="Grupo 62214" transform="translate(3.409 84.333)">
          <path id="Trazado_122394" data-name="Trazado 122394" d="M261.643,432.41c15,8.662,15.079,22.708.177,31.372s-39.137,8.657-54.137-.005-15.069-22.705-.177-31.362S246.651,423.753,261.643,432.41Z" transform="translate(-196.387 -425.918)" fill="#5abce5"/>
        </g>
        <g id="Grupo_62215" data-name="Grupo 62215" transform="translate(3.409 50.714)">
          <path id="Trazado_122395" data-name="Trazado 122395" d="M261.643,419.324c15,8.662,15.079,22.7.177,31.369s-39.137,8.657-54.137-.005-15.069-22.7-.177-31.359S246.651,410.665,261.643,419.324Z" transform="translate(-196.387 -412.83)" fill="#b5dbdc"/>
        </g>
        <g id="Grupo_62216" data-name="Grupo 62216" transform="translate(3.409 48.089)">
          <path id="Trazado_122396" data-name="Trazado 122396" d="M261.643,418.3c15,8.662,15.079,22.708.177,31.37s-39.137,8.659-54.137,0-15.069-22.705-.177-31.362S246.651,409.643,261.643,418.3Z" transform="translate(-196.387 -411.808)" fill="#5abce5"/>
        </g>
        <g id="Grupo_62217" data-name="Grupo 62217" transform="translate(3.409 23.426)">
          <path id="Trazado_122397" data-name="Trazado 122397" d="M261.643,408.7c15,8.662,15.079,22.705.177,31.37s-39.137,8.657-54.137-.005-15.069-22.7-.177-31.359S246.651,400.042,261.643,408.7Z" transform="translate(-196.387 -402.207)" fill="#b5dbdc"/>
        </g>
        <g id="Grupo_62218" data-name="Grupo 62218" transform="translate(3.409 20.801)">
          <path id="Trazado_122398" data-name="Trazado 122398" d="M261.643,407.679c15,8.662,15.079,22.708.177,31.369s-39.137,8.659-54.137,0-15.069-22.705-.177-31.362S246.651,399.02,261.643,407.679Z" transform="translate(-196.387 -401.185)" fill="#5abce5"/>
        </g>
        <g id="Grupo_62219" data-name="Grupo 62219" transform="translate(6.552 22.697)">
          <path id="Trazado_122399" data-name="Trazado 122399" d="M257.284,407.862c13.716,7.922,13.79,20.763.159,28.688s-35.785,7.917-49.5-.005-13.78-20.761-.162-28.678S243.576,399.943,257.284,407.862Z" transform="translate(-197.611 -401.923)" fill="#298bed"/>
        </g>
        <g id="Grupo_62222" data-name="Grupo 62222" transform="translate(53.41 33.895)">
          <g id="Grupo_62220" data-name="Grupo 62220" transform="translate(0 8.298)">
            <path id="Trazado_122400" data-name="Trazado 122400" d="M226.5,410.574c2.445,1.415,2.458,3.709.031,5.125a9.7,9.7,0,0,1-8.826,0c-2.445-1.415-2.458-3.709-.028-5.125A9.7,9.7,0,0,1,226.5,410.574Z" transform="translate(-215.858 -409.513)" fill="#5abce5"/>
          </g>
          <rect id="Rectángulo_34011" data-name="Rectángulo 34011" width="12.479" height="8.532" transform="translate(0.002 3.622)" fill="#5abce5"/>
          <g id="Grupo_62221" data-name="Grupo 62221">
            <path id="Trazado_122401" data-name="Trazado 122401" d="M226.5,407.342c2.445,1.415,2.458,3.709.031,5.125a9.712,9.712,0,0,1-8.826,0c-2.445-1.413-2.458-3.709-.028-5.125A9.715,9.715,0,0,1,226.5,407.342Z" transform="translate(-215.858 -406.282)" fill="#b5dbdc"/>
          </g>
        </g>
        <g id="Grupo_62236" data-name="Grupo 62236" transform="translate(0 72.261)">
          <g id="Grupo_62223" data-name="Grupo 62223" transform="translate(0.001 102.92)">
            <path id="Trazado_122402" data-name="Trazado 122402" d="M260.316,467.78c15,8.662,15.082,22.7.18,31.367s-39.139,8.659-54.139-.005-15.069-22.7-.177-31.357S245.324,459.118,260.316,467.78Z" transform="translate(-195.06 -461.284)" fill="#b5dbdc"/>
          </g>
          <g id="Grupo_62224" data-name="Grupo 62224" transform="translate(0.001 100.294)">
            <path id="Trazado_122403" data-name="Trazado 122403" d="M260.316,466.756c15,8.662,15.082,22.708.18,31.37s-39.139,8.659-54.139,0-15.069-22.705-.177-31.362S245.324,458.1,260.316,466.756Z" transform="translate(-195.06 -460.262)" fill="#a6ecff"/>
          </g>
          <g id="Grupo_62225" data-name="Grupo 62225" transform="translate(0.001 28.602)">
            <path id="Trazado_122404" data-name="Trazado 122404" d="M260.316,438.845c15,8.662,15.082,22.708.18,31.372s-39.139,8.657-54.139-.005-15.069-22.705-.177-31.362S245.324,430.188,260.316,438.845Z" transform="translate(-195.06 -432.353)" fill="#5abce5"/>
          </g>
          <rect id="Rectángulo_34012" data-name="Rectángulo 34012" width="76.296" height="105.251" transform="translate(0 19.85)" fill="#a6ecff"/>
          <g id="Grupo_62226" data-name="Grupo 62226" transform="translate(0.001 66.16)">
            <path id="Trazado_122405" data-name="Trazado 122405" d="M260.316,453.466c15,8.662,15.082,22.708.18,31.369s-39.139,8.659-54.139,0-15.069-22.705-.177-31.362S245.324,444.809,260.316,453.466Z" transform="translate(-195.06 -446.974)" fill="#5abce5"/>
          </g>
          <g id="Grupo_62227" data-name="Grupo 62227" transform="translate(0.001 63.532)">
            <path id="Trazado_122406" data-name="Trazado 122406" d="M260.316,452.443c15,8.664,15.082,22.708.18,31.372s-39.139,8.657-54.139,0-15.069-22.705-.177-31.364S245.324,443.786,260.316,452.443Z" transform="translate(-195.06 -445.951)" fill="#a6ecff"/>
          </g>
          <g id="Grupo_62228" data-name="Grupo 62228" transform="translate(0.001 29.916)">
            <path id="Trazado_122407" data-name="Trazado 122407" d="M260.316,439.358c15,8.662,15.082,22.7.18,31.367s-39.139,8.659-54.139,0-15.069-22.7-.177-31.359S245.324,430.7,260.316,439.358Z" transform="translate(-195.06 -432.864)" fill="#5abce5"/>
          </g>
          <g id="Grupo_62229" data-name="Grupo 62229" transform="translate(0.001 27.288)">
            <path id="Trazado_122408" data-name="Trazado 122408" d="M260.316,438.335c15,8.662,15.082,22.708.18,31.369s-39.139,8.659-54.139,0S191.287,447,206.179,438.34,245.324,429.676,260.316,438.335Z" transform="translate(-195.06 -431.841)" fill="#a6ecff"/>
          </g>
          <g id="Grupo_62230" data-name="Grupo 62230" transform="translate(0.001 2.626)">
            <path id="Trazado_122409" data-name="Trazado 122409" d="M260.316,428.736c15,8.662,15.082,22.7.18,31.367s-39.139,8.659-54.139-.005-15.069-22.7-.177-31.357S245.324,420.074,260.316,428.736Z" transform="translate(-195.06 -422.24)" fill="#b5dbdc"/>
          </g>
          <g id="Grupo_62231" data-name="Grupo 62231" transform="translate(0.001)">
            <path id="Trazado_122410" data-name="Trazado 122410" d="M260.316,427.712c15,8.662,15.082,22.708.18,31.37s-39.139,8.659-54.139,0-15.069-22.705-.177-31.362S245.324,419.053,260.316,427.712Z" transform="translate(-195.06 -421.218)" fill="#5abce5"/>
          </g>
          <g id="Grupo_62232" data-name="Grupo 62232" transform="translate(3.143 1.896)">
            <path id="Trazado_122411" data-name="Trazado 122411" d="M255.955,427.9c13.721,7.922,13.793,20.763.162,28.685s-35.788,7.919-49.5,0-13.783-20.761-.162-28.677S242.25,419.975,255.955,427.9Z" transform="translate(-196.284 -421.956)" fill="#298bed"/>
          </g>
          <g id="Grupo_62235" data-name="Grupo 62235" transform="translate(50.002 13.094)">
            <g id="Grupo_62233" data-name="Grupo 62233" transform="translate(0 8.298)">
              <path id="Trazado_122412" data-name="Trazado 122412" d="M225.168,430.607c2.445,1.415,2.458,3.709.031,5.125a9.7,9.7,0,0,1-8.826,0c-2.445-1.415-2.458-3.709-.028-5.125A9.7,9.7,0,0,1,225.168,430.607Z" transform="translate(-214.531 -429.546)" fill="#5abce5"/>
            </g>
            <rect id="Rectángulo_34013" data-name="Rectángulo 34013" width="12.479" height="8.532" transform="translate(0.001 3.622)" fill="#5abce5"/>
            <g id="Grupo_62234" data-name="Grupo 62234">
              <path id="Trazado_122413" data-name="Trazado 122413" d="M225.168,427.375c2.445,1.415,2.458,3.709.031,5.125a9.712,9.712,0,0,1-8.826,0c-2.445-1.413-2.458-3.709-.028-5.125A9.715,9.715,0,0,1,225.168,427.375Z" transform="translate(-214.531 -426.315)" fill="#b5dbdc"/>
            </g>
          </g>
        </g>
        <g id="Grupo_62261" data-name="Grupo 62261" transform="translate(88.995 0)">
          <path id="Trazado_122421" data-name="Trazado 122421" d="M275.039,430.683,259.662,425l-16.448-14.313-4.471,3.555S254.554,433.733,257.9,435.8s12.758,4.554,12.758,4.554Z" transform="translate(-215.558 -365.471)" fill="#00e5ff"/>
          <path id="Trazado_122422" data-name="Trazado 122422" d="M257.629,468.726s2.63,4.215-1.025,5.23c-3.667,1-2.565-1.284-10.511.73-7.961,2.009-7.021-2.471-6.851-3.393.185-.912,3.654-2.189,5.383-2.646s8.69-2.06,8.69-2.06l4.24.784Z" transform="translate(-214.966 -277.787)" fill="#111114"/>
          <path id="Trazado_122423" data-name="Trazado 122423" d="M249.676,462.875s-3.041.457-2.3,2.212c.727,1.762,4.235,4.426,4.689,5.546s3.274,4.534,4.255,4.706c1.643.283,3.323.19,3.051-4.341S253.739,462.677,249.676,462.875Z" transform="translate(-202.198 -283.621)" fill="#111114"/>
          <path id="Trazado_122424" data-name="Trazado 122424" d="M261.238,432.783s5.914,8.783,2.07,23.594c0,0-6.623,22.358-5.439,26.751s5.218,14.955,2.563,23.995c0,0-2.478,8.341-2.673,10.66-.205,2.376-4.147,2.6-4.725-.067-1.238-5.656-.306-14.082-1.168-18.271-2.8-13.707-4.248-20.856-3.359-30.183s-.193-30.442-.193-30.442S258.873,439.914,261.238,432.783Z" transform="translate(-200.66 -330.815)" fill="#efb185"/>
          <path id="Trazado_122425" data-name="Trazado 122425" d="M261.15,434.855s5.074,9.3-.121,23.686c0,0-8.693,21.649-7.91,26.134.76,4.48,3.8,15.382.316,24.128,0,0-3.377,8.05-3.636,10.367-.419,3.678-4.145,4.143-4.527,1.439-.806-5.5.824-15.985.354-20.244-1.507-13.91-2.3-21.161-.544-30.357s2.64-30.342,2.64-30.342S258.128,441.747,261.15,434.855Z" transform="translate(-207.19 -327.564)" fill="#efb185"/>
          <path id="Trazado_122426" data-name="Trazado 122426" d="M249.294,466.97h0s.29-12.153-2.368-15.4-6.816-10.668-3.272-14.814,5.639-6.222,5.639-6.222,16.579-16.291,22.2-11.552c0,0,5.041,3.853,2.963,17.175s-6.089,15.4-1.181,22.5c3.806,5.5,5.383,7.025,2.858,27.717-2.314,19.047-1.181,21.405-1.181,21.405s-15.4,8.495-29.612,1.968c0,0-2.948-4.521,0-21.523C247.994,472.9,249.294,466.97,249.294,466.97Z" transform="translate(-210.005 -353.828)" fill="#00e5ff"/>
          <path id="Trazado_122427" data-name="Trazado 122427" d="M244.634,467.053s2.124,4.567,5.811,1.015c0,0,.58,4.875-2.9,4.241S242.654,468.063,244.634,467.053Z" transform="translate(-207.741 -277.054)" fill="#111114"/>
          <path id="Trazado_122428" data-name="Trazado 122428" d="M246.4,420.211l.809,8.135s6.967,3.8,11.9-2.209l-.814-8.166S252.132,420.7,246.4,420.211Z" transform="translate(-203.555 -354.051)" fill="#efb185"/>
          <path id="Trazado_122429" data-name="Trazado 122429" d="M255.039,409.839s-6.189-.057-8.528,4.547-4.332,11.416-1.42,15.258c3.11,4.113,1.466,6.589,0,7.922s16.119,7.341,23.674-3.928C268.765,433.638,273.735,405.69,255.039,409.839Z" transform="translate(-207.884 -367.468)" fill="#231202"/>
          <g id="Grupo_62257" data-name="Grupo 62257">
            <path id="Trazado_122430" data-name="Trazado 122430" d="M243.333,513.963h2.948a11.78,11.78,0,0,0,11.777-11.775V397.147H231.564V502.188A11.773,11.773,0,0,0,243.333,513.963Z" transform="translate(-226.815 -386.719)" fill="#ade9f4"/>
            <path id="Trazado_122431" data-name="Trazado 122431" d="M241.6,493.88h2.175a8.7,8.7,0,0,0,8.7-8.7V407.635H232.913v77.548A8.7,8.7,0,0,0,241.6,493.88Z" transform="translate(-224.7 -370.266)" fill="#f6802d"/>
            <g id="Grupo_62244" data-name="Grupo 62244" transform="translate(8.214 31.699)">
              <path id="Trazado_122432" data-name="Trazado 122432" d="M249.759,407.157c3.736,2.255,3.608,5.844-.29,8.02s-10.087,2.106-13.829-.146-3.621-5.834.277-8.009S246.017,404.907,249.759,407.157Z" transform="translate(-232.913 -405.428)" fill="#e35b01"/>
            </g>
            <g id="Grupo_62248" data-name="Grupo 62248">
              <g id="Grupo_62247" data-name="Grupo 62247" transform="translate(3.285)">
                <g id="Grupo_62245" data-name="Grupo 62245" transform="translate(0.011 7.626)">
                  <path id="Trazado_122433" data-name="Trazado 122433" d="M231,398.835v-2.779c.005,2.083,1.335,2.854,4.024,4.475,5.542,3.337,14.712,3.429,20.49.208,2.974-1.654,4.471-2.183,4.466-4.393l.005,2.4c.005,2.214-1.484,4.428-4.461,6.085-5.77,3.221-14.948,3.126-20.488-.208C232.341,403.007,231,400.919,231,398.835Z" transform="translate(-230.998 -396.056)" fill="#4ed2f2"/>
                </g>
                <g id="Grupo_62246" data-name="Grupo 62246">
                  <path id="Trazado_122434" data-name="Trazado 122434" d="M255.948,395.653c5.539,3.337,5.347,8.652-.429,11.878s-14.948,3.126-20.49-.211-5.354-8.649.424-11.875S250.4,392.316,255.948,395.653Z" transform="translate(-230.994 -393.087)" fill="#b8f8ff"/>
                  <path id="Trazado_122435" data-name="Trazado 122435" d="M244.208,406.628a18.744,18.744,0,0,1-9.373-2.276c-2-1.2-3.082-2.661-3.053-4.118.026-1.5,1.271-3.059,3.423-4.254a19.047,19.047,0,0,1,9.1-2.106,18.731,18.731,0,0,1,9.368,2.276c1.99,1.2,3.082,2.669,3.051,4.12-.023,1.505-1.263,3.059-3.415,4.259A19.047,19.047,0,0,1,244.208,406.628Z" transform="translate(-229.759 -391.853)" fill="#2bb4da"/>
                  <path id="Trazado_122436" data-name="Trazado 122436" d="M235.2,397.755a18.987,18.987,0,0,1,9.1-2.1,18.758,18.758,0,0,1,9.368,2.276,6.14,6.14,0,0,1,2.9,3.175,2.9,2.9,0,0,0,.146-.835c.031-1.451-1.061-2.921-3.051-4.12a18.731,18.731,0,0,0-9.368-2.276,19.047,19.047,0,0,0-9.1,2.106c-2.152,1.194-3.4,2.751-3.423,4.254a3,3,0,0,0,.146.945A6.548,6.548,0,0,1,235.2,397.755Z" transform="translate(-229.759 -391.853)" fill="#29b2dc"/>
                </g>
              </g>
              <path id="Trazado_122437" data-name="Trazado 122437" d="M229.735,397.106s2.686,2.224,4.985,4.051-.668-2.982-.668-2.982Z" transform="translate(-229.683 -386.783)" fill="#4ed2f2"/>
              <path id="Trazado_122438" data-name="Trazado 122438" d="M233.606,396.056s-5.185,2.361-3.585,2.81,6.132,1.395,6.132,1.395S233.555,397.775,233.606,396.056Z" transform="translate(-229.715 -388.43)" fill="#b8f8ff"/>
              <path id="Trazado_122439" data-name="Trazado 122439" d="M235.8,396.274s-6.225,1.624-5.377,1.978a13.176,13.176,0,0,0,5.262.619Z" transform="translate(-228.732 -388.088)" fill="#2bb4da"/>
            </g>
            <g id="Grupo_62249" data-name="Grupo 62249" transform="translate(23.817 24.942)">
              <path id="Trazado_122440" data-name="Trazado 122440" d="M245.255,402.892c.377-.219.683-.046.683.39a1.506,1.506,0,0,1-.675,1.187L239.67,407.7c-.372.218-.681.044-.681-.4a1.482,1.482,0,0,1,.681-1.171Z" transform="translate(-238.989 -402.797)" fill="#f3f4f4"/>
            </g>
            <g id="Grupo_62250" data-name="Grupo 62250" transform="translate(23.817 32.298)">
              <path id="Trazado_122441" data-name="Trazado 122441" d="M245.255,405.752c.377-.213.683-.039.683.39a1.5,1.5,0,0,1-.675,1.189l-5.593,3.226c-.372.216-.681.044-.681-.4a1.5,1.5,0,0,1,.681-1.179Z" transform="translate(-238.989 -405.661)" fill="#f3f4f4"/>
            </g>
            <g id="Grupo_62251" data-name="Grupo 62251" transform="translate(23.817 43.331)">
              <path id="Trazado_122442" data-name="Trazado 122442" d="M245.255,410.051c.377-.221.683-.046.683.39a1.5,1.5,0,0,1-.675,1.184l-5.593,3.229c-.372.216-.681.041-.681-.4a1.482,1.482,0,0,1,.681-1.174Z" transform="translate(-238.989 -409.956)" fill="#f3f4f4"/>
            </g>
            <g id="Grupo_62252" data-name="Grupo 62252" transform="translate(23.817 50.688)">
              <path id="Trazado_122443" data-name="Trazado 122443" d="M245.255,412.913c.377-.216.683-.044.683.391a1.5,1.5,0,0,1-.675,1.187l-5.593,3.226c-.372.216-.681.044-.681-.4a1.49,1.49,0,0,1,.681-1.174Z" transform="translate(-238.989 -412.82)" fill="#f3f4f4"/>
            </g>
            <g id="Grupo_62253" data-name="Grupo 62253" transform="translate(23.817 65.396)">
              <path id="Trazado_122444" data-name="Trazado 122444" d="M245.255,418.641c.377-.221.683-.046.683.388a1.5,1.5,0,0,1-.675,1.187l-5.593,3.229c-.372.216-.681.044-.681-.4a1.487,1.487,0,0,1,.681-1.177Z" transform="translate(-238.989 -418.546)" fill="#f3f4f4"/>
            </g>
            <g id="Grupo_62254" data-name="Grupo 62254" transform="translate(23.817 72.753)">
              <path id="Trazado_122445" data-name="Trazado 122445" d="M245.255,421.5c.377-.218.683-.041.683.39a1.5,1.5,0,0,1-.675,1.187l-5.593,3.226c-.372.218-.681.046-.681-.4a1.5,1.5,0,0,1,.681-1.176Z" transform="translate(-238.989 -421.41)" fill="#f3f4f4"/>
            </g>
            <g id="Grupo_62255" data-name="Grupo 62255" transform="translate(23.817 83.787)">
              <path id="Trazado_122446" data-name="Trazado 122446" d="M245.255,425.8c.377-.216.683-.041.683.39a1.5,1.5,0,0,1-.675,1.187L239.67,430.6c-.372.216-.681.044-.681-.4a1.491,1.491,0,0,1,.681-1.176Z" transform="translate(-238.989 -425.705)" fill="#f3f4f4"/>
            </g>
            <g id="Grupo_62256" data-name="Grupo 62256" transform="translate(23.817 91.142)">
              <path id="Trazado_122447" data-name="Trazado 122447" d="M245.255,428.662c.377-.218.683-.044.683.39a1.5,1.5,0,0,1-.675,1.187l-5.593,3.226c-.372.218-.681.044-.681-.4a1.486,1.486,0,0,1,.681-1.174Z" transform="translate(-238.989 -428.568)" fill="#f3f4f4"/>
            </g>
          </g>
          <g id="Grupo_62259" data-name="Grupo 62259" transform="translate(3.711 71.813)">
            <g id="Grupo_62258" data-name="Grupo 62258">
              <path id="Trazado_122448" data-name="Trazado 122448" d="M236.353,429.773a26.25,26.25,0,0,0-3.372-2.361c-.765-.277-1.751-2.24-1.813-3.26s.092-3.766,1.379-2.964,1.723,1.459,2.612,1.849a6.415,6.415,0,0,1,2.452,2.368c.244.634,1.014,2.674,1.014,2.674Z" transform="translate(-231.16 -421.044)" fill="#efb185"/>
            </g>
          </g>
          <g id="Grupo_62260" data-name="Grupo 62260" transform="translate(8.134 77.39)">
            <path id="Trazado_122449" data-name="Trazado 122449" d="M270.154,429.095c-.532-1.832-2.722-4.264-7.383-2.189-4.638,2.073-17.563,8.009-17.563,8.009s-8.7-10.627-9.892-11.7a2.763,2.763,0,0,1-2.434,3.144s5.162,14.39,9.592,15.513S272.363,436.662,270.154,429.095Z" transform="translate(-232.882 -423.215)" fill="#4eedff"/>
          </g>
        </g>
        <g id="Grupo_62262" data-name="Grupo 62262" transform="translate(67.726 83.177)" opacity="0.4">
          <path id="Trazado_122450" data-name="Trazado 122450" d="M239.757,478.043c24.317,12.037,63.613,12.037,87.773,0,24.163-12.019,24.034-31.519-.29-43.553-12.253-6.063-28.312-9.07-44.612-9.02-15.464.047-31.17,3.054-43.152,9.02-24.173,12.034-24.032,31.534.283,43.553" transform="translate(-221.432 -425.468)" fill="#fcfdfd" opacity="0"/>
          <path id="Trazado_122451" data-name="Trazado 122451" d="M240.355,480.759c22.742,11.462,59.5,11.462,82.09,0s22.483-30.018-.27-41.48c-22.737-11.457-59.493-11.457-82.084,0-22.609,11.462-22.478,30.031.264,41.48" transform="translate(-218.636 -417.28)" fill="#fdfdfd" opacity="0.167"/>
          <path id="Trazado_122452" data-name="Trazado 122452" d="M240.951,483.475c21.171,10.886,55.377,10.886,76.412,0s20.927-28.518-.252-39.4c-21.163-10.884-55.38-10.884-76.4,0-21.042,10.886-20.924,28.526.244,39.4" transform="translate(-215.839 -409.091)" fill="#fdfefe" opacity="0.333"/>
          <path id="Trazado_122453" data-name="Trazado 122453" d="M241.549,486.189c19.594,10.313,51.26,10.313,70.731,0s19.373-27.018-.234-37.329c-19.589-10.311-51.265-10.311-70.723,0-19.479,10.311-19.371,27.023.226,37.329" transform="translate(-213.043 -400.903)" fill="#fefefe" opacity="0.5"/>
          <path id="Trazado_122454" data-name="Trazado 122454" d="M242.145,488.905c18.022,9.738,47.146,9.738,65.051,0s17.819-25.518-.213-35.256c-18.012-9.738-47.149-9.738-65.043,0-17.912,9.738-17.817,25.52.205,35.256" transform="translate(-210.246 -392.715)" fill="#fefefe" opacity="0.667"/>
          <path id="Trazado_122455" data-name="Trazado 122455" d="M242.743,491.618c16.448,9.165,43.027,9.165,59.37,0s16.266-24.013-.193-33.18c-16.443-9.163-43.04-9.163-59.368,0-16.345,9.168-16.258,24.02.19,33.18" transform="translate(-207.449 -384.527)" fill="#fff" opacity="0.833"/>
          <path id="Trazado_122456" data-name="Trazado 122456" d="M243.338,494.335c14.874,8.59,38.911,8.59,53.69,0s14.712-22.513-.172-31.107c-14.866-8.59-38.924-8.59-53.685,0-14.782,8.595-14.707,22.518.167,31.107" transform="translate(-204.652 -376.339)" fill="#fff"/>
        </g>
      </g>
    </g>
  </g>
</svg>
