<svg xmlns="http://www.w3.org/2000/svg" width="556.826" height="348.578" viewBox="0 0 556.826 348.578">
  <g id="Grupo_842653" data-name="Grupo 842653" transform="translate(-285 -8865.828)">
    <rect id="BG" width="556.826" height="348.578" transform="translate(285 8865.828)" fill="#f4f4f4" opacity="0.996"/>
    <g id="Grupo_841871" data-name="Grupo 841871" transform="translate(-1396.551 8435.795)">
      <g id="Grupo_841859" data-name="Grupo 841859" transform="translate(1865.708 483.305)">
        <g id="Grupo_841837" data-name="Grupo 841837">
          <path id="Trazado_298727" data-name="Trazado 298727" d="M1827.513,483.553a12.552,12.552,0,0,0-3.162,1.276,9.26,9.26,0,0,0-4.525,5.943,15.419,15.419,0,0,0,.341,5.919c.633,3.337,1.6,6.545,2.162,9.884a48.972,48.972,0,0,1,.623,10.524,7.8,7.8,0,0,1-.776,2.2s3.109-1.1,4.446-3.249c2.8-4.493,1.771-8.381,1.022-13.533a11.563,11.563,0,0,1,2.137-8.46,2.213,2.213,0,0,1,1.69-.575c1.093-.044,1.438.784,2.423,1.037,1.169.3,2.043-.609,3.093-.928.5-.153,1.365-.523,1.51-1.064a5,5,0,0,0-.232-1.875c-.109-.726-.161-1.464-.241-2.195a5.279,5.279,0,0,0-1.807-2.913C1834.2,483.65,1830.192,482.859,1827.513,483.553Z" transform="translate(-1811.001 -483.305)" fill="#303036"/>
          <g id="Grupo_841836" data-name="Grupo 841836" transform="translate(0 30.347)">
            <g id="Grupo_841808" data-name="Grupo 841808">
              <path id="Trazado_298728" data-name="Trazado 298728" d="M1897.861,552.7l-19.545,11.309-8.186-3.237-14.748-5.805-17.433,10.025-17.48,10.1,10.169,8.486,5.643,4.758-20.959,12.127,41.017,23.731,83-47.7Z" transform="translate(-1814.971 -450.039)" fill="#b2b1b1" opacity="0.3" style="mix-blend-mode: multiply;isolation: isolate"/>
              <g id="Grupo_841804" data-name="Grupo 841804" transform="translate(31.336 93.979)">
                <path id="Trazado_298729" data-name="Trazado 298729" d="M1837.943,549.14v48.4a1.6,1.6,0,0,1-.949,1.315,5.035,5.035,0,0,1-4.546,0,1.6,1.6,0,0,1-.949-1.315s-.025-48.359,0-48.4Z" transform="translate(-1831.488 -547.283)" fill="#009ad4"/>
                <path id="Trazado_298730" data-name="Trazado 298730" d="M1836.988,548.715a1.387,1.387,0,0,1,0,2.628,5.028,5.028,0,0,1-4.55,0,1.387,1.387,0,0,1,0-2.628,5.027,5.027,0,0,1,4.55,0Z" transform="translate(-1831.482 -548.171)" fill="#fff"/>
                <path id="Trazado_298731" data-name="Trazado 298731" d="M1832.448,549.14v49.712a1.6,1.6,0,0,1-.949-1.315s-.025-48.359,0-48.4Z" transform="translate(-1831.488 -547.283)" fill="#0376b3"/>
              </g>
              <path id="Trazado_298732" data-name="Trazado 298732" d="M1847.4,549.182v5.439a20.761,20.761,0,0,1-18.808,0v-5.439Z" transform="translate(-1802.809 -453.266)" fill="#009ad4"/>
              <path id="Trazado_298733" data-name="Trazado 298733" d="M1842.906,549.182v5.439a19.29,19.29,0,0,1-9.413,2.252v-5.438l.885-2.254Z" transform="translate(-1798.315 -453.266)" fill="#48caff"/>
              <g id="Grupo_841805" data-name="Grupo 841805" transform="translate(8.783 77.935)">
                <path id="Trazado_298734" data-name="Trazado 298734" d="M1826.176,540.769v48.4a1.6,1.6,0,0,1-.947,1.313,5.038,5.038,0,0,1-4.548,0,1.6,1.6,0,0,1-.949-1.313s-.025-48.361,0-48.4Z" transform="translate(-1819.721 -538.912)" fill="#009ad4"/>
                <path id="Trazado_298735" data-name="Trazado 298735" d="M1825.221,540.344a1.387,1.387,0,0,1,0,2.628,5.027,5.027,0,0,1-4.55,0,1.387,1.387,0,0,1,0-2.628,5.027,5.027,0,0,1,4.55,0Z" transform="translate(-1819.715 -539.8)" fill="#fff"/>
                <path id="Trazado_298736" data-name="Trazado 298736" d="M1820.681,540.769v49.712a1.6,1.6,0,0,1-.949-1.313s-.025-48.361,0-48.4Z" transform="translate(-1819.721 -538.912)" fill="#0376b3"/>
              </g>
              <g id="Grupo_841806" data-name="Grupo 841806" transform="translate(64.413 73.402)">
                <path id="Trazado_298737" data-name="Trazado 298737" d="M1855.2,538.4v48.4a1.6,1.6,0,0,1-.947,1.313,5.023,5.023,0,0,1-4.548,0,1.6,1.6,0,0,1-.947-1.313s-.025-48.361,0-48.4Z" transform="translate(-1848.746 -536.547)" fill="#009ad4"/>
                <path id="Trazado_298738" data-name="Trazado 298738" d="M1854.246,537.979a1.386,1.386,0,0,1,0,2.626,5.027,5.027,0,0,1-4.55,0,1.386,1.386,0,0,1,0-2.626,5.028,5.028,0,0,1,4.55,0Z" transform="translate(-1848.74 -537.435)" fill="#fff"/>
                <path id="Trazado_298739" data-name="Trazado 298739" d="M1849.7,538.4v49.71a1.6,1.6,0,0,1-.947-1.313s-.025-48.361,0-48.4Z" transform="translate(-1848.746 -536.547)" fill="#0376b3"/>
              </g>
              <path id="Trazado_298740" data-name="Trazado 298740" d="M1886.292,544.293v5.455c0,1.963-1.288,3.925-3.895,5.422l-12.661,7.322-12.663,7.3v-5.44h-18.808v5.44l-10.122-8.527-10.1-8.512,17.426-10.057,17.409-10.072,14.77,5.84,14.754,5.842a9.9,9.9,0,0,1,2.479,1.978Z" transform="translate(-1812.482 -468.44)" fill="#48caff"/>
              <path id="Trazado_298741" data-name="Trazado 298741" d="M1818.052,540.3l-.013,5.41,20.219,17.047V557.32Z" transform="translate(-1812.481 -461.404)" fill="#001d80"/>
              <path id="Trazado_298742" data-name="Trazado 298742" d="M1882.431,552.315l-12.667,7.312-12.665,7.312a20.788,20.788,0,0,1-18.813,0l-10.109-8.523-10.17-8.487,17.48-10.095,17.434-10.024,14.748,5.805,14.762,5.836c2.6,1.5,3.9,3.465,3.9,5.432S1885.028,550.814,1882.431,552.315Z" transform="translate(-1812.51 -471.023)" fill="#0029a6"/>
              <g id="Grupo_841807" data-name="Grupo 841807">
                <path id="Trazado_298743" data-name="Trazado 298743" d="M1825.8,570.949l-2.172,1.255-.611.355-2.306,5.48-3.615-2.068a159.305,159.305,0,0,1-1.482-37.618c1.186-15.527,5.359-31.343,22.634-37.949,7.373-2.819,9.9-.385,14.148,2.037C1847.435,514.078,1872.985,543.687,1825.8,570.949Z" transform="translate(-1815.137 -499.138)" fill="#0029a6"/>
                <path id="Trazado_298744" data-name="Trazado 298744" d="M1834.294,552.2c-14.2,8.2-10.731,4.351-13.591,11.992l-3.609-2.064c-2.666-16.144-2.373-31.646-.516-47.9l3.621,2.076Z" transform="translate(-1815.139 -485.3)" fill="#001d80"/>
                <path id="Trazado_298745" data-name="Trazado 298745" d="M1825.947,520.821l-6.436,2.607-3.621-2.076a23.991,23.991,0,0,1,.677-3.7,31.489,31.489,0,0,1,1.238-3.781,39.876,39.876,0,0,1,1.754-3.764c.676-1.24,1.4-2.446,2.2-3.636l3.621,2.074Z" transform="translate(-1814.45 -492.418)" fill="#001d80"/>
                <path id="Trazado_298746" data-name="Trazado 298746" d="M1853.815,557.1c-2.921,1.692-31.281,18.133-34.766,20.134a144.827,144.827,0,0,1-2.008-26.354,214.489,214.489,0,0,1,1.422-21.562c.788-7.795,5.737-15.992,11.383-21.453,4.707-4.556,12.312-9.372,18.6-7.352,4.788,1.537,6.39,4.954,7.159,22.593a187.321,187.321,0,0,1-1.794,33.994Z" transform="translate(-1813.404 -498.312)" fill="#1436ab"/>
              </g>
              <path id="Trazado_298747" data-name="Trazado 298747" d="M1816.159,539.225s.477,4.956,3.6,7.479l.014-5.411Z" transform="translate(-1814.204 -462.393)" fill="#001d80"/>
            </g>
            <g id="Grupo_841835" data-name="Grupo 841835" transform="translate(0.35 1.348)">
              <g id="Grupo_841834" data-name="Grupo 841834">
                <g id="Grupo_841812" data-name="Grupo 841812" transform="translate(10.737)">
                  <path id="Trazado_298748" data-name="Trazado 298748" d="M1856.491,571.791c-2.438-3.245-6.572-7.548-6.572-7.548l-8.205.019c-.077.173-.157.36-.238.562a20.021,20.021,0,0,0-1.357,5.746l-.029,3.467,2.38,2,2.014-.742a49.1,49.1,0,0,0,4.088,4.069,13.269,13.269,0,0,0,8.882,3.446,33.971,33.971,0,0,0,5.347-.347c1.38-.2,2.413-.573,2.726-1.117C1866.62,579.48,1858.9,575.03,1856.491,571.791Z" transform="translate(-1803.356 -440.808)" fill="#303036"/>
                  <path id="Trazado_298749" data-name="Trazado 298749" d="M1864.934,571.193c-.3-.424-7.947-9.583-7.947-9.583l-7.816.094s-1.876,3.07-2.074,4.953c-.019,0-.1,3.519-.1,3.519a9.482,9.482,0,0,0,3.084,1.878,12.187,12.187,0,0,1,2.848-1.336c3.968,2.214,4.9,5.888,6.616,7.277.544.374,7.009,4.441,9.85,2.191C1871.631,578.419,1867.089,574.237,1864.934,571.193Z" transform="translate(-1797.02 -443.221)" fill="#303036"/>
                  <path id="Trazado_298750" data-name="Trazado 298750" d="M1863.583,571.144c-.441,1.234-.964,1.644-3.49,1.095-1.441-.312-11.6-9.292-11.6-9.292l1.313-.633.656-.655h5.556A113.26,113.26,0,0,1,1863.583,571.144Z" transform="translate(-1795.657 -443.176)" fill="#feb7b7"/>
                  <g id="Grupo_841811" data-name="Grupo 841811">
                    <g id="Grupo_841809" data-name="Grupo 841809">
                      <path id="Trazado_298751" data-name="Trazado 298751" d="M1858.561,577.6a1.934,1.934,0,0,1-1.2,1.917,6.361,6.361,0,0,1-3.793.65,5.554,5.554,0,0,1-2.052-.65,2.058,2.058,0,0,1-1.217-1.687c-5.1-20.978-4.558-27.36-4.558-27.36l4.2-2.681.4-.253,5.47-3.488S1858.151,574.634,1858.561,577.6Z" transform="translate(-1798.188 -459.321)" fill="#feb7b7"/>
                      <path id="Trazado_298752" data-name="Trazado 298752" d="M1851.491,580.854a1.936,1.936,0,0,1-1.194,1.919,6.17,6.17,0,0,1-3.113.7,5.918,5.918,0,0,1-2.735-.7,2.058,2.058,0,0,1-1.215-1.687c-5.1-20.979-4.558-27.36-4.558-27.36l4.2-2.683,5.869-3.741S1851.083,577.889,1851.491,580.854Z" transform="translate(-1804.667 -456.337)" fill="#feb7b7"/>
                      <path id="Trazado_298753" data-name="Trazado 298753" d="M1883.359,589.486a6.321,6.321,0,0,1-2.016,2.335c-.079.065-.159.105-.224.17-2.373,1.662-5.788,2.413-8.253,3.2-.619.2-1.252.381-1.884.592-.845.265-1.688.54-2.518.792-1.886.592-3.77,1.186-5.629,1.792-.2.054-.435.146-.686.238-1.978.738-5.3,2.267-6.645,2.135-1.317-.13-2.016-3.019-3.216-4.23-2.227-2.267-3.059-3.31-5.788-4.918-2.292-1.359-4.864-2.808-7.475-4.324-6.946-4.035-14.131-8.556-16.82-12.933-3.7-6.037,1.673-15.715,3.151-25.417.976-6.3-.726-19.3-2.018-27.619-.711-4.456-1.292-7.567-1.292-7.567s.646-.5,1.807-1.319c1.132-.805,2.754-1.9,4.8-3.124,0,0,.146-.081.37-.213a82.79,82.79,0,0,1,7.554-3.875c.765-.33,1.57-.684,2.4-1.014.949-.383,1.911-.751,2.927-1.108.238-.092.5-.173.738-.278.924-.3,1.846-.606,2.783-.882,1.173-.37,2.4-.686,3.638-.989.9-.211,1.805-.422,2.729-.608.8-.171,1.635-.355,2.465-.487.184.224.751.9,1.543,1.9a8.914,8.914,0,0,1,1.014,3.626c1.689,6.078,4.878,17.758,4.8,19.182a3.763,3.763,0,0,1-1.278,2.016,20.809,20.809,0,0,1-2.821,2.359c-.792.567-1.384.951-1.384.951s-1.451,8.475-1.173,14.08c.039.83-.462,5.035.843,5.959,6.275,4.389,14.528,4.824,19.325,10.9a44.305,44.305,0,0,1,8.912,20.817C1884.4,584.267,1884.52,587.088,1883.359,589.486Z" transform="translate(-1820.924 -499.841)" fill="#84d9ff"/>
                    </g>
                    <g id="Grupo_841810" data-name="Grupo 841810" transform="translate(59.568 49.547)">
                      <path id="Trazado_298754" data-name="Trazado 298754" d="M1859.758,527.925a8.028,8.028,0,0,1-3.877,6.108,3.457,3.457,0,0,1-2.348.556A1.961,1.961,0,0,1,1852,532.4a5.3,5.3,0,0,1,.42-1.97,8.512,8.512,0,0,1,3.458-4.14,4.175,4.175,0,0,1,.671-.324c1.7-.692,3.029-.042,3.186,1.6C1859.746,527.683,1859.758,527.8,1859.758,527.925Z" transform="translate(-1852.003 -525.692)" fill="#8595b0"/>
                      <path id="Trazado_298755" data-name="Trazado 298755" d="M1859.758,527.925a8.028,8.028,0,0,1-3.877,6.108,3.457,3.457,0,0,1-2.348.556A1.961,1.961,0,0,1,1852,532.4a5.3,5.3,0,0,1,.42-1.97,8.512,8.512,0,0,1,3.458-4.14,4.175,4.175,0,0,1,.671-.324c1.7-.692,3.029-.042,3.186,1.6C1859.746,527.683,1859.758,527.8,1859.758,527.925Z" transform="translate(-1852.003 -525.692)" fill="#002b7a" opacity="0.25" style="mix-blend-mode: color-burn;isolation: isolate"/>
                    </g>
                    <path id="Trazado_298756" data-name="Trazado 298756" d="M1852.222,530.35a24.722,24.722,0,0,0,1.077,4.1c.749,2.112,1.984,4.471,3.808,5.528,1.767,1.016,2.585.956,2.952.621a1.376,1.376,0,0,0,.276-1.125s-3.641-4.056-3.306-5.388,6.543,7.352,6.543,7.352l1.351-.178,2.212-5.121s-3.218-5.635-7.64-8.705a11.412,11.412,0,0,0-3.178-1.6,3.481,3.481,0,0,0-.671.326,3.749,3.749,0,0,0-.493.326,7.659,7.659,0,0,0-1.827,1.8A6.374,6.374,0,0,0,1852.222,530.35Z" transform="translate(-1792.235 -476.018)" fill="#feb7b7"/>
                    <path id="Trazado_298757" data-name="Trazado 298757" d="M1853.752,526.483c2.151,2.4,7.49,8.508,7.875,10.411a12.67,12.67,0,0,0,1.894,4.362l2.212-5.121s-3.218-5.635-7.64-8.705a11.412,11.412,0,0,0-3.178-1.6,3.481,3.481,0,0,0-.671.326A3.749,3.749,0,0,0,1853.752,526.483Z" transform="translate(-1790.833 -476.018)" fill="#002b7a" opacity="0.1" style="mix-blend-mode: color-burn;isolation: isolate"/>
                  </g>
                  <path id="Trazado_298758" data-name="Trazado 298758" d="M1841.4,566.932s7.212,9.98,11.237,8.673,3.523-2.718,3.523-2.718l-7.446-8.855Z" transform="translate(-1802.159 -441.001)" fill="#feb7b7"/>
                  <path id="Trazado_298759" data-name="Trazado 298759" d="M1866.11,587.289c-.435,1.238-.962,1.648-3.48,1.094-1.254-.278-9.07-7.08-11.115-8.874a2.082,2.082,0,0,1-1.211-1.687c-5.1-20.974-4.562-27.356-4.562-27.356l4.2-2.689.395-.249,5.472-3.481s2.333,30.584,2.741,33.551a1.406,1.406,0,0,1,.027.238A112.142,112.142,0,0,1,1866.11,587.289Z" transform="translate(-1798.19 -459.319)" fill="#162b34" opacity="0.1" style="mix-blend-mode: color-burn;isolation: isolate"/>
                  <path id="Trazado_298760" data-name="Trazado 298760" d="M1855.144,590.939c-3.64,1.173-9.848-6.8-11.048-8.4a1.852,1.852,0,0,1-.857-1.451c-5.116-20.987-4.562-27.368-4.562-27.368l4.205-2.676c.105-.081,5.867-3.745,5.867-3.745s1.951,25.589,2.6,32.221l7.316,8.7S1859.165,589.634,1855.144,590.939Z" transform="translate(-1804.666 -456.337)" fill="#162b34" opacity="0.1" style="mix-blend-mode: color-burn;isolation: isolate"/>
                  <path id="Trazado_298761" data-name="Trazado 298761" d="M1839.023,579.435c-6.946-4.034-14.131-8.556-16.82-12.933-3.7-6.037,1.673-15.715,3.151-25.417a53.806,53.806,0,0,0-.013-11.339c-.435-5.576-1.278-11.653-2-16.28l3.243-5.075,2.7.222a29.182,29.182,0,0,1,4.523,6.818,12.228,12.228,0,0,0-3.613-3.824c-3.692-2.07.87,19.444.659,30.743a21.118,21.118,0,0,1-.276,3.534c-1.675,9.4,3.1,17.388,9.662,23.439C1843.928,572.725,1841.687,576.654,1839.023,579.435Z" transform="translate(-1820.924 -492.004)" fill="#48caff"/>
                </g>
                <g id="Grupo_841832" data-name="Grupo 841832" transform="translate(0 37.099)">
                  <g id="Grupo_841831" data-name="Grupo 841831">
                    <g id="Grupo_841816" data-name="Grupo 841816" transform="translate(76.389 3.975)" style="isolation: isolate">
                      <g id="Grupo_841813" data-name="Grupo 841813">
                        <path id="Trazado_298762" data-name="Trazado 298762" d="M1855.177,521.271l0,63.87,6.33,3.678,0-63.87Z" transform="translate(-1855.177 -521.271)" fill="#303036"/>
                      </g>
                      <g id="Grupo_841815" data-name="Grupo 841815" transform="translate(6.33 0.059)">
                        <g id="Grupo_841814" data-name="Grupo 841814">
                          <path id="Trazado_298763" data-name="Trazado 298763" d="M1858.48,524.921l0,63.87,6.27-3.62,0-63.87Z" transform="translate(-1858.48 -521.302)" fill="#595969"/>
                        </g>
                      </g>
                    </g>
                    <g id="Grupo_841820" data-name="Grupo 841820" transform="translate(111.374 26.605)" style="isolation: isolate">
                      <g id="Grupo_841817" data-name="Grupo 841817">
                        <path id="Trazado_298764" data-name="Trazado 298764" d="M1873.431,533.078l0,61.233,6.329,3.678,0-61.233Z" transform="translate(-1873.431 -533.078)" fill="#303036"/>
                      </g>
                      <g id="Grupo_841819" data-name="Grupo 841819" transform="translate(6.33 0.059)">
                        <g id="Grupo_841818" data-name="Grupo 841818">
                          <path id="Trazado_298765" data-name="Trazado 298765" d="M1876.733,536.728l0,61.233,6.27-3.62,0-61.233Z" transform="translate(-1876.733 -533.109)" fill="#595969"/>
                        </g>
                      </g>
                    </g>
                    <g id="Grupo_841824" data-name="Grupo 841824" transform="translate(34.703 70.697)" style="isolation: isolate">
                      <g id="Grupo_841821" data-name="Grupo 841821">
                        <path id="Trazado_298766" data-name="Trazado 298766" d="M1833.428,556.083l0,61.233,6.33,3.679,0-61.233Z" transform="translate(-1833.428 -556.083)" fill="#303036"/>
                      </g>
                      <g id="Grupo_841823" data-name="Grupo 841823" transform="translate(6.33 0.058)">
                        <g id="Grupo_841822" data-name="Grupo 841822">
                          <path id="Trazado_298767" data-name="Trazado 298767" d="M1836.73,559.733l0,61.233,6.269-3.62,0-61.233Z" transform="translate(-1836.73 -556.114)" fill="#595969"/>
                        </g>
                      </g>
                    </g>
                    <g id="Grupo_841828" data-name="Grupo 841828" transform="translate(0.007 50.452)" style="isolation: isolate">
                      <g id="Grupo_841825" data-name="Grupo 841825">
                        <path id="Trazado_298768" data-name="Trazado 298768" d="M1815.326,545.521l0,61.233,6.33,3.678,0-61.233Z" transform="translate(-1815.326 -545.521)" fill="#303036"/>
                      </g>
                      <g id="Grupo_841827" data-name="Grupo 841827" transform="translate(6.33 0.059)">
                        <g id="Grupo_841826" data-name="Grupo 841826">
                          <path id="Trazado_298769" data-name="Trazado 298769" d="M1818.628,549.171l0,61.233,6.269-3.62,0-61.233Z" transform="translate(-1818.628 -545.551)" fill="#595969"/>
                        </g>
                      </g>
                    </g>
                    <g id="Grupo_841830" data-name="Grupo 841830">
                      <path id="Trazado_298770" data-name="Trazado 298770" d="M1919.72,531.579v2.983l-83,47.7v-2.983Z" transform="translate(-1795.706 -507.848)" fill="#595969"/>
                      <g id="Grupo_841829" data-name="Grupo 841829">
                        <path id="Trazado_298771" data-name="Trazado 298771" d="M1856.339,567.818V570.8l-41.017-23.731v-2.983Z" transform="translate(-1815.322 -496.382)" fill="#303036"/>
                        <path id="Trazado_298772" data-name="Trazado 298772" d="M1939.337,542.929l-83,47.7L1815.322,566.9l83.018-47.7Z" transform="translate(-1815.322 -519.197)" fill="#404047"/>
                      </g>
                    </g>
                  </g>
                </g>
                <g id="Grupo_841833" data-name="Grupo 841833" transform="translate(52.033 60.558)">
                  <path id="Trazado_298773" data-name="Trazado 298773" d="M1850.213,533.668a8.034,8.034,0,0,1-3.868,6.12,3,3,0,0,1-.377.188c-1.6.776-2.911.408-3.352-.838a3.178,3.178,0,0,1-.146-1,8.019,8.019,0,0,1,3.875-6.108,2.159,2.159,0,0,1,.274-.136c1.225-.629,2.283-.6,2.932,0A2.256,2.256,0,0,1,1850.213,533.668Z" transform="translate(-1842.47 -531.437)" fill="#8595b0"/>
                </g>
              </g>
            </g>
          </g>
        </g>
        <path id="Trazado_298774" data-name="Trazado 298774" d="M1828.019,502.676a34.987,34.987,0,0,1,3.657-1.437c1.481-.435-1.87,6.706-1.87,6.706Z" transform="translate(-1803.333 -466.883)" fill="#009ad4"/>
        <path id="Trazado_298775" data-name="Trazado 298775" d="M1849.53,501.831c-10.723-6.551-16.883,12.9-16.883,12.9-1.006-1.562-3.717-2.473-4.732-3.343-2.886-2.474-3.441-7.469-3.645-11.266a16.92,16.92,0,0,1,.42-4.661c.358-1.729,3.755-9.769,16.567-7.609a16.288,16.288,0,0,1,3.069.807,10.252,10.252,0,0,1,3.093,1.784C1852.3,494.63,1849.53,501.831,1849.53,501.831Z" transform="translate(-1806.791 -479.474)" fill="#303036"/>
        <path id="Trazado_298776" data-name="Trazado 298776" d="M1838.084,524.8s1.485-9.288,1.031-13.468l-1.461-1.159,1.51-.452s-.755-4.583-1.863-6.6-3.877-.656-3.877-.656l1.091,13.363Z" transform="translate(-1798.377 -466.15)" fill="#fff"/>
        <path id="Trazado_298777" data-name="Trazado 298777" d="M1839.734,502.409s-.038,3.4-.171,7.435c-.106,3.429-.278,7.318-.554,9.94l-.2-.157a50.058,50.058,0,0,1-7.475-6.645,14.8,14.8,0,0,1-2.453-3.665c-.5-1.121-.46-3.81-.355-6.248.092-1.662.2-3.191.211-4.061v-.673l3.559.516.54.079,4.127.592Z" transform="translate(-1802.926 -469.528)" fill="#feb7b7"/>
        <path id="Trazado_298778" data-name="Trazado 298778" d="M1843.422,514.833a6.828,6.828,0,0,1-1.846.316,1.2,1.2,0,0,1-.211.013,2.817,2.817,0,0,1-.33.013,3.87,3.87,0,0,1-1.068-.157,18.988,18.988,0,0,1-3.758-1.781,22.154,22.154,0,0,1-5.392-3.7,4.5,4.5,0,0,1-.487-1.146,16.341,16.341,0,0,1-.713-2.953.568.568,0,0,0-.659-.514,1.043,1.043,0,0,1-.565-.08,2.142,2.142,0,0,1-.87-.882,5.808,5.808,0,0,1-.845-4.615,1.219,1.219,0,0,1,.7-.8c1.132-.4,2.346,1.225,2.53,2.162a.484.484,0,0,0,.094.224.4.4,0,0,0,.33.065c.882-.065.79-.079.79-.924a6.7,6.7,0,0,1,2.453-5.127,3.8,3.8,0,0,1,1.146-.659c.053-.013.105-.04.159-.054a9.245,9.245,0,0,1,3.071-.105,13.174,13.174,0,0,0,4.958-.724c1.292-.448,2.635-1.635,3.8-.119a1.99,1.99,0,0,1,.251.422,5.225,5.225,0,0,1,.343,1.254A29.611,29.611,0,0,1,1843.422,514.833Z" transform="translate(-1804.729 -474.847)" fill="#feb7b7"/>
        <path id="Trazado_298779" data-name="Trazado 298779" d="M1830.274,515.69l.608-2-1.74.487s-2.348-5.97-1.913-9.148l1.57-3.046s.316.7.884,1.792a43.163,43.163,0,0,0,4.165,6.513,19.3,19.3,0,0,0,6.394,5.577l3.561,8.964A107.162,107.162,0,0,1,1830.274,515.69Z" transform="translate(-1804.106 -466.186)" fill="#fff"/>
        <path id="Trazado_298780" data-name="Trazado 298780" d="M1868.963,539.14c-.989,1.2-2.94,4.245-4.495,6.472-.529.778-1.016,1.451-1.4,1.913l-16.385-12.985-2.294-7.977a3.763,3.763,0,0,0,1.278-2.016,56.248,56.248,0,0,0-1.662-7.555c-1.014-3.927-2.267-8.489-3.138-11.626a12.613,12.613,0,0,0-.738-3.111,2.673,2.673,0,0,0-.276-.516c-.778-.976-1.4-1.727-1.543-1.9a9.321,9.321,0,0,1,3.9,2.478c2.254,2.108,5.154,5.959,7.777,12.92,4.681,12.458,4.629,13.142,4.548,13.142Z" transform="translate(-1793.898 -468.147)" fill="#fff"/>
        <g id="Grupo_841838" data-name="Grupo 841838" transform="translate(93.313 83.735)">
          <path id="Trazado_298781" data-name="Trazado 298781" d="M1872.213,541.57a4.915,4.915,0,0,1-1.752,3.542c-.15.088-.276.15-.4.209a5.141,5.141,0,0,1-4.048.042,4.256,4.256,0,0,1-.477-.234,4.919,4.919,0,0,1-1.708-3.559,4.156,4.156,0,0,1,.989-2.7c.493-.579.418-4.343.269-4.519a3.824,3.824,0,0,1-.916-2.494,3.971,3.971,0,0,1,.513-1.905,3.8,3.8,0,0,1,6.687-.023,4.206,4.206,0,0,1,.506,1.928,3.826,3.826,0,0,1-.909,2.484c-.163.192-.343,3.824.251,4.519A4.154,4.154,0,0,1,1872.213,541.57Z" transform="translate(-1863.825 -526.12)" fill="#b7e8ff"/>
          <path id="Trazado_298782" data-name="Trazado 298782" d="M1871.647,538.033a4.539,4.539,0,0,1-1.572,3.216c-.117.069-.225.125-.362.19a4.615,4.615,0,0,1-1.9.4,4.7,4.7,0,0,1-1.836-.364,3.545,3.545,0,0,1-.435-.215,4.555,4.555,0,0,1-1.518-3.226,3.8,3.8,0,0,1,.9-2.457c.1-.121.416-.487.466-2.649.01-.362.011-.759,0-1.123a1.271,1.271,0,0,0,.711.92,3.824,3.824,0,0,0,3.456,0,1.279,1.279,0,0,0,.711-.9c-.079,1.309.019,3.212.475,3.745A3.786,3.786,0,0,1,1871.647,538.033Z" transform="translate(-1863.643 -522.583)" fill="#0d5db1"/>
          <path id="Trazado_298783" data-name="Trazado 298783" d="M1871.145,531.672a3.449,3.449,0,0,1-.82,2.235,2.964,2.964,0,0,0-.217,1.173,1.282,1.282,0,0,1-.717,1,3.825,3.825,0,0,1-3.456,0,1.271,1.271,0,0,1-.711-.92c0-.033,0-.065,0-.1a2.6,2.6,0,0,0-.2-1.146,3.451,3.451,0,0,1-.822-2.243,3.587,3.587,0,0,1,.466-1.723,3.325,3.325,0,0,1,2.976-1.8,3.439,3.439,0,0,1,3.015,1.733A3.931,3.931,0,0,1,1871.145,531.672Z" transform="translate(-1863.478 -525.937)" fill="#92dcff"/>
          <path id="Trazado_298784" data-name="Trazado 298784" d="M1868.545,527.51v1.259c0,.677-1.039.991-1.717.991a2.632,2.632,0,0,1-.937-.163c-.052-.019-.1-.04-.151-.063a1.3,1.3,0,0,1-.469-.347.647.647,0,0,1-.161-.418V527.51Z" transform="translate(-1862.649 -526.519)" fill="#48caff"/>
          <path id="Trazado_298785" data-name="Trazado 298785" d="M1868.545,527.984a.7.7,0,0,1-.245.508,1.267,1.267,0,0,1-.27.2,2.351,2.351,0,0,1-.874.268,3.123,3.123,0,0,1-.328.017,2.77,2.77,0,0,1-.834-.123c-.036-.012-.073-.025-.1-.038a1.667,1.667,0,0,1-.431-.23c-.038-.029-.073-.059-.108-.09a.712.712,0,0,1-.243-.51.627.627,0,0,1,.053-.253,1,1,0,0,1,.427-.437,2.665,2.665,0,0,1,1.238-.3C1867.535,526.993,1868.545,527.306,1868.545,527.984Z" transform="translate(-1862.649 -526.993)" fill="#00bced"/>
          <path id="Trazado_298786" data-name="Trazado 298786" d="M1865.739,528.275v1.259a.921.921,0,0,1-.63-.765V527.51a.712.712,0,0,0,.243.51c.035.031.069.061.108.09A1.359,1.359,0,0,0,1865.739,528.275Z" transform="translate(-1862.649 -526.519)" fill="#009ad4"/>
          <path id="Trazado_298787" data-name="Trazado 298787" d="M1869.622,532.438a1.282,1.282,0,0,1-.717,1,3.825,3.825,0,0,1-3.456,0,1.271,1.271,0,0,1-.711-.92c0-.033,0-.065,0-.1a1.226,1.226,0,0,1,.715-.977,3.813,3.813,0,0,1,3.456,0A1.213,1.213,0,0,1,1869.622,532.438Z" transform="translate(-1862.992 -523.295)" fill="#1c80d7"/>
          <path id="Trazado_298788" data-name="Trazado 298788" d="M1868.675,540.628a4.126,4.126,0,0,1-1.252,2.672.24.24,0,0,1-.41-.169.227.227,0,0,1,.054-.15,3.877,3.877,0,0,0,.979-2.373,3.2,3.2,0,0,0-.767-2.091c-.169-.2-.617-.723-.639-3.061-.021-2.221.251-2.543.385-2.7a2.871,2.871,0,0,0,.68-1.861,3.275,3.275,0,0,0-.4-1.485.429.429,0,0,1-.071-.259c.006-.031.039-.1.165-.155a.262.262,0,0,1,.313.08,2.389,2.389,0,0,1,.2.3,3.343,3.343,0,0,1,.424,1.533,2.882,2.882,0,0,1-.68,1.861c-.132.157-.406.479-.387,2.7.021,2.338.472,2.863.638,3.061A3.207,3.207,0,0,1,1868.675,540.628Z" transform="translate(-1861.244 -525.178)" fill="#b7e8ff" opacity="0.5" style="mix-blend-mode: screen;isolation: isolate"/>
          <path id="Trazado_298789" data-name="Trazado 298789" d="M1867.91,544.92a4.709,4.709,0,0,1-1.806-.364,3.58,3.58,0,0,1-.437-.215,4.564,4.564,0,0,1-1.516-3.226,3.8,3.8,0,0,1,.9-2.457c.1-.121.416-.487.466-2.649.01-.362.011-.759,0-1.121,0-.035,0-.067,0-.1a2.6,2.6,0,0,0-.2-1.146,3.453,3.453,0,0,1-.824-2.242,3.572,3.572,0,0,1,.468-1.723,3.489,3.489,0,0,1,1.187-1.292,1.3,1.3,0,0,0,.469.347,3.771,3.771,0,0,0-1.288,2.745,3.452,3.452,0,0,0,.822,2.243,2.6,2.6,0,0,1,.2,1.146c0,.033,0,.065,0,.1.011.364.01.761,0,1.123-.05,2.162-.362,2.528-.466,2.649a3.8,3.8,0,0,0-.9,2.457,4.555,4.555,0,0,0,1.518,3.226,3.52,3.52,0,0,0,.435.215A4.476,4.476,0,0,0,1867.91,544.92Z" transform="translate(-1863.526 -525.717)" fill="#5eb4de" opacity="0.75" style="mix-blend-mode: color-burn;isolation: isolate"/>
        </g>
        <g id="Grupo_841840" data-name="Grupo 841840" transform="translate(102.253 78.646)">
          <path id="Trazado_298790" data-name="Trazado 298790" d="M1870.383,524.955v9.24a.763.763,0,0,0,.15.441.853.853,0,0,0,.142.161,1.575,1.575,0,0,0,.3.228,2.541,2.541,0,0,0,.673.257,1.213,1.213,0,0,0,.129.027,3.324,3.324,0,0,0,.634.061,3.371,3.371,0,0,0,.765-.088,2.537,2.537,0,0,0,.673-.257,1.5,1.5,0,0,0,.305-.228.871.871,0,0,0,.142-.161.776.776,0,0,0,.15-.441v-9.24Z" transform="translate(-1866.753 -523.772)" fill="#b7e8ff"/>
          <g id="Grupo_841839" data-name="Grupo 841839" transform="translate(0 9.942)">
            <path id="Trazado_298791" data-name="Trazado 298791" d="M1868.489,535.177c0,.094,0,.188.006.282s.012.182.021.265a2.964,2.964,0,0,0,1.62,2.037,8.816,8.816,0,0,0,7.983.048,3.016,3.016,0,0,0,1.639-1.976c.012-.109.021-.218.029-.33s.008-.218.008-.326a5.652,5.652,0,1,0-11.3,0Z" transform="translate(-1868.489 -529.525)" fill="#b7e8ff"/>
            <path id="Trazado_298792" data-name="Trazado 298792" d="M1879.249,533.32c0,.105,0,.2-.007.3-.008.119-.016.213-.027.3a2.694,2.694,0,0,1-1.455,1.71,7.73,7.73,0,0,1-3.756.884,8.329,8.329,0,0,1-3.172-.588,5.864,5.864,0,0,1-.686-.339,2.664,2.664,0,0,1-1.441-1.765c-.006-.071-.012-.144-.015-.217-.006-.117-.008-.2-.008-.286a5.277,5.277,0,0,1,.3-1.769c-.308.924.155,1.917,1.394,2.632a7.934,7.934,0,0,0,7.178,0c1.2-.694,1.675-1.65,1.42-2.549A5.285,5.285,0,0,1,1879.249,533.32Z" transform="translate(-1868.313 -527.668)" fill="#ff4750"/>
            <path id="Trazado_298793" data-name="Trazado 298793" d="M1877.454,535.864a7.934,7.934,0,0,1-7.178,0c-1.238-.715-1.7-1.708-1.394-2.632.056-.151.083-.22.113-.289a5.294,5.294,0,0,1,2.812-2.812,5.228,5.228,0,0,1,1.918-.412c.046,0,.092,0,.138,0a5.3,5.3,0,0,1,4.87,3.228c.017.04.034.082.05.123.033.082.063.165.09.247C1879.13,534.213,1878.656,535.17,1877.454,535.864Z" transform="translate(-1868.213 -529.349)" fill="#48caff"/>
          </g>
          <path id="Trazado_298794" data-name="Trazado 298794" d="M1873.9,525.147v9.1a.416.416,0,0,1-.084.232.531.531,0,0,1-.09.1l-.008-.222c-.057.056-.138.345-.234.4-.161.092-.353-.065-.567-.015a3.068,3.068,0,0,1-.682.077,2.933,2.933,0,0,1-.563-.054c-.04-.006-.075-.013-.107-.021a2.135,2.135,0,0,1-.583-.22,1.425,1.425,0,0,1-.184-.128v.228a.92.92,0,0,1-.14-.144.532.532,0,0,1-.054-.1.342.342,0,0,1-.031-.14v-9.1Z" transform="translate(-1866.576 -523.596)" fill="#48caff"/>
          <path id="Trazado_298795" data-name="Trazado 298795" d="M1874.434,525.511a.828.828,0,0,1-.287.6,1.914,1.914,0,0,1-.311.228,2.606,2.606,0,0,1-.686.259,2.671,2.671,0,0,1-.357.063,3.362,3.362,0,0,1-1.108-.054c-.082-.017-.161-.038-.238-.061s-.113-.038-.155-.054a2.055,2.055,0,0,1-.293-.134,1.458,1.458,0,0,1-.213-.138c-.061-.048-.094-.077-.126-.105a.845.845,0,0,1-.287-.6.733.733,0,0,1,.08-.341,1.167,1.167,0,0,1,.487-.475,3.163,3.163,0,0,1,1.462-.356C1873.24,524.338,1874.434,524.708,1874.434,525.511Z" transform="translate(-1866.762 -524.338)" fill="#b7e8ff"/>
          <path id="Trazado_298796" data-name="Trazado 298796" d="M1874.01,525.374a.573.573,0,0,1-.217.412,1.788,1.788,0,0,1-.629.334,1.244,1.244,0,0,1-.123.036,2.954,2.954,0,0,1-.776.1,3.084,3.084,0,0,1-.583-.054,2.25,2.25,0,0,1-.686-.24c-.3-.167-.473-.383-.473-.59,0-.247.2-.447.473-.594a2.607,2.607,0,0,1,.686-.232,2.9,2.9,0,0,1,1.359.046c.04.01.082.023.123.034a1.885,1.885,0,0,1,.563.272A.628.628,0,0,1,1874.01,525.374Z" transform="translate(-1866.625 -524.201)" fill="#48caff"/>
          <path id="Trazado_298797" data-name="Trazado 298797" d="M1877.454,535.316a7.933,7.933,0,0,1-7.178,0c-1.238-.715-1.7-1.708-1.394-2.632a3,3,0,0,1,1.394-1.512,7.933,7.933,0,0,1,7.178,0,3.053,3.053,0,0,1,1.33,1.347,1.8,1.8,0,0,1,.09.247C1879.13,533.666,1878.656,534.622,1877.454,535.316Z" transform="translate(-1868.213 -518.86)" fill="#ffa0a6"/>
          <path id="Trazado_298798" data-name="Trazado 298798" d="M1873.123,525.641v8.88c-.136.044-.272.094-.4.151a5.3,5.3,0,0,0-2.813,2.812q-.044.1-.081.207a5.36,5.36,0,0,0-.333,1.85c0,.084,0,.169.006.263s.012.169.017.241a2.217,2.217,0,0,0,.826,1.33,2.731,2.731,0,0,1-1.512-1.8c-.006-.073-.012-.144-.016-.218-.006-.117-.007-.2-.007-.286a5.28,5.28,0,0,1,.3-1.769c.056-.149.083-.219.111-.288a5.306,5.306,0,0,1,2.814-2.812c.132-.058.268-.107.4-.151v-8.656a2.074,2.074,0,0,0,.293.134c.042.015.084.031.126.044C1872.962,525.6,1873.041,525.624,1873.123,525.641Z" transform="translate(-1868.199 -523.372)" fill="#6dd1ff" opacity="0.75" style="mix-blend-mode: color-burn;isolation: isolate"/>
          <path id="Trazado_298799" data-name="Trazado 298799" d="M1872.523,524.85v.941a1.76,1.76,0,0,1-.563.278,1.244,1.244,0,0,1-.123.036v-1.562c.04.01.082.023.123.034A1.882,1.882,0,0,1,1872.523,524.85Z" transform="translate(-1865.42 -524.15)" fill="#6dd1ff" opacity="0.75" style="mix-blend-mode: color-burn;isolation: isolate"/>
          <path id="Trazado_298800" data-name="Trazado 298800" d="M1876.14,539.18c0,.194-.686.677-.686.473a5.274,5.274,0,0,0-.3-1.769c-.054-.151-.083-.22-.111-.289a5.306,5.306,0,0,0-2.812-2.812c-.134-.056-.269-.106-.4-.151v-9a2.527,2.527,0,0,0,.644-.236c.042-.023.042,8.765.042,8.765.136.046.27.1.4.151a5.312,5.312,0,0,1,2.812,2.812c.029.069.057.138.082.209A5.4,5.4,0,0,1,1876.14,539.18Z" transform="translate(-1865.434 -523.37)" fill="#b7e8ff" opacity="0.5" style="mix-blend-mode: screen;isolation: isolate"/>
          <path id="Trazado_298801" data-name="Trazado 298801" d="M1871.456,524.519v1.656a2.252,2.252,0,0,1-.686-.24v-1.184A2.606,2.606,0,0,1,1871.456,524.519Z" transform="translate(-1866.398 -524.172)" fill="#b7e8ff" opacity="0.5" style="mix-blend-mode: screen;isolation: isolate"/>
        </g>
        <g id="Grupo_841841" data-name="Grupo 841841" transform="translate(16.051 105.126)">
          <path id="Trazado_298802" data-name="Trazado 298802" d="M1825.373,545.073l18.553,10.712,11.986-6.92-18.553-10.712Z" transform="translate(-1821.809 -538.154)" fill="#303036"/>
          <path id="Trazado_298803" data-name="Trazado 298803" d="M1826.523,544.466l9.782-5.648,16.349,9.439-9.782,5.648Z" transform="translate(-1820.755 -537.545)" fill="#92dcff"/>
          <path id="Trazado_298804" data-name="Trazado 298804" d="M1823.554,544.872l9.782-5.648,16.349,9.439-9.782,5.648Z" transform="translate(-1823.476 -537.172)" fill="#77cef2"/>
          <path id="Trazado_298805" data-name="Trazado 298805" d="M1823.514,547.353l9.782-5.648,16.35,9.439-9.782,5.648Z" transform="translate(-1823.514 -534.899)" fill="#8cdafa"/>
        </g>
        <g id="Grupo_841845" data-name="Grupo 841845" transform="translate(39.791 110.202)">
          <g id="Grupo_841842" data-name="Grupo 841842" transform="translate(0 21.313)">
            <path id="Trazado_298806" data-name="Trazado 298806" d="M1839.674,552.5v.9a.717.717,0,0,1-.138.412.924.924,0,0,1-.13.148,1.45,1.45,0,0,1-.281.213,2.29,2.29,0,0,1-.627.238c-.039.011-.079.015-.119.025a3.03,3.03,0,0,1-.59.057,3.218,3.218,0,0,1-.709-.082,2.26,2.26,0,0,1-.623-.238,1.427,1.427,0,0,1-.286-.213,1.054,1.054,0,0,1-.132-.148.733.733,0,0,1-.138-.412v-.9Z" transform="translate(-1835.9 -551.396)" fill="#00bced"/>
            <path id="Trazado_298807" data-name="Trazado 298807" d="M1839.673,553.015a.765.765,0,0,1-.269.556,1.4,1.4,0,0,1-.3.217,2.58,2.58,0,0,1-.956.3c-.121.012-.242.019-.364.019a3.033,3.033,0,0,1-.914-.134l-.117-.04a1.99,1.99,0,0,1-.3-.144,1.351,1.351,0,0,1-.169-.111,1.2,1.2,0,0,1-.117-.1.779.779,0,0,1-.268-.55.7.7,0,0,1,.074-.324,1.072,1.072,0,0,1,.453-.441,2.9,2.9,0,0,1,1.359-.335C1838.565,551.922,1839.673,552.269,1839.673,553.015Z" transform="translate(-1835.899 -551.922)" fill="#009ad4"/>
          </g>
          <g id="Grupo_841844" data-name="Grupo 841844" transform="translate(0.219)">
            <path id="Trazado_298808" data-name="Trazado 298808" d="M1839.351,541.309v21.507a.587.587,0,0,1-.19.312,1.609,1.609,0,0,1-.615.332,2.838,2.838,0,0,1-.863.132,2.19,2.19,0,0,1-1.479-.471.581.581,0,0,1-.19-.326V541.309Z" transform="translate(-1836.014 -540.337)" fill="#b7e8ff"/>
            <path id="Trazado_298809" data-name="Trazado 298809" d="M1839.071,541.408v19.419a.536.536,0,0,1-.18.289,1.423,1.423,0,0,1-.535.286,2.453,2.453,0,0,1-.763.117c-.855,0-1.457-.381-1.479-.728V541.408Z" transform="translate(-1835.923 -540.247)" fill="#48caff"/>
            <path id="Trazado_298810" data-name="Trazado 298810" d="M1839.353,541.764a.686.686,0,0,1-.24.495.67.67,0,0,1-.079.069,1.517,1.517,0,0,1-.184.125,2.134,2.134,0,0,1-.324.144,2.533,2.533,0,0,1-.521.113,2.569,2.569,0,0,1-.322.017,2.753,2.753,0,0,1-.809-.119.913.913,0,0,1-.1-.036,1.719,1.719,0,0,1-.418-.222c-.036-.029-.071-.058-.1-.086a.7.7,0,0,1-.24-.5.6.6,0,0,1,.069-.278.92.92,0,0,1,.4-.389,2.567,2.567,0,0,1,1.2-.3C1838.371,540.8,1839.353,541.107,1839.353,541.764Z" transform="translate(-1836.014 -540.802)" fill="#b7e8ff"/>
            <path id="Trazado_298811" data-name="Trazado 298811" d="M1839.075,541.662a.438.438,0,0,1-.13.3,1.388,1.388,0,0,1-.508.312,2.627,2.627,0,0,1-.843.142,2.47,2.47,0,0,1-.847-.142,1.276,1.276,0,0,1-.508-.322.4.4,0,0,1,0-.586,1.261,1.261,0,0,1,.508-.3,2.61,2.61,0,0,1,.847-.146,2.644,2.644,0,0,1,.763.119,1.548,1.548,0,0,1,.535.274A.508.508,0,0,1,1839.075,541.662Z" transform="translate(-1835.924 -540.7)" fill="#48caff"/>
            <g id="Grupo_841843" data-name="Grupo 841843" transform="translate(0.19 6.969)">
              <path id="Trazado_298812" data-name="Trazado 298812" d="M1839.071,544.877v15.015a1.254,1.254,0,0,1-.127.1,1.753,1.753,0,0,1-.489.23,2.892,2.892,0,0,1-.862.132,2.191,2.191,0,0,1-1.479-.471V544.841c.023.349.625.728,1.479.728a2.451,2.451,0,0,0,.763-.117,1.446,1.446,0,0,0,.535-.286A.591.591,0,0,0,1839.071,544.877Z" transform="translate(-1836.113 -544.069)" fill="#00bced"/>
              <path id="Trazado_298813" data-name="Trazado 298813" d="M1839.074,545.187a.534.534,0,0,1-.184.349,1.421,1.421,0,0,1-.535.286,2.451,2.451,0,0,1-.763.117c-.855,0-1.457-.38-1.479-.728.052-.525.895-.772,1.479-.772a2.636,2.636,0,0,1,.763.117,1.438,1.438,0,0,1,.535.278.525.525,0,0,1,.18.291C1839.072,545.147,1839.074,545.166,1839.074,545.187Z" transform="translate(-1836.113 -544.438)" fill="#92dcff"/>
            </g>
          </g>
          <path id="Trazado_298814" data-name="Trazado 298814" d="M1836.456,553.257v.91a1.427,1.427,0,0,1-.286-.213,1.054,1.054,0,0,1-.132-.148.733.733,0,0,1-.138-.412v-.9a.789.789,0,0,0,.27.55,1.176,1.176,0,0,0,.117.1A1.35,1.35,0,0,0,1836.456,553.257Z" transform="translate(-1835.9 -530.083)" fill="#0376b3"/>
          <path id="Trazado_298815" data-name="Trazado 298815" d="M1837.833,541.6v21.367a1.753,1.753,0,0,1-.489.23c-.019,0-.019-21.328-.019-21.328a1.96,1.96,0,0,0,.314-.14A1.4,1.4,0,0,0,1837.833,541.6Z" transform="translate(-1834.594 -540.072)" fill="#b7e8ff" opacity="0.5" style="mix-blend-mode: screen;isolation: isolate"/>
          <path id="Trazado_298816" data-name="Trazado 298816" d="M1836.178,541.6v21.367a1.717,1.717,0,0,0,.487.23c.019,0,.019-21.328.019-21.328a1.965,1.965,0,0,1-.314-.14A1.524,1.524,0,0,1,1836.178,541.6Z" transform="translate(-1835.645 -540.072)" fill="#5eb4de" opacity="0.75" style="mix-blend-mode: color-burn;isolation: isolate"/>
          <path id="Trazado_298817" data-name="Trazado 298817" d="M1836.686,540.989V542.2a1.278,1.278,0,0,1-.508-.322v-.586A1.262,1.262,0,0,1,1836.686,540.989Z" transform="translate(-1835.645 -540.631)" fill="#b7e8ff" opacity="0.5" style="mix-blend-mode: screen;isolation: isolate"/>
          <path id="Trazado_298818" data-name="Trazado 298818" d="M1837.833,541.288v.6a1.389,1.389,0,0,1-.508.313v-1.213a1.385,1.385,0,0,1,.454.247Z" transform="translate(-1834.594 -540.631)" fill="#5eb4de" opacity="0.75" style="mix-blend-mode: color-burn;isolation: isolate"/>
        </g>
        <g id="Grupo_841848" data-name="Grupo 841848" transform="translate(48.832 105.107)">
          <g id="Grupo_841846" data-name="Grupo 841846" transform="translate(0 21.313)">
            <path id="Trazado_298819" data-name="Trazado 298819" d="M1844.393,549.838v.9a.712.712,0,0,1-.14.412.994.994,0,0,1-.129.148,1.459,1.459,0,0,1-.284.213,2.205,2.205,0,0,1-.625.236,1.211,1.211,0,0,1-.121.027,3.15,3.15,0,0,1-.589.058,3.1,3.1,0,0,1-.709-.084,2.212,2.212,0,0,1-.625-.236,1.473,1.473,0,0,1-.285-.213,1.133,1.133,0,0,1-.131-.148.739.739,0,0,1-.14-.412v-.9Z" transform="translate(-1840.617 -548.738)" fill="#00bced"/>
            <path id="Trazado_298820" data-name="Trazado 298820" d="M1844.391,550.356a.766.766,0,0,1-.269.556,1.46,1.46,0,0,1-.3.216,2.581,2.581,0,0,1-.958.3c-.119.011-.241.019-.362.019a3.033,3.033,0,0,1-.914-.134c-.04-.015-.079-.027-.117-.042a1.855,1.855,0,0,1-.3-.144,1.164,1.164,0,0,1-.169-.109,1.387,1.387,0,0,1-.117-.1.783.783,0,0,1-.266-.55.7.7,0,0,1,.075-.324,1.091,1.091,0,0,1,.45-.443,2.927,2.927,0,0,1,1.361-.333C1843.281,549.264,1844.391,549.611,1844.391,550.356Z" transform="translate(-1840.615 -549.264)" fill="#009ad4"/>
          </g>
          <g id="Grupo_841847" data-name="Grupo 841847" transform="translate(0.221)">
            <path id="Trazado_298821" data-name="Trazado 298821" d="M1844.067,538.651v21.507a.576.576,0,0,1-.19.312,1.6,1.6,0,0,1-.613.332,2.858,2.858,0,0,1-.862.13,2.187,2.187,0,0,1-1.479-.47.57.57,0,0,1-.19-.326V538.651Z" transform="translate(-1840.732 -537.679)" fill="#b7e8ff"/>
            <path id="Trazado_298822" data-name="Trazado 298822" d="M1843.786,548.9v2.212a1.378,1.378,0,0,1-.126.1,1.743,1.743,0,0,1-.487.23,2.9,2.9,0,0,1-.863.13,2.187,2.187,0,0,1-1.479-.47v-2.239c.021.347.623.728,1.479.728a2.459,2.459,0,0,0,.763-.117,1.5,1.5,0,0,0,.533-.286A.568.568,0,0,0,1843.786,548.9Z" transform="translate(-1840.642 -528.319)" fill="#ffc201"/>
            <path id="Trazado_298823" data-name="Trazado 298823" d="M1843.786,538.75v19.419a.527.527,0,0,1-.18.289,1.418,1.418,0,0,1-.533.286,2.459,2.459,0,0,1-.763.117c-.857,0-1.458-.381-1.479-.728V538.75Z" transform="translate(-1840.642 -537.589)" fill="#48caff"/>
            <path id="Trazado_298824" data-name="Trazado 298824" d="M1844.071,539.106a.685.685,0,0,1-.24.494.942.942,0,0,1-.08.069,1.659,1.659,0,0,1-.182.125,2.229,2.229,0,0,1-.324.144,2.553,2.553,0,0,1-.523.113,2.505,2.505,0,0,1-.32.017,2.733,2.733,0,0,1-.809-.119c-.035-.011-.069-.021-.1-.036a1.668,1.668,0,0,1-.416-.222c-.036-.029-.071-.057-.1-.088a.694.694,0,0,1-.238-.5.6.6,0,0,1,.067-.278.939.939,0,0,1,.4-.389,2.568,2.568,0,0,1,1.2-.3C1843.088,538.144,1844.071,538.449,1844.071,539.106Z" transform="translate(-1840.732 -538.144)" fill="#b7e8ff"/>
            <path id="Trazado_298825" data-name="Trazado 298825" d="M1843.793,539.005a.433.433,0,0,1-.132.3,1.385,1.385,0,0,1-.506.312,2.637,2.637,0,0,1-.843.142,2.527,2.527,0,0,1-.849-.142,1.264,1.264,0,0,1-.506-.322.4.4,0,0,1,0-.587,1.25,1.25,0,0,1,.506-.3,2.612,2.612,0,0,1,.849-.148,2.646,2.646,0,0,1,.763.121,1.537,1.537,0,0,1,.533.274A.514.514,0,0,1,1843.793,539.005Z" transform="translate(-1840.642 -538.043)" fill="#48caff"/>
            <path id="Trazado_298826" data-name="Trazado 298826" d="M1843.792,549.21a.538.538,0,0,1-.186.349,1.419,1.419,0,0,1-.533.286,2.459,2.459,0,0,1-.763.117c-.857,0-1.458-.381-1.479-.728.052-.525.893-.774,1.479-.774a2.7,2.7,0,0,1,.763.117,1.508,1.508,0,0,1,.533.278.514.514,0,0,1,.18.293C1843.788,549.168,1843.792,549.189,1843.792,549.21Z" transform="translate(-1840.642 -528.689)" fill="#ffdf53"/>
          </g>
          <path id="Trazado_298827" data-name="Trazado 298827" d="M1841.173,550.6v.912a1.473,1.473,0,0,1-.285-.213,1.133,1.133,0,0,1-.131-.148.739.739,0,0,1-.14-.412v-.9a.806.806,0,0,0,.271.55,1.386,1.386,0,0,0,.117.1A1.157,1.157,0,0,0,1841.173,550.6Z" transform="translate(-1840.617 -527.425)" fill="#0376b3"/>
          <path id="Trazado_298828" data-name="Trazado 298828" d="M1842.549,538.94v21.367a1.74,1.74,0,0,1-.487.23c-.019,0-.019-21.328-.019-21.328a2.057,2.057,0,0,0,.314-.14A1.5,1.5,0,0,0,1842.549,538.94Z" transform="translate(-1839.31 -537.414)" fill="#b7e8ff" opacity="0.5" style="mix-blend-mode: screen;isolation: isolate"/>
          <path id="Trazado_298829" data-name="Trazado 298829" d="M1840.9,538.94v21.367a1.739,1.739,0,0,0,.487.23c.021,0,.021-21.328.021-21.328a1.907,1.907,0,0,1-.315-.14A1.444,1.444,0,0,1,1840.9,538.94Z" transform="translate(-1840.362 -537.414)" fill="#5eb4de" opacity="0.75" style="mix-blend-mode: color-burn;isolation: isolate"/>
          <path id="Trazado_298830" data-name="Trazado 298830" d="M1841.4,538.331v1.213a1.266,1.266,0,0,1-.506-.322v-.586A1.251,1.251,0,0,1,1841.4,538.331Z" transform="translate(-1840.361 -537.973)" fill="#b7e8ff" opacity="0.5" style="mix-blend-mode: screen;isolation: isolate"/>
          <path id="Trazado_298831" data-name="Trazado 298831" d="M1842.549,538.63v.6a1.386,1.386,0,0,1-.506.312v-1.213a1.374,1.374,0,0,1,.453.247C1842.515,538.6,1842.532,538.613,1842.549,538.63Z" transform="translate(-1839.31 -537.973)" fill="#5eb4de" opacity="0.75" style="mix-blend-mode: color-burn;isolation: isolate"/>
        </g>
        <g id="Grupo_841852" data-name="Grupo 841852" transform="translate(44.311 107.503)">
          <g id="Grupo_841849" data-name="Grupo 841849" transform="translate(0 21.313)">
            <path id="Trazado_298832" data-name="Trazado 298832" d="M1842.034,551.088v.9a.722.722,0,0,1-.138.412.921.921,0,0,1-.13.148,1.45,1.45,0,0,1-.282.213,2.248,2.248,0,0,1-.627.236,1.2,1.2,0,0,1-.119.027,3.189,3.189,0,0,1-.59.058,3.092,3.092,0,0,1-.709-.084,2.232,2.232,0,0,1-.625-.236,1.4,1.4,0,0,1-.284-.213,1.022,1.022,0,0,1-.132-.148.74.74,0,0,1-.14-.412v-.9Z" transform="translate(-1838.258 -549.988)" fill="#00bced"/>
            <path id="Trazado_298833" data-name="Trazado 298833" d="M1842.032,551.607a.766.766,0,0,1-.268.556,1.412,1.412,0,0,1-.3.217,2.581,2.581,0,0,1-.958.3c-.119.011-.241.019-.362.019a3.037,3.037,0,0,1-.914-.134c-.039-.015-.079-.027-.117-.042a1.842,1.842,0,0,1-.3-.144,1.154,1.154,0,0,1-.167-.109,1.191,1.191,0,0,1-.117-.1.777.777,0,0,1-.268-.55.7.7,0,0,1,.074-.324,1.077,1.077,0,0,1,.451-.441,2.907,2.907,0,0,1,1.361-.335C1840.922,550.514,1842.032,550.861,1842.032,551.607Z" transform="translate(-1838.256 -550.514)" fill="#009ad4"/>
          </g>
          <g id="Grupo_841851" data-name="Grupo 841851" transform="translate(0.22)">
            <path id="Trazado_298834" data-name="Trazado 298834" d="M1841.71,539.9v21.507a.59.59,0,0,1-.192.312,1.6,1.6,0,0,1-.613.332,2.857,2.857,0,0,1-.862.13,2.191,2.191,0,0,1-1.479-.47.581.581,0,0,1-.19-.326V539.9Z" transform="translate(-1838.373 -538.929)" fill="#b7e8ff"/>
            <path id="Trazado_298835" data-name="Trazado 298835" d="M1841.428,540v19.419a.516.516,0,0,1-.18.289,1.4,1.4,0,0,1-.533.286,2.458,2.458,0,0,1-.763.117c-.855,0-1.458-.381-1.479-.73V540Z" transform="translate(-1838.283 -538.839)" fill="#48caff"/>
            <path id="Trazado_298836" data-name="Trazado 298836" d="M1841.712,540.356a.686.686,0,0,1-.24.495.6.6,0,0,1-.08.069,1.679,1.679,0,0,1-.182.125,2.141,2.141,0,0,1-.324.144,2.683,2.683,0,0,1-.843.13,2.743,2.743,0,0,1-.809-.119c-.035-.011-.069-.023-.1-.036a1.705,1.705,0,0,1-.416-.222c-.036-.029-.071-.057-.1-.088a.7.7,0,0,1-.237-.5.619.619,0,0,1,.067-.278.937.937,0,0,1,.4-.389,2.568,2.568,0,0,1,1.2-.3C1840.729,539.394,1841.712,539.7,1841.712,540.356Z" transform="translate(-1838.373 -539.394)" fill="#b7e8ff"/>
            <path id="Trazado_298837" data-name="Trazado 298837" d="M1841.434,540.255a.433.433,0,0,1-.132.3,1.394,1.394,0,0,1-.506.312,2.639,2.639,0,0,1-.844.142,2.527,2.527,0,0,1-.849-.142,1.266,1.266,0,0,1-.506-.322.4.4,0,0,1,0-.586,1.246,1.246,0,0,1,.506-.3,2.5,2.5,0,0,1,1.612-.027,1.519,1.519,0,0,1,.533.274A.505.505,0,0,1,1841.434,540.255Z" transform="translate(-1838.284 -539.293)" fill="#48caff"/>
            <g id="Grupo_841850" data-name="Grupo 841850" transform="translate(0.19 13.56)">
              <path id="Trazado_298838" data-name="Trazado 298838" d="M1841.428,546.908v8.424a1.157,1.157,0,0,1-.127.1,1.77,1.77,0,0,1-.487.23,2.9,2.9,0,0,1-.862.13,2.191,2.191,0,0,1-1.479-.47v-8.45c.021.349.625.728,1.479.728a2.46,2.46,0,0,0,.763-.117,1.42,1.42,0,0,0,.533-.286A.562.562,0,0,0,1841.428,546.908Z" transform="translate(-1838.472 -546.1)" fill="#ff4750"/>
              <path id="Trazado_298839" data-name="Trazado 298839" d="M1841.433,547.218a.529.529,0,0,1-.186.349,1.4,1.4,0,0,1-.533.286,2.458,2.458,0,0,1-.763.117c-.855,0-1.458-.38-1.479-.728.052-.523.895-.772,1.479-.772a2.64,2.64,0,0,1,.763.117,1.432,1.432,0,0,1,.533.278.5.5,0,0,1,.18.291A.361.361,0,0,1,1841.433,547.218Z" transform="translate(-1838.472 -546.469)" fill="#ffa0a6"/>
            </g>
          </g>
          <path id="Trazado_298840" data-name="Trazado 298840" d="M1838.814,551.847v.912a1.4,1.4,0,0,1-.284-.213,1.022,1.022,0,0,1-.132-.148.74.74,0,0,1-.14-.412v-.9a.8.8,0,0,0,.272.55,1.156,1.156,0,0,0,.117.1A1.136,1.136,0,0,0,1838.814,551.847Z" transform="translate(-1838.258 -528.675)" fill="#0376b3"/>
          <path id="Trazado_298841" data-name="Trazado 298841" d="M1840.19,540.19v21.367a1.771,1.771,0,0,1-.487.23c-.019,0-.019-21.328-.019-21.328a1.974,1.974,0,0,0,.314-.14A1.506,1.506,0,0,0,1840.19,540.19Z" transform="translate(-1836.951 -538.664)" fill="#b7e8ff" opacity="0.5" style="mix-blend-mode: screen;isolation: isolate"/>
          <path id="Trazado_298842" data-name="Trazado 298842" d="M1838.537,540.19v21.367a1.768,1.768,0,0,0,.487.23c.019,0,.019-21.328.019-21.328a1.89,1.89,0,0,1-.314-.14A1.283,1.283,0,0,1,1838.537,540.19Z" transform="translate(-1838.003 -538.664)" fill="#5eb4de" opacity="0.75" style="mix-blend-mode: color-burn;isolation: isolate"/>
          <path id="Trazado_298843" data-name="Trazado 298843" d="M1839.043,539.581v1.213a1.266,1.266,0,0,1-.506-.322v-.587A1.244,1.244,0,0,1,1839.043,539.581Z" transform="translate(-1838.003 -539.223)" fill="#b7e8ff" opacity="0.5" style="mix-blend-mode: screen;isolation: isolate"/>
          <path id="Trazado_298844" data-name="Trazado 298844" d="M1840.19,539.88v.6a1.394,1.394,0,0,1-.506.312v-1.213a1.356,1.356,0,0,1,.452.247C1840.156,539.846,1840.173,539.863,1840.19,539.88Z" transform="translate(-1836.951 -539.223)" fill="#5eb4de" opacity="0.75" style="mix-blend-mode: color-burn;isolation: isolate"/>
        </g>
        <path id="Trazado_298845" data-name="Trazado 298845" d="M1850.03,518.7s-11.475,7.557-13.989,6-7.2-11.318-8.33-12.606,4.975,16.439,4.975,16.439S1846.529,523.481,1850.03,518.7Z" transform="translate(-1803.744 -456.975)" fill="#48caff"/>
        <path id="Trazado_298846" data-name="Trazado 298846" d="M1868.995,553.975l-.541.922-2.189,3.732-.448.606-2.333,3.178s-24.8-7.318-27.224-9.558c-.989-.91-2.967-4.535-5.207-9.215-1.819-3.81-3.784-8.3-5.51-12.617-1.373-3.44-2.6-6.748-3.441-9.478-3.232-10.35.144-14.369.144-14.369,2.743-.634,5.116.5,7.237,2.714a29.189,29.189,0,0,1,4.523,6.818l.276.552c4.826,9.717,7.977,23.2,10.6,25.919C1849.246,547.725,1868.995,553.975,1868.995,553.975Z" transform="translate(-1810.039 -461.585)" fill="#fff"/>
        <path id="Trazado_298847" data-name="Trazado 298847" d="M1863.023,562.183c-3.375-1-24.535-7.356-26.762-9.413-2.427-2.241-10.942-20.949-14.158-31.31-3.232-10.35.144-14.369.144-14.369s4.932,24.9,15.623,42.687c0,0,13.631,6.129,24.943,8.753a5.512,5.512,0,0,0-.4,1.924,2.92,2.92,0,0,0,.159,1A1.941,1.941,0,0,0,1863.023,562.183Z" transform="translate(-1810.039 -461.501)" fill="#d1f2ff"/>
        <path id="Trazado_298848" data-name="Trazado 298848" d="M1850.219,533.671a8.037,8.037,0,0,1-3.862,6.118,3.283,3.283,0,0,1-.383.184c-1.238.594-2.294.514-2.9-.105a1.939,1.939,0,0,1-.449-.725,2.922,2.922,0,0,1-.159-1,5.512,5.512,0,0,1,.4-1.924,8.616,8.616,0,0,1,3.494-4.18c.092-.052.184-.106.263-.144,1.226-.621,2.281-.594,2.94,0A2.277,2.277,0,0,1,1850.219,533.671Z" transform="translate(-1790.09 -439.185)" fill="#009ad4"/>
        <path id="Trazado_298849" data-name="Trazado 298849" d="M1861.885,539.963l-3.176,2.664-.105.079-.673.554-.278.238-.381.3-5.827-2.61a4.973,4.973,0,0,0-1.345-.4l-4.126-1.041-3.362-.83a3.17,3.17,0,0,1-.146-1,4.351,4.351,0,0,1,.213-1.319,4.886,4.886,0,0,1,.171-.592c.079-.211.17-.4.264-.594a8.751,8.751,0,0,1,3.229-3.613c.105-.038.2-.092.276-.117h2.953l4.048.011a2.678,2.678,0,0,1,2.425,1Z" transform="translate(-1790.09 -438.965)" fill="#feb7b7"/>
        <path id="Trazado_298850" data-name="Trazado 298850" d="M1863.245,542.325v.646c-.529.778-1.016,1.451-1.4,1.913L1845.461,531.9l-2.294-7.977a3.763,3.763,0,0,0,1.278-2.016,56.227,56.227,0,0,0-1.662-7.555c-1.014-3.927-2.267-8.489-3.138-11.626l8.121,27.051Z" transform="translate(-1792.675 -465.505)" fill="#d1f2ff"/>
        <g id="Grupo_841856" data-name="Grupo 841856" transform="translate(68.267 70.738)">
          <g id="Grupo_841855" data-name="Grupo 841855">
            <g id="Grupo_841854" data-name="Grupo 841854">
              <g id="Grupo_841853" data-name="Grupo 841853">
                <path id="Trazado_298851" data-name="Trazado 298851" d="M1858.512,522.445a8.027,8.027,0,0,1-3.877,6.11,3.464,3.464,0,0,1-2.346.556,1.964,1.964,0,0,1-1.531-2.191,5.336,5.336,0,0,1,.42-1.97,8.527,8.527,0,0,1,3.458-4.138,4.274,4.274,0,0,1,.671-.326c1.7-.692,3.028-.042,3.185,1.6A3.463,3.463,0,0,1,1858.512,522.445Z" transform="translate(-1850.757 -520.212)" fill="#009ad4"/>
              </g>
            </g>
          </g>
        </g>
        <path id="Trazado_298852" data-name="Trazado 298852" d="M1861.094,528.776l-2.453.46a1.975,1.975,0,0,0-.671-1.278,2.846,2.846,0,0,0-2.057-.765,4.735,4.735,0,0,0-2.624,1.094l-2.337-3.416a8.429,8.429,0,0,1,3.444-4.2,4.514,4.514,0,0,1,.514-.264l3.322,2.2,1.424.922S1861.04,524.993,1861.094,528.776Z" transform="translate(-1782.311 -449.292)" fill="#feb7b7"/>
        <path id="Trazado_298853" data-name="Trazado 298853" d="M1858.641,529.236a1.975,1.975,0,0,0-.671-1.278,2.846,2.846,0,0,0-2.057-.765,4.735,4.735,0,0,0-2.624,1.094l-2.337-3.416a8.429,8.429,0,0,1,3.444-4.2,4.514,4.514,0,0,1,.514-.264l3.322,2.2Z" transform="translate(-1782.311 -449.292)" fill="#162b34" opacity="0.1" style="mix-blend-mode: color-burn;isolation: isolate"/>
        <g id="Grupo_841858" data-name="Grupo 841858" transform="translate(68.763 72.829)">
          <path id="Trazado_298854" data-name="Trazado 298854" d="M1857.509,522.1v15.35a.992.992,0,0,1-.192.571,1.424,1.424,0,0,1-.184.209,1.89,1.89,0,0,1-.4.293,3.1,3.1,0,0,1-.87.333c-.055.013-.111.025-.167.034a4.37,4.37,0,0,1-1.813-.034,3.13,3.13,0,0,1-.87-.333,1.981,1.981,0,0,1-.4-.293,1.3,1.3,0,0,1-.182-.209.993.993,0,0,1-.194-.571V522.1Z" transform="translate(-1849.889 -520.571)" fill="#b7e8ff"/>
          <g id="Grupo_841857" data-name="Grupo 841857" transform="translate(0 15.274)">
            <path id="Trazado_298855" data-name="Trazado 298855" d="M1861.034,534.28a5.039,5.039,0,0,1-.393,1.949,7.552,7.552,0,0,1-1.7,2.279,5.551,5.551,0,0,1-4.228.6,5.226,5.226,0,0,1-1.654-.583,6.576,6.576,0,0,1-1.65-2.3,5.011,5.011,0,1,1,9.626-1.949Z" transform="translate(-1851.016 -529.272)" fill="#b7e8ff"/>
            <path id="Trazado_298856" data-name="Trazado 298856" d="M1860.415,531.945a4.413,4.413,0,0,1-.3,1.671,7.394,7.394,0,0,1-1.554,2.11,4.632,4.632,0,0,1-1.28.495c-.152.048-.276.1-.4.125a4.907,4.907,0,0,1-2.248-.061c-.136-.025-.24-.048-.341-.075a4.608,4.608,0,0,1-1.225-.471,6.266,6.266,0,0,1-1.491-2.122,4.626,4.626,0,0,1-.36-1.622,2.409,2.409,0,0,0,1.338,1.685,7.2,7.2,0,0,0,6.52,0A2.373,2.373,0,0,0,1860.415,531.945Z" transform="translate(-1850.836 -526.822)" fill="#0029a6"/>
            <path id="Trazado_298857" data-name="Trazado 298857" d="M1860.419,534.075c0,.052,0,.1,0,.15a2.373,2.373,0,0,1-1.344,1.734,7.2,7.2,0,0,1-6.52,0,2.409,2.409,0,0,1-1.338-1.685c0-.061,0-.123,0-.182s0-.146.006-.218a4.583,4.583,0,0,1,.358-1.585,4.653,4.653,0,0,1,.995-1.476,4.8,4.8,0,0,1,.625-.523q.181-.127.374-.236c.13-.073.263-.14.4-.2a4.7,4.7,0,0,1,1.621-.389c.086-.006.172-.008.257-.008a4.769,4.769,0,0,1,1.805.362c.15.063.293.136.433.211a4.546,4.546,0,0,1,.989.8,4.666,4.666,0,0,1,.995,1.476,4.316,4.316,0,0,1,.347,1.612C1860.419,533.972,1860.419,534.023,1860.419,534.075Z" transform="translate(-1850.837 -529.102)" fill="#48caff"/>
          </g>
          <path id="Trazado_298858" data-name="Trazado 298858" d="M1856.957,522.3v15.728c0,.031-4.4.134-4.514.029,0-.029,0-15.757,0-15.757Z" transform="translate(-1849.71 -520.392)" fill="#48caff"/>
          <path id="Trazado_298859" data-name="Trazado 298859" d="M1857.509,522.823a1.072,1.072,0,0,1-.374.778,2.106,2.106,0,0,1-.416.3,3.6,3.6,0,0,1-1.336.408,4.384,4.384,0,0,1-.506.029,4.289,4.289,0,0,1-1.275-.188c-.055-.019-.109-.038-.161-.06a2.609,2.609,0,0,1-.659-.351c-.057-.044-.111-.092-.163-.138a1.1,1.1,0,0,1-.374-.782.968.968,0,0,1,.105-.441,1.51,1.51,0,0,1,.632-.615,4.078,4.078,0,0,1,1.894-.464C1855.963,521.3,1857.509,521.784,1857.509,522.823Z" transform="translate(-1849.889 -521.303)" fill="#b7e8ff"/>
          <path id="Trazado_298860" data-name="Trazado 298860" d="M1856.957,522.644a.737.737,0,0,1-.28.533,2.137,2.137,0,0,1-.815.433,3.71,3.71,0,0,1-1.163.178c-1.33,0-2.258-.6-2.258-1.144,0-.738,1.336-1.146,2.258-1.146a3.991,3.991,0,0,1,1.163.182,2.249,2.249,0,0,1,.815.42A.734.734,0,0,1,1856.957,522.644Z" transform="translate(-1849.71 -521.124)" fill="#48caff"/>
          <path id="Trazado_298861" data-name="Trazado 298861" d="M1860.421,533.288a2.373,2.373,0,0,1-1.344,1.734,7.2,7.2,0,0,1-6.52,0,2.409,2.409,0,0,1-1.338-1.685,1.548,1.548,0,0,1,0-.4,2.411,2.411,0,0,1,1.336-1.679,7.211,7.211,0,0,1,6.52,0,2.385,2.385,0,0,1,1.342,1.723A1.473,1.473,0,0,1,1860.421,533.288Z" transform="translate(-1850.842 -512.892)" fill="#3150ba"/>
          <path id="Trazado_298862" data-name="Trazado 298862" d="M1857.54,541.043c0,.05,0,.1,0,.15a2.382,2.382,0,0,1-1.344,1.735,5.349,5.349,0,0,1-1.077.462,2.232,2.232,0,0,0,1.1-1.581c0-.052,0-.1,0-.149s0-.105,0-.157a4.327,4.327,0,0,0-.347-1.614,4.857,4.857,0,0,0-.957-1.545,4.99,4.99,0,0,0-1.027-.861V523.065a3.6,3.6,0,0,0,1.322-.4V537a4.491,4.491,0,0,1,.989.8,4.685,4.685,0,0,1,.995,1.476,4.359,4.359,0,0,1,.347,1.614C1857.54,540.937,1857.54,540.989,1857.54,541.043Z" transform="translate(-1848.388 -520.055)" fill="#b7e8ff" opacity="0.5" style="mix-blend-mode: screen;isolation: isolate"/>
          <path id="Trazado_298863" data-name="Trazado 298863" d="M1854.474,522.986v14.241q-.192.109-.374.236a4.616,4.616,0,0,0-1.978,3.584c0,.073,0,.146,0,.219s0,.121,0,.18a4.634,4.634,0,0,0,.36,1.623,9.632,9.632,0,0,0,.953,1.453c-.09-.044-.175-.088-.257-.134a6.018,6.018,0,0,1-1.516-2.014,4.581,4.581,0,0,1-.36-1.622c0-.061,0-.123,0-.182s0-.146.005-.218a4.54,4.54,0,0,1,.359-1.585,4.624,4.624,0,0,1,.993-1.476,4.9,4.9,0,0,1,.627-.523q.181-.127.374-.236V522.576a2.611,2.611,0,0,0,.659.351C1854.365,522.948,1854.418,522.967,1854.474,522.986Z" transform="translate(-1850.76 -520.136)" fill="#6dd1ff" opacity="0.75" style="mix-blend-mode: color-burn;isolation: isolate"/>
          <path id="Trazado_298864" data-name="Trazado 298864" d="M1855.041,522.013v1.077a2.136,2.136,0,0,1-.815.433v-1.93A2.253,2.253,0,0,1,1855.041,522.013Z" transform="translate(-1848.074 -521.037)" fill="#b7e8ff" opacity="0.75" style="mix-blend-mode: multiply;isolation: isolate"/>
          <path id="Trazado_298865" data-name="Trazado 298865" d="M1852.589,522.013v1.077a2.136,2.136,0,0,0,.815.433v-1.93A2.254,2.254,0,0,0,1852.589,522.013Z" transform="translate(-1849.574 -521.037)" fill="#b7e8ff" opacity="0.5" style="mix-blend-mode: screen;isolation: isolate"/>
        </g>
        <path id="Trazado_298866" data-name="Trazado 298866" d="M1851.662,522.735c-.594.253-.878,2.066-.761,2.7a18.027,18.027,0,0,0,.96,3.571,7.027,7.027,0,0,0,2.463,2.58s1.023-1.637.31-2.289c-.953-.872-1.179-3.2-1.179-3.2l-.636-2.649Z" transform="translate(-1782.382 -447.161)" fill="#feb7b7"/>
        <path id="Trazado_298867" data-name="Trazado 298867" d="M1851.662,522.735c-.594.253-.878,2.066-.761,2.7a18.027,18.027,0,0,0,.96,3.571,7.027,7.027,0,0,0,2.463,2.58s1.023-1.637.31-2.289c-.953-.872-1.179-3.2-1.179-3.2l-.636-2.649Z" transform="translate(-1782.382 -447.161)" fill="#162b34" opacity="0.1" style="mix-blend-mode: color-burn;isolation: isolate"/>
        <path id="Trazado_298868" data-name="Trazado 298868" d="M1858.562,524.775a14.81,14.81,0,0,1-.383,4.021,8.947,8.947,0,0,1-3.557,4.9.438.438,0,0,1-.688-.316c-.061-.575-.144-1.476-.211-2.591a3.412,3.412,0,0,1,1.175-2.927,9.382,9.382,0,0,0,.922-1.213,1.992,1.992,0,0,0,.29-1.411Z" transform="translate(-1779.779 -445.291)" fill="#feb7b7"/>
        <path id="Trazado_298869" data-name="Trazado 298869" d="M1841.352,514.3s-.581-.013-1.384-.092a14.239,14.239,0,0,1-4.153-.805l-1.345,4.732a43.162,43.162,0,0,1-4.165-6.513c-.067-1.211-.04-2.662.027-4.046a16.343,16.343,0,0,1-.713-2.954.568.568,0,0,0-.659-.514,1.043,1.043,0,0,1-.565-.08,2.142,2.142,0,0,1-.87-.882,5.808,5.808,0,0,1-.845-4.615,1.219,1.219,0,0,1,.7-.8c1.132-.4,2.346,1.225,2.53,2.162a.484.484,0,0,0,.094.224.4.4,0,0,0,.33.065c.882-.065.79-.079.79-.924a6.7,6.7,0,0,1,2.453-5.127,3.8,3.8,0,0,1,1.146-.659c.053-.013.105-.04.159-.054a29.518,29.518,0,0,0-.778,9.942C1834.55,507.655,1836.328,512.176,1841.352,514.3Z" transform="translate(-1804.729 -474.036)" fill="#162b34" opacity="0.1" style="mix-blend-mode: color-burn;isolation: isolate"/>
        <path id="Trazado_298870" data-name="Trazado 298870" d="M1857.931,541.188l-.278.238-.381.3-5.827-2.61a4.971,4.971,0,0,0-1.345-.4l-4.126-1.041-3.362-.83a3.17,3.17,0,0,1-.146-1,4.35,4.35,0,0,1,.213-1.319,4.878,4.878,0,0,1,.171-.592c.013-.013,7,.895,7.645,1.462C1850.97,535.8,1855.478,539.288,1857.931,541.188Z" transform="translate(-1790.09 -436.893)" fill="#162b34" opacity="0.1" style="mix-blend-mode: color-burn;isolation: isolate"/>
      </g>
      <g id="Grupo_841870" data-name="Grupo 841870" transform="translate(1759.97 600.538)">
        <g id="Grupo_841869" data-name="Grupo 841869">
          <g id="Grupo_841868" data-name="Grupo 841868">
            <g id="Grupo_841865" data-name="Grupo 841865">
              <ellipse id="Elipse_5679" data-name="Elipse 5679" cx="37.156" cy="21.482" rx="37.156" ry="21.482" transform="translate(5.899 84.605)" fill="#b2b1b1" opacity="0.302" style="mix-blend-mode: multiply;isolation: isolate"/>
              <g id="Grupo_841863" data-name="Grupo 841863" transform="translate(0 3.171)">
                <g id="Grupo_841862" data-name="Grupo 841862">
                  <path id="Trazado_298871" data-name="Trazado 298871" d="M1824.163,618.9a3.018,3.018,0,0,1-.989,1.691,3.274,3.274,0,0,1-.449.33c-1.758,1.085-12.814-2.193-13.71-2.6-1.131-.519-.722-.519-3.8-2.365s-6.568-.307-8.412,0c-1.367.228-4.215-.606-5.635-1.062a1.189,1.189,0,0,1-.832-1.14l.069-3.521a40.979,40.979,0,0,1,2-8.769c.3-.9.51-1.47.51-1.47l8.734.172s3.431,6,4.63,6.687c.723.418,5.627,2.334,9.4,3.789a19.66,19.66,0,0,1,7.674,5.328A3.347,3.347,0,0,1,1824.163,618.9Z" transform="translate(-1732.134 -496.751)" fill="#43434a"/>
                  <path id="Trazado_298872" data-name="Trazado 298872" d="M1823.174,619.884a3.269,3.269,0,0,1-.449.33c-1.758,1.085-12.814-2.193-13.71-2.6-1.131-.519-.722-.519-3.8-2.365s-6.568-.307-8.412,0c-1.367.228-4.215-.606-5.635-1.062a1.189,1.189,0,0,1-.832-1.14l.069-3.521a40.98,40.98,0,0,1,2-8.769l2.833,2.467s-2.285,7.475,0,8.385C1797.464,612.505,1817.853,616.568,1823.174,619.884Z" transform="translate(-1732.134 -496.048)" fill="#37373d"/>
                  <path id="Trazado_298873" data-name="Trazado 298873" d="M1780.069,618.228s-8.138,1.133-10.4.228a6.7,6.7,0,0,1-4.09-6.451c.079-2.6-.016-6.091-.9-7.875-.611-.2-1.631-.535-1.985-.629-.525-.125-1.428-4.416-1.687-5.98s3.233-3.285,3.233-3.285c1.618-1.108,3.735-.519,5.761.644a30.552,30.552,0,0,1,6.442,5.47s-1.129,8.37.448,10.413S1782.55,615.51,1780.069,618.228Z" transform="translate(-1759.027 -502.566)" fill="#43434a"/>
                  <path id="Trazado_298874" data-name="Trazado 298874" d="M1780.069,618.228s-8.138,1.133-10.4.228a6.7,6.7,0,0,1-4.09-6.451c.079-2.6-.016-6.091-.9-7.875-.611-.2-1.631-.535-1.985-.629-.525-.125-1.428-4.416-1.687-5.98s3.233-3.285,3.233-3.285c1.618-1.108,3.735-.519,5.761.644l1.121.771s-4.991,11.741-3.155,15.929S1770.894,618.778,1780.069,618.228Z" transform="translate(-1759.027 -502.566)" fill="#37373d"/>
                  <g id="Grupo_841861" data-name="Grupo 841861" transform="translate(0 16.073)">
                    <g id="Grupo_841860" data-name="Grupo 841860">
                      <path id="Trazado_298875" data-name="Trazado 298875" d="M1831.673,624.6c.533,1.29-.056,2.7-1.79,3.7a10.648,10.648,0,0,1-7.651.771,7.72,7.72,0,0,1-1.932-.771,3.293,3.293,0,0,1-1.978-2.915l-2.879-34.6s-12.839,7.465-23.772,8.487c3.954,5.11,8.64,10.745,11.488,15.09a6.083,6.083,0,0,1,.715,1.455c.008,0,2.9,8.1-4.59,11.82a12.755,12.755,0,0,1-9.693.535l-20.916-6.98a2.58,2.58,0,0,1-1.42-2.593,7.834,7.834,0,0,1,1.2-3.843,10.755,10.755,0,0,1,2.465-2.908,7.076,7.076,0,0,1,.817-.588,76.269,76.269,0,0,1-7.456-7.766c-8.805-10.86-1.578-29.424-.447-30.319l6,2.012,14.787,4.958s40.259-9.6,44.537-5.485,3.6,15.607,2.566,22.988C1830.832,603.971,1831.468,620.137,1831.673,624.6Z" transform="translate(-1759.97 -537.406)" fill="#1436ab"/>
                      <path id="Trazado_298876" data-name="Trazado 298876" d="M1797.145,586.864c-.117-.494-6.49-.857-9.008-.771a2.54,2.54,0,0,0-1.006.134l.621-12.314.408-8.221s9.244-6,11.293-1.878C1801.424,567.744,1797.5,585.371,1797.145,586.864Z" transform="translate(-1735.074 -547.31)" fill="#fff"/>
                      <path id="Trazado_298877" data-name="Trazado 298877" d="M1787.145,604.036l-15.693-5.167-7.055-2.321a10.352,10.352,0,0,1,3.289-3.511l4.962,2.808Z" transform="translate(-1755.914 -519.198)" fill="#001d80"/>
                      <path id="Trazado_298878" data-name="Trazado 298878" d="M1808.307,622.683a7.671,7.671,0,0,1-1.932-.772,3.3,3.3,0,0,1-1.978-2.917l-2.875-34.6s-12.845,7.461-23.776,8.487l-2.587-4.814,29.184-7.922Z" transform="translate(-1746.048 -531.014)" fill="#001d80"/>
                      <path id="Trazado_298879" data-name="Trazado 298879" d="M1815.109,582.128c-.581.786-1.161,1.539-1.735,2.271-.981,1.242-1.955,2.4-2.9,3.473-6.467,7.318-12.173,11-15.211,12.631-1.334.715-2.63,1.476-3.908,2.294-2.731,1.736-8.868,4.449-17.83,1.508a22.61,22.61,0,0,1-2.99-1.21c-9.292-4.542-8.539-12.818-8.539-12.818s4.293-11.318,18.984-23.09a58.879,58.879,0,0,1,35.26-12.677s.253.291.636.841C1818.938,558.331,1824.847,568.94,1815.109,582.128Z" transform="translate(-1758.13 -554.511)" fill="#1c80d7"/>
                    </g>
                  </g>
                  <path id="Trazado_298880" data-name="Trazado 298880" d="M1816.874,555.352c-6.444,2.718-12.251,5.579-14.653,7.858-6.568,6.233-12.132,11.8-12.132,11.8s-16.066,18.013-19.557,28.088c-9.292-4.542-8.539-12.818-8.539-12.818s4.293-11.318,18.984-23.09a58.879,58.879,0,0,1,35.26-12.677S1816.491,554.8,1816.874,555.352Z" transform="translate(-1758.13 -538.438)" fill="#0875d4"/>
                  <path id="Trazado_298881" data-name="Trazado 298881" d="M1826.279,621.567a3.38,3.38,0,0,0-2.975.109c-.235.1-.471.22-.715.355a10.938,10.938,0,0,0-4.37,5.217,7.644,7.644,0,0,0-.5,1.982,3.677,3.677,0,0,0-.038.573,2.922,2.922,0,0,0,.888,2.312c-1.43-.874-24.431-14.894-30.074-20.372-5.825-5.666-15.759-28.307-15.759-28.307s-7.542-16.294,3.084-18.7a11.671,11.671,0,0,1,7.691.517,10.518,10.518,0,0,1,5.32,6.352s2.911,21.265,6,26.068C1797.782,602.29,1824.192,620.153,1826.279,621.567Z" transform="translate(-1750.653 -529.427)" fill="#45c1f5"/>
                  <path id="Trazado_298882" data-name="Trazado 298882" d="M1818.564,632.114c-1.43-.874-24.431-14.894-30.074-20.372-5.825-5.666-15.759-28.307-15.759-28.307s-7.542-16.294,3.084-18.7a11.671,11.671,0,0,1,7.691.517c-.173.535-6.083,25.944,6.606,42.826,4.663,6.208,15.839,13.021,28.106,19.166a7.644,7.644,0,0,0-.5,1.982,3.677,3.677,0,0,0-.038.573A2.922,2.922,0,0,0,1818.564,632.114Z" transform="translate(-1750.653 -529.427)" fill="#30afe3"/>
                  <path id="Trazado_298883" data-name="Trazado 298883" d="M1770.919,611.846a7.076,7.076,0,0,1,.817-.588,76.269,76.269,0,0,1-7.456-7.766c-8.805-10.86-1.578-29.424-.447-30.319,0,0-.753,8.276,8.539,12.818,0,0-4.623,6.908-2.685,12.535s21.512,23.718,21.512,23.718Z" transform="translate(-1759.97 -521.332)" fill="#001d80"/>
                  <path id="Trazado_298884" data-name="Trazado 298884" d="M1790.318,570.1c-.439,3.356-.933,6.979-.981,7.2a14.162,14.162,0,0,1-1.2,1.7,2.54,2.54,0,0,0-1.006.134l.284-5.556C1788.364,572.5,1789.337,571.347,1790.318,570.1Z" transform="translate(-1735.074 -524.144)" fill="#d1f2ff"/>
                  <path id="Trazado_298885" data-name="Trazado 298885" d="M1797.221,576.574a1.5,1.5,0,0,1-.079.479,2.813,2.813,0,0,1-1.405,1.564,7.883,7.883,0,0,1-7.182,0,2.96,2.96,0,0,1-1.349-1.415,1.755,1.755,0,0,1-.063-1.148,1.94,1.94,0,0,1,.266-.558,3.358,3.358,0,0,1,1.146-1.029,6.01,6.01,0,0,1,.832-.377,8,8,0,0,1,6.35.377,1.594,1.594,0,0,1,.18.117,2.613,2.613,0,0,1,.282.2,2.4,2.4,0,0,1,.966,1.328A1.374,1.374,0,0,1,1797.221,576.574Z" transform="translate(-1735.125 -520.93)" fill="#009ad4"/>
                  <path id="Trazado_298886" data-name="Trazado 298886" d="M1798.181,590.673c-1.854,2.2-6.994.753-7.2-1.447s-1.029-8.857-1.508-8.786-1.027,5.422-1.781,5.422-.682-5.769-.621-7.827a2.381,2.381,0,0,1,.182-.832,4.981,4.981,0,0,1,1.1-1.612,8.569,8.569,0,0,0,1.083-1.5,8,8,0,0,1,6.35.377,1.6,1.6,0,0,1,.18.117,2.613,2.613,0,0,1,.282.2,3.078,3.078,0,0,0,.284,1.232c.211.332.431.677.659,1.039a24.287,24.287,0,0,1,2.158,3.866C1799.758,582.288,1800.032,588.473,1798.181,590.673Z" transform="translate(-1735.166 -520.93)" fill="#fec9c9"/>
                  <path id="Trazado_298887" data-name="Trazado 298887" d="M1785.364,560.872s.059-12.734,9.566-14.5,20.776,6,16.753,17.7a41.922,41.922,0,0,1-11.13,16.567,3.783,3.783,0,0,1-5.035.1C1791.47,577.276,1785.446,569.546,1785.364,560.872Z" transform="translate(-1736.694 -546.125)" fill="#fec9c9"/>
                  <path id="Trazado_298888" data-name="Trazado 298888" d="M1792.334,563.5a9.7,9.7,0,0,1,.473-.952l2.312-6.766-1-4.855-6.134,2.285-.427,5-.128,2-4.456,5.656a23.919,23.919,0,0,0,4.451,12.205,41.027,41.027,0,0,0,8.4-4.228C1790.875,567.238,1792.409,563.569,1792.334,563.5Z" transform="translate(-1738.884 -541.723)" fill="#162b34" opacity="0.1" style="mix-blend-mode: color-burn;isolation: isolate"/>
                </g>
                <path id="Trazado_298889" data-name="Trazado 298889" d="M1826.413,621.653l-5.229,7.057-2.549,3.442s-24.322-14.75-30.145-20.41-15.759-28.307-15.759-28.307-7.542-16.294,3.084-18.7a11.671,11.671,0,0,1,7.691.517,10.518,10.518,0,0,1,5.32,6.352s2.911,21.265,6,26.068S1826.413,621.653,1826.413,621.653Z" transform="translate(-1750.653 -529.427)" fill="#fff"/>
                <path id="Trazado_298890" data-name="Trazado 298890" d="M1821.184,628.711l-2.549,3.442s-24.322-14.75-30.145-20.41-15.759-28.307-15.759-28.307-7.542-16.294,3.084-18.7a11.671,11.671,0,0,1,7.691.517c-.173.535-6.083,25.944,6.606,42.826C1795.152,614.784,1807.789,622.2,1821.184,628.711Z" transform="translate(-1750.653 -529.427)" fill="#d1f2ff"/>
              </g>
              <path id="Trazado_298891" data-name="Trazado 298891" d="M1792.334,563.5a9.7,9.7,0,0,1,.473-.952l2.312-6.766-1-4.855-6.134,2.285-.427,5-.128,2-4.456,5.656a23.919,23.919,0,0,0,4.451,12.205,41.027,41.027,0,0,0,8.4-4.228C1790.875,567.238,1792.409,563.569,1792.334,563.5Z" transform="translate(-1738.884 -538.552)" fill="#fec9c9"/>
              <g id="Grupo_841864" data-name="Grupo 841864" transform="translate(47.636)">
                <path id="Trazado_298892" data-name="Trazado 298892" d="M1816.895,562.81c-3.262,9.579-9.027,11.3-9.027,11.3,2.658-3.486,4.771-10.181,4.771-10.181-6.043,4.439-12.855-4.6-14-5.813s-2.168-.6-3.036,3.488-4.493,7.5-4.493,7.5l-1.073-1.811s1.418-1.963,2.469-3.839a1.737,1.737,0,0,0-.121-1.706,2.345,2.345,0,0,0-.395-.492,2.069,2.069,0,0,0-.686-.456,2.429,2.429,0,0,0-.345-.088c-.984-.157-2.156.594-2.8,3.3a8.065,8.065,0,0,1-3.3,4.659c.508-3.141-.6-8.592.393-13.225a12.377,12.377,0,0,1,.446-1.587c2.091-6.009,6.626-8.851,12.55-9.365,3.958-.341,12.42,3.688,16.608,9.257C1816.945,556.51,1817.974,559.642,1816.895,562.81Z" transform="translate(-1784.825 -544.471)" fill="#303036"/>
              </g>
            </g>
            <g id="Grupo_841867" data-name="Grupo 841867" transform="translate(74.729 85.188)">
              <path id="Trazado_298893" data-name="Trazado 298893" d="M1808.121,590.044V611.7a1.393,1.393,0,0,1-.272.807,1.76,1.76,0,0,1-.259.3,2.826,2.826,0,0,1-.556.416,4.508,4.508,0,0,1-1.229.468c-.077.019-.157.034-.236.048a5.98,5.98,0,0,1-1.159.111,6.055,6.055,0,0,1-1.4-.159,4.517,4.517,0,0,1-1.227-.468,2.774,2.774,0,0,1-.558-.416,1.772,1.772,0,0,1-.259-.3,1.408,1.408,0,0,1-.272-.807V590.044Z" transform="translate(-1797.369 -587.884)" fill="#b7e8ff"/>
              <g id="Grupo_841866" data-name="Grupo 841866" transform="translate(0 21.549)">
                <path id="Trazado_298894" data-name="Trazado 298894" d="M1813.094,607.227a7.073,7.073,0,0,1-.554,2.75,10.666,10.666,0,0,1-2.4,3.214,7.85,7.85,0,0,1-5.966.853,7.457,7.457,0,0,1-2.334-.822c-1-.575-2.149-2.829-2.327-3.245a7.07,7.07,0,1,1,13.579-2.75Z" transform="translate(-1798.96 -600.16)" fill="#b7e8ff"/>
                <path id="Trazado_298895" data-name="Trazado 298895" d="M1812.22,603.932a6.266,6.266,0,0,1-.422,2.357,10.45,10.45,0,0,1-2.194,2.977,6.515,6.515,0,0,1-1.807.7c-.213.067-.387.138-.567.176a6.534,6.534,0,0,1-1.458.144,6.663,6.663,0,0,1-1.712-.23c-.192-.036-.339-.069-.483-.105a6.64,6.64,0,0,1-1.727-.665,8.909,8.909,0,0,1-2.1-2.994,6.478,6.478,0,0,1-.506-2.288,3.4,3.4,0,0,0,1.886,2.379,10.17,10.17,0,0,0,9.2,0A3.356,3.356,0,0,0,1812.22,603.932Z" transform="translate(-1798.704 -596.703)" fill="#0029a6"/>
                <path id="Trazado_298896" data-name="Trazado 298896" d="M1812.225,606.938c0,.071,0,.14,0,.211a3.357,3.357,0,0,1-1.9,2.447,10.169,10.169,0,0,1-9.2,0,3.4,3.4,0,0,1-1.886-2.378c0-.084-.006-.173-.006-.257,0-.1,0-.205.008-.309a6.43,6.43,0,0,1,.5-2.237,6.589,6.589,0,0,1,1.4-2.082,6.775,6.775,0,0,1,.884-.738,5.967,5.967,0,0,1,.527-.331,6.155,6.155,0,0,1,.562-.284,6.654,6.654,0,0,1,2.286-.548c.123-.008.243-.01.364-.01a6.355,6.355,0,0,1,1.443.161,6.084,6.084,0,0,1,1.1.351,6.658,6.658,0,0,1,.613.3,6.441,6.441,0,0,1,1.4,1.127,6.6,6.6,0,0,1,1.4,2.08,6.165,6.165,0,0,1,.491,2.277C1812.225,606.79,1812.225,606.863,1812.225,606.938Z" transform="translate(-1798.707 -599.919)" fill="#48caff"/>
              </g>
              <path id="Trazado_298897" data-name="Trazado 298897" d="M1807.342,590.319v22.189c-.006.046-6.216.192-6.367.042,0-.042,0-22.231,0-22.231Z" transform="translate(-1797.117 -587.632)" fill="#48caff"/>
              <path id="Trazado_298898" data-name="Trazado 298898" d="M1808.121,591.062a1.514,1.514,0,0,1-.527,1.1,2.893,2.893,0,0,1-.588.427,5.1,5.1,0,0,1-1.884.579,6.722,6.722,0,0,1-.715.038,5.99,5.99,0,0,1-1.8-.266c-.078-.027-.155-.052-.23-.08a3.784,3.784,0,0,1-.928-.5c-.082-.063-.159-.13-.23-.2a1.542,1.542,0,0,1-.527-1.1,1.358,1.358,0,0,1,.147-.623,2.166,2.166,0,0,1,.891-.868,5.765,5.765,0,0,1,2.672-.654C1805.936,588.917,1808.121,589.6,1808.121,591.062Z" transform="translate(-1797.369 -588.917)" fill="#b7e8ff"/>
              <path id="Trazado_298899" data-name="Trazado 298899" d="M1807.342,590.81a1.036,1.036,0,0,1-.4.751,3.041,3.041,0,0,1-1.146.611,5.307,5.307,0,0,1-1.645.251c-1.874,0-3.183-.853-3.183-1.614,0-1.043,1.884-1.618,3.183-1.618a5.719,5.719,0,0,1,1.645.257,3.156,3.156,0,0,1,1.146.592A1.031,1.031,0,0,1,1807.342,590.81Z" transform="translate(-1797.117 -588.665)" fill="#48caff"/>
              <path id="Trazado_298900" data-name="Trazado 298900" d="M1812.23,605.828a3.356,3.356,0,0,1-1.9,2.447,10.17,10.17,0,0,1-9.2,0,3.4,3.4,0,0,1-1.886-2.379,2,2,0,0,1,0-.565,3.4,3.4,0,0,1,1.884-2.369,10.17,10.17,0,0,1,9.2,0,3.369,3.369,0,0,1,1.894,2.432A2.176,2.176,0,0,1,1812.23,605.828Z" transform="translate(-1798.713 -577.05)" fill="#3150ba"/>
              <path id="Trazado_298901" data-name="Trazado 298901" d="M1808.165,616.765c0,.073,0,.14,0,.211a3.356,3.356,0,0,1-1.9,2.448,7.362,7.362,0,0,1-1.518.652,3.154,3.154,0,0,0,1.551-2.231c0-.071,0-.14,0-.211s0-.147-.006-.222a6.119,6.119,0,0,0-.491-2.275,6.869,6.869,0,0,0-1.349-2.179,7.117,7.117,0,0,0-1.449-1.215V591.4a5.1,5.1,0,0,0,1.865-.567v20.224a6.286,6.286,0,0,1,1.4,1.125,6.557,6.557,0,0,1,1.4,2.081,6.124,6.124,0,0,1,.491,2.277C1808.165,616.618,1808.165,616.693,1808.165,616.765Z" transform="translate(-1795.252 -587.157)" fill="#b7e8ff" opacity="0.5" style="mix-blend-mode: screen;isolation: isolate"/>
              <path id="Trazado_298902" data-name="Trazado 298902" d="M1803.84,591.29v20.092c-.182.1-.358.215-.527.333a6.521,6.521,0,0,0-2.287,2.819,6.429,6.429,0,0,0-.5,2.237c-.005.1-.008.205-.008.309,0,.084,0,.171,0,.255a6.492,6.492,0,0,0,.508,2.29,13.388,13.388,0,0,0,1.345,2.049c-.128-.059-.249-.123-.364-.19a8.519,8.519,0,0,1-2.141-2.84,6.531,6.531,0,0,1-.506-2.289c0-.086-.006-.172-.006-.257,0-.1,0-.205.01-.309a6.428,6.428,0,0,1,.5-2.237,6.54,6.54,0,0,1,2.289-2.819,5.91,5.91,0,0,1,.527-.331v-19.69a3.783,3.783,0,0,0,.928.5C1803.685,591.238,1803.761,591.263,1803.84,591.29Z" transform="translate(-1798.598 -587.271)" fill="#6dd1ff" opacity="0.75" style="mix-blend-mode: color-burn;isolation: isolate"/>
              <path id="Trazado_298903" data-name="Trazado 298903" d="M1804.636,589.918v1.52a3.041,3.041,0,0,1-1.146.611v-2.724A3.156,3.156,0,0,1,1804.636,589.918Z" transform="translate(-1794.808 -588.542)" fill="#b7e8ff" opacity="0.75" style="mix-blend-mode: multiply;isolation: isolate"/>
              <path id="Trazado_298904" data-name="Trazado 298904" d="M1801.18,589.918v1.52a3.034,3.034,0,0,0,1.148.611v-2.724A3.149,3.149,0,0,0,1801.18,589.918Z" transform="translate(-1796.925 -588.542)" fill="#b7e8ff" opacity="0.5" style="mix-blend-mode: screen;isolation: isolate"/>
            </g>
            <path id="Trazado_298905" data-name="Trazado 298905" d="M1814.221,613.987s-4.9,1.945-5.493,1.782-5.742-1.953-7.594-3.3c-.932-.676-1.587-2.409-2.01-3.971a13.4,13.4,0,0,0-3.218-5.671c-.339-.359-.667-.709-.947-1.016a10.5,10.5,0,0,1,4.88-7.2,7.841,7.841,0,0,1,.711-.351c1.374.874,2.858,1.826,4.2,2.747a34.176,34.176,0,0,1,3.479,2.609C1811.1,602.232,1815.488,609.757,1814.221,613.987Z" transform="translate(-1727.898 -498.834)" fill="#fec9c9"/>
          </g>
        </g>
      </g>
    </g>
  </g>
</svg>
