<svg xmlns="http://www.w3.org/2000/svg" width="295" height="237.375" viewBox="0 0 295 237.375">
  <g id="Grupo_842620" data-name="Grupo 842620" transform="translate(-1020 -4422)">
    <g id="Grupo_842619" data-name="Grupo 842619" transform="translate(17890.15 7316.063)">
      <g id="Grupo_842595" data-name="Grupo 842595" transform="translate(-16870.15 -2694.513)">
        <g id="Grupo_60292" data-name="Grupo 60292" transform="translate(11.197 32.514)">
          <path id="Trazado_120211" data-name="Trazado 120211" d="M172.635,478.607a2.655,2.655,0,1,1,2.655,2.654A2.655,2.655,0,0,1,172.635,478.607Z" transform="translate(-15.876 -475.952)" fill="#ffab1d"/>
          <path id="Trazado_120212" data-name="Trazado 120212" d="M150.6,478.607a2.655,2.655,0,1,1,2.654,2.654A2.655,2.655,0,0,1,150.6,478.607Z" transform="translate(-16.23 -475.952)" fill="#ffab1d"/>
          <path id="Trazado_120213" data-name="Trazado 120213" d="M128.556,478.607a2.654,2.654,0,1,1,2.654,2.654A2.654,2.654,0,0,1,128.556,478.607Z" transform="translate(-16.584 -475.952)" fill="#ffab1d"/>
          <path id="Trazado_120214" data-name="Trazado 120214" d="M106.516,478.607a2.654,2.654,0,1,1,2.654,2.654A2.654,2.654,0,0,1,106.516,478.607Z" transform="translate(-16.939 -475.952)" fill="#ffab1d"/>
          <path id="Trazado_120215" data-name="Trazado 120215" d="M84.476,478.607a2.654,2.654,0,1,1,2.654,2.654A2.654,2.654,0,0,1,84.476,478.607Z" transform="translate(-17.293 -475.952)" fill="#ffab1d"/>
          <path id="Trazado_120216" data-name="Trazado 120216" d="M62.436,478.607a2.654,2.654,0,1,1,2.654,2.654A2.654,2.654,0,0,1,62.436,478.607Z" transform="translate(-17.647 -475.952)" fill="#ffab1d"/>
          <path id="Trazado_120217" data-name="Trazado 120217" d="M40.4,478.607a2.654,2.654,0,1,1,2.654,2.654A2.654,2.654,0,0,1,40.4,478.607Z" transform="translate(-18.002 -475.952)" fill="#ffab1d"/>
          <path id="Trazado_120218" data-name="Trazado 120218" d="M18.356,478.607a2.654,2.654,0,1,1,2.654,2.654A2.654,2.654,0,0,1,18.356,478.607Z" transform="translate(-18.356 -475.952)" fill="#ffab1d"/>
        </g>
        <g id="Grupo_60293" data-name="Grupo 60293" transform="translate(0 21.897)">
          <circle id="Elipse_4516" data-name="Elipse 4516" cx="2.654" cy="2.654" r="2.654" transform="translate(156.759)" fill="#ffab1d"/>
          <path id="Trazado_120219" data-name="Trazado 120219" d="M139.576,468.157a2.654,2.654,0,1,1,2.653,2.655A2.654,2.654,0,0,1,139.576,468.157Z" transform="translate(-5.21 -465.503)" fill="#ffab1d"/>
          <circle id="Elipse_4517" data-name="Elipse 4517" cx="2.654" cy="2.654" r="2.654" transform="translate(111.971)" fill="#ffab1d"/>
          <circle id="Elipse_4518" data-name="Elipse 4518" cx="2.654" cy="2.654" r="2.654" transform="translate(89.577)" fill="#ffab1d"/>
          <circle id="Elipse_4519" data-name="Elipse 4519" cx="2.654" cy="2.654" r="2.654" transform="translate(67.183)" fill="#ffab1d"/>
          <path id="Trazado_120220" data-name="Trazado 120220" d="M51.416,468.157a2.654,2.654,0,1,1,2.654,2.655A2.654,2.654,0,0,1,51.416,468.157Z" transform="translate(-6.627 -465.503)" fill="#ffab1d"/>
          <circle id="Elipse_4520" data-name="Elipse 4520" cx="2.654" cy="2.654" r="2.654" transform="translate(22.394)" fill="#ffab1d"/>
          <circle id="Elipse_4521" data-name="Elipse 4521" cx="2.654" cy="2.654" r="2.654" fill="#ffab1d"/>
        </g>
        <g id="Grupo_60294" data-name="Grupo 60294" transform="translate(11.197 10.617)">
          <path id="Trazado_120221" data-name="Trazado 120221" d="M172.635,457.056a2.655,2.655,0,1,1,2.655,2.653A2.655,2.655,0,0,1,172.635,457.056Z" transform="translate(-15.876 -454.401)" fill="#ffab1d"/>
          <path id="Trazado_120222" data-name="Trazado 120222" d="M150.6,457.056a2.655,2.655,0,1,1,2.654,2.653A2.654,2.654,0,0,1,150.6,457.056Z" transform="translate(-16.23 -454.401)" fill="#ffab1d"/>
          <path id="Trazado_120223" data-name="Trazado 120223" d="M128.556,457.056a2.654,2.654,0,1,1,2.654,2.653A2.654,2.654,0,0,1,128.556,457.056Z" transform="translate(-16.584 -454.401)" fill="#ffab1d"/>
          <path id="Trazado_120224" data-name="Trazado 120224" d="M106.516,457.056a2.654,2.654,0,1,1,2.654,2.653A2.654,2.654,0,0,1,106.516,457.056Z" transform="translate(-16.939 -454.401)" fill="#ffab1d"/>
          <path id="Trazado_120225" data-name="Trazado 120225" d="M84.476,457.056a2.654,2.654,0,1,1,2.654,2.653A2.654,2.654,0,0,1,84.476,457.056Z" transform="translate(-17.293 -454.401)" fill="#ffab1d"/>
          <path id="Trazado_120226" data-name="Trazado 120226" d="M62.436,457.056a2.654,2.654,0,1,1,2.654,2.653A2.654,2.654,0,0,1,62.436,457.056Z" transform="translate(-17.647 -454.401)" fill="#ffab1d"/>
          <path id="Trazado_120227" data-name="Trazado 120227" d="M40.4,457.056a2.654,2.654,0,1,1,2.654,2.653A2.654,2.654,0,0,1,40.4,457.056Z" transform="translate(-18.002 -454.401)" fill="#ffab1d"/>
          <path id="Trazado_120228" data-name="Trazado 120228" d="M18.356,457.056a2.654,2.654,0,1,1,2.654,2.653A2.654,2.654,0,0,1,18.356,457.056Z" transform="translate(-18.356 -454.401)" fill="#ffab1d"/>
        </g>
        <g id="Grupo_60295" data-name="Grupo 60295" transform="translate(0)">
          <path id="Trazado_120229" data-name="Trazado 120229" d="M161.615,446.607a2.654,2.654,0,1,1,2.655,2.654A2.655,2.655,0,0,1,161.615,446.607Z" transform="translate(-4.856 -443.952)" fill="#ffab1d"/>
          <path id="Trazado_120230" data-name="Trazado 120230" d="M139.576,446.607a2.654,2.654,0,1,1,2.653,2.654A2.653,2.653,0,0,1,139.576,446.607Z" transform="translate(-5.21 -443.952)" fill="#ffab1d"/>
          <path id="Trazado_120231" data-name="Trazado 120231" d="M117.536,446.607a2.654,2.654,0,1,1,2.654,2.654A2.654,2.654,0,0,1,117.536,446.607Z" transform="translate(-5.564 -443.952)" fill="#ffab1d"/>
          <path id="Trazado_120232" data-name="Trazado 120232" d="M95.5,446.607a2.654,2.654,0,1,1,2.654,2.654A2.654,2.654,0,0,1,95.5,446.607Z" transform="translate(-5.919 -443.952)" fill="#ffab1d"/>
          <path id="Trazado_120233" data-name="Trazado 120233" d="M73.456,446.607a2.654,2.654,0,1,1,2.654,2.654A2.654,2.654,0,0,1,73.456,446.607Z" transform="translate(-6.273 -443.952)" fill="#ffab1d"/>
          <path id="Trazado_120234" data-name="Trazado 120234" d="M51.416,446.607a2.654,2.654,0,1,1,2.654,2.654A2.654,2.654,0,0,1,51.416,446.607Z" transform="translate(-6.627 -443.952)" fill="#ffab1d"/>
          <path id="Trazado_120235" data-name="Trazado 120235" d="M29.376,446.607a2.654,2.654,0,1,1,2.654,2.654A2.654,2.654,0,0,1,29.376,446.607Z" transform="translate(-6.982 -443.952)" fill="#ffab1d"/>
          <path id="Trazado_120236" data-name="Trazado 120236" d="M7.336,446.607a2.654,2.654,0,1,1,2.654,2.654A2.654,2.654,0,0,1,7.336,446.607Z" transform="translate(-7.336 -443.952)" fill="#ffab1d"/>
        </g>
      </g>
      <g id="Elipse_5681" data-name="Elipse 5681" transform="translate(-16785.15 -2887.563)" fill="none" stroke="#66e2fb" stroke-width="5">
        <circle cx="30.5" cy="30.5" r="30.5" stroke="none"/>
        <circle cx="30.5" cy="30.5" r="28" fill="none"/>
      </g>
      <circle id="Elipse_5682" data-name="Elipse 5682" cx="6.5" cy="6.5" r="6.5" transform="translate(-16693.15 -2887.563)" fill="#005bff"/>
    </g>
    <g id="Grupo_840990" data-name="Grupo 840990" transform="translate(-3042.938 4149.714)">
      <path id="Trazado_297895" data-name="Trazado 297895" d="M4340.585,367.122l-21.934-12.663,16.579-9.571-46.119-26.829-5.283,3.012L4149.869,398.4l-10.008,5.836,46.077,26.844,60.4-34.87c.887,2.418,2.942,4.724,6.195,6.6,8.95,5.167,23.456,5.167,32.4,0l10.2-5.888c13.522,6.054,33.039,5.514,45.454-1.655C4354.049,387.5,4354.049,374.9,4340.585,367.122Z" transform="translate(-2.694 67.609)" fill="#003b6b" opacity="0.3" style="mix-blend-mode: multiply;isolation: isolate"/>
      <g id="Grupo_841055" data-name="Grupo 841055" transform="translate(4146.992 272.286)">
        <g id="Grupo_841009" data-name="Grupo 841009" transform="translate(35.574 15.346)">
          <g id="Grupo_841004" data-name="Grupo 841004" transform="translate(13.282 83.562)">
            <path id="Trazado_297896" data-name="Trazado 297896" d="M4167.335,331.111a1.857,1.857,0,1,1-1.858-1.855A1.857,1.857,0,0,1,4167.335,331.111Z" transform="translate(-4163.447 -287.044)" fill="#333"/>
            <path id="Trazado_297897" data-name="Trazado 297897" d="M4178.945,334.537a1.855,1.855,0,1,1-1.855-1.855A1.854,1.854,0,0,1,4178.945,334.537Z" transform="translate(-4146.292 -281.984)" fill="#333"/>
            <path id="Trazado_297898" data-name="Trazado 297898" d="M4187.961,329.274a1.857,1.857,0,1,1-1.858-1.855A1.857,1.857,0,0,1,4187.961,329.274Z" transform="translate(-4132.981 -289.758)" fill="#333"/>
            <circle id="Elipse_5676" data-name="Elipse 5676" cx="1.856" cy="1.856" r="1.856" transform="translate(37.389 20.7)" fill="#333"/>
            <circle id="Elipse_5677" data-name="Elipse 5677" cx="1.856" cy="1.856" r="1.856" transform="translate(4.758 24.095)" fill="#333"/>
            <g id="Grupo_841002" data-name="Grupo 841002" transform="translate(0 19.915)">
              <g id="Grupo_841000" data-name="Grupo 841000" transform="translate(0 0.785)">
                <path id="Trazado_297899" data-name="Trazado 297899" d="M4195.332,333.478l9.055-12.106v-.8l-2.663.017-11.642,11.343a11.464,11.464,0,0,0-2.342.216l-17.143-8.712-2.116.419v.8l15.09,9.9a2.471,2.471,0,0,0-.372,1.352l-19.649,5.92v.8l1.359,1.538,20.968-5.227a9.115,9.115,0,0,0,2.113.624l5,12.864,2.951-.27v-.8l-2.13-12.328a7.347,7.347,0,0,0,.918-.438,5.8,5.8,0,0,0,.759-.53l22.738,1.231.467-1.7v-.8l-22.278-2.083A3.775,3.775,0,0,0,4195.332,333.478Z" transform="translate(-4163.551 -320.572)" fill="#333"/>
              </g>
              <g id="Grupo_841001" data-name="Grupo 841001">
                <path id="Trazado_297900" data-name="Trazado 297900" d="M4195.332,330.738l9.055-9.7-2.663-.785-11.642,8.937a11.291,11.291,0,0,0-2.342.215L4170.6,323.1l-2.116,1.221,15.09,7.491a2.465,2.465,0,0,0-.372,1.353l-19.649,9.128,1.359,1.538,20.968-7.634a9.37,9.37,0,0,0,2.113.624l5,15.271,2.951-.27-2.13-15.536a8.11,8.11,0,0,0,.918-.438,5.793,5.793,0,0,0,.759-.53l22.738,3.639.467-1.707-22.278-5.294A3.769,3.769,0,0,0,4195.332,330.738Z" transform="translate(-4163.551 -320.255)" fill="#999"/>
              </g>
            </g>
            <g id="Grupo_841003" data-name="Grupo 841003" transform="translate(20.899)">
              <path id="Trazado_297901" data-name="Trazado 297901" d="M4179.436,318.929a2.7,2.7,0,0,0-.592-.451,5.655,5.655,0,0,0-5.114,0,2.667,2.667,0,0,0-.594.451h-.468v17.038a1.79,1.79,0,0,0,1.062,1.476,5.639,5.639,0,0,0,5.114,0,1.793,1.793,0,0,0,1.06-1.476V318.929Z" transform="translate(-4170.983 -303.867)" fill="#4d4d4d"/>
              <path id="Trazado_297902" data-name="Trazado 297902" d="M4178.845,318.064c1.413.817,1.413,2.14,0,2.955a5.66,5.66,0,0,1-5.117,0c-1.415-.815-1.415-2.138,0-2.955A5.656,5.656,0,0,1,4178.845,318.064Z" transform="translate(-4170.983 -304.48)" fill="#4d4d4d"/>
              <path id="Trazado_297903" data-name="Trazado 297903" d="M4181.907,314.411a5.331,5.331,0,0,0-2.446-1.293,8.273,8.273,0,0,0-4.341,0,5.33,5.33,0,0,0-2.445,1.293h-.687v12.953c0,1.085.994,2.17,2.982,2.762a8.17,8.17,0,0,0,4.64,0c1.99-.592,2.982-1.677,2.982-2.762V314.411Z" transform="translate(-4171.988 -311.31)" fill="#999"/>
              <path id="Trazado_297904" data-name="Trazado 297904" d="M4179.609,312.552c3.979,1.184,3.979,4.345,0,5.526a8.168,8.168,0,0,1-4.639,0c-3.976-1.182-3.976-4.342,0-5.526A8.168,8.168,0,0,1,4179.609,312.552Z" transform="translate(-4171.987 -312.215)" fill="#4d4d4d"/>
            </g>
          </g>
          <g id="Grupo_841005" data-name="Grupo 841005" transform="translate(8.561 64.343)">
            <path id="Trazado_297905" data-name="Trazado 297905" d="M4194.87,348.379l29.673-17.132a1.723,1.723,0,0,0,.717-1.585v-3.614a5.4,5.4,0,0,0-2.449-4.241l-29.47-17.015a1.713,1.713,0,0,0-1.731-.171l-29.676,17.132Z" transform="translate(-4161.218 -304.457)" fill="#1a1a1a"/>
            <path id="Trazado_297906" data-name="Trazado 297906" d="M4193.564,337.992l-29.472-17.015a5.416,5.416,0,0,1-2.447-4.241v-3.614c0-1.561,1.1-2.195,2.447-1.414l29.472,17.015a5.408,5.408,0,0,1,2.449,4.241v3.614C4196.013,338.138,4194.918,338.772,4193.564,337.992Z" transform="translate(-4161.645 -294.24)"/>
          </g>
          <g id="Grupo_841008" data-name="Grupo 841008">
            <g id="Grupo_841006" data-name="Grupo 841006">
              <path id="Trazado_297907" data-name="Trazado 297907" d="M4158.79,291.193l8.288,66.332,5.027,4.61L4201.779,345c.624-.364.827-1.419.307-2.722-8.873-22.242-15.675-39.7-16.847-59.218a5.714,5.714,0,0,0-2.562-4.231,1.814,1.814,0,0,0-1.823-.178Z" transform="translate(-4157.303 -278.482)" fill="#333"/>
              <path id="Trazado_297908" data-name="Trazado 297908" d="M4171.556,354.508l-3.686-2.128a6.011,6.011,0,0,1-2.349-2.841c-6.24-14.974-8.71-38.551-6.583-64.432.118-1.456,1.232-1.977,2.558-1.211a5.726,5.726,0,0,1,2.564,4.233c1.172,19.517.366,41.563,9.239,63.805C4174.117,353.983,4173.149,355.427,4171.556,354.508Z" transform="translate(-4158.189 -271.004)"/>
            </g>
            <g id="Grupo_841007" data-name="Grupo 841007" transform="translate(9.277 4.301)">
              <path id="Trazado_297909" data-name="Trazado 297909" d="M4181.871,293.409l-18.791,10.847c.3,2.93.671,5.876,1.151,8.831l20.373-11.761Q4183.158,297.339,4181.871,293.409Z" transform="translate(-4160.242 -260.734)"/>
              <path id="Trazado_297910" data-name="Trazado 297910" d="M4167.063,321.47l20.384-11.771,2.086-1.206q-1.475-3.7-2.89-7.3l-22.018,12.71C4165.328,316.422,4166.132,318.943,4167.063,321.47Z" transform="translate(-4157.958 -249.233)"/>
              <path id="Trazado_297911" data-name="Trazado 297911" d="M4176.869,280.22c-.015-.084-3.551,1.964-3.551,1.964-.006-.057-11.384,6.408-11.384,6.408a9.357,9.357,0,0,1,1.048,3.676c.137,2.237.244,4.476.342,6.762l14.685-8.479C4177.471,287.156,4177.079,283.721,4176.869,280.22Z" transform="translate(-4161.934 -280.218)"/>
              <path id="Trazado_297912" data-name="Trazado 297912" d="M4184.376,297.333l-20.695,11.947c.5,2.8,1.1,5.618,1.828,8.439l21.828-12.6Q4185.8,301.18,4184.376,297.333Z" transform="translate(-4159.352 -254.937)"/>
              <path id="Trazado_297913" data-name="Trazado 297913" d="M4179.431,289.379l-16.691,9.638c.165,3.025.37,6.066.645,9.123l18.4-10.624Q4180.5,293.444,4179.431,289.379Z" transform="translate(-4160.746 -266.686)"/>
              <path id="Trazado_297914" data-name="Trazado 297914" d="M4177.457,285.2l-14.924,8.618c.024.592.047,1.179.073,1.781.1,2.482.2,4.977.327,7.481l16.316-9.42C4178.558,290.848,4177.956,288.034,4177.457,285.2Z" transform="translate(-4161.051 -272.866)"/>
            </g>
          </g>
        </g>
        <g id="Grupo_841011" data-name="Grupo 841011" transform="translate(51.867 21.038)">
          <g id="Grupo_841010" data-name="Grupo 841010">
            <path id="Trazado_297915" data-name="Trazado 297915" d="M4185.908,292.98c-1.821-6.733-7.047-5.834-7.047-5.834l-1.681,2.6s3.182,13.557,4.184,17.741a43.7,43.7,0,0,0,4.545,11.221l6.772-6.044C4191.227,308.5,4187.436,298.636,4185.908,292.98Z" transform="translate(-4146.431 -271.433)" fill="#ff9a73"/>
            <path id="Trazado_297916" data-name="Trazado 297916" d="M4216.469,315.456c-10.024,2.75-20.317,21.464-20.317,21.464a88.2,88.2,0,0,1-16.807-4.05c-6.407-2.336-12.52-5.841-13.908-10.919-3.134-11.538,5.732-18.69,5.732-18.69s5-3.255,13.332-3.133a30.834,30.834,0,0,1,5.111.468,37.568,37.568,0,0,1,4.9,1.191,52.379,52.379,0,0,1,10.722,4.759A47.2,47.2,0,0,1,4216.469,315.456Z" transform="translate(-4164.766 -252.205)" fill="#e64047"/>
            <path id="Trazado_297917" data-name="Trazado 297917" d="M4194.267,315.87l-2.336,5.12s-.688,6.659-12.555,8.9c-5.023.939-10.789-7.424-10.789-7.424a78.75,78.75,0,0,0-.808-13.812,29.56,29.56,0,0,0-1.265-5.175s.576-7.61,15.25-12.883c13.4-4.825,13.9-3.21,13.9-3.21s1.813,1.518,2,8.714,1.912,10.1,1.912,10.1C4203.392,313.587,4196.023,315.771,4194.267,315.87Z" transform="translate(-4162.185 -271.408)" fill="#e64047"/>
            <path id="Trazado_297918" data-name="Trazado 297918" d="M4205.234,312.912s-25.036,15.373-25.889,26.324c-6.407-2.336-12.52-5.841-13.908-10.919-3.134-11.538,5.732-18.69,5.732-18.69a78.722,78.722,0,0,0-.808-13.812l4.9,3.986,8.081,6.049a7.86,7.86,0,0,0,6.267,1.112c1.747-.545,3.569-2.009,5.075-5.185l2.163,1.256-2.337,5.12A52.384,52.384,0,0,1,4205.234,312.912Z" transform="translate(-4164.766 -258.57)" fill="#7a1c1c" opacity="0.5" style="mix-blend-mode: multiply;isolation: isolate"/>
            <path id="Trazado_297919" data-name="Trazado 297919" d="M4183.583,292.094l-1,6.572s1.3,3.844-1.912,5.143c-3.711,1.5-8.344-3.139-7.778-7.984v-10.3Z" transform="translate(-4152.835 -273.777)" fill="#ff9a73"/>
            <path id="Trazado_297920" data-name="Trazado 297920" d="M4174.13,290.515c.137.228.3,10.119,5.824,7.733,2.739-1.182,2.536-9.6,2.536-9.6Z" transform="translate(-4150.935 -269.151)" fill="#ffa89f" opacity="0.5" style="mix-blend-mode: multiply;isolation: isolate"/>
            <path id="Trazado_297921" data-name="Trazado 297921" d="M4174.634,296.7s3.139,5.938,7.439,7.711,5.192.607,6.62-1.637,3.2-7.917.68-14.536-9.688-9.416-14.193-5.185-4.367,8.256-3,11.325S4174.634,296.7,4174.634,296.7Z" transform="translate(-4155.056 -280.385)" fill="#ff9a73"/>
            <path id="Trazado_297922" data-name="Trazado 297922" d="M4177.787,306.238a16.835,16.835,0,0,0,10.051-17.535s-1.159-10.634-10.577-7.263-6.343,14.36-6.343,14.36A12.377,12.377,0,0,0,4177.787,306.238Z" transform="translate(-4156.389 -280.779)"/>
            <path id="Trazado_297923" data-name="Trazado 297923" d="M4180.632,288.18s6.543,3.146,6.115,8.229c0,0,2.42-2.943.981-7.8-1.8-6.074-6.3-7.951-11.191-7.793C4168.96,281.064,4180.632,288.18,4180.632,288.18Z" transform="translate(-4151.159 -280.735)"/>
            <path id="Trazado_297924" data-name="Trazado 297924" d="M4191.924,331.509c.395-5,2.4-11.159,4.081-17.441h-11.271c-.385,5.194,1.329,10.263,1.2,17.29a11.556,11.556,0,0,0-.777,5.7,13.352,13.352,0,0,0,4.312,6.463c2.708,1.972,5.36,3.547,7.691,2.648l4.928-2.8-6.441-5.489C4193.778,335.5,4191.59,333.967,4191.924,331.509Z" transform="translate(-4135.356 -231.609)" fill="#ff9a73"/>
            <path id="Trazado_297925" data-name="Trazado 297925" d="M4186.316,321.186a11.312,11.312,0,0,0-1.2,9.086c1.409,2.056,3.43,2.794,5.729,5.806l2.1,1.962c4.076,2.45,8.6,2.6,10.935,1.164,1.417-2.257.588-6.317-4.862-8.989,3.515,2.844.274,4.892-3.065,5.024-2.265-.268-3.949-2.6-6.637-5.754C4186.82,326.163,4185.579,323.841,4186.316,321.186Z" transform="translate(-4135.364 -221.095)" fill="#e64047"/>
            <path id="Trazado_297926" data-name="Trazado 297926" d="M4184.243,341.9c1.165-6.782,7.373-10.8,11.057-19.993.207-.518-12.966-4.56-12.966-4.56-5.658,7.426-2.244,15.742-5.872,23.822-1.111,2.182-2.2,3.443-2.252,5.442a16,16,0,0,0,3.664,7.488c2.494,2.581,4.974,4.746,7.365,4.327l5.61-1.969-5.967-6.745C4183.257,346.889,4183.684,344.323,4184.243,341.9Z" transform="translate(-4150.818 -226.773)" fill="#ff9a73"/>
            <path id="Trazado_297927" data-name="Trazado 297927" d="M4176.86,326.959a11.289,11.289,0,0,0-2.869,8.7c1,2.284,2.847,3.384,4.544,6.772l1.7,2.316c3.548,3.168,10.23,3.312,12.792,2.336,1.813-1.954-.513-5.252-5.368-8.893,2.923,3.448-.645,4.858-3.949,4.365-2.175-.684-3.4-3.292-5.449-6.889C4176.425,331.94,4175.637,329.429,4176.86,326.959Z" transform="translate(-4151.216 -212.568)" fill="#e64047"/>
          </g>
        </g>
        <g id="Grupo_841017" data-name="Grupo 841017" transform="translate(0 47.901)">
          <g id="Grupo_841014" data-name="Grupo 841014" transform="translate(0 54.736)">
            <g id="Grupo_841012" data-name="Grupo 841012" transform="translate(0 80.47)">
              <path id="Trazado_297928" data-name="Trazado 297928" d="M4143.827,346.206l.064,16.836,36.253,21.113-.063-16.836Z" transform="translate(-4143.827 -346.206)" fill="#57412b"/>
            </g>
            <g id="Grupo_841013" data-name="Grupo 841013" transform="translate(36.254 21.102)">
              <path id="Trazado_297929" data-name="Trazado 297929" d="M4158.463,402.721l.063,16.836,139.4-80.482-.062-16.836Z" transform="translate(-4158.463 -322.239)" fill="#a67c52"/>
            </g>
            <path id="Trazado_297930" data-name="Trazado 297930" d="M4283.222,313.721l-1.363.768L4146.5,392.627l-2.668,1.557,36.252,21.119,139.4-80.487Z" transform="translate(-4143.822 -313.721)" fill="#f2ddc9"/>
          </g>
          <path id="Trazado_297931" data-name="Trazado 297931" d="M4292.406,307.087v37.531l-133.941,77.32V384.407Z" transform="translate(-4122.209 -268.784)" fill="#57412b"/>
          <path id="Trazado_297932" data-name="Trazado 297932" d="M4283.667,310.913l-2.375,1.378-120.617,69.623.007,22.157-.005,2.746,122.992-71Z" transform="translate(-4118.944 -263.132)" fill="#f2ddc9"/>
          <path id="Trazado_297933" data-name="Trazado 297933" d="M4281.291,311.469l-120.617,69.623.007,22.156L4281.3,333.625Z" transform="translate(-4118.944 -262.311)" fill="#c69c6d"/>
          <path id="Trazado_297934" data-name="Trazado 297934" d="M4278.85,299.21l33.578,19.512-133.941,77.32-33.578-19.512Z" transform="translate(-4142.23 -280.419)" fill="#736357"/>
          <path id="Trazado_297935" data-name="Trazado 297935" d="M4144.909,330.424v37.531l33.578,19.512V349.936Z" transform="translate(-4142.23 -234.313)" fill="#57412b"/>
          <g id="Grupo_841015" data-name="Grupo 841015" transform="translate(0 80.47)">
            <path id="Trazado_297936" data-name="Trazado 297936" d="M4143.827,324.11l.064,71.571,36.253,21.113-.063-71.571Z" transform="translate(-4143.827 -324.11)" fill="#57412b"/>
          </g>
          <g id="Grupo_841016" data-name="Grupo 841016" transform="translate(36.254 21.101)">
            <path id="Trazado_297937" data-name="Trazado 297937" d="M4158.463,380.625l.063,16.836,139.4-80.482-.062-16.836Z" transform="translate(-4158.463 -300.143)" fill="#a67c52"/>
          </g>
          <path id="Trazado_297938" data-name="Trazado 297938" d="M4283.222,291.624l-2.781,1.586L4146.5,370.53l-2.668,1.556,36.252,21.12,139.4-80.486Z" transform="translate(-4143.822 -291.624)" fill="#f2ddc9"/>
        </g>
        <path id="Trazado_297939" data-name="Trazado 297939" d="M4193.059,272.286V332.2l33.578,19.512V291.8Z" transform="translate(-4071.108 -272.286)" fill="#a67c52" opacity="0.3"/>
        <path id="Trazado_297940" data-name="Trazado 297940" d="M4193.72,290.435l16.446,36.82,5.984,3.477-22.43-49.266Z" transform="translate(-4070.131 -258.728)" fill="#fff" opacity="0.3"/>
        <path id="Trazado_297941" data-name="Trazado 297941" d="M4194.99,274.173l-1.27-.738v16.51l24.88,54.072,5.422,3.152V335.117Z" transform="translate(-4070.131 -270.59)" fill="#fff" opacity="0.3"/>
        <path id="Trazado_297942" data-name="Trazado 297942" d="M4197.051,304.978l-2.657-1.535v-8.967l2.657,1.535Z" transform="translate(-4069.137 -239.509)" fill="#fff"/>
        <path id="Trazado_297943" data-name="Trazado 297943" d="M4206.636,310.511l-2.659-1.535v-8.967l2.659,1.535Z" transform="translate(-4054.982 -231.337)" fill="#fff"/>
        <path id="Trazado_297944" data-name="Trazado 297944" d="M4177.21,312.719l27.742,15.9,18.1-10.374-27.742-15.9Z" transform="translate(-4094.518 -227.887)" fill="#fff"/>
        <g id="Grupo_841018" data-name="Grupo 841018" transform="translate(55.357 50.51)">
          <path id="Trazado_297945" data-name="Trazado 297945" d="M4188.1,299.073c-.13-.277-.347-.852-.624-1.647l-6.772,6.044c.325.547.653,1.075.986,1.561,2.348,3.411,20.5,14.2,20.5,14.2l2.036-3.47S4188.917,300.8,4188.1,299.073Z" transform="translate(-4144.716 -285.663)" fill="#ff9a73"/>
          <path id="Trazado_297946" data-name="Trazado 297946" d="M4189.354,307.852l.547.6.658,3.364,1.579,2.108.867,1.333,1.625,1.127c.8.433,1.239-.505.613-1.38l-1.194-1.308-.324-1.578a2.641,2.641,0,0,1,2.73-.377s1.051,1.793,1.087,1.878.841,1.771.841,1.771c.582,1.476,1.74,1.085,1.411-.154l-.838-2.195-.6-1.7,1.886,1.848,1.131,1.7c.691.959,1.675.619,1.281-.329l-.889-1.6-.993-1.531,1.745,1.268.755,1.338a1.128,1.128,0,0,0,1.066.671.533.533,0,0,0,.225-.9c.221-.22.047-.726-.138-.978l-1.653-1.932-4.583-3.047-4.212-2.029-3.475-1.392C4188.789,303.311,4188.335,306.522,4189.354,307.852Z" transform="translate(-4132.732 -275.66)" fill="#ff9a73"/>
          <path id="Trazado_297947" data-name="Trazado 297947" d="M4167.536,293.417s-3.061,5.3,0,10.486,12.34,20.654,12.34,20.654a9.233,9.233,0,0,0,2.82,3.639c2.438,2.1,17.736,8.452,17.742,6.837l4.821-1.833s-19.523-12.1-19.542-12.465-7.57-17.558-8.479-18.469S4172.118,289.665,4167.536,293.417Z" transform="translate(-4166.175 -292.677)" fill="#ff9a73"/>
          <path id="Trazado_297948" data-name="Trazado 297948" d="M4181.244,312.757l1.11,1.125a10.577,10.577,0,0,0,6.884,2.252l2.3,1.536,1.736,2.447c1.244,1.513,1.789.545,1.2-.7l-.937-1.585-1.962-2.341.739-.463,1.664.483,2.383,1.31.625.686a1.156,1.156,0,0,0,1.353.265l.112-.052.237.119a.774.774,0,0,0,1.013-.3,1.21,1.21,0,0,0-.014-1.239l-1.063-1.736-1.922-1.59,1.555.248,1.253.894.823,1c.894.971,1.449.094,1.076-.872l-.978-1.476-2.593-1.935-4.082-1.226-7.843-.082-3.245-1.278C4175.328,307.05,4180.15,311.908,4181.244,312.757Z" transform="translate(-4147.708 -269.963)" fill="#ff9a73"/>
        </g>
        <g id="Grupo_841042" data-name="Grupo 841042" transform="translate(8.965 69.602)">
          <g id="Grupo_841020" data-name="Grupo 841020" transform="translate(17.689 45.815)">
            <path id="Trazado_297949" data-name="Trazado 297949" d="M4187.859,327.647a.82.82,0,0,0-.182-.533l-5.711-7.478a1.539,1.539,0,0,0-.458-.386,3.413,3.413,0,0,0-2.413-.263l-23.2,5.908c-.82.208-1.3.674-1.3,1.159,0-.012-.009,2.777-.009,2.777a.844.844,0,0,0,.191.515l5.708,7.481a1.583,1.583,0,0,0,.456.384,3.428,3.428,0,0,0,2.419.263l23.2-5.908c.81-.208,1.292-.666,1.292-1.152l.007-2.787Z" transform="translate(-4154.588 -318.88)" fill="#0e0e14"/>
            <g id="Grupo_841019" data-name="Grupo 841019" transform="translate(0.007)">
              <path id="Trazado_297950" data-name="Trazado 297950" d="M4181.5,319.249a1.548,1.548,0,0,1,.459.386l5.711,7.478c.483.639-.013,1.382-1.109,1.665l-23.2,5.908a3.432,3.432,0,0,1-2.42-.265,1.488,1.488,0,0,1-.452-.384l-5.71-7.481c-.49-.637,0-1.382,1.11-1.662l23.2-5.908A3.413,3.413,0,0,1,4181.5,319.249Z" transform="translate(-4154.591 -318.88)" fill="#748597"/>
            </g>
          </g>
          <g id="Grupo_841027" data-name="Grupo 841027">
            <g id="Grupo_841026" data-name="Grupo 841026" style="isolation: isolate">
              <g id="Grupo_841021" data-name="Grupo 841021" transform="translate(1.264 1.657)">
                <path id="Trazado_297951" data-name="Trazado 297951" d="M4212.223,301.053l-.1,39.067-64.164,16.341.1-39.067Z" transform="translate(-4147.957 -301.053)" fill="#333942"/>
              </g>
              <g id="Grupo_841022" data-name="Grupo 841022" transform="translate(0 16.338)">
                <path id="Trazado_297952" data-name="Trazado 297952" d="M4148.813,308.639l-.1,39.067-1.264-1.659.1-39.067Z" transform="translate(-4147.447 -306.98)" fill="#333942"/>
              </g>
              <g id="Grupo_841025" data-name="Grupo 841025" transform="translate(0.103)">
                <g id="Grupo_841023" data-name="Grupo 841023">
                  <path id="Trazado_297953" data-name="Trazado 297953" d="M4211.647,300.384l1.268,1.657-64.164,16.341-1.263-1.659Z" transform="translate(-4147.488 -300.384)" fill="#748597"/>
                </g>
                <g id="Grupo_841024" data-name="Grupo 841024">
                  <path id="Trazado_297954" data-name="Trazado 297954" d="M4211.647,300.384l1.268,1.657-64.164,16.341-1.263-1.659Z" transform="translate(-4147.488 -300.384)" fill="#748597"/>
                </g>
              </g>
            </g>
          </g>
          <g id="Grupo_841034" data-name="Grupo 841034" transform="translate(14.566 16.338)">
            <g id="Grupo_841033" data-name="Grupo 841033" style="isolation: isolate">
              <g id="Grupo_841028" data-name="Grupo 841028" transform="translate(0.703 0.92)">
                <path id="Trazado_297955" data-name="Trazado 297955" d="M4189.305,307.352l-.058,21.7-35.637,9.076.056-21.7Z" transform="translate(-4153.611 -307.352)" fill="#4d5865"/>
              </g>
              <g id="Grupo_841029" data-name="Grupo 841029" transform="translate(0 9.075)">
                <path id="Trazado_297956" data-name="Trazado 297956" d="M4154.086,311.565l-.055,21.7-.7-.921.058-21.7Z" transform="translate(-4153.328 -310.644)" fill="#333942"/>
              </g>
              <g id="Grupo_841032" data-name="Grupo 841032" transform="translate(0.057)">
                <g id="Grupo_841030" data-name="Grupo 841030">
                  <path id="Trazado_297957" data-name="Trazado 297957" d="M4188.986,306.98l.7.92-35.639,9.076-.7-.921Z" transform="translate(-4153.351 -306.98)" fill="#748597"/>
                </g>
                <g id="Grupo_841031" data-name="Grupo 841031">
                  <path id="Trazado_297958" data-name="Trazado 297958" d="M4188.986,306.98l.7.92-35.639,9.076-.7-.921Z" transform="translate(-4153.351 -306.98)" fill="#748597"/>
                </g>
              </g>
            </g>
          </g>
          <g id="Grupo_841041" data-name="Grupo 841041" transform="translate(28.189 35.393)">
            <g id="Grupo_841040" data-name="Grupo 841040" style="isolation: isolate">
              <g id="Grupo_841037" data-name="Grupo 841037" transform="translate(1.756 1.659)">
                <g id="Grupo_841035" data-name="Grupo 841035">
                  <path id="Trazado_297959" data-name="Trazado 297959" d="M4168.3,315.342l-.1,16.856-8.662,2.2.1-16.856Z" transform="translate(-4159.536 -315.342)" fill="#748597"/>
                </g>
                <g id="Grupo_841036" data-name="Grupo 841036">
                  <path id="Trazado_297960" data-name="Trazado 297960" d="M4168.3,315.342l-.1,16.856-8.662,2.2.1-16.856Z" transform="translate(-4159.536 -315.342)" fill="#4d5865"/>
                </g>
              </g>
              <g id="Grupo_841038" data-name="Grupo 841038" transform="translate(0 2.207)">
                <path id="Trazado_297961" data-name="Trazado 297961" d="M4160.686,317.218l-.1,16.856-1.756-2.3.6-16.21Z" transform="translate(-4158.826 -315.563)" fill="#0e0e14"/>
              </g>
              <g id="Grupo_841039" data-name="Grupo 841039" transform="translate(0.595)">
                <path id="Trazado_297962" data-name="Trazado 297962" d="M4167.728,314.672l1.264,1.659-8.66,2.2-1.264-1.654Z" transform="translate(-4159.067 -314.672)" fill="#6f819a"/>
              </g>
            </g>
          </g>
        </g>
        <g id="Grupo_841049" data-name="Grupo 841049" transform="translate(132.853 69.473)">
          <path id="Trazado_297963" data-name="Trazado 297963" d="M4220.683,347.667a2.084,2.084,0,1,0,2.083-2.068A2.077,2.077,0,0,0,4220.683,347.667Z" transform="translate(-4163.157 -233.469)" fill="#333"/>
          <path id="Trazado_297964" data-name="Trazado 297964" d="M4207.649,351.483a2.083,2.083,0,1,0,2.084-2.068A2.075,2.075,0,0,0,4207.649,351.483Z" transform="translate(-4182.41 -227.833)" fill="#333"/>
          <path id="Trazado_297965" data-name="Trazado 297965" d="M4197.534,345.621a2.083,2.083,0,1,0,2.083-2.068A2.074,2.074,0,0,0,4197.534,345.621Z" transform="translate(-4197.351 -236.492)" fill="#333"/>
          <path id="Trazado_297966" data-name="Trazado 297966" d="M4203.822,337.994a2.083,2.083,0,1,0,2.084-2.068A2.074,2.074,0,0,0,4203.822,337.994Z" transform="translate(-4188.063 -247.757)" fill="#333"/>
          <path id="Trazado_297967" data-name="Trazado 297967" d="M4218.606,339.519a2.083,2.083,0,1,0,2.082-2.066A2.075,2.075,0,0,0,4218.606,339.519Z" transform="translate(-4166.226 -245.502)" fill="#333"/>
          <g id="Grupo_841045" data-name="Grupo 841045" transform="translate(0 87.297)">
            <g id="Grupo_841043" data-name="Grupo 841043" transform="translate(0 0.872)">
              <path id="Trazado_297968" data-name="Trazado 297968" d="M4223.68,350.3l-10.164-13.485v-.892l2.99.02,13.064,12.636a13.006,13.006,0,0,1,2.628.238l19.243-9.7,2.373.466v.892L4236.878,351.5a2.717,2.717,0,0,1,.416,1.5l22.054,6.6v.892l-1.522,1.712-23.535-5.821a10.571,10.571,0,0,1-2.371.7l-5.611,14.328-3.314-.3v-.894l2.393-13.731a8.081,8.081,0,0,1-1.028-.488,6.484,6.484,0,0,1-.854-.59l-25.521,1.37-.524-1.9v-.892l25-2.321A4.173,4.173,0,0,1,4223.68,350.3Z" transform="translate(-4197.46 -335.926)" fill="#333"/>
            </g>
            <g id="Grupo_841044" data-name="Grupo 841044">
              <path id="Trazado_297969" data-name="Trazado 297969" d="M4223.68,347.248l-10.164-10.8,2.99-.872,13.064,9.953a12.836,12.836,0,0,1,2.628.24l19.243-7.023,2.373,1.357-16.936,8.345a2.719,2.719,0,0,1,.416,1.506l22.054,10.169-1.522,1.712-23.535-8.5a10.451,10.451,0,0,1-2.371.7l-5.611,17.01-3.314-.3,2.393-17.305a8.069,8.069,0,0,1-1.028-.488,6.472,6.472,0,0,1-.854-.59l-25.521,4.053-.524-1.9,25-5.9A4.174,4.174,0,0,1,4223.68,347.248Z" transform="translate(-4197.46 -335.574)" fill="#f2ddc9"/>
            </g>
          </g>
          <g id="Grupo_841046" data-name="Grupo 841046" transform="translate(26.53 65.124)">
            <path id="Trazado_297970" data-name="Trazado 297970" d="M4209.458,334.1a3,3,0,0,1,.664-.5,6.391,6.391,0,0,1,5.745,0,3.115,3.115,0,0,1,.664.5h.525v18.98a2.007,2.007,0,0,1-1.189,1.645,6.391,6.391,0,0,1-5.745,0,2,2,0,0,1-1.188-1.645V334.1Z" transform="translate(-4207.043 -317.331)" fill="#333"/>
            <path id="Trazado_297971" data-name="Trazado 297971" d="M4210.122,333.134c-1.585.907-1.585,2.381,0,3.29a6.391,6.391,0,0,0,5.745,0c1.585-.909,1.585-2.383,0-3.29A6.391,6.391,0,0,0,4210.122,333.134Z" transform="translate(-4207.042 -318.013)" fill="#333"/>
            <path id="Trazado_297972" data-name="Trazado 297972" d="M4208.94,329.063a5.985,5.985,0,0,1,2.742-1.442,9.408,9.408,0,0,1,4.876,0,5.983,5.983,0,0,1,2.744,1.442h.771V343.49c0,1.211-1.118,2.42-3.349,3.079a9.221,9.221,0,0,1-5.208,0c-2.231-.659-3.347-1.868-3.347-3.079V329.063Z" transform="translate(-4208.17 -325.623)" fill="#f2ddc9"/>
            <ellipse id="Elipse_5678" data-name="Elipse 5678" cx="5.824" cy="3.441" rx="5.824" ry="3.441" transform="translate(0.127)" fill="#333"/>
          </g>
          <g id="Grupo_841048" data-name="Grupo 841048" transform="translate(8.413)">
            <path id="Trazado_297973" data-name="Trazado 297973" d="M4210.128,358.325l11.639-6.668c9.88-5.663,17.624-17.852,17.624-27.748v-16.75h-4.106v16.75c0,8.435-6.986,19.3-15.572,24.219l-11.637,6.668Z" transform="translate(-4190.194 -290.251)" fill="#fff"/>
            <rect id="Rectángulo_239420" data-name="Rectángulo 239420" width="48.133" height="6.784" transform="translate(48.134 65.739) rotate(180)" fill="#1a1a1a"/>
            <path id="Trazado_297974" data-name="Trazado 297974" d="M4207.906,325.345c-9.4,5.385-9.4,14.117,0,19.5s24.637,5.385,34.034,0,9.4-14.117,0-19.5S4217.3,319.957,4207.906,325.345Z" transform="translate(-4200.857 -269.356)" fill="#1a1a1a"/>
            <path id="Trazado_297975" data-name="Trazado 297975" d="M4207.906,322.6c-9.4,5.385-9.4,14.117,0,19.5s24.637,5.385,34.034,0,9.4-14.117,0-19.5S4217.3,317.219,4207.906,322.6Z" transform="translate(-4200.857 -273.401)" fill="#333"/>
            <g id="Grupo_841047" data-name="Grupo 841047" transform="translate(29.164)">
              <path id="Trazado_297976" data-name="Trazado 297976" d="M4217.875,300.973l-4.44,2.594,2.714,2.323a15.912,15.912,0,0,0,7.192,11.87l10.244,5.871,6.133,6.237,4.209-2.41c1.459-.689,2.4-2.346,2.4-4.8,0-4.565-3.468-9.755-7.216-12.4a87.868,87.868,0,0,0-15.766-9.034C4221.031,300.215,4219.2,299.97,4217.875,300.973Z" transform="translate(-4211.443 -300.333)" fill="#1a1a1a"/>
              <path id="Trazado_297977" data-name="Trazado 297977" d="M4219.846,302.27c6.4,2.987,11.794,5.841,15.765,9.034,3.576,2.876,7.215,7.835,7.215,12.4s-3.575,6.926-7.215,4.134a78.084,78.084,0,0,0-16.038-9.918c-4.233-1.786-6.943-6.953-6.943-11.519S4215.682,300.328,4219.846,302.27Z" transform="translate(-4212.63 -298.695)" fill="#333"/>
            </g>
          </g>
        </g>
        <g id="Grupo_841052" data-name="Grupo 841052" transform="translate(103.021 39.857)">
          <path id="Trazado_297978" data-name="Trazado 297978" d="M4226.233,295.542s-7.18,2.487-9.827,6.163-5.539,22.854-5.539,22.854L4199.689,349l12.241,3.835,6.016-9.207,6-27.825Z" transform="translate(-4164.338 -277.792)" fill="#fff"/>
          <path id="Trazado_297979" data-name="Trazado 297979" d="M4213.524,303.328l-5.61,24.658-5.684,11.124,10.42,2.262,3.354-12.088Z" transform="translate(-4160.583 -266.292)" fill="#a5cfe6" style="mix-blend-mode: multiply;isolation: isolate"/>
          <path id="Trazado_297980" data-name="Trazado 297980" d="M4213.6,343.8a17.262,17.262,0,0,1,3.009,8.648,5.649,5.649,0,0,1-3.612,3.23,23.115,23.115,0,0,1-7.935,9.472,24.456,24.456,0,0,1-7.147,2.222c-3.458.481-3.748-3.592-1.433-6.9a25.115,25.115,0,0,0,4.472-8.739l-.163-9.361,11.551-2.574Z" transform="translate(-4171.283 -212.42)"/>
          <path id="Trazado_297981" data-name="Trazado 297981" d="M4208.635,349.985c.567,3.339.376,4.612-1.308,6.753a25.751,25.751,0,0,0-2.088,2.826c-.968,1.8-3.621,5.606-7.3,6.522-4.453,1.514-10.57.892-12.52-2.9.236-1.461.6-4.159,5.366-7.719l6.053-6.876,1.976-5.695,11.066,2.371Z" transform="translate(-4185.417 -207.838)"/>
          <path id="Trazado_297982" data-name="Trazado 297982" d="M4258.508,329.327c-2.146,10.872-32.21,19.666-44.125,22.413-1.99,9.215-6.862,22.319-11.948,34.451-3.794,4.087-13.43.617-12.7-3.5,2.817-14.6,7.146-28.672,9.374-37.944a9.508,9.508,0,0,1,4.483-5.987c10.038-5.831,27.3-14.065,40.967-20.2Z" transform="translate(-4179.097 -243.794)" fill="#333942"/>
          <path id="Trazado_297983" data-name="Trazado 297983" d="M4237.41,321.814c7.663-2.589-27.839,20.929-27.024,22.1,3.942,10.037,4.84,22.148,5.422,37.151-.811,3.862-7.483,5.888-13.305,6.059-2.479-12.648-4.658-27.488-8.384-42.341a16.567,16.567,0,0,1,6.051-16.274l23.1-13.639Z" transform="translate(-4173.034 -249.249)" fill="#4d5865"/>
          <path id="Trazado_297984" data-name="Trazado 297984" d="M4207.607,344.284a45.975,45.975,0,0,1,6.433,4.008,55.425,55.425,0,0,1,13.4,14.281,6.13,6.13,0,0,0,11.081-2.071,31.7,31.7,0,0,0,.81-6.634l4.159-18.12,5.036-22.029-13.141-13.1s-10.79-2.8-11.278-2.8l-8.571-1.466s-5.861,11.013-7.292,18.088-.372,18.809-1.6,23.069a4.45,4.45,0,0,1-.507,1.095A4.007,4.007,0,0,0,4207.607,344.284Z" transform="translate(-4155.709 -276.589)" fill="#fff"/>
          <path id="Trazado_297985" data-name="Trazado 297985" d="M4219.677,302.018l.329,4.365-2.766,4.107c-.978,6.267-3.4,18.335-3.316,23.21l-4.538,5.546-1.08-5.91c1.465-7.654,5.437-19.6,6.963-24.6l.176-5.353,2.994-1.883Z" transform="translate(-4151.609 -268.987)" fill="#e64047"/>
          <path id="Trazado_297986" data-name="Trazado 297986" d="M4223.41,296.063l6.275,4.991c3.142,9.6-4.714,13.537-9.839,18.883l-3.009-8.385L4209.39,313l2.74-13.656Z" transform="translate(-4150.006 -277.023)" fill="#c4eaff"/>
          <path id="Trazado_297987" data-name="Trazado 297987" d="M4208.965,330.832a55.447,55.447,0,0,1,13.4,14.28,6.129,6.129,0,0,0,11.08-2.071,31.7,31.7,0,0,0,.809-6.636l4.159-18.12-6.551-10.1-6.111,15.393Z" transform="translate(-4150.634 -259.123)" fill="#a5cfe6" style="mix-blend-mode: multiply;isolation: isolate"/>
          <path id="Trazado_297988" data-name="Trazado 297988" d="M4245.407,303.932a17.373,17.373,0,0,1,2.548,5.747,24.065,24.065,0,0,1,.187,10.473,64.918,64.918,0,0,1-8.382,22.633c-1.613,3.044-16.518,6.361-28.8,9.534-1.643,0-4.068-6.319-3.084-9.44a103.29,103.29,0,0,1,22.473-8.546l3.255-17.355C4235.736,305.264,4241.432,300.885,4245.407,303.932Z" transform="translate(-4152.582 -266.786)" fill="#fff"/>
          <path id="Trazado_297989" data-name="Trazado 297989" d="M4220.627,328.04l-3.7,1.4a21.443,21.443,0,0,1-6.888.275l-4.771,1.479-2.081.436c-.846.193-1.258-.765-.217-1.367l5.065-1.88-.193-.639-2.792.547-2.464.768c-1.259.327-1.422-.768-.272-1.588l2.955-1.424,2.354-.711-.218-.33-2.466.612-2.625,1.224c-1.4.382-1.809-.547-.769-1.343l2.547-1.313,3.063-1.122-.218-.493-2.435.466-3.176,1.313c-1.315.329-1.424-.629-.248-1.5l3.122-1.756,5.036-1.177-.164-.272-1.589-.221-2.037.364c-1.275.265-1.821-.691-.234-1.4l2.739-.711s4.049.136,4.991.78c1.269.869,4.533,3.27,4.533,3.27l1.167-.126C4220.639,321.132,4222.65,327.357,4220.627,328.04Z" transform="translate(-4163.49 -245.106)" fill="#ffb294"/>
          <path id="Trazado_297990" data-name="Trazado 297990" d="M4207.048,316.179a10.536,10.536,0,0,1,6.571,3.381l1.777,2.725.947,2.358c0,1.006-1.168.572-1.884-.211l-2.191-3.1-1.373-.178-.354,1.915-.194,2.6c.046,1.013-1.315.9-1.425-.03l-.688-4.957-1.184.178v2.063l-.414,3.032c-.119,1.053-1.333,1.112-1.422.411l-.3-3.178v-2.8l-.533.295-.591,2.6-.265,2.338c-.237,1.362-1.6,1.214-1.63.327l.178-2.715v-1.957l-1.184.713s-.884,1.305-.968,1.462c-.319.59-1.046,1.667-1.046,1.667-.543.5-.879.419-1.035-.178l.645-2.281,1.282-1.853a9.987,9.987,0,0,1,3.729-3.7A9.248,9.248,0,0,1,4207.048,316.179Z" transform="translate(-4167.067 -247.319)" fill="#ffb294"/>
          <g id="Grupo_841051" data-name="Grupo 841051" transform="translate(56.892)">
            <g id="Grupo_841050" data-name="Grupo 841050" transform="translate(1.558)">
              <path id="Trazado_297991" data-name="Trazado 297991" d="M4212.021,310.449a4.789,4.789,0,0,0,2.248,1.85c6.318,1.865,10.392-4.771,10.773-9.591.335-4.276.636-7.632.636-7.632l-14.5,3.518s-.133,1.147-.2,2.767C4210.854,304.11,4210.9,308.227,4212.021,310.449Z" transform="translate(-4206.182 -278.481)" fill="#ffb294"/>
              <path id="Trazado_297992" data-name="Trazado 297992" d="M4211.8,306.813c4.736,1.172,8.457-7.379,8.457-7.379l-9.681-1.85C4208.689,303.969,4209.816,306.322,4211.8,306.813Z" transform="translate(-4208.132 -274.778)" fill="#ffb294" opacity="0.5" style="mix-blend-mode: multiply;isolation: isolate"/>
              <path id="Trazado_297993" data-name="Trazado 297993" d="M4226.819,305.366a66.462,66.462,0,0,1-5.909,7.369,9.722,9.722,0,0,1-6.318,2.829c-1.437.074-1.925-.381-3.158-1.122-2.739-1.642-2.409-11.263-2.409-11.263a20.92,20.92,0,0,1,.688-6.3c.681-3.191,3.743-9.2,13.035-7.929,4.483.614,7.072,3.25,7.656,7.2.466,3.136-1.234,8.331-1.234,8.331Z" transform="translate(-4209.013 -287.79)" fill="#ffb294"/>
              <path id="Trazado_297994" data-name="Trazado 297994" d="M4228.763,309.158c-2.447,4.087-6.734,3.785-7.174-.082-.088-.775-2.248-.525-3.123-.748l.684-2.675c.327-2.1-1.152-2.026-2.383-2.3-4.523-1.018-6.967-2.933-7.557-5.209-1.494-5.73,6.06-9.948,11.749-9.757,6.908.233,10.213,4.749,10.941,8.779C4232.674,301.454,4228.763,309.158,4228.763,309.158Z" transform="translate(-4209.006 -288.376)"/>
              <path id="Trazado_297995" data-name="Trazado 297995" d="M4215.552,295.469a1.523,1.523,0,0,1,1.865.282,1.459,1.459,0,0,1,.229,1.095,3.713,3.713,0,0,1-.387,1.078,18.641,18.641,0,0,1-.97,1.741,2.124,2.124,0,0,1-1.169,1.06c-.54.129-1.189.5-1.479.03a4.529,4.529,0,0,1,1.911-5.286Z" transform="translate(-4202.517 -278.181)" fill="#ffb294"/>
            </g>
            <path id="Trazado_297996" data-name="Trazado 297996" d="M4208.386,299.345c.058,1.03,1.7,1.194,2.573.862.118-.045.269.042.36-.045a.4.4,0,0,0,.1-.26,13.505,13.505,0,0,0,.023-2.735c-.045-.443-.109-2.584-.61-2.6C4210.281,294.552,4208.321,298.194,4208.386,299.345Z" transform="translate(-4208.385 -279.233)" fill="#ffb294"/>
          </g>
        </g>
        <g id="Grupo_841054" data-name="Grupo 841054" transform="translate(163.239 156.219)">
          <g id="Grupo_841053" data-name="Grupo 841053">
            <path id="Trazado_297997" data-name="Trazado 297997" d="M4209.728,388.9l5.925,3.781,35.839-26.441,4.141-28.572-3.421-2.319-42.142,24.02Z" transform="translate(-4209.728 -335.352)" fill="#1a1a1a"/>
            <path id="Trazado_297998" data-name="Trazado 297998" d="M4213.193,391.3l41.782-24.122-1.8-30.891-41.781,24.122Z" transform="translate(-4207.268 -333.969)" fill="#333"/>
            <path id="Trazado_297999" data-name="Trazado 297999" d="M4253.173,336.288l.8,13.783-18.812,16.923-23.042,5.963-.731-12.546Z" transform="translate(-4207.268 -333.969)" fill="#1a1a1a"/>
            <path id="Trazado_298000" data-name="Trazado 298000" d="M4224.678,346.8l.7,5.811a1.712,1.712,0,0,1-.931,1.732l-1.067.533a1.706,1.706,0,0,1-2.435-1.187l-.925-4.533Z" transform="translate(-4194.529 -318.446)" fill="#666"/>
            <path id="Trazado_298001" data-name="Trazado 298001" d="M4224.883,346.706l.7,5.811a1.711,1.711,0,0,1-.931,1.731l-1.067.533a1.709,1.709,0,0,1-2.438-1.187l-.92-4.533Z" transform="translate(-4194.227 -318.581)" fill="gray"/>
            <path id="Trazado_298002" data-name="Trazado 298002" d="M4219.861,352.9l7.293-4.211-.293-2.825-7.293,4.211Z" transform="translate(-4195.19 -319.822)" fill="#4d4d4d"/>
          </g>
          <path id="Trazado_298003" data-name="Trazado 298003" d="M4218.267,342.016l2.267-1.231,4.89-2.868c1.407-.639,3.37.32,4.394,1.972.491,1.283-1.284,2.063-1.749,1.167l-1.2-1.092-1.437.322c-1.893,1.278-5.405,3.233-5.683,3.359-1.415.941-1.338,2.123-1.727,3.976-.682,1.068-2.152.577-2.152-.171C4216.3,344.872,4216.614,342.945,4218.267,342.016Z" transform="translate(-4200.654 -331.859)" fill="#333"/>
        </g>
      </g>
      <g id="Grupo_841056" data-name="Grupo 841056" transform="translate(4207.509 430.761)">
        <g id="Grupo_840911" data-name="Grupo 840911" transform="translate(0 19.688)">
          <g id="Grupo_840908" data-name="Grupo 840908">
            <path id="Trazado_297782" data-name="Trazado 297782" d="M1575.094,369.134s-.028.1-.078.268c-.092.313-.232.79-.363,1.25-.033.114-.064.229-.092.34a16.747,16.747,0,0,0-.343,1.822c-.34,2.386-2.087,4.718-5.246,6.543a28.317,28.317,0,0,1-25.633,0c-3.036-1.752-4.769-3.97-5.2-6.258-.115-.608-.24-1.217-.391-1.816-.117-.472-.251-.935-.4-1.392l-.184-.552-.07-.2c.21.008.857.014,1.87.017,1.072.006,2.556.006,4.317.006.257,0,.525,0,.8,0H1547a29.99,29.99,0,0,1,18.256-.011c1.044,0,2.037-.006,2.96-.006,2.138-.006,3.926-.006,5.143-.006.929,0,1.524,0,1.688,0Z" transform="translate(-1537.085 -334.181)" fill="#48caff"/>
            <path id="Trazado_297783" data-name="Trazado 297783" d="M1575.094,370.062v4.04a6.179,6.179,0,0,1-.042.717c-.009.087-.022.176-.036.268a6.925,6.925,0,0,1-.455,1.59,10.427,10.427,0,0,1-3.842,4.425c-.371.262-.772.514-1.194.759-.349.2-.706.388-1.074.572a28.359,28.359,0,0,1-12.361,2.639,27.52,27.52,0,0,1-13.362-3.172l-.072-.039a11.6,11.6,0,0,1-4.911-4.894,6.976,6.976,0,0,1-.589-1.945c-.014-.07-.02-.137-.028-.2a6.317,6.317,0,0,1-.042-.717,6.5,6.5,0,0,1,.07-.9v-3.145l1.627-.139,4.557-.4,2.855-.248a30.046,30.046,0,0,1,9.9-1.607c3.435,0,6.87-4,9.9-2.935l7.768,4.548Z" transform="translate(-1537.085 -339.867)" fill="#d1f0ff"/>
            <path id="Trazado_297784" data-name="Trazado 297784" d="M1575.1,372.041a6.224,6.224,0,0,1-.053.82,7.652,7.652,0,0,1-1.73,3.834,13.441,13.441,0,0,1-3.781,3.106,29.7,29.7,0,0,1-26.867,0,13.4,13.4,0,0,1-3.761-3.091,7.358,7.358,0,0,1-1.8-4.668v-.106a6.913,6.913,0,0,1,.979-3.371c.1-.176.212-.354.329-.527l.034-.039,2.646.742,1.719.011c.159-.092.318-.179.477-.265.572-.3,1.172-.583,1.789-.837a29.316,29.316,0,0,1,11.026-2.04c4.76,0,9.515-3.507,13.19-1.456l1.658-.167.371.53c.009.014,2.341,3.337,2.341,3.337a1.2,1.2,0,0,1,.087.117c.131.2.245.371.349.552A6.919,6.919,0,0,1,1575.1,372.041Z" transform="translate(-1537.04 -341.739)" fill="#92dcff"/>
            <path id="Trazado_297785" data-name="Trazado 297785" d="M1573.487,360.054v15.123a6.258,6.258,0,0,1-.393,2.165,10.488,10.488,0,0,1-4.883,5.19l-.231.131c-.137.078-.276.151-.419.223a19.871,19.871,0,0,1-1.85.843,27.913,27.913,0,0,1-10.238,1.847,26.663,26.663,0,0,1-12.065-2.673c-.227-.12-.455-.243-.675-.371l-.056-.031a11.03,11.03,0,0,1-4.556-4.52,6.407,6.407,0,0,1-.667-2.8c0-.142.005-.282.019-.427s.023-.282.045-.421V360.054l.935.371,3.6,1.434,4.029,1.6a29.624,29.624,0,0,1,18.772,0l.854-.335,2.268-.9,4.353-1.716Z" transform="translate(-1536.425 -347.925)" fill="#48caff"/>
            <path id="Trazado_297786" data-name="Trazado 297786" d="M1575.094,358.675s-.028.1-.078.265c-.092.315-.232.79-.363,1.253-.033.114-.064.229-.092.34a16.8,16.8,0,0,0-.343,1.825c-.02.128-.042.248-.07.371-.458,2.252-2.182,4.439-5.177,6.166a3.769,3.769,0,0,1-.332.181,18.02,18.02,0,0,1-2.268,1.063,28.16,28.16,0,0,1-10.218,1.825,26.222,26.222,0,0,1-12.815-3.069l-.611-3.139-.072-.042a13.714,13.714,0,0,1-3.541-2.821,8.774,8.774,0,0,1-1.37-2.07c-.123-.48-.254-.937-.4-1.392l-.184-.553-.07-.2.045.036a18.035,18.035,0,0,0,5.586,2.757,15.254,15.254,0,0,0,4.289.636,30.017,30.017,0,0,1,18.256-.014,17.177,17.177,0,0,0,9.785-3.385A.426.426,0,0,0,1575.094,358.675Z" transform="translate(-1537.085 -350.394)" fill="#48caff"/>
            <path id="Trazado_297787" data-name="Trazado 297787" d="M1575.091,357.311v5.96a6.037,6.037,0,0,1-.045.748c-.008.078-.019.153-.033.234a6.777,6.777,0,0,1-.452,1.593,8.737,8.737,0,0,1-1.571,2.447,12.731,12.731,0,0,1-2.275,1.978c-.37.262-.769.513-1.191.756-.291.17-.591.329-.9.483-.059.031-.12.059-.179.089-.67.332-1.369.631-2.089.9a29.882,29.882,0,0,1-10.271,1.738,27.522,27.522,0,0,1-13.363-3.173l-.072-.042a13.758,13.758,0,0,1-3.541-2.821,8.87,8.87,0,0,1-1.371-2.07,6.739,6.739,0,0,1-.588-1.945c-.008-.059-.019-.115-.023-.167a5.742,5.742,0,0,1-.045-.753,6.323,6.323,0,0,1,.068-.89v-5.07h9.037a30.043,30.043,0,0,1,9.9-1.6,32.116,32.116,0,0,1,5.036.393,26.389,26.389,0,0,1,3.05.65c.142.036.282.075.423.117q.708.205,1.387.444Z" transform="translate(-1537.085 -355.707)" fill="#d1f0ff"/>
          </g>
          <path id="Trazado_297788" data-name="Trazado 297788" d="M1542.915,367.517c-2.943-1.7-4.665-3.836-5.159-6.046-.017-.07-.031-.137-.045-.206-.114-.605-.24-1.219-.39-1.819a8.766,8.766,0,0,0,1.37,2.07,13.716,13.716,0,0,0,3.541,2.821l.073.042Z" transform="translate(-1536.662 -349.015)" fill="#009ad4"/>
          <path id="Trazado_297789" data-name="Trazado 297789" d="M1542.727,370.041l-.072-.042a13.715,13.715,0,0,1-3.541-2.821,8.773,8.773,0,0,1-1.37-2.07,6.719,6.719,0,0,1-.589-1.945l-.07-.2.045.036a5.978,5.978,0,0,1,.026-1.643v-5.07c0,2.81,1.855,5.62,5.561,7.76V370Z" transform="translate(-1537.085 -354.678)" fill="#00a9e8"/>
          <path id="Trazado_297790" data-name="Trazado 297790" d="M1542.915,377.079c-3.036-1.752-4.769-3.97-5.2-6.259-.114-.608-.24-1.217-.39-1.816a11.6,11.6,0,0,0,4.911,4.894l.073.039Z" transform="translate(-1536.662 -331.902)" fill="#009ad4"/>
          <path id="Trazado_297791" data-name="Trazado 297791" d="M1542.727,378.3l-.072-.039a11.6,11.6,0,0,1-4.911-4.894,6.973,6.973,0,0,1-.589-1.945l-.07-.2c.015-.243,0-.477,0-.717a6.5,6.5,0,0,1,.07-.9v-3.039a7.355,7.355,0,0,0,1.8,4.668,13.409,13.409,0,0,0,3.761,3.092v3.934Z" transform="translate(-1537.085 -336.265)" fill="#00a9e8"/>
          <path id="Trazado_297792" data-name="Trazado 297792" d="M1543.293,373.072c0,.031-.066.4-.066.4l-.555,3.086a13.4,13.4,0,0,1-3.761-3.092,7.358,7.358,0,0,1-1.8-4.668v-.106a6.914,6.914,0,0,1,.979-3.371c-.014.145-.02.285-.02.427a6.413,6.413,0,0,0,.667,2.8A11.037,11.037,0,0,0,1543.293,373.072Z" transform="translate(-1537.04 -338.496)" fill="#00bced"/>
          <path id="Trazado_297793" data-name="Trazado 297793" d="M1542.677,366.218v16.074a11.031,11.031,0,0,1-4.556-4.52,6.408,6.408,0,0,1-.667-2.8c0-.142.005-.282.019-.427s.023-.282.045-.421V360.171C1538.012,362.381,1539.734,364.521,1542.677,366.218Z" transform="translate(-1536.425 -347.715)" fill="#00a9e8"/>
          <g id="Grupo_840909" data-name="Grupo 840909" transform="translate(29.3 34.736)" opacity="0.2" style="mix-blend-mode: color-dodge;isolation: isolate">
            <path id="Trazado_297794" data-name="Trazado 297794" d="M1551.919,370.882v3.775c-.371.262-.773.513-1.194.759-.349.2-.706.388-1.074.572V372.1l-2.065-2.866a13.071,13.071,0,0,1,2.252-1.08Z" transform="translate(-1547.586 -368.156)" fill="#2cd3ff"/>
          </g>
          <g id="Grupo_840910" data-name="Grupo 840910" transform="translate(29.286 18.683)" opacity="0.2" style="mix-blend-mode: color-dodge;isolation: isolate">
            <path id="Trazado_297795" data-name="Trazado 297795" d="M1549.849,362.4v16.055c-.137.078-.276.151-.419.223a19.961,19.961,0,0,1-1.85.843V363.466A18,18,0,0,0,1549.849,362.4Z" transform="translate(-1547.581 -362.403)" fill="#2cd3ff"/>
          </g>
        </g>
        <path id="Trazado_297796" data-name="Trazado 297796" d="M1575.1,364.175c0,2.81-1.856,5.619-5.567,7.759a29.671,29.671,0,0,1-26.864,0c-3.711-2.14-5.561-4.95-5.561-7.759a6.644,6.644,0,0,1,.089-1.074,7.382,7.382,0,0,1,1.223-2.927.168.168,0,0,1,.036-.05c-.036,0,.2-.332.2-.332a15.1,15.1,0,0,1,6.325-5.145l6.365-2.774h9.607l6.674,3.072a15.192,15.192,0,0,1,3.353,2.126,14.914,14.914,0,0,1,2.687,2.916c.031.042.059.078.087.12A7.153,7.153,0,0,1,1575.1,364.175Z" transform="translate(-1537.038 -342.883)" fill="#a6e2ff"/>
        <path id="Trazado_297797" data-name="Trazado 297797" d="M1544.7,362.512l-2.031,5.617c-3.708-2.14-5.564-4.95-5.564-7.76a6.377,6.377,0,0,1,.1-1.071.234.234,0,0,1,.008-.061c.037-.2.081-.391.135-.586.011-.045.022-.086.034-.128a6.482,6.482,0,0,1,.251-.712c.053-.125.109-.248.171-.377s.109-.226.17-.335c.075-.137.145-.254.217-.377s.146-.237.226-.354l.036-.05c-.036,0,.2-.332.2-.332a15.468,15.468,0,0,1,1.678-1.987,5.558,5.558,0,0,0-.355,1.928C1539.98,358.31,1541.557,360.7,1544.7,362.512Z" transform="translate(-1537.042 -339.077)" fill="#48caff"/>
        <path id="Trazado_297798" data-name="Trazado 297798" d="M1551.287,357.423l-6.643,8.9-1.153.957-6.348-4.174a6.877,6.877,0,0,1,.433-1.484c.053-.125.109-.248.17-.377s.109-.226.171-.335c.075-.137.145-.254.217-.377s.148-.237.232-.354a.153.153,0,0,1,.036-.05c-.036,0,.195-.332.195-.332a15.464,15.464,0,0,1,1.677-1.987,15.01,15.01,0,0,1,4.648-3.158l6.364-2.774h1.984c0,1.178.064,2.441.363,2.469C1554.191,354.393,1551.287,357.423,1551.287,357.423Z" transform="translate(-1536.981 -342.883)" fill="#48caff"/>
        <g id="Grupo_840912" data-name="Grupo 840912" transform="translate(12.314 7.843)">
          <path id="Trazado_297799" data-name="Trazado 297799" d="M1555.089,355.388a3.359,3.359,0,0,1-1.948,2.746l-.045.025a8.214,8.214,0,0,1-2.2.854,11.425,11.425,0,0,1-2.6.3,9.808,9.808,0,0,1-4.8-1.15,3.379,3.379,0,0,1-1.992-2.771,2.538,2.538,0,0,1,.472-1.434,4.5,4.5,0,0,1,1.52-1.345,10.633,10.633,0,0,1,9.607,0A3.381,3.381,0,0,1,1555.089,355.388Z" transform="translate(-1541.498 -351.462)" fill="#2db9f2"/>
        </g>
        <g id="Grupo_840913" data-name="Grupo 840913" transform="translate(14.353)">
          <path id="Trazado_297800" data-name="Trazado 297800" d="M1551.61,349.622v8.022a2.327,2.327,0,0,1-1.375,1.914,7.313,7.313,0,0,1-6.632,0,2.323,2.323,0,0,1-1.373-1.914v-8.022Z" transform="translate(-1542.229 -346.913)" fill="#173dc2"/>
          <path id="Trazado_297801" data-name="Trazado 297801" d="M1543.671,349.622l-.069,1.914v8.022a2.323,2.323,0,0,1-1.373-1.914v-8.022Z" transform="translate(-1542.229 -346.913)" fill="#00239c"/>
          <path id="Trazado_297802" data-name="Trazado 297802" d="M1550.237,349.443a2.023,2.023,0,0,1,0,3.831,7.343,7.343,0,0,1-6.635,0,2.023,2.023,0,0,1,0-3.831,7.341,7.341,0,0,1,6.635,0Z" transform="translate(-1542.229 -348.651)" fill="#002eba"/>
        </g>
        <g id="Grupo_840914" data-name="Grupo 840914" transform="translate(21.708 14.515)" opacity="0.2" style="mix-blend-mode: color-dodge;isolation: isolate">
          <path id="Trazado_297803" data-name="Trazado 297803" d="M1554.7,374.83c-.059.031-.121.059-.179.089-.67.332-1.37.631-2.09.9v-5.9l-5.235-10.5-2.33-4.688a8.219,8.219,0,0,0,2.2-.854l.045-.025,3.13,6.217,4.431,8.792Z" transform="translate(-1544.865 -353.853)" fill="#2cd3ff"/>
        </g>
      </g>
      <g id="Grupo_841057" data-name="Grupo 841057" transform="translate(4099.1 376.596)">
        <g id="Grupo_840911-2" data-name="Grupo 840911" transform="translate(0 19.688)">
          <g id="Grupo_840908-2" data-name="Grupo 840908">
            <path id="Trazado_297782-2" data-name="Trazado 297782" d="M1575.094,369.134s-.028.1-.078.268c-.092.313-.232.79-.363,1.25-.033.114-.064.229-.092.34a16.747,16.747,0,0,0-.343,1.822c-.34,2.386-2.087,4.718-5.246,6.543a28.317,28.317,0,0,1-25.633,0c-3.036-1.752-4.769-3.97-5.2-6.258-.115-.608-.24-1.217-.391-1.816-.117-.472-.251-.935-.4-1.392l-.184-.552-.07-.2c.21.008.857.014,1.87.017,1.072.006,2.556.006,4.317.006.257,0,.525,0,.8,0H1547a29.99,29.99,0,0,1,18.256-.011c1.044,0,2.037-.006,2.96-.006,2.138-.006,3.926-.006,5.143-.006.929,0,1.524,0,1.688,0Z" transform="translate(-1537.085 -334.181)" fill="#48caff"/>
            <path id="Trazado_297783-2" data-name="Trazado 297783" d="M1575.094,370.062v4.04a6.179,6.179,0,0,1-.042.717c-.009.087-.022.176-.036.268a6.925,6.925,0,0,1-.455,1.59,10.427,10.427,0,0,1-3.842,4.425c-.371.262-.772.514-1.194.759-.349.2-.706.388-1.074.572a28.359,28.359,0,0,1-12.361,2.639,27.52,27.52,0,0,1-13.362-3.172l-.072-.039a11.6,11.6,0,0,1-4.911-4.894,6.976,6.976,0,0,1-.589-1.945c-.014-.07-.02-.137-.028-.2a6.317,6.317,0,0,1-.042-.717,6.5,6.5,0,0,1,.07-.9v-3.145l1.627-.139,4.557-.4,2.855-.248a30.046,30.046,0,0,1,9.9-1.607c3.435,0,6.87-4,9.9-2.935l7.768,4.548Z" transform="translate(-1537.085 -339.867)" fill="#d1f0ff"/>
            <path id="Trazado_297784-2" data-name="Trazado 297784" d="M1575.1,372.041a6.224,6.224,0,0,1-.053.82,7.652,7.652,0,0,1-1.73,3.834,13.441,13.441,0,0,1-3.781,3.106,29.7,29.7,0,0,1-26.867,0,13.4,13.4,0,0,1-3.761-3.091,7.358,7.358,0,0,1-1.8-4.668v-.106a6.913,6.913,0,0,1,.979-3.371c.1-.176.212-.354.329-.527l.034-.039,2.646.742,1.719.011c.159-.092.318-.179.477-.265.572-.3,1.172-.583,1.789-.837a29.316,29.316,0,0,1,11.026-2.04c4.76,0,9.515-3.507,13.19-1.456l1.658-.167.371.53c.009.014,2.341,3.337,2.341,3.337a1.2,1.2,0,0,1,.087.117c.131.2.245.371.349.552A6.919,6.919,0,0,1,1575.1,372.041Z" transform="translate(-1537.04 -341.739)" fill="#92dcff"/>
            <path id="Trazado_297785-2" data-name="Trazado 297785" d="M1573.487,360.054v15.123a6.258,6.258,0,0,1-.393,2.165,10.488,10.488,0,0,1-4.883,5.19l-.231.131c-.137.078-.276.151-.419.223a19.871,19.871,0,0,1-1.85.843,27.913,27.913,0,0,1-10.238,1.847,26.663,26.663,0,0,1-12.065-2.673c-.227-.12-.455-.243-.675-.371l-.056-.031a11.03,11.03,0,0,1-4.556-4.52,6.407,6.407,0,0,1-.667-2.8c0-.142.005-.282.019-.427s.023-.282.045-.421V360.054l.935.371,3.6,1.434,4.029,1.6a29.624,29.624,0,0,1,18.772,0l.854-.335,2.268-.9,4.353-1.716Z" transform="translate(-1536.425 -347.925)" fill="#48caff"/>
            <path id="Trazado_297786-2" data-name="Trazado 297786" d="M1575.094,358.675s-.028.1-.078.265c-.092.315-.232.79-.363,1.253-.033.114-.064.229-.092.34a16.8,16.8,0,0,0-.343,1.825c-.02.128-.042.248-.07.371-.458,2.252-2.182,4.439-5.177,6.166a3.769,3.769,0,0,1-.332.181,18.02,18.02,0,0,1-2.268,1.063,28.16,28.16,0,0,1-10.218,1.825,26.222,26.222,0,0,1-12.815-3.069l-.611-3.139-.072-.042a13.714,13.714,0,0,1-3.541-2.821,8.774,8.774,0,0,1-1.37-2.07c-.123-.48-.254-.937-.4-1.392l-.184-.553-.07-.2.045.036a18.035,18.035,0,0,0,5.586,2.757,15.254,15.254,0,0,0,4.289.636,30.017,30.017,0,0,1,18.256-.014,17.177,17.177,0,0,0,9.785-3.385A.426.426,0,0,0,1575.094,358.675Z" transform="translate(-1537.085 -350.394)" fill="#48caff"/>
            <path id="Trazado_297787-2" data-name="Trazado 297787" d="M1575.091,357.311v5.96a6.037,6.037,0,0,1-.045.748c-.008.078-.019.153-.033.234a6.777,6.777,0,0,1-.452,1.593,8.737,8.737,0,0,1-1.571,2.447,12.731,12.731,0,0,1-2.275,1.978c-.37.262-.769.513-1.191.756-.291.17-.591.329-.9.483-.059.031-.12.059-.179.089-.67.332-1.369.631-2.089.9a29.882,29.882,0,0,1-10.271,1.738,27.522,27.522,0,0,1-13.363-3.173l-.072-.042a13.758,13.758,0,0,1-3.541-2.821,8.87,8.87,0,0,1-1.371-2.07,6.739,6.739,0,0,1-.588-1.945c-.008-.059-.019-.115-.023-.167a5.742,5.742,0,0,1-.045-.753,6.323,6.323,0,0,1,.068-.89v-5.07h9.037a30.043,30.043,0,0,1,9.9-1.6,32.116,32.116,0,0,1,5.036.393,26.389,26.389,0,0,1,3.05.65c.142.036.282.075.423.117q.708.205,1.387.444Z" transform="translate(-1537.085 -355.707)" fill="#d1f0ff"/>
          </g>
          <path id="Trazado_297788-2" data-name="Trazado 297788" d="M1542.915,367.517c-2.943-1.7-4.665-3.836-5.159-6.046-.017-.07-.031-.137-.045-.206-.114-.605-.24-1.219-.39-1.819a8.766,8.766,0,0,0,1.37,2.07,13.716,13.716,0,0,0,3.541,2.821l.073.042Z" transform="translate(-1536.662 -349.015)" fill="#009ad4"/>
          <path id="Trazado_297789-2" data-name="Trazado 297789" d="M1542.727,370.041l-.072-.042a13.715,13.715,0,0,1-3.541-2.821,8.773,8.773,0,0,1-1.37-2.07,6.719,6.719,0,0,1-.589-1.945l-.07-.2.045.036a5.978,5.978,0,0,1,.026-1.643v-5.07c0,2.81,1.855,5.62,5.561,7.76V370Z" transform="translate(-1537.085 -354.678)" fill="#00a9e8"/>
          <path id="Trazado_297790-2" data-name="Trazado 297790" d="M1542.915,377.079c-3.036-1.752-4.769-3.97-5.2-6.259-.114-.608-.24-1.217-.39-1.816a11.6,11.6,0,0,0,4.911,4.894l.073.039Z" transform="translate(-1536.662 -331.902)" fill="#009ad4"/>
          <path id="Trazado_297791-2" data-name="Trazado 297791" d="M1542.727,378.3l-.072-.039a11.6,11.6,0,0,1-4.911-4.894,6.973,6.973,0,0,1-.589-1.945l-.07-.2c.015-.243,0-.477,0-.717a6.5,6.5,0,0,1,.07-.9v-3.039a7.355,7.355,0,0,0,1.8,4.668,13.409,13.409,0,0,0,3.761,3.092v3.934Z" transform="translate(-1537.085 -336.265)" fill="#00a9e8"/>
          <path id="Trazado_297792-2" data-name="Trazado 297792" d="M1543.293,373.072c0,.031-.066.4-.066.4l-.555,3.086a13.4,13.4,0,0,1-3.761-3.092,7.358,7.358,0,0,1-1.8-4.668v-.106a6.914,6.914,0,0,1,.979-3.371c-.014.145-.02.285-.02.427a6.413,6.413,0,0,0,.667,2.8A11.037,11.037,0,0,0,1543.293,373.072Z" transform="translate(-1537.04 -338.496)" fill="#00bced"/>
          <path id="Trazado_297793-2" data-name="Trazado 297793" d="M1542.677,366.218v16.074a11.031,11.031,0,0,1-4.556-4.52,6.408,6.408,0,0,1-.667-2.8c0-.142.005-.282.019-.427s.023-.282.045-.421V360.171C1538.012,362.381,1539.734,364.521,1542.677,366.218Z" transform="translate(-1536.425 -347.715)" fill="#00a9e8"/>
          <g id="Grupo_840909-2" data-name="Grupo 840909" transform="translate(29.3 34.736)" opacity="0.2" style="mix-blend-mode: color-dodge;isolation: isolate">
            <path id="Trazado_297794-2" data-name="Trazado 297794" d="M1551.919,370.882v3.775c-.371.262-.773.513-1.194.759-.349.2-.706.388-1.074.572V372.1l-2.065-2.866a13.071,13.071,0,0,1,2.252-1.08Z" transform="translate(-1547.586 -368.156)" fill="#2cd3ff"/>
          </g>
          <g id="Grupo_840910-2" data-name="Grupo 840910" transform="translate(29.286 18.683)" opacity="0.2" style="mix-blend-mode: color-dodge;isolation: isolate">
            <path id="Trazado_297795-2" data-name="Trazado 297795" d="M1549.849,362.4v16.055c-.137.078-.276.151-.419.223a19.961,19.961,0,0,1-1.85.843V363.466A18,18,0,0,0,1549.849,362.4Z" transform="translate(-1547.581 -362.403)" fill="#2cd3ff"/>
          </g>
        </g>
        <path id="Trazado_297796-2" data-name="Trazado 297796" d="M1575.1,364.175c0,2.81-1.856,5.619-5.567,7.759a29.671,29.671,0,0,1-26.864,0c-3.711-2.14-5.561-4.95-5.561-7.759a6.644,6.644,0,0,1,.089-1.074,7.382,7.382,0,0,1,1.223-2.927.168.168,0,0,1,.036-.05c-.036,0,.2-.332.2-.332a15.1,15.1,0,0,1,6.325-5.145l6.365-2.774h9.607l6.674,3.072a15.192,15.192,0,0,1,3.353,2.126,14.914,14.914,0,0,1,2.687,2.916c.031.042.059.078.087.12A7.153,7.153,0,0,1,1575.1,364.175Z" transform="translate(-1537.038 -342.883)" fill="#a6e2ff"/>
        <path id="Trazado_297797-2" data-name="Trazado 297797" d="M1544.7,362.512l-2.031,5.617c-3.708-2.14-5.564-4.95-5.564-7.76a6.377,6.377,0,0,1,.1-1.071.234.234,0,0,1,.008-.061c.037-.2.081-.391.135-.586.011-.045.022-.086.034-.128a6.482,6.482,0,0,1,.251-.712c.053-.125.109-.248.171-.377s.109-.226.17-.335c.075-.137.145-.254.217-.377s.146-.237.226-.354l.036-.05c-.036,0,.2-.332.2-.332a15.468,15.468,0,0,1,1.678-1.987,5.558,5.558,0,0,0-.355,1.928C1539.98,358.31,1541.557,360.7,1544.7,362.512Z" transform="translate(-1537.042 -339.077)" fill="#48caff"/>
        <path id="Trazado_297798-2" data-name="Trazado 297798" d="M1551.287,357.423l-6.643,8.9-1.153.957-6.348-4.174a6.877,6.877,0,0,1,.433-1.484c.053-.125.109-.248.17-.377s.109-.226.171-.335c.075-.137.145-.254.217-.377s.148-.237.232-.354a.153.153,0,0,1,.036-.05c-.036,0,.195-.332.195-.332a15.464,15.464,0,0,1,1.677-1.987,15.01,15.01,0,0,1,4.648-3.158l6.364-2.774h1.984c0,1.178.064,2.441.363,2.469C1554.191,354.393,1551.287,357.423,1551.287,357.423Z" transform="translate(-1536.981 -342.883)" fill="#48caff"/>
        <g id="Grupo_840912-2" data-name="Grupo 840912" transform="translate(12.314 7.843)">
          <path id="Trazado_297799-2" data-name="Trazado 297799" d="M1555.089,355.388a3.359,3.359,0,0,1-1.948,2.746l-.045.025a8.214,8.214,0,0,1-2.2.854,11.425,11.425,0,0,1-2.6.3,9.808,9.808,0,0,1-4.8-1.15,3.379,3.379,0,0,1-1.992-2.771,2.538,2.538,0,0,1,.472-1.434,4.5,4.5,0,0,1,1.52-1.345,10.633,10.633,0,0,1,9.607,0A3.381,3.381,0,0,1,1555.089,355.388Z" transform="translate(-1541.498 -351.462)" fill="#2db9f2"/>
        </g>
        <g id="Grupo_840913-2" data-name="Grupo 840913" transform="translate(14.353)">
          <path id="Trazado_297800-2" data-name="Trazado 297800" d="M1551.61,349.622v8.022a2.327,2.327,0,0,1-1.375,1.914,7.313,7.313,0,0,1-6.632,0,2.323,2.323,0,0,1-1.373-1.914v-8.022Z" transform="translate(-1542.229 -346.913)" fill="#173dc2"/>
          <path id="Trazado_297801-2" data-name="Trazado 297801" d="M1543.671,349.622l-.069,1.914v8.022a2.323,2.323,0,0,1-1.373-1.914v-8.022Z" transform="translate(-1542.229 -346.913)" fill="#00239c"/>
          <path id="Trazado_297802-2" data-name="Trazado 297802" d="M1550.237,349.443a2.023,2.023,0,0,1,0,3.831,7.343,7.343,0,0,1-6.635,0,2.023,2.023,0,0,1,0-3.831,7.341,7.341,0,0,1,6.635,0Z" transform="translate(-1542.229 -348.651)" fill="#002eba"/>
        </g>
        <g id="Grupo_840914-2" data-name="Grupo 840914" transform="translate(21.708 14.515)" opacity="0.2" style="mix-blend-mode: color-dodge;isolation: isolate">
          <path id="Trazado_297803-2" data-name="Trazado 297803" d="M1554.7,374.83c-.059.031-.121.059-.179.089-.67.332-1.37.631-2.09.9v-5.9l-5.235-10.5-2.33-4.688a8.219,8.219,0,0,0,2.2-.854l.045-.025,3.13,6.217,4.431,8.792Z" transform="translate(-1544.865 -353.853)" fill="#2cd3ff"/>
        </g>
      </g>
      <g id="Grupo_841058" data-name="Grupo 841058" transform="translate(4118.134 421.422)">
        <g id="Grupo_840911-3" data-name="Grupo 840911" transform="translate(0 19.688)">
          <g id="Grupo_840908-3" data-name="Grupo 840908">
            <path id="Trazado_297782-3" data-name="Trazado 297782" d="M1575.094,369.134s-.028.1-.078.268c-.092.313-.232.79-.363,1.25-.033.114-.064.229-.092.34a16.747,16.747,0,0,0-.343,1.822c-.34,2.386-2.087,4.718-5.246,6.543a28.317,28.317,0,0,1-25.633,0c-3.036-1.752-4.769-3.97-5.2-6.258-.115-.608-.24-1.217-.391-1.816-.117-.472-.251-.935-.4-1.392l-.184-.552-.07-.2c.21.008.857.014,1.87.017,1.072.006,2.556.006,4.317.006.257,0,.525,0,.8,0H1547a29.99,29.99,0,0,1,18.256-.011c1.044,0,2.037-.006,2.96-.006,2.138-.006,3.926-.006,5.143-.006.929,0,1.524,0,1.688,0Z" transform="translate(-1537.085 -334.181)" fill="#48caff"/>
            <path id="Trazado_297783-3" data-name="Trazado 297783" d="M1575.094,370.062v4.04a6.179,6.179,0,0,1-.042.717c-.009.087-.022.176-.036.268a6.925,6.925,0,0,1-.455,1.59,10.427,10.427,0,0,1-3.842,4.425c-.371.262-.772.514-1.194.759-.349.2-.706.388-1.074.572a28.359,28.359,0,0,1-12.361,2.639,27.52,27.52,0,0,1-13.362-3.172l-.072-.039a11.6,11.6,0,0,1-4.911-4.894,6.976,6.976,0,0,1-.589-1.945c-.014-.07-.02-.137-.028-.2a6.317,6.317,0,0,1-.042-.717,6.5,6.5,0,0,1,.07-.9v-3.145l1.627-.139,4.557-.4,2.855-.248a30.046,30.046,0,0,1,9.9-1.607c3.435,0,6.87-4,9.9-2.935l7.768,4.548Z" transform="translate(-1537.085 -339.867)" fill="#d1f0ff"/>
            <path id="Trazado_297784-3" data-name="Trazado 297784" d="M1575.1,372.041a6.224,6.224,0,0,1-.053.82,7.652,7.652,0,0,1-1.73,3.834,13.441,13.441,0,0,1-3.781,3.106,29.7,29.7,0,0,1-26.867,0,13.4,13.4,0,0,1-3.761-3.091,7.358,7.358,0,0,1-1.8-4.668v-.106a6.913,6.913,0,0,1,.979-3.371c.1-.176.212-.354.329-.527l.034-.039,2.646.742,1.719.011c.159-.092.318-.179.477-.265.572-.3,1.172-.583,1.789-.837a29.316,29.316,0,0,1,11.026-2.04c4.76,0,9.515-3.507,13.19-1.456l1.658-.167.371.53c.009.014,2.341,3.337,2.341,3.337a1.2,1.2,0,0,1,.087.117c.131.2.245.371.349.552A6.919,6.919,0,0,1,1575.1,372.041Z" transform="translate(-1537.04 -341.739)" fill="#92dcff"/>
            <path id="Trazado_297785-3" data-name="Trazado 297785" d="M1573.487,360.054v15.123a6.258,6.258,0,0,1-.393,2.165,10.488,10.488,0,0,1-4.883,5.19l-.231.131c-.137.078-.276.151-.419.223a19.871,19.871,0,0,1-1.85.843,27.913,27.913,0,0,1-10.238,1.847,26.663,26.663,0,0,1-12.065-2.673c-.227-.12-.455-.243-.675-.371l-.056-.031a11.03,11.03,0,0,1-4.556-4.52,6.407,6.407,0,0,1-.667-2.8c0-.142.005-.282.019-.427s.023-.282.045-.421V360.054l.935.371,3.6,1.434,4.029,1.6a29.624,29.624,0,0,1,18.772,0l.854-.335,2.268-.9,4.353-1.716Z" transform="translate(-1536.425 -347.925)" fill="#48caff"/>
            <path id="Trazado_297786-3" data-name="Trazado 297786" d="M1575.094,358.675s-.028.1-.078.265c-.092.315-.232.79-.363,1.253-.033.114-.064.229-.092.34a16.8,16.8,0,0,0-.343,1.825c-.02.128-.042.248-.07.371-.458,2.252-2.182,4.439-5.177,6.166a3.769,3.769,0,0,1-.332.181,18.02,18.02,0,0,1-2.268,1.063,28.16,28.16,0,0,1-10.218,1.825,26.222,26.222,0,0,1-12.815-3.069l-.611-3.139-.072-.042a13.714,13.714,0,0,1-3.541-2.821,8.774,8.774,0,0,1-1.37-2.07c-.123-.48-.254-.937-.4-1.392l-.184-.553-.07-.2.045.036a18.035,18.035,0,0,0,5.586,2.757,15.254,15.254,0,0,0,4.289.636,30.017,30.017,0,0,1,18.256-.014,17.177,17.177,0,0,0,9.785-3.385A.426.426,0,0,0,1575.094,358.675Z" transform="translate(-1537.085 -350.394)" fill="#48caff"/>
            <path id="Trazado_297787-3" data-name="Trazado 297787" d="M1575.091,357.311v5.96a6.037,6.037,0,0,1-.045.748c-.008.078-.019.153-.033.234a6.777,6.777,0,0,1-.452,1.593,8.737,8.737,0,0,1-1.571,2.447,12.731,12.731,0,0,1-2.275,1.978c-.37.262-.769.513-1.191.756-.291.17-.591.329-.9.483-.059.031-.12.059-.179.089-.67.332-1.369.631-2.089.9a29.882,29.882,0,0,1-10.271,1.738,27.522,27.522,0,0,1-13.363-3.173l-.072-.042a13.758,13.758,0,0,1-3.541-2.821,8.87,8.87,0,0,1-1.371-2.07,6.739,6.739,0,0,1-.588-1.945c-.008-.059-.019-.115-.023-.167a5.742,5.742,0,0,1-.045-.753,6.323,6.323,0,0,1,.068-.89v-5.07h9.037a30.043,30.043,0,0,1,9.9-1.6,32.116,32.116,0,0,1,5.036.393,26.389,26.389,0,0,1,3.05.65c.142.036.282.075.423.117q.708.205,1.387.444Z" transform="translate(-1537.085 -355.707)" fill="#d1f0ff"/>
          </g>
          <path id="Trazado_297788-3" data-name="Trazado 297788" d="M1542.915,367.517c-2.943-1.7-4.665-3.836-5.159-6.046-.017-.07-.031-.137-.045-.206-.114-.605-.24-1.219-.39-1.819a8.766,8.766,0,0,0,1.37,2.07,13.716,13.716,0,0,0,3.541,2.821l.073.042Z" transform="translate(-1536.662 -349.015)" fill="#009ad4"/>
          <path id="Trazado_297789-3" data-name="Trazado 297789" d="M1542.727,370.041l-.072-.042a13.715,13.715,0,0,1-3.541-2.821,8.773,8.773,0,0,1-1.37-2.07,6.719,6.719,0,0,1-.589-1.945l-.07-.2.045.036a5.978,5.978,0,0,1,.026-1.643v-5.07c0,2.81,1.855,5.62,5.561,7.76V370Z" transform="translate(-1537.085 -354.678)" fill="#00a9e8"/>
          <path id="Trazado_297790-3" data-name="Trazado 297790" d="M1542.915,377.079c-3.036-1.752-4.769-3.97-5.2-6.259-.114-.608-.24-1.217-.39-1.816a11.6,11.6,0,0,0,4.911,4.894l.073.039Z" transform="translate(-1536.662 -331.902)" fill="#009ad4"/>
          <path id="Trazado_297791-3" data-name="Trazado 297791" d="M1542.727,378.3l-.072-.039a11.6,11.6,0,0,1-4.911-4.894,6.973,6.973,0,0,1-.589-1.945l-.07-.2c.015-.243,0-.477,0-.717a6.5,6.5,0,0,1,.07-.9v-3.039a7.355,7.355,0,0,0,1.8,4.668,13.409,13.409,0,0,0,3.761,3.092v3.934Z" transform="translate(-1537.085 -336.265)" fill="#00a9e8"/>
          <path id="Trazado_297792-3" data-name="Trazado 297792" d="M1543.293,373.072c0,.031-.066.4-.066.4l-.555,3.086a13.4,13.4,0,0,1-3.761-3.092,7.358,7.358,0,0,1-1.8-4.668v-.106a6.914,6.914,0,0,1,.979-3.371c-.014.145-.02.285-.02.427a6.413,6.413,0,0,0,.667,2.8A11.037,11.037,0,0,0,1543.293,373.072Z" transform="translate(-1537.04 -338.496)" fill="#00bced"/>
          <path id="Trazado_297793-3" data-name="Trazado 297793" d="M1542.677,366.218v16.074a11.031,11.031,0,0,1-4.556-4.52,6.408,6.408,0,0,1-.667-2.8c0-.142.005-.282.019-.427s.023-.282.045-.421V360.171C1538.012,362.381,1539.734,364.521,1542.677,366.218Z" transform="translate(-1536.425 -347.715)" fill="#00a9e8"/>
          <g id="Grupo_840909-3" data-name="Grupo 840909" transform="translate(29.3 34.736)" opacity="0.2" style="mix-blend-mode: color-dodge;isolation: isolate">
            <path id="Trazado_297794-3" data-name="Trazado 297794" d="M1551.919,370.882v3.775c-.371.262-.773.513-1.194.759-.349.2-.706.388-1.074.572V372.1l-2.065-2.866a13.071,13.071,0,0,1,2.252-1.08Z" transform="translate(-1547.586 -368.156)" fill="#2cd3ff"/>
          </g>
          <g id="Grupo_840910-3" data-name="Grupo 840910" transform="translate(29.286 18.683)" opacity="0.2" style="mix-blend-mode: color-dodge;isolation: isolate">
            <path id="Trazado_297795-3" data-name="Trazado 297795" d="M1549.849,362.4v16.055c-.137.078-.276.151-.419.223a19.961,19.961,0,0,1-1.85.843V363.466A18,18,0,0,0,1549.849,362.4Z" transform="translate(-1547.581 -362.403)" fill="#2cd3ff"/>
          </g>
        </g>
        <path id="Trazado_297796-3" data-name="Trazado 297796" d="M1575.1,364.175c0,2.81-1.856,5.619-5.567,7.759a29.671,29.671,0,0,1-26.864,0c-3.711-2.14-5.561-4.95-5.561-7.759a6.644,6.644,0,0,1,.089-1.074,7.382,7.382,0,0,1,1.223-2.927.168.168,0,0,1,.036-.05c-.036,0,.2-.332.2-.332a15.1,15.1,0,0,1,6.325-5.145l6.365-2.774h9.607l6.674,3.072a15.192,15.192,0,0,1,3.353,2.126,14.914,14.914,0,0,1,2.687,2.916c.031.042.059.078.087.12A7.153,7.153,0,0,1,1575.1,364.175Z" transform="translate(-1537.038 -342.883)" fill="#a6e2ff"/>
        <path id="Trazado_297797-3" data-name="Trazado 297797" d="M1544.7,362.512l-2.031,5.617c-3.708-2.14-5.564-4.95-5.564-7.76a6.377,6.377,0,0,1,.1-1.071.234.234,0,0,1,.008-.061c.037-.2.081-.391.135-.586.011-.045.022-.086.034-.128a6.482,6.482,0,0,1,.251-.712c.053-.125.109-.248.171-.377s.109-.226.17-.335c.075-.137.145-.254.217-.377s.146-.237.226-.354l.036-.05c-.036,0,.2-.332.2-.332a15.468,15.468,0,0,1,1.678-1.987,5.558,5.558,0,0,0-.355,1.928C1539.98,358.31,1541.557,360.7,1544.7,362.512Z" transform="translate(-1537.042 -339.077)" fill="#48caff"/>
        <path id="Trazado_297798-3" data-name="Trazado 297798" d="M1551.287,357.423l-6.643,8.9-1.153.957-6.348-4.174a6.877,6.877,0,0,1,.433-1.484c.053-.125.109-.248.17-.377s.109-.226.171-.335c.075-.137.145-.254.217-.377s.148-.237.232-.354a.153.153,0,0,1,.036-.05c-.036,0,.195-.332.195-.332a15.464,15.464,0,0,1,1.677-1.987,15.01,15.01,0,0,1,4.648-3.158l6.364-2.774h1.984c0,1.178.064,2.441.363,2.469C1554.191,354.393,1551.287,357.423,1551.287,357.423Z" transform="translate(-1536.981 -342.883)" fill="#48caff"/>
        <g id="Grupo_840912-3" data-name="Grupo 840912" transform="translate(12.314 7.843)">
          <path id="Trazado_297799-3" data-name="Trazado 297799" d="M1555.089,355.388a3.359,3.359,0,0,1-1.948,2.746l-.045.025a8.214,8.214,0,0,1-2.2.854,11.425,11.425,0,0,1-2.6.3,9.808,9.808,0,0,1-4.8-1.15,3.379,3.379,0,0,1-1.992-2.771,2.538,2.538,0,0,1,.472-1.434,4.5,4.5,0,0,1,1.52-1.345,10.633,10.633,0,0,1,9.607,0A3.381,3.381,0,0,1,1555.089,355.388Z" transform="translate(-1541.498 -351.462)" fill="#2db9f2"/>
        </g>
        <g id="Grupo_840913-3" data-name="Grupo 840913" transform="translate(14.353)">
          <path id="Trazado_297800-3" data-name="Trazado 297800" d="M1551.61,349.622v8.022a2.327,2.327,0,0,1-1.375,1.914,7.313,7.313,0,0,1-6.632,0,2.323,2.323,0,0,1-1.373-1.914v-8.022Z" transform="translate(-1542.229 -346.913)" fill="#173dc2"/>
          <path id="Trazado_297801-3" data-name="Trazado 297801" d="M1543.671,349.622l-.069,1.914v8.022a2.323,2.323,0,0,1-1.373-1.914v-8.022Z" transform="translate(-1542.229 -346.913)" fill="#00239c"/>
          <path id="Trazado_297802-3" data-name="Trazado 297802" d="M1550.237,349.443a2.023,2.023,0,0,1,0,3.831,7.343,7.343,0,0,1-6.635,0,2.023,2.023,0,0,1,0-3.831,7.341,7.341,0,0,1,6.635,0Z" transform="translate(-1542.229 -348.651)" fill="#002eba"/>
        </g>
        <g id="Grupo_840914-3" data-name="Grupo 840914" transform="translate(21.708 14.515)" opacity="0.2" style="mix-blend-mode: color-dodge;isolation: isolate">
          <path id="Trazado_297803-3" data-name="Trazado 297803" d="M1554.7,374.83c-.059.031-.121.059-.179.089-.67.332-1.37.631-2.09.9v-5.9l-5.235-10.5-2.33-4.688a8.219,8.219,0,0,0,2.2-.854l.045-.025,3.13,6.217,4.431,8.792Z" transform="translate(-1544.865 -353.853)" fill="#2cd3ff"/>
        </g>
      </g>
    </g>
  </g>
</svg>
