<svg xmlns="http://www.w3.org/2000/svg" width="305" height="235.463" viewBox="0 0 305 235.463">
  <g id="Grupo_842655" data-name="Grupo 842655" transform="translate(-275.061 -5143.914)">
    <g id="Grupo_842603" data-name="Grupo 842603" transform="translate(17145.211 8056.999)">
      <g id="Grupo_842595" data-name="Grupo 842595" transform="translate(-16870.15 -2780.513)">
        <g id="Grupo_60292" data-name="Grupo 60292" transform="translate(11.197 32.514)">
          <path id="Trazado_120211" data-name="Trazado 120211" d="M172.635,478.607a2.655,2.655,0,1,1,2.655,2.654A2.655,2.655,0,0,1,172.635,478.607Z" transform="translate(-15.876 -475.952)" fill="#ffab1d"/>
          <path id="Trazado_120212" data-name="Trazado 120212" d="M150.6,478.607a2.655,2.655,0,1,1,2.654,2.654A2.655,2.655,0,0,1,150.6,478.607Z" transform="translate(-16.23 -475.952)" fill="#ffab1d"/>
          <path id="Trazado_120213" data-name="Trazado 120213" d="M128.556,478.607a2.654,2.654,0,1,1,2.654,2.654A2.654,2.654,0,0,1,128.556,478.607Z" transform="translate(-16.584 -475.952)" fill="#ffab1d"/>
          <path id="Trazado_120214" data-name="Trazado 120214" d="M106.516,478.607a2.654,2.654,0,1,1,2.654,2.654A2.654,2.654,0,0,1,106.516,478.607Z" transform="translate(-16.939 -475.952)" fill="#ffab1d"/>
          <path id="Trazado_120215" data-name="Trazado 120215" d="M84.476,478.607a2.654,2.654,0,1,1,2.654,2.654A2.654,2.654,0,0,1,84.476,478.607Z" transform="translate(-17.293 -475.952)" fill="#ffab1d"/>
          <path id="Trazado_120216" data-name="Trazado 120216" d="M62.436,478.607a2.654,2.654,0,1,1,2.654,2.654A2.654,2.654,0,0,1,62.436,478.607Z" transform="translate(-17.647 -475.952)" fill="#ffab1d"/>
          <path id="Trazado_120217" data-name="Trazado 120217" d="M40.4,478.607a2.654,2.654,0,1,1,2.654,2.654A2.654,2.654,0,0,1,40.4,478.607Z" transform="translate(-18.002 -475.952)" fill="#ffab1d"/>
          <path id="Trazado_120218" data-name="Trazado 120218" d="M18.356,478.607a2.654,2.654,0,1,1,2.654,2.654A2.654,2.654,0,0,1,18.356,478.607Z" transform="translate(-18.356 -475.952)" fill="#ffab1d"/>
        </g>
        <g id="Grupo_60293" data-name="Grupo 60293" transform="translate(0 21.897)">
          <circle id="Elipse_4516" data-name="Elipse 4516" cx="2.654" cy="2.654" r="2.654" transform="translate(156.759)" fill="#ffab1d"/>
          <path id="Trazado_120219" data-name="Trazado 120219" d="M139.576,468.157a2.654,2.654,0,1,1,2.653,2.655A2.654,2.654,0,0,1,139.576,468.157Z" transform="translate(-5.21 -465.503)" fill="#ffab1d"/>
          <circle id="Elipse_4517" data-name="Elipse 4517" cx="2.654" cy="2.654" r="2.654" transform="translate(111.971)" fill="#ffab1d"/>
          <circle id="Elipse_4518" data-name="Elipse 4518" cx="2.654" cy="2.654" r="2.654" transform="translate(89.577)" fill="#ffab1d"/>
          <circle id="Elipse_4519" data-name="Elipse 4519" cx="2.654" cy="2.654" r="2.654" transform="translate(67.183)" fill="#ffab1d"/>
          <path id="Trazado_120220" data-name="Trazado 120220" d="M51.416,468.157a2.654,2.654,0,1,1,2.654,2.655A2.654,2.654,0,0,1,51.416,468.157Z" transform="translate(-6.627 -465.503)" fill="#ffab1d"/>
          <circle id="Elipse_4520" data-name="Elipse 4520" cx="2.654" cy="2.654" r="2.654" transform="translate(22.394)" fill="#ffab1d"/>
          <circle id="Elipse_4521" data-name="Elipse 4521" cx="2.654" cy="2.654" r="2.654" fill="#ffab1d"/>
        </g>
        <g id="Grupo_60294" data-name="Grupo 60294" transform="translate(11.197 10.617)">
          <path id="Trazado_120221" data-name="Trazado 120221" d="M172.635,457.056a2.655,2.655,0,1,1,2.655,2.653A2.655,2.655,0,0,1,172.635,457.056Z" transform="translate(-15.876 -454.401)" fill="#ffab1d"/>
          <path id="Trazado_120222" data-name="Trazado 120222" d="M150.6,457.056a2.655,2.655,0,1,1,2.654,2.653A2.654,2.654,0,0,1,150.6,457.056Z" transform="translate(-16.23 -454.401)" fill="#ffab1d"/>
          <path id="Trazado_120223" data-name="Trazado 120223" d="M128.556,457.056a2.654,2.654,0,1,1,2.654,2.653A2.654,2.654,0,0,1,128.556,457.056Z" transform="translate(-16.584 -454.401)" fill="#ffab1d"/>
          <path id="Trazado_120224" data-name="Trazado 120224" d="M106.516,457.056a2.654,2.654,0,1,1,2.654,2.653A2.654,2.654,0,0,1,106.516,457.056Z" transform="translate(-16.939 -454.401)" fill="#ffab1d"/>
          <path id="Trazado_120225" data-name="Trazado 120225" d="M84.476,457.056a2.654,2.654,0,1,1,2.654,2.653A2.654,2.654,0,0,1,84.476,457.056Z" transform="translate(-17.293 -454.401)" fill="#ffab1d"/>
          <path id="Trazado_120226" data-name="Trazado 120226" d="M62.436,457.056a2.654,2.654,0,1,1,2.654,2.653A2.654,2.654,0,0,1,62.436,457.056Z" transform="translate(-17.647 -454.401)" fill="#ffab1d"/>
          <path id="Trazado_120227" data-name="Trazado 120227" d="M40.4,457.056a2.654,2.654,0,1,1,2.654,2.653A2.654,2.654,0,0,1,40.4,457.056Z" transform="translate(-18.002 -454.401)" fill="#ffab1d"/>
          <path id="Trazado_120228" data-name="Trazado 120228" d="M18.356,457.056a2.654,2.654,0,1,1,2.654,2.653A2.654,2.654,0,0,1,18.356,457.056Z" transform="translate(-18.356 -454.401)" fill="#ffab1d"/>
        </g>
        <g id="Grupo_60295" data-name="Grupo 60295" transform="translate(0)">
          <path id="Trazado_120229" data-name="Trazado 120229" d="M161.615,446.607a2.654,2.654,0,1,1,2.655,2.654A2.655,2.655,0,0,1,161.615,446.607Z" transform="translate(-4.856 -443.952)" fill="#ffab1d"/>
          <path id="Trazado_120230" data-name="Trazado 120230" d="M139.576,446.607a2.654,2.654,0,1,1,2.653,2.654A2.653,2.653,0,0,1,139.576,446.607Z" transform="translate(-5.21 -443.952)" fill="#ffab1d"/>
          <path id="Trazado_120231" data-name="Trazado 120231" d="M117.536,446.607a2.654,2.654,0,1,1,2.654,2.654A2.654,2.654,0,0,1,117.536,446.607Z" transform="translate(-5.564 -443.952)" fill="#ffab1d"/>
          <path id="Trazado_120232" data-name="Trazado 120232" d="M95.5,446.607a2.654,2.654,0,1,1,2.654,2.654A2.654,2.654,0,0,1,95.5,446.607Z" transform="translate(-5.919 -443.952)" fill="#ffab1d"/>
          <path id="Trazado_120233" data-name="Trazado 120233" d="M73.456,446.607a2.654,2.654,0,1,1,2.654,2.654A2.654,2.654,0,0,1,73.456,446.607Z" transform="translate(-6.273 -443.952)" fill="#ffab1d"/>
          <path id="Trazado_120234" data-name="Trazado 120234" d="M51.416,446.607a2.654,2.654,0,1,1,2.654,2.654A2.654,2.654,0,0,1,51.416,446.607Z" transform="translate(-6.627 -443.952)" fill="#ffab1d"/>
          <path id="Trazado_120235" data-name="Trazado 120235" d="M29.376,446.607a2.654,2.654,0,1,1,2.654,2.654A2.654,2.654,0,0,1,29.376,446.607Z" transform="translate(-6.982 -443.952)" fill="#ffab1d"/>
          <path id="Trazado_120236" data-name="Trazado 120236" d="M7.336,446.607a2.654,2.654,0,1,1,2.654,2.654A2.654,2.654,0,0,1,7.336,446.607Z" transform="translate(-7.336 -443.952)" fill="#ffab1d"/>
        </g>
      </g>
      <g id="Elipse_5681" data-name="Elipse 5681" transform="translate(-16823 -2894.063)" fill="none" stroke="#66e2fb" stroke-width="5">
        <circle cx="30.5" cy="30.5" r="30.5" stroke="none"/>
        <circle cx="30.5" cy="30.5" r="28" fill="none"/>
      </g>
      <circle id="Elipse_5682" data-name="Elipse 5682" cx="6.5" cy="6.5" r="6.5" transform="translate(-16706 -2863.563)" fill="#005bff"/>
    </g>
    <g id="Grupo_842588" data-name="Grupo 842588" transform="translate(-4320.901 4953.427)">
      <g id="Grupo_842587" data-name="Grupo 842587" transform="translate(4652.746 190.487)">
        <path id="Trazado_299896" data-name="Trazado 299896" d="M4857.382,325.834l-37.373-21.576,59.1-34.117-40.868-23.774-3.135,1.788-110.409,63.738-28.975-16.732c-12.121-7-31.763-7-43.881,0s-12.116,18.338,0,25.333l58.8,33.95.2-.114,11.176,6.509,52.737-30.448,37.374,21.576c12.5,7.218,32.763,7.218,45.26,0S4869.882,333.052,4857.382,325.834Z" transform="translate(-4637.617 -125.375)" fill="#003b6b" opacity="0.3" style="mix-blend-mode: multiply;isolation: isolate"/>
        <g id="Grupo_842586" data-name="Grupo 842586">
          <g id="Grupo_842585" data-name="Grupo 842585">
            <g id="Grupo_842538" data-name="Grupo 842538" transform="translate(0 28.792)">
              <g id="Grupo_842529" data-name="Grupo 842529" transform="translate(46.507 109.367)">
                <path id="Trazado_299897" data-name="Trazado 299897" d="M4660.075,252.584l-1.611,10.325s-4.08,9.865.806,12.473,10.434-3.813,10.434-3.813,3.007-2.055,7.731-4.736c2.967-1.682,6.913-6.761.159-8.7-3.194-.917-7.781,1.492-7.781,1.492l-1.31.58,2.071-6.216Z" transform="translate(-4656.867 -251.529)" fill="#141c26"/>
                <path id="Trazado_299898" data-name="Trazado 299898" d="M4658.311,253.279s-2.165,10.158-.875,12.432,9.182,1.29,15.281-5.577v-7.91Z" transform="translate(-4656.561 -252.224)" fill="#333942"/>
              </g>
              <g id="Grupo_842534" data-name="Grupo 842534" transform="translate(6.893 92.949)">
                <path id="Trazado_299899" data-name="Trazado 299899" d="M4664.517,273.487a2.245,2.245,0,1,0,2.244-2.227A2.238,2.238,0,0,0,4664.517,273.487Z" transform="translate(-4602.486 -199.053)" fill="#333"/>
                <path id="Trazado_299900" data-name="Trazado 299900" d="M4652.637,276.967a2.246,2.246,0,1,0,2.247-2.23A2.238,2.238,0,0,0,4652.637,276.967Z" transform="translate(-4625.421 -192.339)" fill="#333"/>
                <path id="Trazado_299901" data-name="Trazado 299901" d="M4643.419,271.625a2.247,2.247,0,1,0,2.248-2.23A2.237,2.237,0,0,0,4643.419,271.625Z" transform="translate(-4643.22 -202.654)" fill="#333"/>
                <path id="Trazado_299902" data-name="Trazado 299902" d="M4649.149,264.674a2.247,2.247,0,1,0,2.248-2.23A2.239,2.239,0,0,0,4649.149,264.674Z" transform="translate(-4632.157 -216.074)" fill="#333"/>
                <ellipse id="Elipse_5680" data-name="Elipse 5680" cx="2.246" cy="2.229" rx="2.246" ry="2.229" transform="translate(56.482 50.447)" fill="#333"/>
                <g id="Grupo_842532" data-name="Grupo 842532" transform="translate(0 45.429)">
                  <g id="Grupo_842530" data-name="Grupo 842530" transform="translate(0 0.941)">
                    <path id="Trazado_299903" data-name="Trazado 299903" d="M4671.624,277.945l-10.959-14.539v-.961l3.226.02,14.087,13.625a13.754,13.754,0,0,1,2.833.258l20.748-10.466,2.56.5v.964l-18.263,11.887a2.893,2.893,0,0,1,.448,1.624l23.777,7.11v.964l-1.642,1.846-25.374-6.281a11.214,11.214,0,0,1-2.56.753l-6.049,15.448-3.571-.325v-.961l2.579-14.806a8.78,8.78,0,0,1-1.109-.528,6.654,6.654,0,0,1-.92-.636l-27.516,1.48-.568-2.049v-.961l26.962-2.506A4.555,4.555,0,0,1,4671.624,277.945Z" transform="translate(-4643.352 -262.444)" fill="#333"/>
                  </g>
                  <g id="Grupo_842531" data-name="Grupo 842531">
                    <path id="Trazado_299904" data-name="Trazado 299904" d="M4671.624,274.714l-10.959-11.65,3.226-.941,14.087,10.732a13.754,13.754,0,0,1,2.833.258l20.748-7.573,2.56,1.465-18.263,9a2.893,2.893,0,0,1,.448,1.624l23.777,10.964-1.642,1.849-25.374-9.17a11.373,11.373,0,0,1-2.56.75l-6.049,18.341-3.571-.325,2.579-18.66a8.78,8.78,0,0,1-1.109-.528,6.651,6.651,0,0,1-.92-.633l-27.516,4.367-.568-2.046,26.962-6.36A4.516,4.516,0,0,1,4671.624,274.714Z" transform="translate(-4643.352 -262.123)" fill="#f2ddc9"/>
                  </g>
                </g>
                <g id="Grupo_842533" data-name="Grupo 842533" transform="translate(28.606 21.508)">
                  <path id="Trazado_299905" data-name="Trazado 299905" d="M4654.375,260.975a3.268,3.268,0,0,1,.716-.542,6.9,6.9,0,0,1,6.192,0,3.308,3.308,0,0,1,.715.542h.567v20.463a2.157,2.157,0,0,1-1.282,1.773,6.878,6.878,0,0,1-6.192,0,2.16,2.16,0,0,1-1.284-1.773V260.975Z" transform="translate(-4651.769 -242.883)" fill="#333"/>
                  <path id="Trazado_299906" data-name="Trazado 299906" d="M4655.091,260.012c-1.711.979-1.711,2.57,0,3.549a6.9,6.9,0,0,0,6.193,0c1.708-.979,1.708-2.57,0-3.549A6.9,6.9,0,0,0,4655.091,260.012Z" transform="translate(-4651.769 -243.696)" fill="#333"/>
                  <path id="Trazado_299907" data-name="Trazado 299907" d="M4653.942,256.482a6.488,6.488,0,0,1,2.96-1.553,10.179,10.179,0,0,1,5.256,0,6.488,6.488,0,0,1,2.96,1.553h.83v15.559c0,1.3-1.206,2.605-3.613,3.318a9.93,9.93,0,0,1-5.61,0c-2.407-.712-3.612-2.013-3.612-3.318V256.482Z" transform="translate(-4653.112 -252.76)" fill="#f2ddc9"/>
                  <path id="Trazado_299908" data-name="Trazado 299908" d="M4656.724,254.365c-4.815,1.421-4.815,5.217,0,6.638a9.93,9.93,0,0,0,5.61,0c4.813-1.421,4.813-5.217,0-6.638A9.93,9.93,0,0,0,4656.724,254.365Z" transform="translate(-4653.112 -253.961)" fill="#333"/>
                </g>
                <rect id="Rectángulo_239437" data-name="Rectángulo 239437" width="51.9" height="7.315" transform="translate(60.974 22.185) rotate(180)" fill="#1a1a1a"/>
                <path id="Trazado_299909" data-name="Trazado 299909" d="M4654.047,253.473c-10.132,5.809-10.132,15.222,0,21.031s26.567,5.806,36.7,0,10.136-15.222,0-21.031S4664.181,247.667,4654.047,253.473Z" transform="translate(-4637.375 -241.803)" fill="#1a1a1a"/>
                <path id="Trazado_299910" data-name="Trazado 299910" d="M4654.047,250.977c-10.132,5.809-10.132,15.222,0,21.031s26.567,5.806,36.7,0,10.136-15.222,0-21.031S4664.181,245.171,4654.047,250.977Z" transform="translate(-4637.375 -246.622)" fill="#333"/>
              </g>
              <path id="Trazado_299911" data-name="Trazado 299911" d="M4671.022,260.412,4667.876,272s-2.675,6.835-.87,10.053,14.139,0,14.139,0,12.126-1.287,15.135-5.3c0,0,1.174-5.5-7.046-5.469-7.426.032-8.391-1.87-8.391-1.87l-.3-7.723Z" transform="translate(-4591.992 -127.048)" fill="#141c26"/>
              <path id="Trazado_299912" data-name="Trazado 299912" d="M4731.632,261.264c-.666-3.142-3.521-5.161-7.455-6.427-10.436-3.347-28.441-1.336-33.189-.721.251-2.485.447-4.748-1.283-6.342a6.783,6.783,0,0,0-2.607-1.436c-7.636-2.515-14.281,1.216-21.69,2.066-1.069.117-15.055-4.165-15.055-4.6-.187.489-6.546,17.075,0,25.4a26.841,26.841,0,0,0,5.492,5.17c6.828,4.871,15.658,6.993,20.787,5.633,6.679-1.767,36.553-8.839,36.553-8.839s-8.462,22.787-9.055,30.641c-.289,3.883,3.089,3.93,6.585,2.978a39.413,39.413,0,0,0,7.294-2.978C4718.01,296.5,4734.192,273.379,4731.632,261.264Z" transform="translate(-4628.638 -159.112)" fill="#333942"/>
              <path id="Trazado_299913" data-name="Trazado 299913" d="M4708.713,252.714a11.61,11.61,0,0,1-8.06,1.8c-9.035-.967-16.963.009-22.055,1.641-16.641,5.319-23.188,1.926-23.188,1.926l7.465-13.177,11.368.747c1.729,1.594,1.533,3.857,1.281,6.342C4680.272,251.378,4698.278,249.368,4708.713,252.714Z" transform="translate(-4613.174 -156.99)" fill="#4d5865" opacity="0.5" style="mix-blend-mode: multiply;isolation: isolate"/>
              <g id="Grupo_842535" data-name="Grupo 842535" transform="translate(12.154)">
                <path id="Trazado_299914" data-name="Trazado 299914" d="M4680.2,224.24s.042-2.94.009-5.108l-26.433,5.668c.825,2.881,2.137,5.478,2.153,8.449,0,0-2.588,6.254-2.354,6.506l13.361,8.007,3.684-8.757s5.677,1.035,7.858-.947,1.448-7.591,1.448-7.591,2.768-.434,2.233-1.5C4681.481,227.6,4680.2,224.24,4680.2,224.24Z" transform="translate(-4628.902 -206.75)" fill="#ffb294"/>
                <path id="Trazado_299915" data-name="Trazado 299915" d="M4663.126,230.2c-2.672-.082-4.338-2.872-5.686-6.506.789,4.466,2.049,8.089,4.089,10.307Z" transform="translate(-4621.408 -197.944)" fill="#ffb294" opacity="0.5" style="mix-blend-mode: multiply;isolation: isolate"/>
                <path id="Trazado_299916" data-name="Trazado 299916" d="M4680.915,227.289c.661-.325,1.141-.841.661-3.5-1.464-8.086-11.357-9.906-17.77-8.4a13.956,13.956,0,0,0-10.163,17.233c.064.258.14.51.213.765C4654.624,233.218,4680.213,227.638,4680.915,227.289Z" transform="translate(-4629.609 -214.907)"/>
                <path id="Trazado_299917" data-name="Trazado 299917" d="M4654.143,225.353l-.885.431a34.7,34.7,0,0,0,3.214,9.349l5.823-1.187a3.027,3.027,0,0,0,2.407-2.667l.314-3.133,4.708-1.079,2.8-4.507-4.163-4.792Z" transform="translate(-4629.484 -209.383)"/>
                <path id="Trazado_299918" data-name="Trazado 299918" d="M4659.106,220.187a2.2,2.2,0,0,0-1.958,1.4,3.62,3.62,0,0,0,.007,2.5,10.753,10.753,0,0,0,1.174,2.26,2.783,2.783,0,0,0,1.546,1.439,1.685,1.685,0,0,0,1.683-.739c.754-1.1.306-2.655.075-3.86C4661.384,221.893,4660.657,220.214,4659.106,220.187Z" transform="translate(-4622.398 -204.713)" fill="#ffb294"/>
                <path id="Trazado_299919" data-name="Trazado 299919" d="M4669.716,256.493l9.5-7.523,6.717-2.43,6.51-3.089,3.329-3.13a1.581,1.581,0,0,0,.472-1.442,13.189,13.189,0,0,1,1.124-1.225,1.717,1.717,0,0,0,.493-1.389l-.05-.475.412-.372c.967-.976.442-2.676-1.01-1.9.907-.865.067-2.515-1.39-1.316l-3.921,3.08-3.746,1.843-3.851,1.213,1.613-1.7,3.323-1.77c1.539-1.049,1.761-3.417.176-2.7,0,0-2.647,1.351-2.858,1.386s-5.917,2.7-5.917,2.7c-1.934,1.706-3.48,3.28-3.71,5.407l-9.493,7.989Z" transform="translate(-4602.107 -182.333)" fill="#ffb294"/>
                <path id="Trazado_299920" data-name="Trazado 299920" d="M4666.778,250.218l-1.123,12.16a25.475,25.475,0,0,0-2.768-.161c-3.8-.1-8.811-.067-12.362-2.028a8.206,8.206,0,0,1-2.853-2.512,8.467,8.467,0,0,1-1.391-3.5l-1.134-10.674c.109-9.633,3.135-15.958,10.025-17.822Z" transform="translate(-4645.146 -194.103)" fill="#4d5865"/>
                <path id="Trazado_299921" data-name="Trazado 299921" d="M4661.223,243.25v6.878c-3.8-.1-8.812-.067-12.363-2.028a8.209,8.209,0,0,1-2.852-2.512l3.094-13.646Z" transform="translate(-4643.482 -182.015)" fill="#534741" opacity="0.5" style="mix-blend-mode: multiply;isolation: isolate"/>
                <path id="Trazado_299922" data-name="Trazado 299922" d="M4659.4,232.625l5.982.624,8.476-3.526,5.99-.481,3.6.61a1.529,1.529,0,0,1,.722.331l.627.525.89.264a1.526,1.526,0,0,1,1.083,1.3l.833.768a.8.8,0,0,1-.7,1.216l-1.219-.361-2.3.009-3.9.847-2.848,2.978s.188.879.332.967a15.175,15.175,0,0,0,3.635,1.269l1.271.144c1.017.61,1.37,1.638.189,1.832l-1.816.214-6.908-.132-6.6-1.952-7.237-.176Z" transform="translate(-4617.635 -187.228)" fill="#ffb294"/>
                <path id="Trazado_299923" data-name="Trazado 299923" d="M4696.233,268.6c-.027.094-.043.2-.068.3-1,4.824-1.838,13.215-1.838,13.215-1.986,14.05,4.564,24.955-7.462,27.564-1.122.243-8.576,1.02-9.328,2.169-7.6,11.6-31.823-.358-32.391-14.317.068,0,4.094-16.119,4.81-22.2,1.189-9.982.973-24.574.621-32.224-.676-14.4,4.594-16.292,4.594-16.292,7.715-1.744,14.745-3.561,24.682,2.242a123.518,123.518,0,0,1,17.378,12.983,17.774,17.774,0,0,1,3.7,5.58C4703.258,253.241,4698.422,258.361,4696.233,268.6Z" transform="translate(-4645.146 -195.221)" fill="#4d5865"/>
                <path id="Trazado_299924" data-name="Trazado 299924" d="M4672.85,247.576c-.026.094-.043.2-.068.3-1,4.824-1.838,13.215-1.838,13.215-1.986,14.05-1.663,16.321-13.687,18.93,7.078-9.824,5.291-26.051,6.356-44.023Z" transform="translate(-4621.764 -174.193)" fill="#534741" opacity="0.5" style="mix-blend-mode: multiply;isolation: isolate"/>
                <path id="Trazado_299925" data-name="Trazado 299925" d="M4679.243,251.357l7.729-5.457c5.71-5.442,11.776.481,8.468,5.859L4683,267.362a10.237,10.237,0,0,1-6.9,4.071c-8.092-.542-12.367-12.67-16.822-24.255-2.283-12.21,7.157-20.123,14.038-13.484Z" transform="translate(-4618.526 -183.29)" fill="#4d5865"/>
              </g>
              <g id="Grupo_842537" data-name="Grupo 842537" transform="translate(0 64.457)">
                <path id="Trazado_299926" data-name="Trazado 299926" d="M4667.814,297.068a1.927,1.927,0,0,1-.406-.044c-.654-.155-1.472-.27-2.419-.4-6.046-.838-17.3-2.391-17.3-21.975,0-14.651-.885-31.233-.894-31.4a1.766,1.766,0,0,1,3.527-.191c.007.167.9,16.84.9,31.588,0,16.509,8.235,17.646,14.244,18.476.995.138,1.932.267,2.75.46a1.764,1.764,0,0,1-.4,3.482Z" transform="translate(-4629.809 -228.226)" fill="#f2ddc9"/>
                <g id="Grupo_842536" data-name="Grupo 842536">
                  <path id="Trazado_299927" data-name="Trazado 299927" d="M4646.522,237.591l-4.789,2.8,2.928,2.5c.252,4.806,3.622,10.433,7.751,12.8l11.049,6.328,6.609,6.729,4.54-2.6c1.574-.741,2.582-2.529,2.582-5.173,0-4.924-3.736-10.519-7.778-13.37a94.93,94.93,0,0,0-17-9.742C4649.922,236.773,4647.945,236.509,4646.522,237.591Z" transform="translate(-4639.585 -236.9)" fill="#1a1a1a"/>
                  <path id="Trazado_299928" data-name="Trazado 299928" d="M4648.777,238.8c6.9,3.221,12.719,6.3,17,9.742,3.854,3.1,7.777,8.449,7.777,13.373s-3.854,7.468-7.777,4.458c-6.365-4.885-12.41-8.637-17.291-10.694-4.567-1.926-7.489-7.5-7.489-12.421S4644.291,236.709,4648.777,238.8Z" transform="translate(-4641 -234.949)" fill="#333"/>
                </g>
              </g>
            </g>
            <g id="Grupo_842584" data-name="Grupo 842584" transform="translate(43.532)">
              <g id="Grupo_842539" data-name="Grupo 842539" transform="translate(9.672 90.605)">
                <path id="Trazado_299929" data-name="Trazado 299929" d="M4659.153,351.522l147.487-85.152L4810.425,236l-151.272,96.511Z" transform="translate(-4659.153 -235.998)" fill="#57412b"/>
              </g>
              <g id="Grupo_842540" data-name="Grupo 842540" transform="translate(157.088 40.324)">
                <path id="Trazado_299930" data-name="Trazado 299930" d="M4709.453,218.842l.071,80.653,37.16,25.925,3.694-2.133-.071-80.653Z" transform="translate(-4709.453 -218.842)" fill="#a67c52"/>
              </g>
              <g id="Grupo_842541" data-name="Grupo 842541" transform="translate(153.394 42.457)">
                <path id="Trazado_299931" data-name="Trazado 299931" d="M4708.192,219.57l.069,80.653,40.855,23.792-.071-80.653Z" transform="translate(-4708.192 -219.57)" fill="#57412b"/>
              </g>
              <g id="Grupo_842542" data-name="Grupo 842542" transform="translate(4.194 128.597)">
                <path id="Trazado_299932" data-name="Trazado 299932" d="M4657.283,248.961l.072,80.653,36.661,26.213,4.193-2.421-.069-80.653Z" transform="translate(-4657.283 -248.961)" fill="#a67c52"/>
              </g>
              <path id="Trazado_299933" data-name="Trazado 299933" d="M4812.934,218.846l-3.134,1.788-150.937,87.132-3.008,1.754,40.852,23.8,157.093-90.7Z" transform="translate(-4655.845 -178.509)" fill="#f2ddc9"/>
              <g id="Grupo_842543" data-name="Grupo 842543" transform="translate(0 131.019)">
                <path id="Trazado_299934" data-name="Trazado 299934" d="M4655.853,249.788l.07,80.653,40.856,23.792-.071-80.653Z" transform="translate(-4655.853 -249.788)" fill="#57412b"/>
              </g>
              <g id="Grupo_842544" data-name="Grupo 842544" transform="translate(40.855 64.116)">
                <path id="Trazado_299935" data-name="Trazado 299935" d="M4669.792,317.654l.071,18.972,157.088-90.694-.072-18.972Z" transform="translate(-4669.792 -226.96)" fill="#a67c52"/>
              </g>
              <g id="Grupo_842564" data-name="Grupo 842564" transform="translate(114.198)">
                <g id="Grupo_842561" data-name="Grupo 842561">
                  <g id="Grupo_842546" data-name="Grupo 842546" transform="translate(20.241 52.421)">
                    <path id="Trazado_299936" data-name="Trazado 299936" d="M4739.788,233a.948.948,0,0,0-.207-.607l-6.536-8.558a1.714,1.714,0,0,0-.523-.443,3.919,3.919,0,0,0-2.763-.3l-26.544,6.758c-.937.237-1.489.771-1.481,1.328,0-.015-.01,3.174-.01,3.174a.97.97,0,0,0,.216.589l6.53,8.561a1.811,1.811,0,0,0,.523.44,3.927,3.927,0,0,0,2.768.3l26.544-6.761c.927-.237,1.48-.762,1.48-1.316l.005-3.189Z" transform="translate(-4701.724 -222.969)" fill="#0e0e14"/>
                    <g id="Grupo_842545" data-name="Grupo 842545" transform="translate(0.006)">
                      <path id="Trazado_299937" data-name="Trazado 299937" d="M4732.519,223.391a1.718,1.718,0,0,1,.522.443l6.536,8.558c.554.73-.011,1.58-1.27,1.9l-26.543,6.758a3.919,3.919,0,0,1-2.77-.3,1.8,1.8,0,0,1-.519-.437l-6.533-8.561c-.56-.73.005-1.583,1.27-1.9l26.544-6.758A3.92,3.92,0,0,1,4732.519,223.391Z" transform="translate(-4701.726 -222.969)" fill="#748597"/>
                    </g>
                  </g>
                  <g id="Grupo_842553" data-name="Grupo 842553" transform="translate(32.253 40.495)">
                    <g id="Grupo_842552" data-name="Grupo 842552" style="isolation: isolate">
                      <g id="Grupo_842549" data-name="Grupo 842549" transform="translate(2.009 1.898)">
                        <g id="Grupo_842547" data-name="Grupo 842547">
                          <path id="Trazado_299938" data-name="Trazado 299938" d="M4716.535,219.548l-.115,19.286-9.911,2.52.118-19.286Z" transform="translate(-4706.508 -219.548)" fill="#748597"/>
                        </g>
                        <g id="Grupo_842548" data-name="Grupo 842548">
                          <path id="Trazado_299939" data-name="Trazado 299939" d="M4716.535,219.548l-.115,19.286-9.911,2.52.118-19.286Z" transform="translate(-4706.508 -219.548)" fill="#4d5865"/>
                        </g>
                      </g>
                      <g id="Grupo_842550" data-name="Grupo 842550" transform="translate(0 2.525)">
                        <path id="Trazado_299940" data-name="Trazado 299940" d="M4707.948,221.654l-.117,19.286-2.009-2.632.681-18.547Z" transform="translate(-4705.823 -219.761)" fill="#0e0e14"/>
                      </g>
                      <g id="Grupo_842551" data-name="Grupo 842551" transform="translate(0.681)">
                        <path id="Trazado_299941" data-name="Trazado 299941" d="M4715.963,218.9l1.446,1.9-9.909,2.52-1.446-1.893Z" transform="translate(-4706.055 -218.9)" fill="#6f819a"/>
                      </g>
                    </g>
                  </g>
                  <g id="Grupo_842560" data-name="Grupo 842560">
                    <g id="Grupo_842559" data-name="Grupo 842559" style="isolation: isolate">
                      <g id="Grupo_842554" data-name="Grupo 842554" transform="translate(1.445 1.896)">
                        <path id="Trazado_299942" data-name="Trazado 299942" d="M4768.84,205.73l-.115,44.7-73.414,18.7.118-44.7Z" transform="translate(-4695.312 -205.73)" fill="#4d5865"/>
                        <path id="Trazado_299943" data-name="Trazado 299943" d="M4765.244,206.678l-.108,40.239-69.084,17.595v-.655l.1-39.583,68.427-17.429Z" transform="translate(-4693.881 -203.898)" fill="#1a1a1a"/>
                        <path id="Trazado_299944" data-name="Trazado 299944" d="M4764.581,206.735l-.107,39.59-68.422,17.422.1-39.583Z" transform="translate(-4693.881 -203.789)" fill="#29d3e2"/>
                        <path id="Trazado_299945" data-name="Trazado 299945" d="M4755.316,215.511l.016-6.344-57.351,14.607-.017,6.345Z" transform="translate(-4690.186 -199.095)" fill="#fff"/>
                      </g>
                      <g id="Grupo_842555" data-name="Grupo 842555" transform="translate(0 18.694)">
                        <path id="Trazado_299946" data-name="Trazado 299946" d="M4696.381,213.359l-.118,44.7-1.445-1.9.116-44.7Z" transform="translate(-4694.818 -211.461)" fill="#333942"/>
                      </g>
                      <g id="Grupo_842558" data-name="Grupo 842558" transform="translate(0.117)">
                        <g id="Grupo_842556" data-name="Grupo 842556">
                          <path id="Trazado_299947" data-name="Trazado 299947" d="M4768.266,205.083l1.45,1.9-73.411,18.7-1.446-1.9Z" transform="translate(-4694.858 -205.083)" fill="#748597"/>
                        </g>
                        <g id="Grupo_842557" data-name="Grupo 842557">
                          <path id="Trazado_299948" data-name="Trazado 299948" d="M4768.266,205.083l1.45,1.9-73.411,18.7-1.446-1.9Z" transform="translate(-4694.858 -205.083)" fill="#748597"/>
                        </g>
                      </g>
                    </g>
                  </g>
                </g>
                <path id="Trazado_299949" data-name="Trazado 299949" d="M4755.316,215.511l.016-6.344-57.351,14.607-.017,6.345Z" transform="translate(-4688.74 -197.199)" fill="#fff"/>
                <g id="Grupo_842562" data-name="Grupo 842562" transform="translate(9.169 20.833)">
                  <path id="Trazado_299950" data-name="Trazado 299950" d="M4726.687,214.682,4698,221.989l-.05,19.289,28.741-7.318Z" transform="translate(-4697.946 -207.383)" fill="#fff"/>
                  <path id="Trazado_299951" data-name="Trazado 299951" d="M4708.376,219.026V238.3l26.78-6.819.052-19.294Z" transform="translate(-4677.811 -212.191)" fill="#fff"/>
                  <path id="Trazado_299952" data-name="Trazado 299952" d="M4712.035,216.634v15.473l14.216-3.619.041-15.486Z" transform="translate(-4670.745 -210.627)" fill="#e6e6e6"/>
                </g>
                <path id="Trazado_299953" data-name="Trazado 299953" d="M4722.646,215.89l-23.83,6.07v1.428l23.83-6.07Z" transform="translate(-4687.099 -184.217)" fill="#333"/>
                <g id="Grupo_842563" data-name="Grupo 842563" transform="translate(41.579 27.221)">
                  <path id="Trazado_299954" data-name="Trazado 299954" d="M4716.387,214.371l-7.381,1.88V218.9l7.381-1.88Z" transform="translate(-4709.006 -214.371)" fill="#e6e6e6"/>
                  <path id="Trazado_299955" data-name="Trazado 299955" d="M4709.006,217.644v4.7l7.381-1.88v-4.7Z" transform="translate(-4709.006 -211.683)" fill="#e6e6e6"/>
                  <path id="Trazado_299956" data-name="Trazado 299956" d="M4709.006,225l7.381-1.879v-5.266l-7.381,1.88Z" transform="translate(-4709.006 -207.647)" fill="#e6e6e6"/>
                </g>
                <path id="Trazado_299957" data-name="Trazado 299957" d="M4716.958,217.464l-18.143,4.621v1.428l18.143-4.622Z" transform="translate(-4687.099 -181.177)" fill="#333"/>
                <path id="Trazado_299958" data-name="Trazado 299958" d="M4706.579,219.446l-7.763,1.977v1.428l7.763-1.977Z" transform="translate(-4687.099 -177.351)" fill="#333"/>
                <path id="Trazado_299959" data-name="Trazado 299959" d="M4722.646,220.21l-23.83,6.07v1.428l23.83-6.07Z" transform="translate(-4687.099 -175.877)" fill="#333"/>
                <path id="Trazado_299960" data-name="Trazado 299960" d="M4715.405,213.085l-16.841,4.29v1.009l16.841-4.29Z" transform="translate(-4687.584 -189.632)" fill="#333"/>
                <path id="Trazado_299961" data-name="Trazado 299961" d="M4711.385,214.2l-12.821,3.266v1.009l12.821-3.266Z" transform="translate(-4687.584 -187.484)" fill="#333"/>
              </g>
              <path id="Trazado_299962" data-name="Trazado 299962" d="M4727.144,253.146s-17.009-9.6-23.863-2.054c-5.823,6.413,5.812,33.991,4.729,45.1a5.829,5.829,0,0,1-6.787.926c-3.731.481-5.313,2-5.861,4.012v3.086l7.559,3.238,13.887,1.7.616-6.48c-2.607-10.724-1.079-21.289-1.388-33.17l25.15,14.5,17.28-3.241,4.472-22.37Z" transform="translate(-4579.572 -121.836)" fill="#f29b79"/>
              <path id="Trazado_299963" data-name="Trazado 299963" d="M4704.953,266.261a7.677,7.677,0,0,0-4.823,2.7,1.6,1.6,0,0,0,.118,2.233c1.273,1.172,3.493,2.963,5.491,3.359,6.25,1.234,12.577-3.974,14.628-3.464,2,2.383,2.505,5.445,1.882,9.018a7.6,7.6,0,0,1-5.942,1.966c-2.434-.255-6.247-2.969-6.247-2.969a31.424,31.424,0,0,1-13.191-5.322,12.393,12.393,0,0,1-3.087-6.943c0-2.008,1.545-2.74,3.55-2.468Z" transform="translate(-4582.623 -90.712)" fill="#e64047"/>
              <g id="Grupo_842569" data-name="Grupo 842569" transform="translate(111.021 156.761)">
                <path id="Trazado_299964" data-name="Trazado 299964" d="M4698.691,279.944a2.44,2.44,0,1,1-2.441-2.441A2.441,2.441,0,0,1,4698.691,279.944Z" transform="translate(-4693.583 -222.019)" fill="#333"/>
                <path id="Trazado_299965" data-name="Trazado 299965" d="M4711.591,283.747a2.438,2.438,0,1,1-2.437-2.438A2.439,2.439,0,0,1,4711.591,283.747Z" transform="translate(-4668.67 -214.67)" fill="#333"/>
                <path id="Trazado_299966" data-name="Trazado 299966" d="M4721.607,277.9a2.44,2.44,0,1,1-2.442-2.441A2.441,2.441,0,0,1,4721.607,277.9Z" transform="translate(-4649.34 -225.959)" fill="#333"/>
                <path id="Trazado_299967" data-name="Trazado 299967" d="M4715.383,270.3a2.44,2.44,0,1,1-2.442-2.441A2.441,2.441,0,0,1,4715.383,270.3Z" transform="translate(-4661.356 -240.647)" fill="#333"/>
                <path id="Trazado_299968" data-name="Trazado 299968" d="M4700.748,271.816a2.44,2.44,0,1,1-2.44-2.438A2.441,2.441,0,0,1,4700.748,271.816Z" transform="translate(-4689.613 -237.706)" fill="#333"/>
                <g id="Grupo_842567" data-name="Grupo 842567" transform="translate(0 26.18)">
                  <g id="Grupo_842565" data-name="Grupo 842565" transform="translate(0 1.029)">
                    <path id="Trazado_299969" data-name="Trazado 299969" d="M4735.509,284.821l11.9-15.914v-1.052l-3.5.023-15.3,14.912a14.861,14.861,0,0,0-3.076.281l-22.538-11.453-2.779.554v1.052l19.837,13.01a3.257,3.257,0,0,0-.491,1.776l-25.825,7.784v1.052l1.784,2.022L4723.081,292a12.288,12.288,0,0,0,2.777.823l6.572,16.9,3.88-.355v-1.052l-2.8-16.2a9.2,9.2,0,0,0,1.205-.577,7.142,7.142,0,0,0,1-.695l29.889,1.618.612-2.242v-1.052l-29.283-2.74A4.943,4.943,0,0,0,4735.509,284.821Z" transform="translate(-4693.734 -267.855)" fill="#333"/>
                  </g>
                  <g id="Grupo_842566" data-name="Grupo 842566">
                    <path id="Trazado_299970" data-name="Trazado 299970" d="M4735.509,281.281l11.9-12.749-3.5-1.029-15.3,11.743a15.082,15.082,0,0,0-3.076.284l-22.538-8.288-2.779,1.606,19.837,9.844a3.257,3.257,0,0,0-.491,1.776l-25.825,12,1.784,2.022,27.562-10.038a12.126,12.126,0,0,0,2.777.823l6.572,20.07,3.88-.355-2.8-20.422a9.2,9.2,0,0,0,1.205-.577,7.145,7.145,0,0,0,1-.695l29.889,4.783.612-2.242-29.283-6.958A4.943,4.943,0,0,0,4735.509,281.281Z" transform="translate(-4693.734 -267.504)" fill="#f2ddc9"/>
                  </g>
                </g>
                <g id="Grupo_842568" data-name="Grupo 842568" transform="translate(27.47)">
                  <path id="Trazado_299971" data-name="Trazado 299971" d="M4712.758,266.244a3.457,3.457,0,0,0-.778-.589,7.43,7.43,0,0,0-6.725,0,3.473,3.473,0,0,0-.775.589h-.617v22.4a2.364,2.364,0,0,0,1.393,1.943,7.429,7.429,0,0,0,6.725,0,2.36,2.36,0,0,0,1.393-1.943v-22.4Z" transform="translate(-4701.648 -246.448)" fill="#4d4d4d"/>
                  <path id="Trazado_299972" data-name="Trazado 299972" d="M4711.982,265.194c1.859,1.073,1.859,2.811,0,3.883a7.43,7.43,0,0,1-6.726,0c-1.858-1.073-1.858-2.811,0-3.883A7.431,7.431,0,0,1,4711.982,265.194Z" transform="translate(-4701.649 -247.338)" fill="#4d4d4d"/>
                  <path id="Trazado_299973" data-name="Trazado 299973" d="M4716.147,261.332a6.985,6.985,0,0,0-3.212-1.7,10.917,10.917,0,0,0-5.712,0,6.976,6.976,0,0,0-3.213,1.7h-.9v17.025c0,1.427,1.309,2.855,3.923,3.631a10.739,10.739,0,0,0,6.1,0c2.615-.777,3.922-2.2,3.922-3.631V261.332Z" transform="translate(-4703.107 -257.256)" fill="#ccc"/>
                  <path id="Trazado_299974" data-name="Trazado 299974" d="M4713.127,259.013c5.229,1.556,5.229,5.709,0,7.265a10.738,10.738,0,0,1-6.1,0c-5.229-1.556-5.229-5.709,0-7.265A10.74,10.74,0,0,1,4713.127,259.013Z" transform="translate(-4703.108 -258.571)" fill="#4d4d4d"/>
                </g>
              </g>
              <g id="Grupo_842573" data-name="Grupo 842573" transform="translate(74.493 87.304)">
                <path id="Trazado_299975" data-name="Trazado 299975" d="M4734.738,243.57l-39.049,22.544-14.418-8.325V256.7l39.048-21.451,14.419,7.231Z" transform="translate(-4681.271 -234.151)" fill="#748597"/>
                <path id="Trazado_299976" data-name="Trazado 299976" d="M4734.738,243.2l-39.049,22.544-14.418-8.325,39.048-22.544Z" transform="translate(-4681.271 -234.872)" fill="#0e0e14"/>
                <g id="Grupo_842572" data-name="Grupo 842572" transform="translate(2.763 1.431)">
                  <g id="Grupo_842570" data-name="Grupo 842570" transform="translate(0 4.993)">
                    <path id="Trazado_299977" data-name="Trazado 299977" d="M4682.213,243.277l2.165-1.25,1.653.954-2.165,1.25Z" transform="translate(-4682.213 -227.482)" fill="#fff"/>
                    <path id="Trazado_299978" data-name="Trazado 299978" d="M4683.073,242.78l2.166-1.25,1.652.954-2.166,1.25Z" transform="translate(-4680.553 -228.44)" fill="#fff"/>
                    <path id="Trazado_299979" data-name="Trazado 299979" d="M4683.933,242.284l2.166-1.25,1.651.954-2.166,1.25Z" transform="translate(-4678.894 -229.398)" fill="#fff"/>
                    <path id="Trazado_299980" data-name="Trazado 299980" d="M4684.792,241.788l2.166-1.25,1.652.954-2.165,1.25Z" transform="translate(-4677.234 -230.356)" fill="#fff"/>
                    <path id="Trazado_299981" data-name="Trazado 299981" d="M4685.652,241.292l2.166-1.25,1.65.954-2.164,1.25Z" transform="translate(-4675.574 -231.315)" fill="#fff"/>
                    <path id="Trazado_299982" data-name="Trazado 299982" d="M4686.51,240.8l2.165-1.25,1.654.954-2.167,1.25Z" transform="translate(-4673.914 -232.273)" fill="#fff"/>
                    <path id="Trazado_299983" data-name="Trazado 299983" d="M4687.37,240.3l2.166-1.25,1.652.954-2.164,1.25Z" transform="translate(-4672.254 -233.231)" fill="#fff"/>
                    <path id="Trazado_299984" data-name="Trazado 299984" d="M4688.23,239.8l2.164-1.25,1.651.954-2.165,1.25Z" transform="translate(-4670.597 -234.189)" fill="#fff"/>
                    <path id="Trazado_299985" data-name="Trazado 299985" d="M4689.09,239.306l2.166-1.25,1.651.954-2.166,1.25Z" transform="translate(-4668.937 -235.147)" fill="#fff"/>
                    <path id="Trazado_299986" data-name="Trazado 299986" d="M4689.948,238.81l2.165-1.25,1.653.954-2.165,1.25Z" transform="translate(-4667.277 -236.106)" fill="#fff"/>
                    <path id="Trazado_299987" data-name="Trazado 299987" d="M4690.809,238.314l2.166-1.25,1.651.954-2.166,1.25Z" transform="translate(-4665.618 -237.064)" fill="#fff"/>
                    <path id="Trazado_299988" data-name="Trazado 299988" d="M4683.225,243.86l2.165-1.25,1.652.954-2.164,1.25Z" transform="translate(-4680.263 -226.356)" fill="#fff"/>
                    <path id="Trazado_299989" data-name="Trazado 299989" d="M4684.083,243.364l2.166-1.25,1.652.954-2.166,1.25Z" transform="translate(-4678.603 -227.314)" fill="#fff"/>
                    <path id="Trazado_299990" data-name="Trazado 299990" d="M4684.942,242.868l2.166-1.25,1.651.954-2.165,1.25Z" transform="translate(-4676.942 -228.272)" fill="#fff"/>
                    <path id="Trazado_299991" data-name="Trazado 299991" d="M4685.8,242.371l2.165-1.25,1.653.954-2.167,1.25Z" transform="translate(-4675.283 -229.23)" fill="#fff"/>
                    <path id="Trazado_299992" data-name="Trazado 299992" d="M4686.662,241.875l2.167-1.25,1.651.954-2.165,1.25Z" transform="translate(-4673.623 -230.188)" fill="#fff"/>
                    <path id="Trazado_299993" data-name="Trazado 299993" d="M4687.521,241.379l2.167-1.25,1.65.954-2.166,1.25Z" transform="translate(-4671.964 -231.146)" fill="#fff"/>
                    <path id="Trazado_299994" data-name="Trazado 299994" d="M4688.381,240.883l2.166-1.25,1.654.954-2.166,1.25Z" transform="translate(-4670.304 -232.105)" fill="#fff"/>
                    <path id="Trazado_299995" data-name="Trazado 299995" d="M4689.24,240.386l2.166-1.25,1.653.954-2.165,1.25Z" transform="translate(-4668.645 -233.062)" fill="#fff"/>
                    <path id="Trazado_299996" data-name="Trazado 299996" d="M4690.1,239.89l2.164-1.25,1.652.954-2.166,1.25Z" transform="translate(-4666.984 -234.021)" fill="#fff"/>
                    <path id="Trazado_299997" data-name="Trazado 299997" d="M4690.96,239.394l2.165-1.25,1.652.954-2.164,1.25Z" transform="translate(-4665.325 -234.979)" fill="#fff"/>
                    <path id="Trazado_299998" data-name="Trazado 299998" d="M4691.82,238.9l2.165-1.25,1.652.954-2.166,1.25Z" transform="translate(-4663.666 -235.937)" fill="#fff"/>
                    <path id="Trazado_299999" data-name="Trazado 299999" d="M4683.869,244.233l2.166-1.25,1.652.954-2.165,1.25Z" transform="translate(-4679.014 -225.635)" fill="#fff"/>
                    <path id="Trazado_300000" data-name="Trazado 300000" d="M4684.73,243.737l2.164-1.25,1.653.954-2.167,1.25Z" transform="translate(-4677.354 -226.593)" fill="#fff"/>
                    <path id="Trazado_300001" data-name="Trazado 300001" d="M4685.589,243.241l2.165-1.25,1.652.954-2.165,1.251Z" transform="translate(-4675.695 -227.552)" fill="#fff"/>
                    <path id="Trazado_300002" data-name="Trazado 300002" d="M4686.449,242.744l2.165-1.25,1.651.954-2.166,1.25Z" transform="translate(-4674.035 -228.51)" fill="#fff"/>
                    <path id="Trazado_300003" data-name="Trazado 300003" d="M4687.308,242.248l2.166-1.25,1.653.954-2.167,1.25Z" transform="translate(-4672.375 -229.468)" fill="#fff"/>
                    <path id="Trazado_300004" data-name="Trazado 300004" d="M4688.167,241.752l2.164-1.25,1.654.954-2.165,1.25Z" transform="translate(-4670.716 -230.426)" fill="#fff"/>
                    <path id="Trazado_300005" data-name="Trazado 300005" d="M4689.027,241.256l2.166-1.25,1.652.954-2.166,1.25Z" transform="translate(-4669.055 -231.384)" fill="#fff"/>
                    <path id="Trazado_300006" data-name="Trazado 300006" d="M4689.887,240.759l2.166-1.25,1.65.954-2.163,1.25Z" transform="translate(-4667.397 -232.342)" fill="#fff"/>
                    <path id="Trazado_300007" data-name="Trazado 300007" d="M4690.748,240.263l2.164-1.25,1.653.954-2.166,1.25Z" transform="translate(-4665.738 -233.3)" fill="#fff"/>
                    <path id="Trazado_300008" data-name="Trazado 300008" d="M4691.605,239.767l2.166-1.25,1.65.954-2.165,1.25Z" transform="translate(-4664.077 -234.259)" fill="#fff"/>
                    <path id="Trazado_300009" data-name="Trazado 300009" d="M4684.516,244.606l2.166-1.25,1.651.954-2.164,1.25Z" transform="translate(-4677.766 -224.915)" fill="#fff"/>
                    <path id="Trazado_300010" data-name="Trazado 300010" d="M4685.376,244.11l2.165-1.25,1.653.954-2.166,1.25Z" transform="translate(-4676.107 -225.873)" fill="#fff"/>
                    <path id="Trazado_300011" data-name="Trazado 300011" d="M4686.235,243.614l2.166-1.25,1.65.954-2.165,1.25Z" transform="translate(-4674.446 -226.831)" fill="#fff"/>
                    <path id="Trazado_300012" data-name="Trazado 300012" d="M4687.095,243.117l2.164-1.25,1.654.954-2.167,1.25Z" transform="translate(-4672.787 -227.789)" fill="#fff"/>
                    <path id="Trazado_300013" data-name="Trazado 300013" d="M4687.953,242.621l2.167-1.25,1.653.954-2.167,1.25Z" transform="translate(-4671.127 -228.747)" fill="#fff"/>
                    <path id="Trazado_300014" data-name="Trazado 300014" d="M4688.814,242.125l2.166-1.25,1.65.954-2.164,1.25Z" transform="translate(-4669.468 -229.706)" fill="#fff"/>
                    <path id="Trazado_300015" data-name="Trazado 300015" d="M4689.673,241.629l2.166-1.25,1.653.954-2.167,1.25Z" transform="translate(-4667.81 -230.664)" fill="#fff"/>
                    <path id="Trazado_300016" data-name="Trazado 300016" d="M4690.534,241.133l2.167-1.25,1.65.954-2.164,1.25Z" transform="translate(-4666.15 -231.622)" fill="#fff"/>
                    <path id="Trazado_300017" data-name="Trazado 300017" d="M4691.394,240.636l2.165-1.25,1.652.954-2.167,1.25Z" transform="translate(-4664.49 -232.58)" fill="#fff"/>
                    <path id="Trazado_300018" data-name="Trazado 300018" d="M4692.878,239.271l1.894,1.093-2.52,1.455,1.653.954,2.518-1.455.633-.365,1.533-.885-1.407-.812-.247-.142-1.893-1.093Z" transform="translate(-4662.831 -235.217)" fill="#fff"/>
                    <path id="Trazado_300019" data-name="Trazado 300019" d="M4688.342,244.1l-.66.381-2.519,1.455,1.652.954,2.518-1.454.659-.381,1.507-.869-1.652-.954Z" transform="translate(-4676.518 -225.153)" fill="#fff"/>
                    <path id="Trazado_300020" data-name="Trazado 300020" d="M4686.881,243.987l2.166-1.25,1.652.954-2.166,1.25Z" transform="translate(-4673.199 -226.111)" fill="#fff"/>
                    <path id="Trazado_300021" data-name="Trazado 300021" d="M4687.741,243.491l2.164-1.25,1.652.954-2.166,1.25Z" transform="translate(-4671.54 -227.069)" fill="#fff"/>
                    <path id="Trazado_300022" data-name="Trazado 300022" d="M4688.6,242.994l2.166-1.25,1.652.954-2.166,1.25Z" transform="translate(-4669.879 -228.027)" fill="#fff"/>
                    <path id="Trazado_300023" data-name="Trazado 300023" d="M4689.461,242.5l2.166-1.25,1.651.954-2.165,1.25Z" transform="translate(-4668.222 -228.985)" fill="#fff"/>
                    <path id="Trazado_300024" data-name="Trazado 300024" d="M4690.321,242l2.164-1.25,1.652.954-2.166,1.25Z" transform="translate(-4666.561 -229.943)" fill="#fff"/>
                    <path id="Trazado_300025" data-name="Trazado 300025" d="M4691.18,241.505l2.166-1.25,1.65.954-2.164,1.25Z" transform="translate(-4664.901 -230.902)" fill="#fff"/>
                    <path id="Trazado_300026" data-name="Trazado 300026" d="M4692.039,241.009l2.166-1.25,1.653.954-2.167,1.25Z" transform="translate(-4663.242 -231.86)" fill="#fff"/>
                    <path id="Trazado_300027" data-name="Trazado 300027" d="M4695.063,240.221l-.371.214-1.795,1.036,1.651.954,1.794-1.036.371-.214,2.52-1.455-1.653-.954Z" transform="translate(-4661.581 -233.776)" fill="#fff"/>
                    <path id="Trazado_300028" data-name="Trazado 300028" d="M4685.808,245.352l2.166-1.25,1.651.954-2.164,1.25Z" transform="translate(-4675.27 -223.474)" fill="#fff"/>
                    <path id="Trazado_300029" data-name="Trazado 300029" d="M4686.668,244.856l2.166-1.25,1.651.954-2.166,1.25Z" transform="translate(-4673.611 -224.432)" fill="#fff"/>
                    <path id="Trazado_300030" data-name="Trazado 300030" d="M4687.528,244.36l2.166-1.25,1.652.954-2.166,1.25Z" transform="translate(-4671.951 -225.39)" fill="#fff"/>
                    <path id="Trazado_300031" data-name="Trazado 300031" d="M4699.545,241.254l-1.081.625-.355.2-2.165,1.25-.354.2-2.166,1.25-.354.2-2.167,1.25-2.518,1.454,1.653.954,2.518-1.454,2.166-1.25.354-.2,2.166-1.25.353-.2,2.167-1.25.353-.2,1.083-.625,1.083-.625-1.651-.954Z" transform="translate(-4670.292 -230.181)" fill="#fff"/>
                    <path id="Trazado_300032" data-name="Trazado 300032" d="M4692.685,241.383l2.165-1.25,1.651.954-2.165,1.25Z" transform="translate(-4661.993 -231.139)" fill="#fff"/>
                    <path id="Trazado_300033" data-name="Trazado 300033" d="M4693.545,240.886l2.166-1.25,1.651.954-2.166,1.25Z" transform="translate(-4660.335 -232.097)" fill="#fff"/>
                    <path id="Trazado_300034" data-name="Trazado 300034" d="M4694.4,240.39l2.166-1.25,1.651.954-2.166,1.25Z" transform="translate(-4658.676 -233.056)" fill="#fff"/>
                  </g>
                  <g id="Grupo_842571" data-name="Grupo 842571" transform="translate(28.802)">
                    <path id="Trazado_300035" data-name="Trazado 300035" d="M4692.04,237.6l2.166-1.25,1.652.954-2.166,1.25Z" transform="translate(-4692.04 -233.444)" fill="#fff"/>
                    <path id="Trazado_300036" data-name="Trazado 300036" d="M4692.9,237.106l2.165-1.25,1.652.954-2.166,1.25Z" transform="translate(-4690.381 -234.402)" fill="#fff"/>
                    <path id="Trazado_300037" data-name="Trazado 300037" d="M4693.76,236.61l2.166-1.25,1.65.954-2.164,1.25Z" transform="translate(-4688.721 -235.36)" fill="#fff"/>
                    <path id="Trazado_300038" data-name="Trazado 300038" d="M4693.051,238.186l2.166-1.25,1.653.954-2.166,1.25Z" transform="translate(-4690.089 -232.317)" fill="#fff"/>
                    <path id="Trazado_300039" data-name="Trazado 300039" d="M4693.911,237.69l2.165-1.25,1.653.954-2.166,1.25Z" transform="translate(-4688.43 -233.275)" fill="#fff"/>
                    <path id="Trazado_300040" data-name="Trazado 300040" d="M4694.769,237.194l2.167-1.25,1.652.954-2.166,1.25Z" transform="translate(-4686.769 -234.233)" fill="#fff"/>
                    <path id="Trazado_300041" data-name="Trazado 300041" d="M4693.7,238.559l2.166-1.25,1.653.954-2.166,1.25Z" transform="translate(-4688.841 -231.597)" fill="#fff"/>
                    <path id="Trazado_300042" data-name="Trazado 300042" d="M4694.557,238.063l2.166-1.25,1.651.954-2.166,1.25Z" transform="translate(-4687.18 -232.555)" fill="#fff"/>
                    <path id="Trazado_300043" data-name="Trazado 300043" d="M4695.416,237.567l2.166-1.251,1.653.954-2.166,1.25Z" transform="translate(-4685.521 -233.513)" fill="#fff"/>
                    <path id="Trazado_300044" data-name="Trazado 300044" d="M4694.343,238.932l2.166-1.25,1.652.954-2.165,1.25Z" transform="translate(-4687.593 -230.876)" fill="#fff"/>
                    <path id="Trazado_300045" data-name="Trazado 300045" d="M4695.2,238.436l2.167-1.25,1.65.954-2.164,1.25Z" transform="translate(-4685.935 -231.835)" fill="#fff"/>
                    <path id="Trazado_300046" data-name="Trazado 300046" d="M4696.063,237.94l2.166-1.25,1.651.954-2.166,1.25Z" transform="translate(-4684.274 -232.793)" fill="#fff"/>
                    <path id="Trazado_300047" data-name="Trazado 300047" d="M4698.169,238.428l-.659.381-2.521,1.455,1.653.954,2.52-1.454.659-.381,1.5-.869-1.65-.954Z" transform="translate(-4686.346 -231.114)" fill="#fff"/>
                    <path id="Trazado_300048" data-name="Trazado 300048" d="M4696.709,238.313l2.166-1.25,1.652.954-2.167,1.25Z" transform="translate(-4683.026 -232.073)" fill="#fff"/>
                    <path id="Trazado_300049" data-name="Trazado 300049" d="M4695.637,239.679l2.165-1.25,1.652.954-2.166,1.25Z" transform="translate(-4685.098 -229.436)" fill="#fff"/>
                    <path id="Trazado_300050" data-name="Trazado 300050" d="M4696.5,239.182l2.166-1.25,1.651.954-2.164,1.25Z" transform="translate(-4683.44 -230.394)" fill="#fff"/>
                    <path id="Trazado_300051" data-name="Trazado 300051" d="M4697.356,238.686l2.165-1.25,1.653.954-2.167,1.25Z" transform="translate(-4681.779 -231.352)" fill="#fff"/>
                  </g>
                </g>
              </g>
              <g id="Grupo_842581" data-name="Grupo 842581" transform="translate(117.163 78.135)">
                <path id="Trazado_300052" data-name="Trazado 300052" d="M4696.737,233.239l2.1-1.219,1.9.61-2.317,1.346Z" transform="translate(-4694.08 -231.209)" fill="#748597"/>
                <g id="Grupo_842576" data-name="Grupo 842576" transform="translate(2.994 0.545)">
                  <g id="Grupo_842574" data-name="Grupo 842574">
                    <path id="Trazado_300053" data-name="Trazado 300053" d="M4706.488,237.864l-5.166,3c.169-.1.222-.419.081-.783a12.121,12.121,0,0,0-4.551-5.152l5.164-3a12.1,12.1,0,0,1,4.552,5.152C4706.708,237.445,4706.654,237.767,4706.488,237.864Z" transform="translate(-4696.852 -231.929)" fill="#748597"/>
                  </g>
                  <g id="Grupo_842575" data-name="Grupo 842575">
                    <path id="Trazado_300054" data-name="Trazado 300054" d="M4706.488,237.864l-5.166,3c.169-.1.222-.419.081-.783a12.121,12.121,0,0,0-4.551-5.152l5.164-3a12.1,12.1,0,0,1,4.552,5.152C4706.708,237.445,4706.654,237.767,4706.488,237.864Z" transform="translate(-4696.852 -231.929)" fill="#666"/>
                  </g>
                </g>
                <g id="Grupo_842579" data-name="Grupo 842579" transform="translate(0 3)">
                  <g id="Grupo_842577" data-name="Grupo 842577">
                    <path id="Trazado_300055" data-name="Trazado 300055" d="M4698.824,233.312a12.109,12.109,0,0,1,4.55,5.152c.207.528,0,.97-.367.759l-6.558-3.787a1.484,1.484,0,0,1-.6-1.421C4696.206,232.471,4697.44,232.512,4698.824,233.312Z" transform="translate(-4695.829 -232.767)" fill="#0e0e14"/>
                  </g>
                  <g id="Grupo_842578" data-name="Grupo 842578">
                    <path id="Trazado_300056" data-name="Trazado 300056" d="M4698.824,233.312a12.109,12.109,0,0,1,4.55,5.152c.207.528,0,.97-.367.759l-6.558-3.787a1.484,1.484,0,0,1-.6-1.421C4696.206,232.471,4697.44,232.512,4698.824,233.312Z" transform="translate(-4695.829 -232.767)" fill="#1a1a1a"/>
                  </g>
                </g>
                <g id="Grupo_842580" data-name="Grupo 842580" transform="translate(0.707)">
                  <path id="Trazado_300057" data-name="Trazado 300057" d="M4699.107,233.7l2.439-1.416a2.39,2.39,0,0,0-2.286-.381l-2.167,1.257a1.676,1.676,0,0,1,.3-.053A3.282,3.282,0,0,1,4699.107,233.7Z" transform="translate(-4694.094 -231.743)" fill="#999"/>
                  <path id="Trazado_300058" data-name="Trazado 300058" d="M4698.6,232.447c-1.284.727,1.526-.9-2.534,1.46a2.391,2.391,0,0,1,2.287.381l2.576-1.5A2.332,2.332,0,0,0,4698.6,232.447Z" transform="translate(-4696.07 -230.742)" fill="#999"/>
                </g>
              </g>
              <path id="Trazado_300059" data-name="Trazado 300059" d="M4715.4,246.35l-4.76-2.94-5.6-4.507-4.6-.841-2.836.191a1.192,1.192,0,0,0-.584.2l-.526.355-.713.135a1.176,1.176,0,0,0-.934.92l-.71.53a.619.619,0,0,0,.446.994l.97-.182,1.781.188,2.953.958,1.972,2.529s-.213.668-.331.724a11.823,11.823,0,0,1-2.917.7l-1,.012c-.835.393-1.187,1.163-.29,1.4l1.392.308,5.36.44,4.009-.583,4.74,2.676Z" transform="translate(-4582.202 -141.408)" fill="#f29b79"/>
              <path id="Trazado_300060" data-name="Trazado 300060" d="M4721.766,258.58s-19.064-10.63-25.921-3.086c-5.821,6.41,7.87,35.023,6.792,46.13a5.836,5.836,0,0,1-6.792.926c-3.729.481-5.31,2-5.861,4.012v3.086l7.558,3.239,13.886,1.7.619-6.48c-2.609-10.724-1.083-21.289-1.389-33.17l25.148,14.5,17.28-3.242,4.476-22.37Z" transform="translate(-4589.953 -112.974)" fill="#ffb294"/>
              <g id="Grupo_842582" data-name="Grupo 842582" transform="translate(114.016 143.907)">
                <path id="Trazado_300061" data-name="Trazado 300061" d="M4735.59,306.355l32.931-19.129a2.139,2.139,0,0,0,.882-1.964l-.012-4.472a6.7,6.7,0,0,0-3.046-5.237L4729.827,254.6a2.124,2.124,0,0,0-2.143-.205l-32.929,19.126Z" transform="translate(-4694.755 -254.185)"/>
              </g>
              <path id="Trazado_300062" data-name="Trazado 300062" d="M4699.577,271.139a7.7,7.7,0,0,0-4.827,2.7,1.6,1.6,0,0,0,.118,2.233c1.278,1.172,3.5,2.963,5.495,3.359,6.249,1.234,12.574-3.974,14.625-3.464,2.006,2.383,2.506,5.445,1.882,9.018a7.589,7.589,0,0,1-5.938,1.967c-2.439-.255-6.248-2.969-6.248-2.969a31.4,31.4,0,0,1-13.193-5.322,12.37,12.37,0,0,1-3.086-6.943c0-2.008,1.542-2.74,3.548-2.468Z" transform="translate(-4593.001 -81.293)" fill="#e64047"/>
              <path id="Trazado_300063" data-name="Trazado 300063" d="M4762.024,278.359c-3.209,14.035-13.466,19.349-26.694,19.361-14.858-1.635-28.361-12.892-41.487-26.764a16.849,16.849,0,0,1-.8-4.376c-.246-6,3.355-11.67,13.6-16.764l33.327,6.081,18.253,3.332A24.909,24.909,0,0,1,4762.024,278.359Z" transform="translate(-4584.078 -118.714)" fill="#4d5865"/>
              <path id="Trazado_300064" data-name="Trazado 300064" d="M4739.961,255.9l-15.534,20.92c-8.215-12.034-20.822-.894-31.389-10.237-.246-6,3.355-11.67,13.6-16.764Z" transform="translate(-4584.078 -118.714)" fill="#4d5865" opacity="0.5" style="mix-blend-mode: multiply;isolation: isolate"/>
              <path id="Trazado_300065" data-name="Trazado 300065" d="M4703.419,247.7c-2.536.7-3.988,1.208-3.607,3.446,7.531,4.839,11.964,11.609,21.162,11.53l23.548-12.5c1.894-5.706-.572-14.809-11.683-12.8l-14.517,14.478Z" transform="translate(-4571.095 -143.294)" fill="#f29b79"/>
              <path id="Trazado_300066" data-name="Trazado 300066" d="M4749.162,295.656c-6.988,6.565-15.744,10.99-23.354,11.62-7.32.61-13.577-2.289-16.171-10.158.736-5.911,1.573-12.163-.856-18.127a12.652,12.652,0,0,1-5.339-2.541,9.458,9.458,0,0,1-3.456-7.641c0-5.905,11.006-17.28,11.006-17.28,6.548-7.239,13.558-12.529,21.395-14.349,0,0,10.162,1.377,11.569,11.881,1.7,12.649-3.7,19.44-.151,29.777C4746.735,283.775,4748.123,288.406,4749.162,295.656Z" transform="translate(-4570.643 -143.107)" fill="#e64047"/>
              <path id="Trazado_300067" data-name="Trazado 300067" d="M4704.941,239.848l.593,11.7c4.578,3.637,17.134-.311,14.854-5.741l-1.944-10.533Z" transform="translate(-4561.073 -146.793)" fill="#ffb294"/>
              <path id="Trazado_300068" data-name="Trazado 300068" d="M4698.264,259.328l-1.8-4.478-2.811-2.151-2.807-5.246-1.563-1.952-.812-.3-1.11-.463c-1.095-.352-.792-1.565.333-1.372l2.107.566,1.978,1.436.331-.478-1.771-2.611-1.315-.967c-.665-.273-.612-1.454.5-1.4l1.5.428,1.134-.155a2.542,2.542,0,0,1,1.65.337l.923.557,1.625-.275a1.4,1.4,0,0,1,1.4.6l1.477,2.21,1.469,3.007a4.982,4.982,0,0,1,1.674,2.344c.334.991-.807,4.042-.807,4.042l2.333,3.611Z" transform="translate(-4596.337 -137.845)" fill="#ffb294"/>
              <path id="Trazado_300069" data-name="Trazado 300069" d="M4723.629,287.512c-7.418.659-13.675-2.239-16.27-10.108.736-5.911,1.574-12.163-.855-18.127a12.645,12.645,0,0,1-5.339-2.541l.4-4.179,12.035-5.164C4719.926,262.519,4701.395,282.75,4723.629,287.512Z" transform="translate(-4568.366 -123.392)" fill="#7a1c1c" opacity="0.5" style="mix-blend-mode: multiply;isolation: isolate"/>
              <path id="Trazado_300070" data-name="Trazado 300070" d="M4690.017,246.27c.8,8.549,6.952,19.915,10.791,22.426,9.408.205,20.108-1.914,30.776-6.483,7.286-2.582,3.619-17.233-5.266-14.235,0,0-21.745,9.094-22.047,9.021s-9.153-12.576-9.153-12.576C4692.815,244.134,4690.959,244.7,4690.017,246.27Z" transform="translate(-4589.891 -129.266)" fill="#ffb294"/>
              <g id="Grupo_842583" data-name="Grupo 842583" transform="translate(148.109 99.517)">
                <path id="Trazado_300071" data-name="Trazado 300071" d="M4717.789,258.289l-.668,29.032-7.481,38.51,32.98-19.041a1.76,1.76,0,0,0,.464-.4c7.72-9.613,15.728-26.705,13.1-61.763a7.084,7.084,0,0,0-3.165-5.152,2.224,2.224,0,0,0-2.247-.217Z" transform="translate(-4700.116 -239.039)"/>
                <path id="Trazado_300072" data-name="Trazado 300072" d="M4708.909,310.409l4.561,2.635c1.178.677,2.281.624,2.91-.158,7.72-9.613,15.728-26.705,13.1-61.763a7.1,7.1,0,0,0-3.168-5.155c-1.667-.961-3.051-.273-3.168,1.577-1.455,22.473-5.409,42.349-16.388,57.191C4705.745,306.1,4706.943,309.272,4708.909,310.409Z" transform="translate(-4706.388 -226.498)" fill="#333"/>
              </g>
              <path id="Trazado_300073" data-name="Trazado 300073" d="M4697.509,272.587l36.521,20.958c1.676.961,3.031.176,3.025-1.755l-.013-4.472a6.7,6.7,0,0,0-3.042-5.24l-36.521-20.955c-1.676-.961-3.029-.176-3.025,1.755l.012,4.472A6.686,6.686,0,0,0,4697.509,272.587Z" transform="translate(-4581.32 -97.676)" fill="#333"/>
              <path id="Trazado_300074" data-name="Trazado 300074" d="M4705.843,234.443s-13.217,9.894,6.136,25.949c0,0,9.791,3.262,14.014-2.717,7.95-11.257,7.333-24.976-3.253-28.83S4703.208,229.49,4705.843,234.443Z" transform="translate(-4567.839 -162.009)"/>
            </g>
            <path id="Trazado_300075" data-name="Trazado 300075" d="M4661,255.793l31.263,17.914,20.4-11.69L4681.4,244.1Z" transform="translate(-4602.377 -129.743)" fill="#f2f2f2"/>
            <path id="Trazado_300076" data-name="Trazado 300076" d="M4664.783,254.705l31.262,17.914,20.4-11.69-31.261-17.914Z" transform="translate(-4595.076 -131.844)" fill="#fff"/>
          </g>
          <path id="Trazado_300077" data-name="Trazado 300077" d="M4674.017,235.218l-2.741-3.895c-6.383-3.526-11.377-6.175-14.92-6.175l-4.244-.067,6.4,7.5Z" transform="translate(-4619.543 -166.473)" fill="#fff"/>
          <path id="Trazado_300078" data-name="Trazado 300078" d="M4680.5,236.815s-11.67.416-21.943-5.437a44.97,44.97,0,0,1-8.044-5.662,16.309,16.309,0,0,1,7.294-.443c3.3,3.068,12.608,5.689,17.382,7.573Z" transform="translate(-4622.629 -166.529)" fill="#333942"/>
        </g>
      </g>
    </g>
  </g>
</svg>
