<svg xmlns="http://www.w3.org/2000/svg" width="268" height="247.988" viewBox="0 0 268 247.988">
  <g id="Grupo_68530" data-name="Grupo 68530" transform="translate(-49.649 -78.473)">
    <path id="Trazado_134097" data-name="Trazado 134097" d="M272.735,115.84c-.316,0-.589.633-.724,1.557-.029.2-.138.35-.271.368l-1.446.192c-.139.018-.267-.114-.314-.319-.09-.4-.232-.675-.394-.749a10.548,10.548,0,0,0-1.825-4.364c.074-.163-.013-.459-.236-.815-.112-.177-.115-.362,0-.447l1.158-.887a.392.392,0,0,1,.452.069c.749.558,1.39.812,1.613.589.317-.317-.329-1.477-1.443-2.591s-2.274-1.759-2.591-1.443c-.223.223.03.864.589,1.613a.393.393,0,0,1,.068.452l-.886,1.158c-.086.112-.269.108-.447,0-.369-.232-.675-.318-.834-.228a10.548,10.548,0,0,0-4.326-1.755c-.007-.2-.308-.368-.768-.473-.2-.047-.337-.175-.318-.314L259.98,106c.018-.132.167-.242.368-.271.924-.134,1.557-.408,1.557-.724,0-.449-1.277-.812-2.852-.812s-2.853.363-2.853.812c0,.316.633.589,1.558.724.2.029.35.139.368.271l.192,1.446c.018.139-.114.267-.318.314-.466.107-.77.281-.77.479,0,.006.005.012.005.018a10.545,10.545,0,0,0-4.256,1.8.2.2,0,0,0-.024-.046c-.14-.14-.479-.049-.884.2-.177.112-.361.115-.447,0l-.887-1.158a.392.392,0,0,1,.069-.452c.558-.749.813-1.39.589-1.613-.317-.317-1.477.329-2.591,1.443s-1.76,2.274-1.443,2.591c.223.223.864-.03,1.613-.589a.391.391,0,0,1,.451-.069l1.158.887c.112.085.109.269,0,.447-.254.4-.346.744-.206.883a.216.216,0,0,0,.059.031,10.54,10.54,0,0,0-1.751,4.268.221.221,0,0,0-.078-.025c-.2,0-.373.3-.479.77-.047.2-.175.337-.314.319l-1.446-.192c-.133-.018-.242-.166-.271-.368-.134-.924-.408-1.557-.724-1.557-.448,0-.812,1.277-.812,2.852s.364,2.853.812,2.853c.316,0,.589-.633.724-1.557.03-.2.139-.351.271-.368l1.446-.192c.139-.018.266.114.314.318.106.466.281.77.479.77a.223.223,0,0,0,.076-.024,10.542,10.542,0,0,0,1.747,4.272.2.2,0,0,0-.052.027c-.14.14-.049.479.206.884.112.177.115.361,0,.447l-1.158.887a.391.391,0,0,1-.451-.069c-.748-.558-1.39-.812-1.613-.589-.317.317.329,1.478,1.443,2.592s2.274,1.759,2.591,1.442c.223-.223-.031-.864-.589-1.613a.391.391,0,0,1-.069-.451l.887-1.158c.086-.112.269-.109.447,0,.4.254.744.346.884.206.009-.009.011-.025.019-.036a10.539,10.539,0,0,0,4.257,1.8v0c0,.2.3.373.77.48.2.047.336.174.318.313l-.192,1.447c-.018.132-.167.241-.368.271-.925.134-1.558.408-1.558.724,0,.449,1.277.812,2.853.812s2.852-.363,2.852-.812c0-.316-.633-.589-1.557-.724-.2-.03-.35-.139-.368-.271l-.192-1.447c-.019-.139.113-.266.318-.313.449-.1.745-.269.765-.459a10.554,10.554,0,0,0,4.34-1.764c.162.081.462-.006.822-.233.178-.112.362-.115.447,0l.886,1.158a.392.392,0,0,1-.068.451c-.559.749-.813,1.39-.589,1.613.317.317,1.477-.329,2.591-1.442s1.76-2.274,1.443-2.592c-.223-.223-.864.031-1.613.589a.392.392,0,0,1-.452.069l-1.158-.887c-.111-.086-.108-.269,0-.447.219-.349.307-.641.24-.806a10.546,10.546,0,0,0,1.824-4.374c.161-.075.3-.352.392-.748.047-.2.175-.336.314-.318l1.446.192c.132.018.242.167.271.368.134.924.408,1.557.724,1.557.449,0,.812-1.277.812-2.853S273.184,115.84,272.735,115.84Z" transform="translate(-58.38 -15.651)" fill="#8eb2c2"/>
    <g id="Grupo_68479" data-name="Grupo 68479" transform="translate(83.074 111.664)">
      <g id="Grupo_68476" data-name="Grupo 68476" transform="translate(78.917 10.304)">
        <path id="Trazado_134098" data-name="Trazado 134098" d="M230.834,167.212a6.7,6.7,0,0,1-1.455-.623c-5.663-3.172-10.755-6.205-10.806-6.235a.435.435,0,0,1,.445-.746c.05.03,5.133,3.057,10.785,6.223,1.325.742,2.341.857,3.02.341,1.655-1.256,1.494-6.151.479-10.338-1.291-5.329-9.2-7.85-12.153-7.706a27.015,27.015,0,0,0-6.57,1.314.435.435,0,0,1-.288-.82,27.39,27.39,0,0,1,6.816-1.362c3.738-.184,11.724,2.933,13.04,8.369.809,3.335,1.55,9.454-.8,11.236A2.744,2.744,0,0,1,230.834,167.212Z" transform="translate(-214.002 -147.252)" fill="#97e8ce"/>
      </g>
      <g id="Grupo_68477" data-name="Grupo 68477" transform="translate(0 12.369)">
        <path id="Trazado_134099" data-name="Trazado 134099" d="M114.331,166.989a26.3,26.3,0,0,1-2.836-.964c-4.377-1.786-7.2-4.468-8.38-7.971-1.1-3.263-1.018-5.469.262-6.743,2.555-2.543,9.2-.262,14.058,1.405.688.235,1.336.458,1.927.651,6.218,2.034,9.361.918,9.392.907a.434.434,0,1,1,.3.815c-.138.051-3.461,1.223-9.963-.9-.594-.194-1.247-.418-1.939-.655-4.378-1.5-10.991-3.773-13.163-1.612-1.007,1-1.025,2.971-.052,5.849,1.1,3.253,3.752,5.758,7.885,7.444,8.313,3.391,21.223,2.526,27.212-.515a.435.435,0,0,1,.394.775C133.9,168.289,122.876,169.378,114.331,166.989Z" transform="translate(-102.348 -150.173)" fill="#97e8ce"/>
      </g>
      <path id="Trazado_134100" data-name="Trazado 134100" d="M198.19,156.3l-5.309-11.927a.873.873,0,0,0-.533-.479c-2.6-.808-4.644-2.378-13.4-8.757-9.166-6.676-18.923,2.03-24.187,5.071-3.93,2.27-13.008,6.919-16.11,8.5a.88.88,0,0,0-.233,1.4l10.311,10.66a.884.884,0,0,0,.722.264c6.839-.655,7.513,1.433,17.078,2.732,9.76,1.325,15.958-.753,21.005-4.456a12.322,12.322,0,0,1,9.681-1.782A.88.88,0,0,0,198.19,156.3Z" transform="translate(-112.851 -132.674)" fill="#97e8ce"/>
      <path id="Trazado_134101" data-name="Trazado 134101" d="M144.925,152.215a1.2,1.2,0,0,1,.315-1.909c4.147-2.133,9.775-5.067,12.706-6.761.871-.5,1.831-1.133,2.846-1.8,4.192-2.754,9.933-6.524,15.239-5.04a10.254,10.254,0,0,1,3.263,1.619l1.718,1.252c6.471,4.718,8.9,6.489,11.237,7.454a1.2,1.2,0,0,1,.638.621l2.858,6.421a1.208,1.208,0,0,1-1.009,1.691,13.452,13.452,0,0,0-6.863,2.517c-5.225,3.834-11.119,5.06-19.111,3.974a52.383,52.383,0,0,1-7.641-1.587l-1.007-.283a21.284,21.284,0,0,0-7.658-.975,1.2,1.2,0,0,1-.925-.365Z" transform="translate(-114.732 -133.758)" fill="#52d1ce"/>
      <g id="Grupo_68478" data-name="Grupo 68478" transform="translate(30.621 4.719)">
        <path id="Trazado_134102" data-name="Trazado 134102" d="M158.258,147.471c.927-.536,1.944-1.2,3.021-1.911,4.381-2.877,10.383-6.819,15.861-5.287a10.553,10.553,0,0,1,3.354,1.665l1.816,1.325c6.862,5,9.429,6.874,11.929,7.906a.285.285,0,0,0,.148.016l-.321-.722c-2.328-1.045-4.96-2.963-11.417-7.669l-1.815-1.323a11.106,11.106,0,0,0-3.539-1.755c-5.732-1.6-11.86,2.421-16.337,5.362-1.069.7-2.078,1.364-2.99,1.892-2.831,1.636-8.044,4.367-12.3,6.561l.421.435C150.322,151.782,155.453,149.092,158.258,147.471Z" transform="translate(-145.671 -139.35)" fill="#97e8ce"/>
        <path id="Trazado_134103" data-name="Trazado 134103" d="M197,156.477c-2.436-1.006-4.988-2.865-11.811-7.84l-1.816-1.323a11.11,11.11,0,0,0-3.538-1.755c-5.732-1.6-11.861,2.421-16.348,5.369-1.064.7-2.07,1.359-2.98,1.885-2.437,1.409-6.641,3.629-10.478,5.62l.42.435c3.8-1.973,7.935-4.158,10.348-5.553.924-.534,1.937-1.2,3.02-1.91,4.382-2.878,10.383-6.819,15.861-5.288a10.529,10.529,0,0,1,3.353,1.666l1.82,1.326c6.86,5,9.427,6.872,11.927,7.9a.285.285,0,0,0,.379-.157A.291.291,0,0,0,197,156.477Z" transform="translate(-146.95 -141.064)" fill="#97e8ce"/>
        <path id="Trazado_134104" data-name="Trazado 134104" d="M185.919,153.157a11.11,11.11,0,0,0-3.539-1.756c-5.732-1.6-11.86,2.422-16.348,5.37-1.064.7-2.07,1.358-2.98,1.884-2.056,1.188-5.371,2.955-8.662,4.674l.013.014a1.208,1.208,0,0,0,.585.328c3.187-1.668,6.359-3.362,8.354-4.514.924-.534,1.937-1.2,3.021-1.91,4.381-2.878,10.383-6.819,15.861-5.287a10.531,10.531,0,0,1,3.354,1.665l1.816,1.324c3.527,2.571,5.918,4.314,7.75,5.542q.389-.1.773-.182c-1.873-1.229-4.356-3.04-8.183-5.83Z" transform="translate(-148.228 -142.777)" fill="#97e8ce"/>
        <path id="Trazado_134105" data-name="Trazado 134105" d="M190.166,159a11.1,11.1,0,0,0-3.538-1.756c-5.732-1.6-11.861,2.422-16.336,5.361-1.068.7-2.077,1.364-2.992,1.893-.76.44-1.694.959-2.734,1.525.271.067.544.139.818.213.826-.454,1.576-.872,2.205-1.236.929-.537,1.945-1.2,3.02-1.91,4.382-2.878,10.383-6.82,15.861-5.288a10.542,10.542,0,0,1,3.353,1.665l1.82,1.327c1.333.971,2.5,1.824,3.542,2.576.192-.1.384-.2.578-.3-1.1-.793-2.345-1.7-3.784-2.75Z" transform="translate(-151.211 -144.49)" fill="#97e8ce"/>
        <path id="Trazado_134106" data-name="Trazado 134106" d="M193.827,164.843a11.139,11.139,0,0,0-3.539-1.756c-5.731-1.6-11.859,2.422-16.336,5.362-.414.272-.816.535-1.211.79.26.056.528.112.807.168l.724-.474c4.381-2.877,10.382-6.819,15.86-5.287a10.533,10.533,0,0,1,3.354,1.666l1.778,1.3c.169-.113.336-.233.5-.351l-.125-.091Z" transform="translate(-153.608 -146.203)" fill="#97e8ce"/>
      </g>
    </g>
    <g id="Grupo_68483" data-name="Grupo 68483" transform="translate(108.7 124.742)">
      <g id="Grupo_68480" data-name="Grupo 68480" transform="translate(78.917 10.304)">
        <path id="Trazado_134107" data-name="Trazado 134107" d="M267.091,185.714a6.7,6.7,0,0,1-1.454-.623c-5.663-3.172-10.755-6.2-10.806-6.235a.435.435,0,0,1,.445-.747c.051.03,5.134,3.058,10.786,6.223,1.325.742,2.341.857,3.02.341,1.655-1.256,1.494-6.151.479-10.338-1.291-5.329-9.2-7.85-12.153-7.7a26.958,26.958,0,0,0-6.57,1.314.435.435,0,0,1-.288-.821,27.407,27.407,0,0,1,6.816-1.362c3.737-.184,11.723,2.933,13.04,8.369.809,3.335,1.55,9.454-.8,11.236A2.742,2.742,0,0,1,267.091,185.714Z" transform="translate(-250.258 -165.754)" fill="#9de2f5"/>
      </g>
      <g id="Grupo_68481" data-name="Grupo 68481" transform="translate(0 12.369)">
        <path id="Trazado_134108" data-name="Trazado 134108" d="M150.588,185.491a25.944,25.944,0,0,1-2.836-.964c-4.376-1.786-7.2-4.468-8.381-7.971-1.1-3.263-1.018-5.469.262-6.743,2.554-2.543,9.2-.262,14.058,1.405.687.235,1.336.458,1.926.651,6.218,2.035,9.362.918,9.393.907a.435.435,0,1,1,.3.816c-.139.051-3.461,1.223-9.964-.9-.594-.194-1.247-.418-1.938-.655-4.378-1.5-10.991-3.773-13.163-1.612-1.008,1-1.025,2.971-.052,5.849,1.1,3.253,3.752,5.758,7.885,7.444,8.313,3.391,21.222,2.527,27.212-.515a.435.435,0,1,1,.394.775C170.154,186.791,159.133,187.88,150.588,185.491Z" transform="translate(-138.604 -168.675)" fill="#9de2f5"/>
      </g>
      <path id="Trazado_134109" data-name="Trazado 134109" d="M234.447,174.8l-5.31-11.927a.869.869,0,0,0-.532-.479c-2.6-.809-4.644-2.379-13.4-8.758-9.167-6.676-18.923,2.03-24.187,5.071-3.93,2.27-13.008,6.919-16.11,8.5a.88.88,0,0,0-.233,1.4l10.312,10.661a.887.887,0,0,0,.722.264c6.839-.655,7.513,1.433,17.078,2.732,9.76,1.325,15.957-.753,21.005-4.456a12.322,12.322,0,0,1,9.681-1.782A.88.88,0,0,0,234.447,174.8Z" transform="translate(-149.107 -151.176)" fill="#9de2f5"/>
      <path id="Trazado_134110" data-name="Trazado 134110" d="M181.182,170.717a1.2,1.2,0,0,1,.314-1.909c4.147-2.133,9.776-5.067,12.707-6.761.871-.5,1.831-1.134,2.846-1.8,4.192-2.753,9.933-6.524,15.239-5.04a10.244,10.244,0,0,1,3.262,1.619l1.718,1.252c6.471,4.717,8.9,6.488,11.237,7.453a1.2,1.2,0,0,1,.638.621L232,172.575a1.207,1.207,0,0,1-1.009,1.691,13.453,13.453,0,0,0-6.863,2.517c-5.225,3.834-11.12,5.06-19.112,3.975a52.507,52.507,0,0,1-7.641-1.588l-1.007-.283a21.284,21.284,0,0,0-7.658-.975,1.2,1.2,0,0,1-.924-.365Z" transform="translate(-150.989 -152.26)" fill="#5598de"/>
      <g id="Grupo_68482" data-name="Grupo 68482" transform="translate(30.621 4.719)">
        <path id="Trazado_134111" data-name="Trazado 134111" d="M194.515,165.973c.927-.536,1.943-1.2,3.021-1.911,4.381-2.878,10.382-6.819,15.861-5.288a10.537,10.537,0,0,1,3.353,1.666l1.816,1.324c6.862,5,9.43,6.874,11.929,7.906a.28.28,0,0,0,.149.016l-.322-.722c-2.328-1.045-4.96-2.963-11.417-7.67l-1.815-1.323a11.119,11.119,0,0,0-3.538-1.755c-5.732-1.6-11.861,2.421-16.337,5.362-1.069.7-2.078,1.364-2.99,1.892-2.831,1.636-8.044,4.367-12.3,6.562l.421.435C186.579,170.284,191.71,167.595,194.515,165.973Z" transform="translate(-181.927 -157.853)" fill="#9de2f5"/>
        <path id="Trazado_134112" data-name="Trazado 134112" d="M233.26,174.979c-2.436-1.006-4.987-2.865-11.811-7.84l-1.815-1.322a11.1,11.1,0,0,0-3.539-1.756c-5.731-1.6-11.86,2.422-16.348,5.369-1.064.7-2.069,1.359-2.979,1.885-2.437,1.409-6.641,3.629-10.478,5.62l.421.435c3.8-1.973,7.935-4.158,10.348-5.553.924-.534,1.936-1.2,3.02-1.91,4.381-2.879,10.383-6.82,15.861-5.288a10.535,10.535,0,0,1,3.353,1.665l1.82,1.326c6.86,5,9.427,6.872,11.927,7.9a.284.284,0,0,0,.378-.157A.29.29,0,0,0,233.26,174.979Z" transform="translate(-183.206 -159.566)" fill="#9de2f5"/>
        <path id="Trazado_134113" data-name="Trazado 134113" d="M222.176,171.659a11.113,11.113,0,0,0-3.538-1.756c-5.732-1.6-11.861,2.422-16.348,5.37-1.064.7-2.07,1.359-2.979,1.884-2.056,1.188-5.371,2.955-8.662,4.675l.013.014a1.2,1.2,0,0,0,.584.327c3.188-1.668,6.36-3.362,8.354-4.514.924-.534,1.936-1.2,3.021-1.91,4.381-2.878,10.382-6.819,15.861-5.287a10.542,10.542,0,0,1,3.353,1.665l1.816,1.324c3.528,2.571,5.919,4.314,7.751,5.543.259-.069.517-.129.773-.182-1.873-1.229-4.356-3.039-8.184-5.83Z" transform="translate(-184.484 -161.279)" fill="#9de2f5"/>
        <path id="Trazado_134114" data-name="Trazado 134114" d="M226.423,177.5a11.114,11.114,0,0,0-3.539-1.755c-5.731-1.6-11.86,2.421-16.336,5.361-1.067.7-2.076,1.363-2.991,1.893-.761.439-1.694.958-2.734,1.525.271.067.544.139.818.213.826-.453,1.576-.872,2.205-1.236.929-.537,1.945-1.2,3.02-1.91,4.381-2.878,10.383-6.82,15.861-5.288a10.549,10.549,0,0,1,3.353,1.665l1.82,1.327c1.333.972,2.5,1.824,3.542,2.576q.288-.157.578-.3c-1.1-.793-2.344-1.7-3.784-2.75Z" transform="translate(-187.467 -162.992)" fill="#9de2f5"/>
        <path id="Trazado_134115" data-name="Trazado 134115" d="M230.083,183.346a11.11,11.11,0,0,0-3.538-1.755c-5.732-1.6-11.86,2.421-16.336,5.361-.415.272-.817.535-1.211.79.26.056.527.112.807.168l.723-.474c4.382-2.877,10.383-6.819,15.861-5.287a10.529,10.529,0,0,1,3.353,1.666l1.779,1.3c.169-.113.336-.233.5-.351l-.125-.091Z" transform="translate(-189.864 -164.706)" fill="#9de2f5"/>
      </g>
    </g>
    <g id="Grupo_68485" data-name="Grupo 68485" transform="translate(192.051 191.281)">
      <g id="Grupo_68484" data-name="Grupo 68484">
        <path id="Trazado_134116" data-name="Trazado 134116" d="M256.735,276.394a25.51,25.51,0,0,1,2.279-14.233,23.555,23.555,0,0,1,9.905-10.423c6.328-3.408,13.921-4.061,20.657-6.421a28.146,28.146,0,0,0-1.021,4.237c-.462,1.867-.774,3.766-1.078,5.664a51.171,51.171,0,0,1-2.431,10.667c-2.055,5.251-5.937,9.626-10.37,13.11-3.424,2.691-8.53,6.643-13.225,5.936C257.948,284.4,257.092,279.229,256.735,276.394Z" transform="translate(-256.532 -245.317)" fill="#4c4d01"/>
        <path id="Trazado_134117" data-name="Trazado 134117" d="M285.311,253.211c-6.221,3.136-11.654,8.751-15.67,14.349-3.849,5.366-7.514,12.011-8.275,18.67-.085.747,1.041,1.274,1.352.461,2.424-6.329,4.365-12.451,8.229-18.123,4.066-5.971,9.184-10.288,14.76-14.767A.356.356,0,0,0,285.311,253.211Z" transform="translate(-257.948 -247.618)" fill="#213006"/>
      </g>
    </g>
    <g id="Grupo_68486" data-name="Grupo 68486" transform="translate(188.057 220.941)">
      <path id="Trazado_134118" data-name="Trazado 134118" d="M253.181,300.327a25.511,25.511,0,0,1,10.181-10.2,23.557,23.557,0,0,1,14.133-2.651c7.126.941,13.663,4.859,20.506,6.888a28.2,28.2,0,0,0-3.31,2.838c-1.467,1.243-2.832,2.6-4.189,3.96a51.2,51.2,0,0,1-8.216,7.225c-4.741,3.053-10.449,4.328-16.083,4.557-4.352.177-10.8.391-14.2-2.93C249.474,307.532,251.812,302.835,253.181,300.327Z" transform="translate(-250.88 -287.281)" fill="#766f04"/>
      <path id="Trazado_134119" data-name="Trazado 134119" d="M290.248,298.847c-6.879-1.1-14.571.271-21.1,2.459-6.262,2.1-13.124,5.338-17.639,10.292-.506.556.1,1.642.826,1.165,5.671-3.712,10.827-7.539,17.281-9.875,6.792-2.459,13.469-2.962,20.611-3.328A.357.357,0,0,0,290.248,298.847Z" transform="translate(-251.008 -290.559)" fill="#484a04"/>
    </g>
    <g id="Grupo_68487" data-name="Grupo 68487" transform="translate(214.293 224.314)">
      <path id="Trazado_134120" data-name="Trazado 134120" d="M383.085,324.488c7.395,10.825,10.545,25.409,6.481,37.1-7.321,21.063-37.61,25.313-56.812,25.412-10.8.055-21.738-2.1-31.194-7.31-4.866-2.681-9.431-6.305-11.951-11.256-4.269-8.385.965-17.671,4.1-25.607,4.049-10.251,9.763-20.066,18.065-27.315a59.478,59.478,0,0,1,22.717-11.986c2.716-.784,7.509.04,9.658-1.558,3.738-2.78-1.475-7.808.63-9.46a3.263,3.263,0,0,1,2.263-.433c3.933.265,8.509,1.2,11.814,3.4.023.016-6.31,6.12-5.811,7.725,1.01,3.245,4.972,3.753,7.681,4.786a62.759,62.759,0,0,1,11.183,5.446A39,39,0,0,1,383.085,324.488Z" transform="translate(-288 -292.053)" fill="#0a1829"/>
      <path id="Trazado_134121" data-name="Trazado 134121" d="M400.142,333.188a30.65,30.65,0,0,0-8.7-8.666,53.153,53.153,0,0,0-22.912-8.188,7.873,7.873,0,0,0-8.655,7.814v2.8a7.88,7.88,0,0,0,5.171,7.376,95.3,95.3,0,0,1,28,16.514,38.553,38.553,0,0,1,9.021,11.249q.232.437.45.875a1.678,1.678,0,0,0,3.084-.207l.013-.038C408.579,354.19,406.38,342.322,400.142,333.188Z" transform="translate(-309.074 -299.162)" fill="#172f3d"/>
    </g>
    <g id="Grupo_68488" data-name="Grupo 68488" transform="translate(163.492 231.383)">
      <path id="Trazado_134122" data-name="Trazado 134122" d="M311.21,334.488c7.394,10.825,10.545,25.409,6.481,37.1C310.368,392.653,280.08,396.9,260.878,397c-10.8.055-21.738-2.1-31.194-7.31-4.866-2.681-9.43-6.305-11.951-11.256-4.269-8.385.965-17.671,4.1-25.607,4.049-10.251,9.764-20.066,18.065-27.315a59.483,59.483,0,0,1,22.717-11.986c2.717-.784,7.51.04,9.658-1.558,3.738-2.78-1.474-7.808.631-9.46a3.261,3.261,0,0,1,2.263-.433c3.933.265,8.509,1.2,11.814,3.4.023.016-6.309,6.12-5.81,7.725,1.009,3.245,4.972,3.753,7.68,4.786a62.786,62.786,0,0,1,11.184,5.446A39,39,0,0,1,311.21,334.488Z" transform="translate(-216.125 -302.054)" fill="#172f3d"/>
      <path id="Trazado_134123" data-name="Trazado 134123" d="M328.266,343.189a30.645,30.645,0,0,0-8.7-8.666,53.154,53.154,0,0,0-22.912-8.188A7.873,7.873,0,0,0,288,334.15v2.8a7.88,7.88,0,0,0,5.171,7.376,95.306,95.306,0,0,1,28,16.514,38.557,38.557,0,0,1,9.022,11.249q.231.437.45.875a1.678,1.678,0,0,0,3.084-.207l.013-.038C336.7,364.191,334.5,352.323,328.266,343.189Z" transform="translate(-237.199 -309.163)" fill="#214357"/>
    </g>
    <path id="Trazado_134124" data-name="Trazado 134124" d="M109.235,306.247q-.667-.534-1.373-1.049c-5.707-4.164-9.762-10.7-17.4-11.693-7.174-.935-12.927,6.513-14.229,12.885-1.078,5.273-.226,10.729.688,16.032a8.643,8.643,0,0,0-15.411,3c-.883,3.622.65,7.406,2.659,10.547s4.538,5.984,6.009,9.41A13.558,13.558,0,0,0,58.8,348.189a10.7,10.7,0,0,0-3.318,10.969c1.419,4.454,5.807,7.159,9.867,9.474a12.494,12.494,0,0,0-8.27,10.418,8.69,8.69,0,0,0,.85,4.928c2.147,3.988,7.455,4.726,11.977,4.965,17.116.906,34.418,1.448,51.265-1.707,13.819-2.588,12.076-23.3,11.432-33.21a65.651,65.651,0,0,0-2.278-14.711c-1.823-6.056-5.065-11.57-8.277-17.018C118.356,316.031,114.763,310.667,109.235,306.247Z" transform="translate(-5.408 -68.141)" fill="#7a7500"/>
    <g id="Grupo_68496" data-name="Grupo 68496" transform="translate(60.591 92.018)">
      <g id="Grupo_68489" data-name="Grupo 68489" transform="translate(25.116 10.073)">
        <rect id="Rectángulo_34071" data-name="Rectángulo 34071" width="9.955" height="9.955" transform="translate(12.557 9.461) rotate(161.881)" fill="#84d5e6"/>
        <rect id="Rectángulo_34072" data-name="Rectángulo 34072" width="6.769" height="9.955" transform="translate(11.043 9.956) rotate(161.881)" fill="#6aa5d9"/>
        <rect id="Rectángulo_34073" data-name="Rectángulo 34073" width="2.708" height="9.955" transform="matrix(-0.95, 0.311, -0.311, -0.95, 9.113, 10.588)" fill="#84d5e6"/>
      </g>
      <path id="Trazado_134125" data-name="Trazado 134125" d="M107.326,106.853l2.625,8.023a2.868,2.868,0,0,1-1.833,3.617L94.947,122.8a2.866,2.866,0,0,1-3.616-1.833l-.693-2.12a2.867,2.867,0,0,0-3.617-1.833l-15.591,5.1-.892-2.725,33.171-14.374A2.868,2.868,0,0,1,107.326,106.853Z" transform="translate(-70.538 -104.877)" fill="#ebfdff"/>
      <g id="Grupo_68491" data-name="Grupo 68491" transform="translate(23.817 16.947)">
        <rect id="Rectángulo_34074" data-name="Rectángulo 34074" width="18.316" height="7.008" rx="1.662" transform="translate(0 5.696) rotate(-18.119)" fill="#0090b8"/>
        <g id="Grupo_68490" data-name="Grupo 68490" transform="translate(1.907 1.577)">
          <path id="Trazado_134126" data-name="Trazado 134126" d="M126.195,131.123a.756.756,0,0,1,.954.484l1.09,3.33a.757.757,0,0,1-1.438.471l-1.089-3.33A.756.756,0,0,1,126.195,131.123Z" transform="translate(-112.428 -131.086)" fill="#00558f"/>
          <path id="Trazado_134127" data-name="Trazado 134127" d="M122.447,132.349a.756.756,0,0,1,.954.484l1.09,3.33a.757.757,0,1,1-1.438.471l-1.089-3.33A.757.757,0,0,1,122.447,132.349Z" transform="translate(-111.329 -131.445)" fill="#00558f"/>
          <path id="Trazado_134128" data-name="Trazado 134128" d="M118.7,133.576a.756.756,0,0,1,.954.483l1.09,3.33a.757.757,0,0,1-1.438.471l-1.089-3.33A.756.756,0,0,1,118.7,133.576Z" transform="translate(-110.23 -131.805)" fill="#00558f"/>
          <path id="Trazado_134129" data-name="Trazado 134129" d="M114.951,134.8a.756.756,0,0,1,.954.484l1.09,3.33a.757.757,0,1,1-1.438.471l-1.089-3.33A.756.756,0,0,1,114.951,134.8Z" transform="translate(-109.131 -132.164)" fill="#00558f"/>
          <path id="Trazado_134130" data-name="Trazado 134130" d="M111.2,136.028a.757.757,0,0,1,.954.484l1.09,3.33a.757.757,0,1,1-1.438.47l-1.089-3.33A.757.757,0,0,1,111.2,136.028Z" transform="translate(-108.032 -132.524)" fill="#00558f"/>
          <path id="Trazado_134131" data-name="Trazado 134131" d="M107.455,137.255a.756.756,0,0,1,.954.483l1.09,3.33a.756.756,0,1,1-1.438.471l-1.09-3.33A.756.756,0,0,1,107.455,137.255Z" transform="translate(-106.934 -132.883)" fill="#00558f"/>
        </g>
      </g>
      <path id="Trazado_134132" data-name="Trazado 134132" d="M78.121,117.278c3.9-1.157,7.824-2.593,11.891-2.482a3.6,3.6,0,0,1,2.029.513,9.908,9.908,0,0,1,1.414,1.728,4.6,4.6,0,0,0,3.748,1.344,13.621,13.621,0,0,0,3.967-1.064c1.621-.616,3.358-1.326,4.259-2.807,1.857-3.052.387-6.62-2.141-9.308l.421-.182a2.868,2.868,0,0,1,3.617,1.833l2.625,8.023a2.868,2.868,0,0,1-1.833,3.617L94.947,122.8a2.866,2.866,0,0,1-3.616-1.833l-.693-2.12a2.867,2.867,0,0,0-3.617-1.833l-15.591,5.1-.892-2.725,1.979-.857A35.564,35.564,0,0,0,78.121,117.278Z" transform="translate(-70.538 -104.877)" fill="#bfdde0"/>
      <g id="Grupo_68493" data-name="Grupo 68493" transform="translate(17.737 24.277)">
        <g id="Grupo_68492" data-name="Grupo 68492">
          <path id="Trazado_134133" data-name="Trazado 134133" d="M96.011,167.684c-2.675-11.542,9.75-24.043,9.75-24.043l3.547-1.161,6.4-2.094,3.547-1.161s17.411,2.739,22.073,13.631,11.724,43.4,9.174,47.379c-1.245,1.937-6.242,5.476-12.534,8.178q-.384.164-.773.324a34.757,34.757,0,0,1-4.818,1.576q-.406.1-.809.194c-6.672,1.54-12.8,1.638-14.945.813C112.21,209.622,98.69,179.229,96.011,167.684Z" transform="translate(-95.633 -139.225)" fill="#ebfdff"/>
          <path id="Trazado_134134" data-name="Trazado 134134" d="M135.029,208.529c.753-.246,1.5-.523,2.236-.823q.375-.154.745-.312c6.138-2.636,10.654-5.958,11.591-7.369.52-1.154.351-7.411-2.239-20.023-2.1-10.247-4.948-20.474-7.079-25.448-3.751-8.763-17.32-11.793-20.024-12.315l-12.5,4.09c-1.87,2.017-11.027,12.484-8.875,21.772,1.223,5.273,4.974,15.2,9.334,24.71,5.369,11.705,8.931,16.85,10.032,17.473,1.586.585,7.195.6,13.708-.908q.385-.09.777-.187C133.5,209,134.275,208.776,135.029,208.529Z" transform="translate(-96.491 -140.109)" fill="#a1d8df"/>
        </g>
        <path id="Trazado_134135" data-name="Trazado 134135" d="M129.492,199.1c-4.386-12.069-8.618-24.465-10.531-30.847a54.53,54.53,0,0,1-1.831-22.705l4.374-1.431a54.5,54.5,0,0,1,11.944,19.4c2.229,6.275,6.144,18.775,9.741,31.1,1.665,5.707,2.946,10.291,3.9,13.853-.944.473-1.932.935-2.955,1.374q-.384.164-.773.324a34.755,34.755,0,0,1-4.818,1.576q-.406.1-.809.194c-1.086.25-2.156.462-3.2.639C133.2,209.144,131.522,204.691,129.492,199.1Z" transform="translate(-101.8 -140.66)" fill="#fff"/>
      </g>
      <g id="Grupo_68495" data-name="Grupo 68495" transform="translate(21.921 46.278)">
        <path id="Trazado_134136" data-name="Trazado 134136" d="M109.139,204.476a115.513,115.513,0,0,0,41.089-13.445q-2.791-10.04-5.751-20.679A115.64,115.64,0,0,1,101.553,184.4Z" transform="translate(-101.553 -170.352)" fill="#ebfdff"/>
        <g id="Grupo_68494" data-name="Grupo 68494" transform="translate(18.098 11.838)">
          <path id="Trazado_134137" data-name="Trazado 134137" d="M127.158,193.871q1.945-.511,3.87-1.09l-1.312-3.934q2.689-.807,5.336-1.746l1.267,3.949q1.895-.671,3.767-1.409.845,2.711,1.679,5.381-1.851.728-3.724,1.391.613,1.907,1.218,3.795-2.573.91-5.187,1.7l-1.261-3.781q-1.9.573-3.826,1.08Z" transform="translate(-127.158 -187.101)" fill="#0090b8"/>
        </g>
      </g>
    </g>
    <g id="Grupo_68502" data-name="Grupo 68502" transform="translate(221.59 274.363)">
      <rect id="Rectángulo_34075" data-name="Rectángulo 34075" width="7.369" height="7.369" transform="translate(57.493 27.431) rotate(-102.876)" fill="#fff"/>
      <path id="Trazado_134138" data-name="Trazado 134138" d="M393.511,390.83l-6.091,1.392a2.123,2.123,0,0,1-2.542-1.6l-2.285-10a2.122,2.122,0,0,1,1.6-2.542l1.609-.368a2.122,2.122,0,0,0,1.6-2.542l-2.706-11.839,2.069-.473,8.351,25.424A2.122,2.122,0,0,1,393.511,390.83Z" transform="translate(-323.016 -362.864)" fill="#a1d8df"/>
      <g id="Grupo_68498" data-name="Grupo 68498" transform="translate(51.081 17.007)">
        <rect id="Rectángulo_34076" data-name="Rectángulo 34076" width="5.188" height="13.559" rx="1.23" transform="matrix(0.975, -0.223, 0.223, 0.975, 0, 1.156)" fill="#0090b8"/>
        <g id="Grupo_68497" data-name="Grupo 68497" transform="translate(1.072 1.338)">
          <path id="Trazado_134139" data-name="Trazado 134139" d="M379,403.482a.56.56,0,0,1-.421.671l-2.529.578a.56.56,0,0,1-.25-1.092l2.529-.578A.561.561,0,0,1,379,403.482Z" transform="translate(-373.065 -392.99)" fill="#00558f"/>
          <path id="Trazado_134140" data-name="Trazado 134140" d="M378.348,400.637a.559.559,0,0,1-.421.67l-2.528.578a.56.56,0,1,1-.25-1.092l2.528-.577A.559.559,0,0,1,378.348,400.637Z" transform="translate(-372.875 -392.156)" fill="#00558f"/>
          <path id="Trazado_134141" data-name="Trazado 134141" d="M377.7,397.791a.561.561,0,0,1-.421.671l-2.529.578a.56.56,0,1,1-.25-1.091l2.529-.578A.56.56,0,0,1,377.7,397.791Z" transform="translate(-372.684 -391.322)" fill="#00558f"/>
          <path id="Trazado_134142" data-name="Trazado 134142" d="M377.047,394.945a.559.559,0,0,1-.421.671l-2.528.578a.56.56,0,0,1-.25-1.092l2.528-.578A.56.56,0,0,1,377.047,394.945Z" transform="translate(-372.493 -390.487)" fill="#00558f"/>
          <path id="Trazado_134143" data-name="Trazado 134143" d="M376.4,392.1a.56.56,0,0,1-.421.671l-2.529.578a.56.56,0,0,1-.249-1.092l2.529-.578A.561.561,0,0,1,376.4,392.1Z" transform="translate(-372.302 -389.653)" fill="#00558f"/>
          <path id="Trazado_134144" data-name="Trazado 134144" d="M375.746,389.254a.559.559,0,0,1-.421.671l-2.528.578a.56.56,0,0,1-.249-1.092l2.528-.577A.56.56,0,0,1,375.746,389.254Z" transform="translate(-372.112 -388.819)" fill="#00558f"/>
        </g>
      </g>
      <g id="Grupo_68499" data-name="Grupo 68499" transform="translate(0 10.669)">
        <path id="Trazado_134145" data-name="Trazado 134145" d="M332.665,378.057c-8.692,1.195-32.01,9.105-33.56,12.243-.754,1.528-1.1,6.049-.412,11.071q.041.3.088.609a25.833,25.833,0,0,0,.836,3.658q.091.3.187.592c1.566,4.82,3.837,8.744,5.181,9.793,2.759,2.149,27.2-.854,35.546-3.557s11.541-15.35,11.541-15.35l-.616-2.693-1.11-4.859-.616-2.693S341.355,376.867,332.665,378.057Z" transform="translate(-298.324 -377.959)" fill="#a1d8df"/>
        <path id="Trazado_134146" data-name="Trazado 134146" d="M308.762,401.033c9.193-2.417,18.618-4.7,23.452-5.676a40.354,40.354,0,0,1,16.861.187l.759,3.321a40.358,40.358,0,0,1-15.106,7.492c-4.777,1.218-14.255,3.259-23.588,5.077-4.32.841-7.785,1.475-10.475,1.937-.285-.728-.558-1.487-.813-2.271q-.1-.295-.187-.592a25.828,25.828,0,0,1-.836-3.658q-.047-.306-.088-.609c-.111-.818-.2-1.621-.254-2.4C301.11,403.086,304.507,402.152,308.762,401.033Z" transform="translate(-298.372 -382.828)" fill="#fff"/>
      </g>
      <g id="Grupo_68501" data-name="Grupo 68501" transform="translate(14.692 15.675)">
        <path id="Trazado_134147" data-name="Trazado 134147" d="M319.111,388.669a73.253,73.253,0,0,0,6.109,26.725l13.39-2.433a73.348,73.348,0,0,1-6.382-27.919Z" transform="translate(-319.111 -385.042)" fill="#ebfdff"/>
        <g id="Grupo_68500" data-name="Grupo 68500" transform="translate(3.715 11.163)">
          <path id="Trazado_134148" data-name="Trazado 134148" d="M329.84,400.835q.21,1.258.464,2.508l2.56-.6q.354,1.745.793,3.47l-2.566.572q.314,1.235.671,2.46l-3.5.749q-.352-1.212-.662-2.432l-2.467.549q-.426-1.678-.771-3.374l2.46-.577q-.251-1.235-.46-2.479Z" transform="translate(-324.367 -400.835)" fill="#0090b8"/>
        </g>
      </g>
    </g>
    <g id="Grupo_68505" data-name="Grupo 68505" transform="translate(65.25 140.483)">
      <path id="Trazado_134149" data-name="Trazado 134149" d="M90.7,207.832l13.329,153.262a9.209,9.209,0,0,0,9.174,8.412h85.733a9.21,9.21,0,0,0,9.175-8.412l13.329-153.262Z" transform="translate(-81.109 -183.529)" fill="#f5971d"/>
      <path id="Trazado_134150" data-name="Trazado 134150" d="M193.771,224.689H114.423a12.326,12.326,0,0,0-12.279,13.394l11.039,118.926a6.049,6.049,0,0,0,6.026,5.525h79.157a6.049,6.049,0,0,0,6.048-6.049l-4.594-125.747A6.049,6.049,0,0,0,193.771,224.689Z" transform="translate(-84.45 -188.471)" fill="#f5b72f"/>
      <path id="Trazado_134151" data-name="Trazado 134151" d="M139.192,328.535H123.273a3.955,3.955,0,0,0-3.94,4.3l4.313,49.6a3.949,3.949,0,0,0,5.564,3.26q5.763-2.621,12.095-5a6.047,6.047,0,0,0,3.93-5.657V334.577A6.042,6.042,0,0,0,139.192,328.535Z" transform="translate(-89.5 -218.918)" fill="#ffd273"/>
      <path id="Trazado_134152" data-name="Trazado 134152" d="M223.658,173.447H80.522c-1.89,0-3.415,1.811-3.391,4.026l.175,16.351A3.71,3.71,0,0,0,80.7,197.75H223.483a3.711,3.711,0,0,0,3.392-3.926l.175-16.351C227.073,175.258,225.547,173.447,223.658,173.447Z" transform="translate(-77.131 -173.447)" fill="#f5b72f"/>
      <g id="Grupo_68503" data-name="Grupo 68503" transform="translate(6.409 6.361)">
        <path id="Trazado_134153" data-name="Trazado 134153" d="M136.783,182.447H88.3a2.106,2.106,0,0,0-2.106,2.129l.078,7.368a2.107,2.107,0,0,0,2.106,2.084h13.641a1.1,1.1,0,0,0,.81-.334c3.559-3.8,16.279-7.07,34.065-9.087a1.087,1.087,0,0,0,.967-1.076h0A1.084,1.084,0,0,0,136.783,182.447Z" transform="translate(-86.199 -182.447)" fill="#ffd273"/>
      </g>
      <g id="Grupo_68504" data-name="Grupo 68504" transform="translate(36.484 46.352)">
        <path id="Trazado_134154" data-name="Trazado 134154" d="M186.76,280c-.823-.477-1.64-.893-2.382-1.414a1.073,1.073,0,0,1-.3-.911,4.614,4.614,0,0,0-3.159-5.339c-.229-.067-.546-.349-.558-.548-.061-.9-.027-1.809-.027-2.7a15.346,15.346,0,0,0,14.408-14.808c.179-6.114-3.379-12.851-11.519-15.218,3.943-.377,11.013,4.586,13.882,9.819a20.134,20.134,0,0,1,1.158,17.151c13.909,2.309,19.639,16.22,16.16,25.915.98-9.1-2.251-15.641-11.175-18.174C196.551,271.869,191.045,274.43,186.76,280Z" transform="translate(-143.87 -239.031)" fill="#0a1829"/>
        <path id="Trazado_134155" data-name="Trazado 134155" d="M197.582,316.078c-6.774,8.276-21.635,10.254-30.8-.758-4.958,5.614-11.13,8.213-18.614,7.168a18.707,18.707,0,0,1-11.377-5.963c6.68,4.767,13.534,5.4,20,.007,5.856-4.885,6.635-11.289,3.875-18.333.79-.464,1.585-.968,2.421-1.389.18-.091.564.054.767.207,2.061,1.542,3.914,1.539,6.05,0a1.008,1.008,0,0,1,.859-.1c.814.4,1.584.9,2.379,1.363-3.078,7.932-1.832,14.865,5.416,19.654C185.15,322.288,191.664,321.042,197.582,316.078Z" transform="translate(-131.108 -255.961)" fill="#0a1829"/>
        <path id="Trazado_134156" data-name="Trazado 134156" d="M157.5,279.875a15.414,15.414,0,0,0-18.532-5.8,15.019,15.019,0,0,0-7.859,7.3,15.69,15.69,0,0,0-1.187,10.561c-3.709-8.658,1.346-23.745,15.758-26.123-4.953-14.223,5.444-25.577,15.176-26.789a15.793,15.793,0,0,0-8.585,5.822,14.838,14.838,0,0,0-2.939,10.013,15.4,15.4,0,0,0,14.258,14.222c0,.892.042,1.8-.028,2.7a1.079,1.079,0,0,1-.6.669,4.61,4.61,0,0,0-2.893,5.237,1.088,1.088,0,0,1-.337.871C159.047,279.043,158.287,279.423,157.5,279.875Z" transform="translate(-128.748 -239.027)" fill="#0a1829"/>
        <path id="Trazado_134157" data-name="Trazado 134157" d="M164.046,308.875a18.931,18.931,0,0,1-11.543-18.8c.031-.591.194-.9.852-.732,1.105.29,2.236.5,3.31.879a1.335,1.335,0,0,1,.7,1,14.147,14.147,0,0,0,7.271,12.54,1.094,1.094,0,0,1,.5.843C164.837,306,164.439,307.383,164.046,308.875Z" transform="translate(-135.703 -253.767)" fill="#0a1829"/>
        <path id="Trazado_134158" data-name="Trazado 134158" d="M200.763,289.375a18.658,18.658,0,0,1-11.369,19.681c-.375-1.479-.775-2.919-1.073-4.38-.042-.2.37-.588.651-.756a14.029,14.029,0,0,0,6.856-9.613,16.026,16.026,0,0,0,.276-2.821c.014-.552.143-.909.695-1.055C198.092,290.089,199.385,289.743,200.763,289.375Z" transform="translate(-146.214 -253.789)" fill="#0a1829"/>
        <path id="Trazado_134159" data-name="Trazado 134159" d="M185.972,269.427c-1.094,1.068-2.1,2.091-3.17,3.054a.967.967,0,0,1-.877.011,14.222,14.222,0,0,0-14.682-.013,1.048,1.048,0,0,1-.956-.046c-1.046-.938-2.029-1.946-3.044-2.941C168.69,264.776,178.751,263.834,185.972,269.427Z" transform="translate(-138.862 -246.814)" fill="#0a1829"/>
      </g>
    </g>
    <g id="Grupo_68515" data-name="Grupo 68515" transform="translate(239.851 78.473)">
      <g id="Grupo_68506" data-name="Grupo 68506" transform="translate(24.895 0)">
        <path id="Trazado_134160" data-name="Trazado 134160" d="M418.094,84.161c-3.369,0-6.1.777-6.1,1.737,0,.676,1.354,1.26,3.33,1.548.43.062.749.3.786.579l.411,3.092c.039.3-.243.571-.681.671-1,.227-1.646.6-1.646,1.025,0,.693,1.746,1.255,3.9,1.255s3.9-.562,3.9-1.255c0-.423-.65-.8-1.646-1.025-.438-.1-.72-.374-.681-.671l.411-3.092c.037-.283.356-.517.786-.579,1.976-.288,3.33-.872,3.33-1.548C424.193,84.938,421.462,84.161,418.094,84.161Z" transform="translate(-411.995 -84.161)" fill="#2c7f49"/>
      </g>
      <g id="Grupo_68507" data-name="Grupo 68507" transform="translate(24.895 52.08)">
        <path id="Trazado_134161" data-name="Trazado 134161" d="M418.094,167.752c3.368,0,6.1-.777,6.1-1.737,0-.676-1.354-1.26-3.33-1.548-.43-.062-.748-.3-.786-.579l-.411-3.092c-.04-.3.243-.571.681-.671,1-.228,1.646-.6,1.646-1.025,0-.694-1.746-1.256-3.9-1.256s-3.9.562-3.9,1.256c0,.423.65.8,1.646,1.025.438.1.72.373.681.671l-.411,3.092c-.037.283-.356.517-.786.579-1.976.288-3.33.872-3.33,1.548C411.995,166.975,414.725,167.752,418.094,167.752Z" transform="translate(-411.995 -157.845)" fill="#2c7f49"/>
      </g>
      <g id="Grupo_68508" data-name="Grupo 68508" transform="translate(52.08 24.895)">
        <path id="Trazado_134162" data-name="Trazado 134162" d="M460.365,125.482c0-3.369-.778-6.1-1.737-6.1-.675,0-1.26,1.354-1.547,3.33-.063.43-.3.748-.58.786l-3.092.41c-.3.04-.571-.243-.671-.68-.228-1-.6-1.647-1.025-1.647-.693,0-1.256,1.747-1.256,3.9s.563,3.9,1.256,3.9c.423,0,.8-.65,1.025-1.646.1-.438.373-.72.671-.681l3.092.41c.283.037.517.356.58.786.287,1.976.872,3.33,1.547,3.33C459.587,131.58,460.365,128.85,460.365,125.482Z" transform="translate(-450.457 -119.383)" fill="#2c7f49"/>
      </g>
      <g id="Grupo_68509" data-name="Grupo 68509" transform="translate(0 24.895)">
        <path id="Trazado_134163" data-name="Trazado 134163" d="M376.773,125.482c0,3.368.778,6.1,1.737,6.1.675,0,1.26-1.354,1.547-3.33.063-.43.3-.749.58-.786l3.092-.41c.3-.04.571.243.671.681.228,1,.6,1.646,1.025,1.646.693,0,1.256-1.746,1.256-3.9s-.563-3.9-1.256-3.9c-.423,0-.8.65-1.025,1.647-.1.437-.373.72-.671.68l-3.092-.41c-.283-.037-.517-.356-.58-.786-.287-1.976-.872-3.33-1.547-3.33C377.551,119.383,376.773,122.113,376.773,125.482Z" transform="translate(-376.773 -119.383)" fill="#2c7f49"/>
      </g>
      <g id="Grupo_68510" data-name="Grupo 68510" transform="translate(43.894 5.821)">
        <path id="Trazado_134164" data-name="Trazado 134164" d="M447.891,95.654c-2.382-2.382-4.862-3.763-5.541-3.084-.478.477.066,1.848,1.26,3.448a.84.84,0,0,1,.146.965l-1.9,2.477c-.183.238-.576.232-.956-.007-.865-.544-1.59-.739-1.889-.439-.491.491.347,2.123,1.87,3.645s3.155,2.36,3.646,1.869c.3-.3.1-1.023-.44-1.889-.238-.38-.245-.773-.006-.956l2.477-1.9a.837.837,0,0,1,.965.146c1.6,1.194,2.971,1.737,3.449,1.26C451.653,100.516,450.273,98.035,447.891,95.654Z" transform="translate(-438.876 -92.397)" fill="#2c7f49"/>
      </g>
      <g id="Grupo_68511" data-name="Grupo 68511" transform="translate(5.821 43.894)">
        <path id="Trazado_134165" data-name="Trazado 134165" d="M388.266,155.279c2.382,2.381,4.862,3.762,5.541,3.084.478-.477-.066-1.848-1.26-3.448a.84.84,0,0,1-.146-.966l1.9-2.477c.183-.238.576-.232.956.007.865.544,1.59.739,1.889.44.49-.491-.347-2.123-1.87-3.646s-3.155-2.36-3.646-1.869c-.3.3-.1,1.023.44,1.889.238.38.245.773.006.956l-2.477,1.9a.837.837,0,0,1-.965-.146c-1.6-1.194-2.971-1.737-3.449-1.26C384.5,150.416,385.884,152.9,388.266,155.279Z" transform="translate(-385.009 -146.264)" fill="#2c7f49"/>
      </g>
      <g id="Grupo_68512" data-name="Grupo 68512" transform="translate(43.894 43.894)">
        <path id="Trazado_134166" data-name="Trazado 134166" d="M447.891,155.279c2.382-2.382,3.762-4.863,3.084-5.541-.478-.478-1.848.066-3.449,1.26a.837.837,0,0,1-.965.146l-2.477-1.9c-.239-.182-.232-.575.006-.956.544-.865.739-1.59.44-1.889-.49-.491-2.123.346-3.646,1.869s-2.36,3.155-1.87,3.646c.3.3,1.024.1,1.889-.44.38-.239.773-.245.956-.007l1.9,2.477a.84.84,0,0,1-.146.966c-1.194,1.6-1.738,2.971-1.26,3.448C443.029,159.041,445.509,157.66,447.891,155.279Z" transform="translate(-438.876 -146.264)" fill="#2c7f49"/>
      </g>
      <g id="Grupo_68513" data-name="Grupo 68513" transform="translate(5.821 5.821)">
        <path id="Trazado_134167" data-name="Trazado 134167" d="M388.266,95.654c-2.382,2.381-3.763,4.862-3.084,5.541.478.477,1.848-.066,3.449-1.26a.837.837,0,0,1,.965-.146l2.477,1.9c.239.182.232.576-.006.956-.544.865-.739,1.59-.44,1.889.491.491,2.123-.346,3.646-1.869s2.36-3.154,1.87-3.645c-.3-.3-1.024-.1-1.889.439-.38.239-.773.245-.956.007l-1.9-2.477a.84.84,0,0,1,.146-.965c1.194-1.6,1.738-2.971,1.26-3.448C393.128,91.891,390.648,93.272,388.266,95.654Z" transform="translate(-385.009 -92.397)" fill="#2c7f49"/>
      </g>
      <circle id="Elipse_4818" data-name="Elipse 4818" cx="22.702" cy="22.702" r="22.702" transform="translate(3.772 47.747) rotate(-76.423)" fill="#5aa84c"/>
      <ellipse id="Elipse_4819" data-name="Elipse 4819" cx="17.835" cy="18.588" rx="17.835" ry="18.588" transform="translate(13.334 10.249)" fill="#75be52"/>
      <ellipse id="Elipse_4820" data-name="Elipse 4820" cx="9.842" cy="10.257" rx="9.842" ry="10.257" transform="translate(17.25 12.385)" fill="#96d15b"/>
      <g id="Grupo_68514" data-name="Grupo 68514" transform="translate(13.228 14.465)">
        <path id="Trazado_134168" data-name="Trazado 134168" d="M417.739,124.7a1.264,1.264,0,0,0,0,2.527A1.264,1.264,0,0,0,417.739,124.7Z" transform="translate(-401.654 -110.513)" fill="#75be52"/>
        <path id="Trazado_134169" data-name="Trazado 134169" d="M410.555,109.678a2.648,2.648,0,0,0-.423-1.326,2.078,2.078,0,0,0-.616-.845l-.731-.565a2,2,0,0,0-.918-.372,3.574,3.574,0,0,0-4.4,4.4,1.057,1.057,0,0,0,.19.487,2.71,2.71,0,0,0,.746,1.162l.732.565.114.052.852.36a2.705,2.705,0,0,0,1.422.064,1.775,1.775,0,0,0,.9-.243,2.678,2.678,0,0,0,1.147-.738l.558-.722.36-.852A2.705,2.705,0,0,0,410.555,109.678Z" transform="translate(-397.791 -105.159)" fill="#75be52"/>
        <path id="Trazado_134170" data-name="Trazado 134170" d="M424.889,138.012a2.7,2.7,0,0,0-3.813,0,3,3,0,0,0-.79,1.907,2.723,2.723,0,0,0,.79,1.906,2.7,2.7,0,0,0,3.813,0,3,3,0,0,0,.79-1.906A2.722,2.722,0,0,0,424.889,138.012Z" transform="translate(-402.759 -114.183)" fill="#5aa84c"/>
        <path id="Trazado_134171" data-name="Trazado 134171" d="M406.387,139.834a1.488,1.488,0,0,0,0,2.975A1.488,1.488,0,0,0,406.387,139.834Z" transform="translate(-398.263 -114.949)" fill="#5aa84c"/>
        <path id="Trazado_134172" data-name="Trazado 134172" d="M401.616,127.266a3.121,3.121,0,0,0-.8-1.376,3.241,3.241,0,0,0-2.205-.913,3.2,3.2,0,0,0-3.118,3.118q.056.415.112.829a3.121,3.121,0,0,0,.8,1.376,3.241,3.241,0,0,0,2.2.913,3.2,3.2,0,0,0,3.118-3.118Q401.672,127.68,401.616,127.266Z" transform="translate(-395.488 -110.592)" fill="#5aa84c"/>
        <path id="Trazado_134173" data-name="Trazado 134173" d="M443.415,130.39a3.269,3.269,0,0,0-.843-1.447,3.4,3.4,0,0,0-2.318-.961,3.37,3.37,0,0,0-3.279,3.279q.059.436.117.872a3.273,3.273,0,0,0,.843,1.447,3.407,3.407,0,0,0,2.318.96,3.37,3.37,0,0,0,3.279-3.278Q443.474,130.825,443.415,130.39Z" transform="translate(-407.651 -111.473)" fill="#5aa84c"/>
        <path id="Trazado_134174" data-name="Trazado 134174" d="M431.46,114a1.552,1.552,0,0,0,0,3.1A1.552,1.552,0,0,0,431.46,114Z" transform="translate(-405.596 -107.375)" fill="#5aa84c"/>
        <path id="Trazado_134175" data-name="Trazado 134175" d="M422.313,105.432a2.751,2.751,0,0,0-3.89,0,3.056,3.056,0,0,0-.806,1.945,2.781,2.781,0,0,0,.806,1.945,2.752,2.752,0,0,0,3.89,0,3.064,3.064,0,0,0,.805-1.945A2.778,2.778,0,0,0,422.313,105.432Z" transform="translate(-401.976 -104.626)" fill="#75be52"/>
        <path id="Trazado_134176" data-name="Trazado 134176" d="M415.95,146.6a1.712,1.712,0,0,0,0,3.422A1.712,1.712,0,0,0,415.95,146.6Z" transform="translate(-401.003 -116.932)" fill="#5aa84c"/>
      </g>
      <path id="Trazado_134177" data-name="Trazado 134177" d="M414.758,103.489c.693,1.412-1.269,3.8-4.384,5.324s-6.2,1.621-6.892.209,1.269-3.795,4.384-5.323S414.065,102.078,414.758,103.489Z" transform="translate(-384.563 -89.535)" fill="#c8ff6f"/>
    </g>
    <path id="Trazado_134196" data-name="Trazado 134196" d="M501.588,256.833c-.445,0-.831.893-1.021,2.2-.041.283-.2.494-.382.519l-2.04.271c-.2.025-.377-.16-.443-.45-.128-.56-.327-.953-.556-1.056a14.889,14.889,0,0,0-2.576-6.157c.105-.23-.018-.649-.333-1.15-.158-.251-.162-.51,0-.63l1.633-1.251a.554.554,0,0,1,.637.1c1.056.788,1.961,1.146,2.276.832.447-.448-.464-2.084-2.035-3.656s-3.208-2.483-3.656-2.035c-.315.315.043,1.219.831,2.275a.553.553,0,0,1,.1.637l-1.252,1.634c-.12.157-.38.153-.63,0-.52-.327-.953-.449-1.176-.321a14.88,14.88,0,0,0-6.1-2.477c-.01-.275-.435-.518-1.084-.667-.288-.066-.475-.246-.449-.442l.271-2.04c.025-.187.235-.341.518-.382,1.3-.189,2.2-.575,2.2-1.021,0-.633-1.8-1.146-4.023-1.146s-4.024.513-4.024,1.146c0,.446.893.832,2.2,1.021.283.041.494.2.519.382l.27,2.04c.026.2-.161.377-.449.442-.657.151-1.086.4-1.086.676,0,.008.006.016.008.025a14.878,14.878,0,0,0-6.005,2.538.285.285,0,0,0-.034-.065c-.2-.2-.676-.069-1.246.29-.251.158-.51.162-.63,0l-1.251-1.634a.554.554,0,0,1,.1-.637c.788-1.056,1.146-1.961.831-2.275-.447-.448-2.084.463-3.655,2.035s-2.483,3.207-2.036,3.656c.315.315,1.22-.044,2.276-.832a.554.554,0,0,1,.637-.1l1.633,1.251c.158.12.153.38,0,.63-.358.57-.487,1.049-.29,1.246a.306.306,0,0,0,.084.044,14.881,14.881,0,0,0-2.472,6.022.3.3,0,0,0-.11-.035c-.279,0-.527.429-.676,1.086-.066.289-.246.475-.442.45l-2.04-.271c-.187-.025-.341-.235-.382-.519-.189-1.3-.575-2.2-1.021-2.2-.633,0-1.146,1.8-1.146,4.024s.513,4.024,1.146,4.024c.446,0,.832-.893,1.021-2.2.041-.284.2-.494.382-.519l2.04-.271c.2-.026.377.16.442.449.15.657.4,1.086.676,1.086a.294.294,0,0,0,.107-.034,14.878,14.878,0,0,0,2.464,6.026.317.317,0,0,0-.073.038c-.2.2-.069.676.29,1.246.158.251.162.51,0,.63l-1.633,1.252a.553.553,0,0,1-.637-.1c-1.056-.788-1.961-1.146-2.276-.831-.447.447.464,2.084,2.036,3.656s3.208,2.482,3.655,2.035c.315-.315-.043-1.219-.831-2.275a.554.554,0,0,1-.1-.637L471.8,272.8c.12-.158.38-.153.63,0,.57.358,1.049.488,1.246.29.013-.013.016-.035.026-.051a14.876,14.876,0,0,0,6.006,2.543v.006c0,.28.428.527,1.086.676.288.066.475.247.449.442l-.27,2.041c-.025.187-.235.341-.519.382-1.3.189-2.2.575-2.2,1.021,0,.633,1.8,1.146,4.024,1.146s4.023-.513,4.023-1.146c0-.445-.893-.831-2.2-1.021-.283-.042-.493-.2-.518-.382l-.271-2.041c-.026-.2.16-.376.449-.442.633-.144,1.051-.38,1.081-.646a14.891,14.891,0,0,0,6.122-2.49c.228.114.651-.009,1.16-.328.251-.158.51-.162.63,0l1.252,1.634a.553.553,0,0,1-.1.637c-.788,1.056-1.146,1.96-.831,2.275.447.447,2.084-.464,3.656-2.035s2.482-3.208,2.035-3.656c-.315-.315-1.22.043-2.276.831a.553.553,0,0,1-.637.1l-1.633-1.252c-.158-.12-.153-.38,0-.63.31-.493.433-.9.339-1.137a14.89,14.89,0,0,0,2.573-6.171c.228-.106.425-.5.553-1.055.066-.288.246-.475.443-.449l2.04.271c.187.025.341.235.382.519.19,1.3.576,2.2,1.021,2.2.633,0,1.146-1.8,1.146-4.024S502.22,256.833,501.588,256.833Z" transform="translate(-221.986 -75.669)" fill="#8eb2c2"/>
    <path id="Trazado_134198" data-name="Trazado 134198" d="M382.26,186.107c-.16,0-.3.32-.366.787-.015.1-.07.177-.136.186l-.732.1c-.071.009-.135-.058-.159-.161-.046-.2-.117-.341-.2-.379a5.332,5.332,0,0,0-.923-2.207c.038-.083-.006-.232-.119-.412-.056-.09-.058-.182,0-.226l.586-.448a.2.2,0,0,1,.228.035c.378.282.7.411.816.3.16-.16-.166-.747-.729-1.31s-1.15-.89-1.31-.729c-.113.113.016.438.3.816a.2.2,0,0,1,.035.228l-.448.586c-.043.057-.136.055-.226,0-.187-.117-.341-.161-.422-.115a5.335,5.335,0,0,0-2.188-.888c0-.1-.156-.186-.389-.239-.1-.023-.17-.088-.16-.159l.1-.731c.008-.067.084-.122.186-.137.467-.068.787-.206.787-.366,0-.227-.646-.411-1.443-.411s-1.442.184-1.442.411c0,.16.319.3.787.366.1.015.177.07.186.137l.1.731c.009.071-.057.136-.161.159-.235.054-.389.142-.389.242l0,.008a5.335,5.335,0,0,0-2.152.91.1.1,0,0,0-.012-.023c-.071-.071-.242-.025-.447.1-.09.057-.183.058-.226,0l-.449-.586a.2.2,0,0,1,.035-.228c.283-.378.411-.7.3-.816-.16-.16-.747.166-1.31.729s-.89,1.15-.729,1.31c.113.113.437-.016.816-.3a.2.2,0,0,1,.228-.035l.586.448c.056.044.054.136,0,.226-.129.205-.175.376-.1.447a.1.1,0,0,0,.03.016,5.337,5.337,0,0,0-.886,2.159.1.1,0,0,0-.04-.013c-.1,0-.189.154-.242.389-.023.1-.088.17-.158.161l-.732-.1c-.067-.008-.122-.084-.137-.186-.068-.467-.206-.787-.366-.787-.227,0-.411.646-.411,1.443s.184,1.443.411,1.443c.16,0,.3-.32.366-.788.015-.1.07-.177.137-.186l.732-.1c.07-.009.135.058.158.161.054.235.143.389.242.389a.112.112,0,0,0,.039-.012,5.334,5.334,0,0,0,.884,2.16.109.109,0,0,0-.027.014c-.071.071-.025.242.1.447.057.09.058.182,0,.225l-.586.449a.2.2,0,0,1-.228-.035c-.379-.283-.7-.411-.816-.3-.16.16.166.747.729,1.31s1.15.89,1.31.73c.113-.113-.016-.438-.3-.816a.2.2,0,0,1-.035-.228l.449-.585c.043-.057.136-.055.226,0,.2.129.376.175.447.1a.148.148,0,0,0,.009-.018,5.336,5.336,0,0,0,2.153.912v0c0,.1.154.189.389.242.1.023.17.088.161.158l-.1.732c-.009.067-.084.122-.186.137-.468.068-.787.206-.787.366,0,.227.645.411,1.442.411s1.443-.184,1.443-.411c0-.16-.32-.3-.787-.366-.1-.015-.177-.07-.186-.137l-.1-.732c-.01-.07.057-.135.16-.158.228-.052.377-.136.387-.232a5.333,5.333,0,0,0,2.2-.893c.081.041.233,0,.416-.117.09-.057.183-.058.226,0l.448.585a.2.2,0,0,1-.035.228c-.282.379-.411.7-.3.816.16.16.747-.167,1.31-.73s.89-1.15.729-1.31c-.113-.112-.438.016-.816.3a.2.2,0,0,1-.228.035l-.586-.449c-.057-.043-.054-.136,0-.225.111-.177.155-.324.122-.409a5.334,5.334,0,0,0,.922-2.212c.081-.038.153-.178.2-.378.024-.1.088-.17.159-.161l.732.1c.066.009.122.085.136.186.069.468.206.788.366.788.227,0,.411-.646.411-1.443S382.487,186.107,382.26,186.107Z" transform="translate(-97.166 -34.95)" fill="#ebf7f5"/>
  </g>
</svg>
