<svg xmlns="http://www.w3.org/2000/svg" width="556.826" height="319.416" viewBox="0 0 556.826 319.416">
  <g id="Grupo_842653" data-name="Grupo 842653" transform="translate(-758.174 -3512.93)">
    <rect id="BG" width="556.826" height="319.416" transform="translate(758.174 3512.93)" fill="#f4f4f4" opacity="0.996"/>
    <g id="Grupo_840826" data-name="Grupo 840826" transform="translate(-515.863 3301.824)">
      <g id="Grupo_840831" data-name="Grupo 840831" transform="translate(1488.864 296.255)">
        <g id="Grupo_840830" data-name="Grupo 840830" style="isolation: isolate">
          <g id="Grupo_840827" data-name="Grupo 840827" transform="translate(135.18 78.046)">
            <path id="Trazado_297599" data-name="Trazado 297599" d="M1741.378,343.468l-.01,3.338-159.44,92.656.009-3.338Z" transform="translate(-1581.929 -343.468)" fill="#12263f"/>
          </g>
          <g id="Grupo_840828" data-name="Grupo 840828" transform="translate(0 92.656)">
            <path id="Trazado_297600" data-name="Trazado 297600" d="M1624.052,431.573l-.009,3.338-135.18-78.046.01-3.338Z" transform="translate(-1488.863 -353.527)" fill="#435265"/>
          </g>
          <g id="Grupo_840829" data-name="Grupo 840829" transform="translate(0.009)">
            <path id="Trazado_297601" data-name="Trazado 297601" d="M1783.489,367.783l-159.44,92.656L1488.87,382.393l159.44-92.656Z" transform="translate(-1488.87 -289.737)" fill="#8b91a7"/>
          </g>
        </g>
      </g>
      <g id="Grupo_840860" data-name="Grupo 840860" transform="translate(1605.732 275.333)">
        <g id="Grupo_840859" data-name="Grupo 840859">
          <g id="Grupo_840853" data-name="Grupo 840853">
            <g id="Grupo_840835" data-name="Grupo 840835" transform="translate(130.052 51.259)">
              <g id="Grupo_840833" data-name="Grupo 840833" transform="translate(1.175)">
                <g id="Grupo_840832" data-name="Grupo 840832">
                  <path id="Trazado_297602" data-name="Trazado 297602" d="M1659.668,320.618l.186.112.186.112.186.112.186.112v-8.534l-.186-.112-.186-.112-.186-.112-.186-.112v8.534Z" transform="translate(-1659.667 -309.962)" fill="#1c80d7"/>
                  <path id="Trazado_297603" data-name="Trazado 297603" d="M1663.852,319.469l-1.224.707-1.224.707-1.224.707v-8.534l1.224-.707,1.224-.707,1.224-.707v8.534Z" transform="translate(-1659.435 -310.482)" fill="#fff"/>
                  <path id="Trazado_297604" data-name="Trazado 297604" d="M1659.667,312.746l1.224-.708,1.224-.708,1.224-.708.186.113.186.113.186.113.186.113-1.224.707-1.224.707-1.224.707Z" transform="translate(-1659.667 -310.623)" fill="#48caff"/>
                </g>
              </g>
              <g id="Grupo_840834" data-name="Grupo 840834" transform="translate(0 3.061)">
                <path id="Trazado_297605" data-name="Trazado 297605" d="M1659.057,320.264l3-1.733a.663.663,0,0,0,.33-.572v-4.568a.66.66,0,0,0-.991-.571l-2.505,1.447.2.344,2.505-1.447a.262.262,0,0,1,.394.227v4.568a.262.262,0,0,1-.131.228l-3,1.733Z" transform="translate(-1658.858 -312.73)" fill="#303036"/>
              </g>
            </g>
            <g id="Grupo_840849" data-name="Grupo 840849">
              <path id="Trazado_297606" data-name="Trazado 297606" d="M1703.91,357.42l-32.65,18.373-101.938-58.505,32.664-18.351Z" transform="translate(-1569.322 -264.652)" fill="#0772e0" opacity="0.15" style="mix-blend-mode: multiply;isolation: isolate"/>
              <path id="Trazado_297607" data-name="Trazado 297607" d="M1702.515,349.036l-27.632,15.982L1572.741,306l27.766-16.04Z" transform="translate(-1567.775 -268.715)" fill="#303036"/>
              <path id="Trazado_297608" data-name="Trazado 297608" d="M1572.737,307.028l103.12,59.536v-6.026L1572.737,301Z" transform="translate(-1567.777 -263.719)" fill="#303036"/>
              <g id="Grupo_840842" data-name="Grupo 840842" transform="translate(4.97)">
                <g id="Grupo_840841" data-name="Grupo 840841" style="isolation: isolate">
                  <g id="Grupo_840836" data-name="Grupo 840836" transform="translate(24.359)">
                    <path id="Trazado_297609" data-name="Trazado 297609" d="M1598.233,276.161l61.741,35.889c-2.228-1.294-5.313-1.111-8.719.856l-61.741-35.89C1592.92,275.048,1596.005,274.865,1598.233,276.161Z" transform="translate(-1589.514 -275.333)" fill="#0f68c7"/>
                  </g>
                  <g id="Grupo_840837" data-name="Grupo 840837" transform="translate(12.214 1.682)">
                    <path id="Trazado_297610" data-name="Trazado 297610" d="M1642.894,319.392l-61.741-35.89,12.144-7.011,61.741,35.89Z" transform="translate(-1581.153 -276.491)" fill="#0f68c7"/>
                  </g>
                  <g id="Grupo_840838" data-name="Grupo 840838" transform="translate(0 8.693)">
                    <path id="Trazado_297611" data-name="Trazado 297611" d="M1638.06,346.221l-61.741-35.889c-2.2-1.278-3.563-4-3.574-7.858-.022-7.778,5.445-17.249,12.214-21.156l61.741,35.89c-6.767,3.907-12.236,13.378-12.213,21.155C1634.5,342.225,1635.86,344.943,1638.06,346.221Z" transform="translate(-1572.744 -281.318)" fill="#1436ab"/>
                  </g>
                  <g id="Grupo_840840" data-name="Grupo 840840" transform="translate(61.742 35.89)">
                    <g id="Grupo_840839" data-name="Grupo 840839">
                      <path id="Trazado_297612" data-name="Trazado 297612" d="M1639.608,301.724c6.769-3.909,12.272-.771,12.294,7.005s-5.446,17.246-12.214,21.153l-12.144,7.011c-6.767,3.907-12.271.771-12.293-7s5.446-17.247,12.213-21.155Z" transform="translate(-1615.251 -300.042)" fill="#48caff"/>
                    </g>
                  </g>
                </g>
              </g>
              <path id="Trazado_297613" data-name="Trazado 297613" d="M1664.2,322.933,1636.55,338.97,1620.5,329.7l27.646-16.039Z" transform="translate(-1546.165 -257.988)" fill="#1c80d7"/>
              <path id="Trazado_297614" data-name="Trazado 297614" d="M1667.353,307.463a5.136,5.136,0,0,0-2.245-2.986l-18.4,10.669-5.427,3.148-.752.439-3.074,1.782,7.826,25.377,27.644-16.04Z" transform="translate(-1538.489 -262.145)" fill="#fff"/>
              <path id="Trazado_297615" data-name="Trazado 297615" d="M1654.572,298.21l-2.342,1.358-25.306,14.679-1.657-.267,27.444-15.927.2-.115A1.9,1.9,0,0,1,1654.572,298.21Z" transform="translate(-1544.006 -265.146)" fill="#1c80d7"/>
              <path id="Trazado_297616" data-name="Trazado 297616" d="M1662.224,307.365l-9.2,5.332-9.195,5.337V299.456l2.342-1.359,8.024,4.631Z" transform="translate(-1535.606 -265.033)" fill="#ffa300"/>
              <path id="Trazado_297617" data-name="Trazado 297617" d="M1671.377,337.026l-27.648,15.962v-6.026L1671.377,331Z" transform="translate(-1535.652 -250.143)" fill="#595969"/>
              <g id="Grupo_840843" data-name="Grupo 840843" transform="translate(45.171 63.791)">
                <path id="Trazado_297618" data-name="Trazado 297618" d="M1619.028,338.589l-18.607-10.734v-7.33l18.607,10.73Z" transform="translate(-1600.421 -318.674)" fill="#303036"/>
                <path id="Trazado_297619" data-name="Trazado 297619" d="M1616.578,333.969l-3.347,1.855V328.49l3.347-1.855Z" transform="translate(-1594.624 -315.909)" fill="#595969"/>
                <path id="Trazado_297620" data-name="Trazado 297620" d="M1600.421,321.1l3.364-1.85,18.59,10.725-3.347,1.855Z" transform="translate(-1600.421 -319.251)" fill="#595969"/>
              </g>
              <path id="Trazado_297621" data-name="Trazado 297621" d="M1671.777,331.231l-27.647,15.961-1.282-.74,27.645-15.96Z" transform="translate(-1536.051 -250.373)" fill="#303036"/>
              <path id="Trazado_297622" data-name="Trazado 297622" d="M1642.848,337.986v12.334l27.645-15.96V321.946Z" transform="translate(-1536.051 -254.24)" fill="#48caff"/>
              <path id="Trazado_297623" data-name="Trazado 297623" d="M1639.836,322.582l25.762-14.947,5.052,20.277-25.763,14.947Z" transform="translate(-1537.413 -260.716)" fill="#303036"/>
              <path id="Trazado_297624" data-name="Trazado 297624" d="M1640.251,322.587l24.822-14.4,4.788,19.221-24.821,14.4Z" transform="translate(-1537.226 -260.467)" fill="#1c80d7"/>
              <path id="Trazado_297625" data-name="Trazado 297625" d="M1670.108,307.365,1642.461,323.4l-16.052-9.267,27.647-16.039Z" transform="translate(-1543.49 -265.033)" fill="#1c80d7"/>
              <path id="Trazado_297626" data-name="Trazado 297626" d="M1587.284,314.594a11.688,11.688,0,0,0-1.939-4.87,13.661,13.661,0,0,0-3.877-3.925c-1.9-1.219-3.63-1.5-4.857-.979a2.777,2.777,0,0,0-.481.267l-2.876,1.6,1.528,1.589c0,.116,0,.227,0,.347a11.049,11.049,0,0,0,1.686,4.85,13.946,13.946,0,0,0,3.752,4.106,8.9,8.9,0,0,0,2.394,1.232l-.476,1.891,3.357-1.865C1586.813,318.281,1587.549,316.806,1587.284,314.594Z" transform="translate(-1567.543 -262.102)" fill="#363638"/>
              <path id="Trazado_297627" data-name="Trazado 297627" d="M1584.5,315.879c.266,2.212-.471,3.685-1.787,4.241s-3.214.2-5.274-1.258a13.917,13.917,0,0,1-3.752-4.1,11.053,11.053,0,0,1-1.686-4.85c-.121-1.97.6-3.284,1.826-3.8s2.959-.24,4.857.978a13.7,13.7,0,0,1,3.877,3.925A11.707,11.707,0,0,1,1584.5,315.879Z" transform="translate(-1568.116 -261.521)" fill="#303036"/>
              <path id="Trazado_297628" data-name="Trazado 297628" d="M1577.623,316.573c-.186-.107-.378-.231-.567-.365a8.935,8.935,0,0,1-3.63-5.983,2.4,2.4,0,0,1,1.129-2.507,3.328,3.328,0,0,1,3.069.443c.093.054.186.112.28.171a9.11,9.11,0,0,1,3.888,5.874,2.576,2.576,0,0,1-1.011,2.76A3.271,3.271,0,0,1,1577.623,316.573Z" transform="translate(-1567.469 -260.774)" fill="#595969"/>
              <path id="Trazado_297629" data-name="Trazado 297629" d="M1598.656,321.159a11.692,11.692,0,0,0-1.94-4.87,13.678,13.678,0,0,0-3.875-3.925c-1.9-1.217-3.631-1.5-4.857-.978a2.675,2.675,0,0,0-.481.267l-2.876,1.6,1.589,2.507a11.6,11.6,0,0,0,1.628,4.279,14,14,0,0,0,3.63,4.016l2.038,3.214,3.357-1.866C1598.185,324.845,1598.92,323.373,1598.656,321.159Z" transform="translate(-1562.397 -259.131)" fill="#363638"/>
              <path id="Trazado_297630" data-name="Trazado 297630" d="M1595.872,322.444c.264,2.212-.471,3.687-1.788,4.243s-3.214.2-5.274-1.258a13.936,13.936,0,0,1-3.75-4.106,11.022,11.022,0,0,1-1.686-4.85c-.122-1.968.6-3.284,1.826-3.8s2.957-.24,4.857.979a13.674,13.674,0,0,1,3.875,3.925A11.685,11.685,0,0,1,1595.872,322.444Z" transform="translate(-1562.97 -258.55)" fill="#303036"/>
              <path id="Trazado_297631" data-name="Trazado 297631" d="M1588.995,323.138c-.187-.108-.378-.229-.567-.363a8.935,8.935,0,0,1-3.63-5.984,2.4,2.4,0,0,1,1.127-2.507,3.329,3.329,0,0,1,3.069.443c.093.054.187.112.282.173a9.1,9.1,0,0,1,3.887,5.874,2.577,2.577,0,0,1-1.01,2.758A3.271,3.271,0,0,1,1588.995,323.138Z" transform="translate(-1562.323 -257.803)" fill="#595969"/>
              <path id="Trazado_297632" data-name="Trazado 297632" d="M1572.5,306.032l-.529.292a3.226,3.226,0,0,1,.523-.569C1572.5,305.849,1572.5,305.938,1572.5,306.032Z" transform="translate(-1568.124 -261.567)" fill="#363638"/>
              <path id="Trazado_297633" data-name="Trazado 297633" d="M1652.941,343.895v18.373l-16.2-9.353-16.2-9.351V331.9l3.088,1.784,3.09,1.784V310.241a1.253,1.253,0,0,1,.685-1.259,1.9,1.9,0,0,1,1.656.27l8.027,4.634,8.025,4.634a5.118,5.118,0,0,1,2.249,2.985l2.79,11.2Z" transform="translate(-1546.144 -260.149)" fill="#1436ab"/>
              <path id="Trazado_297634" data-name="Trazado 297634" d="M1644.361,340.684l-11.334-6.544a3.24,3.24,0,0,1-1.565-2.466V314.84c0-.864.7-1.161,1.565-.661l6.436,3.716a3.424,3.424,0,0,1,1.5,1.994l4.9,19.663C1646.154,340.719,1645.4,341.286,1644.361,340.684Z" transform="translate(-1541.202 -257.865)" fill="#303036"/>
              <path id="Trazado_297635" data-name="Trazado 297635" d="M1644.978,340.242a1.121,1.121,0,0,1-.519-.174l-11.334-6.544a2.753,2.753,0,0,1-1.3-2.013V314.675c0-.379.17-.379.26-.379a1.125,1.125,0,0,1,.52.171l6.436,3.716a2.923,2.923,0,0,1,1.255,1.667l4.9,19.664a.817.817,0,0,1-.028.657C1645.15,340.19,1645.109,340.242,1644.978,340.242Z" transform="translate(-1541.04 -257.702)" fill="#0d5db1"/>
              <path id="Trazado_297636" data-name="Trazado 297636" d="M1631.788,325.529l-4.969-2.869a3.243,3.243,0,0,1-1.563-2.466v-9.036c0-.864.7-1.159,1.563-.661l4.969,2.869a3.242,3.242,0,0,1,1.563,2.466v9.036C1633.351,325.732,1632.651,326.028,1631.788,325.529Z" transform="translate(-1544.011 -259.531)" fill="#303036"/>
              <path id="Trazado_297637" data-name="Trazado 297637" d="M1632.405,325.085a1.1,1.1,0,0,1-.519-.173l-4.969-2.867a2.762,2.762,0,0,1-1.3-2.015v-9.036c0-.381.169-.381.26-.381a1.1,1.1,0,0,1,.518.173l4.969,2.867a2.761,2.761,0,0,1,1.3,2.015V324.7C1632.665,325.085,1632.5,325.085,1632.405,325.085Z" transform="translate(-1543.848 -259.368)" fill="#0d5db1"/>
              <g id="Grupo_840844" data-name="Grupo 840844" transform="translate(76.755 83.033)">
                <path id="Trazado_297638" data-name="Trazado 297638" d="M1624.621,336.19l-.466.261a2.927,2.927,0,0,1,.46-.485C1624.621,336.039,1624.621,336.117,1624.621,336.19Z" transform="translate(-1621.264 -330.929)" fill="#363638"/>
                <path id="Trazado_297639" data-name="Trazado 297639" d="M1639.224,344.861a11.7,11.7,0,0,0-1.939-4.87,13.657,13.657,0,0,0-3.877-3.925c-1.9-1.219-3.63-1.5-4.857-.979a2.677,2.677,0,0,0-.481.269l-2.876,1.6,1.589,2.507a11.627,11.627,0,0,0,1.629,4.279,14.005,14.005,0,0,0,3.631,4.016l2.038,3.214,3.357-1.866C1638.753,348.548,1639.49,347.075,1639.224,344.861Z" transform="translate(-1620.794 -331.439)" fill="#363638"/>
                <path id="Trazado_297640" data-name="Trazado 297640" d="M1636.648,346.077c.264,2.212-.471,3.687-1.788,4.243s-3.214.2-5.274-1.258a13.938,13.938,0,0,1-3.75-4.106,11.046,11.046,0,0,1-1.688-4.85c-.12-1.968.6-3.284,1.828-3.8s2.957-.24,4.857.979a13.678,13.678,0,0,1,3.875,3.925A11.685,11.685,0,0,1,1636.648,346.077Z" transform="translate(-1621.274 -330.888)" fill="#303036"/>
                <path id="Trazado_297641" data-name="Trazado 297641" d="M1629.77,346.771c-.187-.108-.378-.229-.568-.363a8.939,8.939,0,0,1-3.629-5.984,2.4,2.4,0,0,1,1.129-2.507,3.325,3.325,0,0,1,3.067.443c.093.054.188.112.282.173a9.11,9.11,0,0,1,3.887,5.874,2.574,2.574,0,0,1-1.009,2.758A3.271,3.271,0,0,1,1629.77,346.771Z" transform="translate(-1620.626 -330.142)" fill="#595969"/>
                <path id="Trazado_297642" data-name="Trazado 297642" d="M1642.976,348.335l-3.357,1.865-1.2-3.621-3.576-6.205-3.639-3.456-3.507-.9a3.336,3.336,0,0,0-.487.758,3.785,3.785,0,0,0-1.736.267,2.886,2.886,0,0,0-.784.487,6.887,6.887,0,0,1,.4-2.212l-1.078-.585,2.667-1.484a4.209,4.209,0,0,1,.69-.382c1.652-.7,3.941-.407,6.461,1.052a19.618,19.618,0,0,1,6.467,6.409A15.733,15.733,0,0,1,1642.976,348.335Z" transform="translate(-1621.329 -332.498)" fill="#595969"/>
                <path id="Trazado_297643" data-name="Trazado 297643" d="M1637.769,341.606a19.551,19.551,0,0,0-6.462-6.409c-2.41-1.4-4.61-1.726-6.246-1.134-.073.026-.147.052-.215.083-1.651.7-2.676,2.389-2.681,4.9,0,.016,1.036.617,1.036.617l1.04.6a4.564,4.564,0,0,1,.815-2.824,2.929,2.929,0,0,1,.46-.485,2.88,2.88,0,0,1,.795-.5,3.786,3.786,0,0,1,1.736-.267,7.45,7.45,0,0,1,3.261,1.082,15.194,15.194,0,0,1,5,4.956,12.082,12.082,0,0,1,2.07,6.193l1.04.6,1.04.6A15.7,15.7,0,0,0,1637.769,341.606Z" transform="translate(-1622.165 -331.917)" fill="#303036"/>
              </g>
              <path id="Trazado_297644" data-name="Trazado 297644" d="M1607.346,327.669l-3.357,1.851-1.243-2.436-1.4-4.244-4.4-5.431-10.192-6.153-10.4-5.28-.742-.24a3.244,3.244,0,0,0-.555.835,3.839,3.839,0,0,0-1.74.267,3.014,3.014,0,0,0-.784.481,6.519,6.519,0,0,1,.5-2.41l-1.177-.382,2.671-1.485a3.981,3.981,0,0,1,.685-.382c1.657-.7,3.941-.4,6.465,1.052l8.255,4.767c3.22,1.861,6.44,3.721,8.265,4.773a19.6,19.6,0,0,1,6.461,6.409A15.673,15.673,0,0,1,1607.346,327.669Z" transform="translate(-1568.172 -263.131)" fill="#595969"/>
              <path id="Trazado_297645" data-name="Trazado 297645" d="M1604.822,328.938c0,.02-1.04-.581-1.04-.581l-1.036-.6a12.113,12.113,0,0,0-2.074-6.2,15.054,15.054,0,0,0-5-4.954c-1.949-1.129-5.107-2.949-8.259-4.767s-6.3-3.644-8.253-4.767a7.475,7.475,0,0,0-3.262-1.088,3.814,3.814,0,0,0-1.74.267,2.972,2.972,0,0,0-.785.481,3.239,3.239,0,0,0-.523.569,4.705,4.705,0,0,0-.758,2.755l-1.04-.6-1.034-.591c-.006-2.53,1.018-4.224,2.676-4.924.072-.031.141-.058.215-.083,1.635-.591,3.836-.257,6.251,1.133,1.813,1.052,5.033,2.912,8.253,4.767s6.441,3.723,8.259,4.773a19.575,19.575,0,0,1,6.467,6.409A15.733,15.733,0,0,1,1604.822,328.938Z" transform="translate(-1569.007 -262.549)" fill="#303036"/>
              <g id="Grupo_840848" data-name="Grupo 840848" transform="translate(107.713 76.779)">
                <g id="Grupo_840845" data-name="Grupo 840845" transform="translate(21.443)">
                  <path id="Trazado_297646" data-name="Trazado 297646" d="M1662.2,328.68l-.726.372-.259.134-.79-.479.415-.241.415-.238a.159.159,0,0,1,.154-.023C1661.438,328.221,1662.2,328.68,1662.2,328.68Z" transform="translate(-1657.252 -328.192)" fill="#f50025"/>
                  <path id="Trazado_297647" data-name="Trazado 297647" d="M1662.206,329.027l-.79,1.07v.935l-1.2.694-.853,1.158-.261.359-.792-.479a.111.111,0,0,1-.067-.116V330.6a.344.344,0,0,1,.067-.189.431.431,0,0,1,.156-.155l2.953-1.707Z" transform="translate(-1658.241 -328.032)" fill="#ffb204"/>
                  <path id="Trazado_297648" data-name="Trazado 297648" d="M1659.394,332.557l-.141.083a.188.188,0,0,1-.154.023l-.792-.479a.111.111,0,0,1-.067-.116v-2.051a.344.344,0,0,1,.067-.189l.792.475.261,2Z" transform="translate(-1658.241 -327.452)" fill="#ff7d00"/>
                  <path id="Trazado_297649" data-name="Trazado 297649" d="M1660.971,331.524v-2.488l.415-.24.416-.24a.178.178,0,0,1,.156-.025.119.119,0,0,1,.064.118V330.7a.387.387,0,0,1-.064.193.466.466,0,0,1-.156.154l-.416.24Z" transform="translate(-1657.005 -328.043)" fill="#ff4750"/>
                  <path id="Trazado_297650" data-name="Trazado 297650" d="M1661.959,328.877v2.487l-1.474.853-1.338.771-.141.083a.188.188,0,0,1-.154.023.122.122,0,0,1-.064-.121v-2.047a.39.39,0,0,1,.064-.193.523.523,0,0,1,.154-.155l1.479-.848Z" transform="translate(-1657.993 -327.882)" fill="#ffdf53"/>
                </g>
                <g id="Grupo_840847" data-name="Grupo 840847" transform="translate(0 12.375)">
                  <g id="Grupo_840846" data-name="Grupo 840846">
                    <path id="Trazado_297651" data-name="Trazado 297651" d="M1645.349,338.381l-.989,2.992-.819-.471a.126.126,0,0,1-.063-.122v-2.045a.388.388,0,0,1,.063-.193.464.464,0,0,1,.155-.155l.417-.238.412-.243Z" transform="translate(-1643.478 -336.172)" fill="#f50025"/>
                    <path id="Trazado_297652" data-name="Trazado 297652" d="M1647.972,337.216l.158-.023-.795-.459a.173.173,0,0,0-.183.01l-2.953,1.7.821.475,2.952-1.705Z" transform="translate(-1643.151 -336.712)" fill="#ffb204"/>
                    <path id="Trazado_297653" data-name="Trazado 297653" d="M1647.937,337.154V339.2a.292.292,0,0,1-.017.1.448.448,0,0,1-.046.1.519.519,0,0,1-.07.087.477.477,0,0,1-.087.068l-.738.426-.738.426-.738.427-.738.426v-2.488l.738-.427.738-.426.738-.426.738-.427C1647.931,337.1,1647.937,337.124,1647.937,337.154Z" transform="translate(-1642.896 -336.555)" fill="#ffdf53"/>
                  </g>
                  <path id="Trazado_297654" data-name="Trazado 297654" d="M1644.359,338.819v2.356l-.819-.471a.126.126,0,0,1-.063-.122v-2.045a.388.388,0,0,1,.063-.193Z" transform="translate(-1643.478 -335.974)" fill="#e80026"/>
                </g>
              </g>
            </g>
            <g id="Grupo_840852" data-name="Grupo 840852" transform="translate(96.853 68.049)">
              <g id="Grupo_840850" data-name="Grupo 840850">
                <path id="Trazado_297655" data-name="Trazado 297655" d="M1636,332.177l.186.112.186.112.186.112.186.112v-8.534l-.186-.112-.186-.112-.186-.112-.186-.112v8.534Z" transform="translate(-1636.001 -321.521)" fill="#1c80d7"/>
                <path id="Trazado_297656" data-name="Trazado 297656" d="M1640.186,331.028l-1.224.707-1.224.707-1.224.707v-8.534l1.224-.707,1.224-.707,1.224-.707v8.534Z" transform="translate(-1635.769 -322.041)" fill="#fff"/>
                <path id="Trazado_297657" data-name="Trazado 297657" d="M1636,324.306l1.224-.708,1.224-.708,1.224-.708.186.113.186.113.186.113.186.113-1.224.707-1.224.707-1.224.707Z" transform="translate(-1636.001 -322.182)" fill="#48caff"/>
              </g>
              <g id="Grupo_840851" data-name="Grupo 840851" transform="translate(2.46 0.818)">
                <path id="Trazado_297658" data-name="Trazado 297658" d="M1638.354,330.278a.655.655,0,0,0,.329-.089l2.541-1.467-.2-.344-2.54,1.467a.262.262,0,0,1-.394-.228v-4.568a.263.263,0,0,1,.132-.227l3-1.733-.2-.344-3,1.733a.663.663,0,0,0-.33.571v4.568a.66.66,0,0,0,.66.661Z" transform="translate(-1637.695 -322.745)" fill="#303036"/>
              </g>
            </g>
          </g>
          <g id="Grupo_840858" data-name="Grupo 840858" transform="translate(23.722 3.739)">
            <g id="Grupo_840854" data-name="Grupo 840854" transform="translate(46.568 26.767)">
              <path id="Trazado_297659" data-name="Trazado 297659" d="M1632.858,300.96v.991a3.758,3.758,0,0,1-2.222,3.1,11.87,11.87,0,0,1-10.7,0,3.758,3.758,0,0,1-2.223-3.1v-.991h.206c.034-.087.066-.164.109-.251a4.415,4.415,0,0,1,.426-.642c.076-.087.152-.174.24-.263a2.981,2.981,0,0,1,.436-.391,3.233,3.233,0,0,1,.315-.241,3.861,3.861,0,0,1,.491-.3,2.278,2.278,0,0,1,.36-.2,10.167,10.167,0,0,1,3.322-.98,12.36,12.36,0,0,1,1.668-.109,12.236,12.236,0,0,1,1.667.109,9.688,9.688,0,0,1,3.682,1.178,5.158,5.158,0,0,1,1.471,1.2,3.516,3.516,0,0,1,.424.632c.043.087.087.174.12.262Z" transform="translate(-1617.714 -295.772)" fill="#258ee8"/>
              <path id="Trazado_297660" data-name="Trazado 297660" d="M1632.858,301.523a2.844,2.844,0,0,1-.555,1.644,5.024,5.024,0,0,1-1.667,1.45,9,9,0,0,1-2.5.959,13.023,13.023,0,0,1-5.708,0,9.226,9.226,0,0,1-2.507-.959,4.991,4.991,0,0,1-1.656-1.45,2.843,2.843,0,0,1-.555-1.644,2.1,2.1,0,0,1,.087-.632,3.723,3.723,0,0,1,.228-.633l.1-.163a1.827,1.827,0,0,1,.119-.186.5.5,0,0,0,.055-.076.452.452,0,0,0,.065-.077c1.384-2.843,4.195-3.443,6.984-3.421a11.128,11.128,0,0,1,3.432.491,5.57,5.57,0,0,1,3.5,3.061,2,2,0,0,0,.141.186,1.639,1.639,0,0,1,.109.185,2.759,2.759,0,0,1,.239.633A2.467,2.467,0,0,1,1632.858,301.523Z" transform="translate(-1617.714 -296.336)" fill="#48caff"/>
              <path id="Trazado_297661" data-name="Trazado 297661" d="M1628.783,296.827a12.8,12.8,0,0,0-3.355.523,8.306,8.306,0,0,0-5.5,7.245,4.719,4.719,0,0,1-1.656-1.428,2.843,2.843,0,0,1-.555-1.644,2.1,2.1,0,0,1,.087-.632,3.723,3.723,0,0,1,.228-.633l.1-.163a1.827,1.827,0,0,1,.119-.186.5.5,0,0,0,.055-.076.452.452,0,0,0,.065-.077c1.384-2.843,4.195-3.443,6.984-3.421A11.128,11.128,0,0,1,1628.783,296.827Z" transform="translate(-1617.714 -296.336)" fill="#258ee8"/>
              <path id="Trazado_297662" data-name="Trazado 297662" d="M1619.936,303v.992a3.758,3.758,0,0,1-2.223-3.1v-.991a2.843,2.843,0,0,0,.555,1.644,4.99,4.99,0,0,0,1.656,1.45C1619.925,302.979,1619.936,303,1619.936,303Z" transform="translate(-1617.714 -294.719)" fill="#0d5db1"/>
            </g>
            <g id="Grupo_840855" data-name="Grupo 840855" transform="translate(31.045 17.846)">
              <path id="Trazado_297663" data-name="Trazado 297663" d="M1622.172,294.816v.992a3.757,3.757,0,0,1-2.224,3.094,11.87,11.87,0,0,1-10.7,0,3.758,3.758,0,0,1-2.222-3.094v-.992h.208a2.377,2.377,0,0,1,.109-.251,4.362,4.362,0,0,1,.424-.642c.077-.087.152-.174.24-.261a2.975,2.975,0,0,1,.436-.392,3.458,3.458,0,0,1,.317-.24,3.729,3.729,0,0,1,.49-.305,2.159,2.159,0,0,1,.36-.2,10.174,10.174,0,0,1,3.323-.98,12.8,12.8,0,0,1,3.333,0,9.684,9.684,0,0,1,3.682,1.177,5.167,5.167,0,0,1,1.472,1.2,3.558,3.558,0,0,1,.425.632,2.611,2.611,0,0,1,.119.261Z" transform="translate(-1607.027 -289.63)" fill="#258ee8"/>
              <path id="Trazado_297664" data-name="Trazado 297664" d="M1622.172,295.38a2.846,2.846,0,0,1-.556,1.646,5.038,5.038,0,0,1-1.668,1.448,8.945,8.945,0,0,1-2.494.959,13.031,13.031,0,0,1-5.71,0,9.152,9.152,0,0,1-2.505-.959,4.969,4.969,0,0,1-1.656-1.448,2.844,2.844,0,0,1-.557-1.646,2.1,2.1,0,0,1,.087-.632,3.692,3.692,0,0,1,.229-.632c.032-.055.065-.109.1-.164a1.864,1.864,0,0,1,.121-.185.426.426,0,0,0,.053-.077.5.5,0,0,0,.066-.076c1.384-2.844,4.195-3.443,6.984-3.421a11.083,11.083,0,0,1,3.432.49,5.564,5.564,0,0,1,3.5,3.062,1.975,1.975,0,0,0,.142.184,1.746,1.746,0,0,1,.109.186,2.811,2.811,0,0,1,.24.632A2.549,2.549,0,0,1,1622.172,295.38Z" transform="translate(-1607.027 -290.194)" fill="#48caff"/>
              <path id="Trazado_297665" data-name="Trazado 297665" d="M1618.1,290.684a12.856,12.856,0,0,0-3.355.523,8.305,8.305,0,0,0-5.5,7.245,4.7,4.7,0,0,1-1.656-1.426,2.844,2.844,0,0,1-.557-1.646,2.1,2.1,0,0,1,.087-.632,3.692,3.692,0,0,1,.229-.632c.032-.055.065-.109.1-.164a1.864,1.864,0,0,1,.121-.185.426.426,0,0,0,.053-.077.5.5,0,0,0,.066-.076c1.384-2.844,4.195-3.443,6.984-3.421A11.083,11.083,0,0,1,1618.1,290.684Z" transform="translate(-1607.027 -290.194)" fill="#258ee8"/>
              <path id="Trazado_297666" data-name="Trazado 297666" d="M1609.249,296.858v.992a3.758,3.758,0,0,1-2.222-3.094v-.992a2.844,2.844,0,0,0,.557,1.646,4.969,4.969,0,0,0,1.656,1.448C1609.239,296.836,1609.249,296.858,1609.249,296.858Z" transform="translate(-1607.027 -288.578)" fill="#0d5db1"/>
            </g>
            <g id="Grupo_840856" data-name="Grupo 840856" transform="translate(15.521 8.923)">
              <path id="Trazado_297667" data-name="Trazado 297667" d="M1611.485,288.673v.992a3.758,3.758,0,0,1-2.222,3.094,11.858,11.858,0,0,1-10.7,0,3.76,3.76,0,0,1-2.224-3.094v-.992h.208a2.3,2.3,0,0,1,.109-.25,4.2,4.2,0,0,1,.426-.643c.076-.087.151-.174.24-.261a2.991,2.991,0,0,1,.436-.392,3.521,3.521,0,0,1,.315-.24,3.711,3.711,0,0,1,.491-.305,2.455,2.455,0,0,1,.359-.2,10.173,10.173,0,0,1,3.323-.98,12.8,12.8,0,0,1,3.334,0,9.72,9.72,0,0,1,3.684,1.177,5.182,5.182,0,0,1,1.47,1.2,3.615,3.615,0,0,1,.425.632,2.523,2.523,0,0,1,.119.261Z" transform="translate(-1596.34 -283.487)" fill="#258ee8"/>
              <path id="Trazado_297668" data-name="Trazado 297668" d="M1611.485,289.237a2.847,2.847,0,0,1-.556,1.646,5.035,5.035,0,0,1-1.666,1.448,9.008,9.008,0,0,1-2.5.96,13.084,13.084,0,0,1-5.71,0,9.217,9.217,0,0,1-2.506-.96,5,5,0,0,1-1.656-1.448,2.845,2.845,0,0,1-.556-1.646,2.1,2.1,0,0,1,.087-.632,3.652,3.652,0,0,1,.229-.632c.032-.054.065-.109.1-.164a2.112,2.112,0,0,1,.12-.185.48.48,0,0,0,.054-.075.519.519,0,0,0,.067-.077c1.383-2.844,4.193-3.442,6.984-3.421a11.142,11.142,0,0,1,3.432.49,5.566,5.566,0,0,1,3.5,3.062,1.918,1.918,0,0,0,.142.184,1.726,1.726,0,0,1,.109.186,2.844,2.844,0,0,1,.24.632A2.5,2.5,0,0,1,1611.485,289.237Z" transform="translate(-1596.34 -284.051)" fill="#48caff"/>
              <path id="Trazado_297669" data-name="Trazado 297669" d="M1607.411,284.541a12.855,12.855,0,0,0-3.357.523,8.305,8.305,0,0,0-5.5,7.247,4.744,4.744,0,0,1-1.656-1.428,2.845,2.845,0,0,1-.556-1.646,2.1,2.1,0,0,1,.087-.632,3.652,3.652,0,0,1,.229-.632c.032-.054.065-.109.1-.164a2.112,2.112,0,0,1,.12-.185.48.48,0,0,0,.054-.075.519.519,0,0,0,.067-.077c1.383-2.844,4.193-3.442,6.984-3.421A11.142,11.142,0,0,1,1607.411,284.541Z" transform="translate(-1596.34 -284.051)" fill="#258ee8"/>
              <path id="Trazado_297670" data-name="Trazado 297670" d="M1598.564,290.715v.992a3.76,3.76,0,0,1-2.224-3.094v-.992a2.845,2.845,0,0,0,.556,1.646,5,5,0,0,0,1.656,1.448C1598.552,290.695,1598.564,290.715,1598.564,290.715Z" transform="translate(-1596.34 -282.435)" fill="#0d5db1"/>
            </g>
            <g id="Grupo_840857" data-name="Grupo 840857">
              <path id="Trazado_297671" data-name="Trazado 297671" d="M1600.8,282.53v.992a3.756,3.756,0,0,1-2.222,3.094,11.858,11.858,0,0,1-10.7,0,3.756,3.756,0,0,1-2.222-3.094v-.992h.206a2.6,2.6,0,0,1,.109-.25,4.424,4.424,0,0,1,.426-.643c.075-.087.153-.174.24-.261a3.035,3.035,0,0,1,.436-.392,3.464,3.464,0,0,1,.315-.24,3.732,3.732,0,0,1,.491-.305,2.408,2.408,0,0,1,.36-.2,10.164,10.164,0,0,1,3.322-.98,12.811,12.811,0,0,1,3.335,0,9.711,9.711,0,0,1,3.682,1.176,5.214,5.214,0,0,1,1.471,1.2,3.579,3.579,0,0,1,.424.633,2.759,2.759,0,0,1,.121.26Z" transform="translate(-1585.654 -277.344)" fill="#258ee8"/>
              <path id="Trazado_297672" data-name="Trazado 297672" d="M1600.8,283.094a2.843,2.843,0,0,1-.555,1.646,5.04,5.04,0,0,1-1.667,1.45,9,9,0,0,1-2.5.959,13.022,13.022,0,0,1-5.708,0,9.227,9.227,0,0,1-2.507-.959,5,5,0,0,1-1.656-1.45,2.844,2.844,0,0,1-.555-1.646,2.114,2.114,0,0,1,.087-.632,3.707,3.707,0,0,1,.228-.632l.1-.163a1.648,1.648,0,0,1,.119-.186.472.472,0,0,0,.055-.076.451.451,0,0,0,.066-.077c1.383-2.844,4.195-3.442,6.984-3.421a11.132,11.132,0,0,1,3.433.49,5.575,5.575,0,0,1,3.5,3.062,2.3,2.3,0,0,0,.141.186,1.622,1.622,0,0,1,.109.185,2.774,2.774,0,0,1,.24.632A2.505,2.505,0,0,1,1600.8,283.094Z" transform="translate(-1585.654 -277.908)" fill="#48caff"/>
              <path id="Trazado_297673" data-name="Trazado 297673" d="M1596.724,278.4a12.87,12.87,0,0,0-3.357.523,8.308,8.308,0,0,0-5.5,7.247,4.731,4.731,0,0,1-1.656-1.428,2.844,2.844,0,0,1-.555-1.646,2.114,2.114,0,0,1,.087-.632,3.707,3.707,0,0,1,.228-.632l.1-.163a1.648,1.648,0,0,1,.119-.186.472.472,0,0,0,.055-.076.451.451,0,0,0,.066-.077c1.383-2.844,4.195-3.442,6.984-3.421A11.132,11.132,0,0,1,1596.724,278.4Z" transform="translate(-1585.654 -277.908)" fill="#258ee8"/>
              <path id="Trazado_297674" data-name="Trazado 297674" d="M1587.876,284.573v.991a3.756,3.756,0,0,1-2.222-3.094v-.992a2.844,2.844,0,0,0,.555,1.646,5,5,0,0,0,1.656,1.45C1587.865,284.552,1587.876,284.573,1587.876,284.573Z" transform="translate(-1585.654 -276.292)" fill="#0d5db1"/>
            </g>
          </g>
          <path id="Trazado_297675" data-name="Trazado 297675" d="M1645.094,338.234v2.488l-.208.119-.208.121-.208.121-.344.142c-.121-.035-.083-.629-.083-.629V339.06a.332.332,0,0,1,.017-.1.571.571,0,0,1,.047-.1.547.547,0,0,1,.07-.087.4.4,0,0,1,.086-.067l.208-.119.208-.121.208-.121Z" transform="translate(-1535.512 -246.87)" fill="#ff4750"/>
        </g>
      </g>
      <g id="Grupo_840891" data-name="Grupo 840891" transform="translate(1544.287 322.854)">
        <g id="Grupo_840890" data-name="Grupo 840890">
          <g id="Grupo_840864" data-name="Grupo 840864" transform="translate(132.667 50.858)">
            <g id="Grupo_840862" data-name="Grupo 840862" transform="translate(1.199)">
              <g id="Grupo_840861" data-name="Grupo 840861">
                <path id="Trazado_297676" data-name="Trazado 297676" d="M1619.182,353.319l.19.115.19.115.19.115.19.115v-8.757l-.19-.115-.19-.115-.19-.115-.19-.115v8.757Z" transform="translate(-1619.181 -342.385)" fill="#ffc201"/>
                <path id="Trazado_297677" data-name="Trazado 297677" d="M1623.45,352.14l-1.249.725-1.249.725-1.249.725v-8.757l1.249-.725,1.249-.725,1.249-.725v8.757Z" transform="translate(-1618.945 -342.918)" fill="#fff"/>
                <path id="Trazado_297678" data-name="Trazado 297678" d="M1619.181,345.242l1.249-.726,1.249-.726,1.249-.726.19.116.19.116.19.116.19.116-1.249.725-1.249.725-1.249.725Z" transform="translate(-1619.181 -343.063)" fill="#ffc201"/>
              </g>
            </g>
            <g id="Grupo_840863" data-name="Grupo 840863" transform="translate(0 3.141)">
              <path id="Trazado_297679" data-name="Trazado 297679" d="M1618.559,352.955l3.062-1.778a.679.679,0,0,0,.335-.587V345.9a.669.669,0,0,0-.335-.585.659.659,0,0,0-.674,0l-2.556,1.484.2.353,2.556-1.484a.256.256,0,0,1,.267,0,.263.263,0,0,1,.134.232v4.687a.271.271,0,0,1-.134.234l-3.062,1.778Z" transform="translate(-1618.356 -345.225)" fill="#303036"/>
            </g>
          </g>
          <g id="Grupo_840886" data-name="Grupo 840886">
            <path id="Trazado_297680" data-name="Trazado 297680" d="M1664.313,391.084l-33.306,18.854L1527.02,349.9l33.32-18.831Z" transform="translate(-1527.02 -297.632)" fill="#0772e0" opacity="0.15" style="mix-blend-mode: multiply;isolation: isolate"/>
            <path id="Trazado_297681" data-name="Trazado 297681" d="M1662.891,382.48l-28.187,16.4-104.2-60.56,28.324-16.46Z" transform="translate(-1525.442 -301.8)" fill="#303036"/>
            <path id="Trazado_297682" data-name="Trazado 297682" d="M1530.5,339.374,1635.7,400.467v-6.184L1530.5,333.189Z" transform="translate(-1525.444 -296.674)" fill="#303036"/>
            <g id="Grupo_840879" data-name="Grupo 840879" transform="translate(3.005)">
              <g id="Grupo_840871" data-name="Grupo 840871" transform="translate(15.41)">
                <g id="Grupo_840870" data-name="Grupo 840870" style="isolation: isolate">
                  <g id="Grupo_840865" data-name="Grupo 840865" transform="translate(11.062)">
                    <path id="Trazado_297683" data-name="Trazado 297683" d="M1554.915,308.775l66.7,38.977c-1.942-1.136-4.632-.976-7.6.749l-66.7-38.978C1550.283,307.8,1552.973,307.639,1554.915,308.775Z" transform="translate(-1547.314 -308.049)" fill="#ffc408"/>
                  </g>
                  <g id="Grupo_840866" data-name="Grupo 840866" transform="translate(10.648 1.474)">
                    <path id="Trazado_297684" data-name="Trazado 297684" d="M1613.732,348.3l-66.7-38.977.415-.254,66.7,38.977Z" transform="translate(-1547.029 -309.064)" fill="#ffc408"/>
                  </g>
                  <g id="Grupo_840867" data-name="Grupo 840867" transform="translate(0 1.728)">
                    <path id="Trazado_297685" data-name="Trazado 297685" d="M1609.518,373.66l-66.7-38.977c-1.917-1.121-3.106-3.5-3.116-6.892-.019-6.82,4.747-15.125,10.649-18.552l66.7,38.977c-5.9,3.426-10.666,11.732-10.647,18.553C1606.411,370.155,1607.6,372.538,1609.518,373.66Z" transform="translate(-1539.698 -309.239)" fill="#ff7d00"/>
                  </g>
                  <g id="Grupo_840869" data-name="Grupo 840869" transform="translate(66.704 38.977)">
                    <g id="Grupo_840868" data-name="Grupo 840868">
                      <path id="Trazado_297686" data-name="Trazado 297686" d="M1596.683,336.358c5.9-3.428,10.7-.677,10.717,6.143s-4.747,15.124-10.647,18.55l-.415.254c-5.9,3.427-10.7.677-10.717-6.141s4.747-15.127,10.647-18.553Z" transform="translate(-1585.621 -334.884)" fill="#ffdf53"/>
                    </g>
                  </g>
                </g>
              </g>
              <g id="Grupo_840878" data-name="Grupo 840878" transform="translate(0 8.69)">
                <g id="Grupo_840877" data-name="Grupo 840877" style="isolation: isolate">
                  <g id="Grupo_840872" data-name="Grupo 840872" transform="translate(11.062)">
                    <path id="Trazado_297687" data-name="Trazado 297687" d="M1544.306,314.758l66.7,38.977c-1.942-1.136-4.632-.976-7.6.749l-66.7-38.978C1539.674,313.782,1542.364,313.622,1544.306,314.758Z" transform="translate(-1536.705 -314.032)" fill="#ffc408"/>
                  </g>
                  <g id="Grupo_840873" data-name="Grupo 840873" transform="translate(10.647 1.474)">
                    <path id="Trazado_297688" data-name="Trazado 297688" d="M1603.123,354.278l-66.7-38.977.414-.254,66.7,38.977Z" transform="translate(-1536.419 -315.047)" fill="#ffc408"/>
                  </g>
                  <g id="Grupo_840874" data-name="Grupo 840874" transform="translate(0 1.728)">
                    <path id="Trazado_297689" data-name="Trazado 297689" d="M1598.907,379.643l-66.7-38.977c-1.917-1.121-3.107-3.5-3.116-6.892-.02-6.819,4.747-15.125,10.647-18.552l66.7,38.977c-5.9,3.427-10.667,11.732-10.649,18.553C1595.8,376.138,1596.99,378.521,1598.907,379.643Z" transform="translate(-1529.089 -315.222)" fill="#ff7d00"/>
                  </g>
                  <g id="Grupo_840876" data-name="Grupo 840876" transform="translate(66.703 38.977)">
                    <g id="Grupo_840875" data-name="Grupo 840875">
                      <path id="Trazado_297690" data-name="Trazado 297690" d="M1586.073,342.341c5.9-3.428,10.7-.677,10.718,6.143s-4.748,15.124-10.648,18.55l-.414.254c-5.9,3.426-10.7.677-10.718-6.141s4.748-15.127,10.649-18.553Z" transform="translate(-1575.011 -340.867)" fill="#ffdf53"/>
                    </g>
                  </g>
                </g>
              </g>
            </g>
            <path id="Trazado_297691" data-name="Trazado 297691" d="M1623.8,355.695l-28.2,16.456-16.375-9.509,28.2-16.458Z" transform="translate(-1503.397 -290.793)" fill="#ffc201"/>
            <path id="Trazado_297692" data-name="Trazado 297692" d="M1627.022,339.821a5.27,5.27,0,0,0-2.292-3.065l-18.764,10.949-5.536,3.229-.768.45-3.135,1.829,7.983,26.041,28.2-16.46Z" transform="translate(-1495.567 -295.059)" fill="#fff"/>
            <path id="Trazado_297693" data-name="Trazado 297693" d="M1613.983,330.325l-2.388,1.394-25.814,15.063-1.691-.275,27.994-16.344.207-.118A1.932,1.932,0,0,1,1613.983,330.325Z" transform="translate(-1501.195 -298.138)" fill="#ffc201"/>
            <path id="Trazado_297694" data-name="Trazado 297694" d="M1621.79,339.719l-9.385,5.471-9.379,5.477V331.6l2.389-1.395,8.185,4.753Z" transform="translate(-1492.626 -298.022)" fill="#ffa300"/>
            <path id="Trazado_297695" data-name="Trazado 297695" d="M1631.127,370.156l-28.2,16.38v-6.184l28.2-16.378Z" transform="translate(-1492.673 -282.743)" fill="#595969"/>
            <g id="Grupo_840880" data-name="Grupo 840880" transform="translate(46.079 63.718)">
              <path id="Trazado_297696" data-name="Trazado 297696" d="M1577.725,371.76l-18.981-11.015v-7.522l18.981,11.011Z" transform="translate(-1558.744 -351.325)" fill="#303036"/>
              <path id="Trazado_297697" data-name="Trazado 297697" d="M1575.226,367.019l-3.414,1.9V361.4l3.414-1.9Z" transform="translate(-1552.83 -348.488)" fill="#595969"/>
              <path id="Trazado_297698" data-name="Trazado 297698" d="M1558.744,353.815l3.432-1.9,18.964,11.006-3.414,1.9Z" transform="translate(-1558.744 -351.916)" fill="#404047"/>
            </g>
            <path id="Trazado_297699" data-name="Trazado 297699" d="M1631.534,364.21l-28.2,16.378-1.308-.759,28.2-16.377Z" transform="translate(-1493.08 -282.979)" fill="#404047"/>
            <path id="Trazado_297700" data-name="Trazado 297700" d="M1602.024,371.141V383.8l28.2-16.377V354.682Z" transform="translate(-1493.08 -286.947)" fill="#ffc201"/>
            <path id="Trazado_297701" data-name="Trazado 297701" d="M1598.952,355.335,1625.232,340l5.154,20.807-26.281,15.338Z" transform="translate(-1494.47 -293.593)" fill="#303036"/>
            <path id="Trazado_297702" data-name="Trazado 297702" d="M1599.375,355.34l25.32-14.778,4.885,19.724-25.32,14.778Z" transform="translate(-1494.278 -293.336)" fill="#2db9f2"/>
            <path id="Trazado_297703" data-name="Trazado 297703" d="M1629.832,339.719l-28.2,16.457-16.375-9.509,28.2-16.458Z" transform="translate(-1500.668 -298.022)" fill="#ffc201"/>
            <path id="Trazado_297704" data-name="Trazado 297704" d="M1545.343,347.138a12.03,12.03,0,0,0-1.979-5,14.006,14.006,0,0,0-3.953-4.028c-1.938-1.249-3.7-1.535-4.955-1a2.837,2.837,0,0,0-.491.275l-2.934,1.641,1.559,1.63c0,.119,0,.232,0,.357a11.382,11.382,0,0,0,1.721,4.976,14.286,14.286,0,0,0,3.826,4.214,9.084,9.084,0,0,0,2.441,1.264l-.485,1.942,3.424-1.916C1544.863,350.92,1545.613,349.408,1545.343,347.138Z" transform="translate(-1525.205 -295.015)" fill="#363638"/>
            <path id="Trazado_297705" data-name="Trazado 297705" d="M1542.5,348.456c.27,2.272-.479,3.782-1.823,4.355s-3.28.2-5.38-1.291a14.233,14.233,0,0,1-3.826-4.214,11.363,11.363,0,0,1-1.721-4.976c-.123-2.02.612-3.37,1.862-3.9s3.018-.247,4.955,1a13.981,13.981,0,0,1,3.955,4.026A12.05,12.05,0,0,1,1542.5,348.456Z" transform="translate(-1525.79 -294.418)" fill="#303036"/>
            <path id="Trazado_297706" data-name="Trazado 297706" d="M1535.488,349.169c-.19-.112-.385-.237-.578-.373a9.181,9.181,0,0,1-3.7-6.141,2.465,2.465,0,0,1,1.151-2.572,3.379,3.379,0,0,1,3.13.455c.1.055.19.115.287.177a9.348,9.348,0,0,1,3.965,6.027,2.652,2.652,0,0,1-1.03,2.831A3.318,3.318,0,0,1,1535.488,349.169Z" transform="translate(-1525.129 -293.652)" fill="#595969"/>
            <path id="Trazado_297707" data-name="Trazado 297707" d="M1556.942,353.875a12.028,12.028,0,0,0-1.978-5,14,14,0,0,0-3.954-4.028c-1.938-1.249-3.7-1.535-4.954-1a2.937,2.937,0,0,0-.491.275l-2.934,1.641,1.621,2.571a11.989,11.989,0,0,0,1.662,4.392,14.357,14.357,0,0,0,3.7,4.121l2.078,3.3,3.424-1.916C1556.463,357.657,1557.213,356.145,1556.942,353.875Z" transform="translate(-1519.956 -291.966)" fill="#363638"/>
            <path id="Trazado_297708" data-name="Trazado 297708" d="M1554.1,355.193c.27,2.272-.479,3.782-1.823,4.355s-3.28.2-5.38-1.291a14.244,14.244,0,0,1-3.826-4.214,11.363,11.363,0,0,1-1.721-4.976c-.123-2.02.611-3.37,1.862-3.9s3.018-.247,4.956,1a14,14,0,0,1,3.954,4.026A12.049,12.049,0,0,1,1554.1,355.193Z" transform="translate(-1520.54 -291.369)" fill="#303036"/>
            <path id="Trazado_297709" data-name="Trazado 297709" d="M1547.088,355.906c-.19-.112-.385-.237-.578-.373a9.18,9.18,0,0,1-3.7-6.141,2.464,2.464,0,0,1,1.151-2.572,3.378,3.378,0,0,1,3.13.455c.1.055.191.115.288.177a9.349,9.349,0,0,1,3.966,6.027,2.65,2.65,0,0,1-1.03,2.831A3.319,3.319,0,0,1,1547.088,355.906Z" transform="translate(-1519.88 -290.603)" fill="#595969"/>
            <path id="Trazado_297710" data-name="Trazado 297710" d="M1530.26,338.352l-.539.3a3.343,3.343,0,0,1,.533-.585C1530.26,338.164,1530.26,338.256,1530.26,338.352Z" transform="translate(-1525.798 -294.466)" fill="#363638"/>
            <path id="Trazado_297711" data-name="Trazado 297711" d="M1612.321,377.205v18.854l-16.526-9.6-16.525-9.6V364.9l3.152,1.83,3.151,1.83V342.671a1.286,1.286,0,0,1,.7-1.293,1.931,1.931,0,0,1,1.689.277l8.188,4.754,8.186,4.756a4.938,4.938,0,0,1,1.434,1.313,5.021,5.021,0,0,1,.86,1.75l2.845,11.488Z" transform="translate(-1503.376 -293.01)" fill="#ff7d00"/>
            <path id="Trazado_297712" data-name="Trazado 297712" d="M1603.568,373.912l-11.562-6.716a3.328,3.328,0,0,1-1.6-2.53V347.389c0-.886.715-1.19,1.6-.678l6.565,3.814a3.506,3.506,0,0,1,1.531,2.045l5,20.178C1605.4,373.947,1604.63,374.529,1603.568,373.912Z" transform="translate(-1498.335 -290.667)" fill="#303036"/>
            <path id="Trazado_297713" data-name="Trazado 297713" d="M1604.2,373.457a1.135,1.135,0,0,1-.53-.179l-11.562-6.714a2.831,2.831,0,0,1-1.328-2.067V347.221c0-.389.171-.389.264-.389a1.125,1.125,0,0,1,.53.177l6.566,3.813a2.993,2.993,0,0,1,1.281,1.71l5,20.178a.847.847,0,0,1-.029.674A.209.209,0,0,1,1604.2,373.457Z" transform="translate(-1498.169 -290.5)" fill="#097de0"/>
            <path id="Trazado_297714" data-name="Trazado 297714" d="M1590.742,358.359l-5.069-2.944a3.33,3.33,0,0,1-1.595-2.53v-9.273c0-.888.714-1.191,1.595-.678l5.069,2.943a3.331,3.331,0,0,1,1.6,2.532v9.273C1592.337,358.567,1591.622,358.871,1590.742,358.359Z" transform="translate(-1501.201 -292.376)" fill="#303036"/>
            <path id="Trazado_297715" data-name="Trazado 297715" d="M1591.372,357.9a1.139,1.139,0,0,1-.53-.176l-5.068-2.944a2.831,2.831,0,0,1-1.329-2.065v-9.274c0-.389.173-.389.266-.389a1.125,1.125,0,0,1,.53.177l5.068,2.943a2.834,2.834,0,0,1,1.329,2.067v9.273C1591.638,357.9,1591.465,357.9,1591.372,357.9Z" transform="translate(-1501.034 -292.209)" fill="#097de0"/>
            <g id="Grupo_840881" data-name="Grupo 840881" transform="translate(78.298 83.463)">
              <path id="Trazado_297716" data-name="Trazado 297716" d="M1583.429,369.3l-.474.269a2.953,2.953,0,0,1,.469-.5C1583.429,369.144,1583.429,369.225,1583.429,369.3Z" transform="translate(-1580.006 -363.9)" fill="#363638"/>
              <path id="Trazado_297717" data-name="Trazado 297717" d="M1598.328,378.2a12.049,12.049,0,0,0-1.98-5,13.986,13.986,0,0,0-3.954-4.028c-1.938-1.249-3.7-1.535-4.955-1a2.784,2.784,0,0,0-.491.275l-2.933,1.641,1.62,2.571a11.991,11.991,0,0,0,1.662,4.392,14.337,14.337,0,0,0,3.7,4.119l2.079,3.3,3.424-1.914C1597.847,381.979,1598.6,380.467,1598.328,378.2Z" transform="translate(-1579.526 -364.423)" fill="#363638"/>
              <path id="Trazado_297718" data-name="Trazado 297718" d="M1595.7,379.445c.27,2.27-.481,3.782-1.825,4.353s-3.278.2-5.38-1.291a14.279,14.279,0,0,1-3.826-4.212,11.4,11.4,0,0,1-1.721-4.978c-.123-2.02.613-3.37,1.864-3.9s3.017-.246,4.955,1a13.984,13.984,0,0,1,3.954,4.028A12.043,12.043,0,0,1,1595.7,379.445Z" transform="translate(-1580.016 -363.858)" fill="#303036"/>
              <path id="Trazado_297719" data-name="Trazado 297719" d="M1588.683,380.157c-.192-.112-.386-.237-.58-.373a9.184,9.184,0,0,1-3.7-6.14,2.466,2.466,0,0,1,1.151-2.574,3.379,3.379,0,0,1,3.13.455c.095.055.19.115.286.177a9.354,9.354,0,0,1,3.967,6.028,2.654,2.654,0,0,1-1.03,2.831A3.323,3.323,0,0,1,1588.683,380.157Z" transform="translate(-1579.355 -363.092)" fill="#595969"/>
              <path id="Trazado_297720" data-name="Trazado 297720" d="M1602.155,381.761l-3.424,1.914-1.227-3.717-3.647-6.366-3.711-3.546-3.578-.928a3.365,3.365,0,0,0-.5.777,3.854,3.854,0,0,0-1.771.275,2.954,2.954,0,0,0-.8.5,7.106,7.106,0,0,1,.405-2.269l-1.1-.6,2.719-1.522a4.211,4.211,0,0,1,.7-.392c1.685-.719,4.021-.418,6.59,1.078a20.051,20.051,0,0,1,6.6,6.577A16.212,16.212,0,0,1,1602.155,381.761Z" transform="translate(-1580.073 -365.51)" fill="#595969"/>
              <path id="Trazado_297721" data-name="Trazado 297721" d="M1596.843,374.856a19.981,19.981,0,0,0-6.592-6.576c-2.457-1.432-4.7-1.771-6.372-1.165-.074.028-.148.054-.218.086-1.685.719-2.731,2.452-2.736,5.027,0,.016,1.056.632,1.056.632l1.062.617a4.692,4.692,0,0,1,.832-2.9,3.209,3.209,0,0,1,1.28-1.008,3.854,3.854,0,0,1,1.771-.275,7.58,7.58,0,0,1,3.326,1.111,15.511,15.511,0,0,1,5.1,5.085,12.456,12.456,0,0,1,2.112,6.356l1.061.616,1.062.612A16.181,16.181,0,0,0,1596.843,374.856Z" transform="translate(-1580.925 -364.914)" fill="#303036"/>
            </g>
            <path id="Trazado_297722" data-name="Trazado 297722" d="M1565.809,360.554l-3.423,1.9-1.27-2.5-1.423-4.355-4.484-5.573-10.4-6.314-10.606-5.416-.757-.247a3.321,3.321,0,0,0-.565.858,3.871,3.871,0,0,0-1.776.273,3.032,3.032,0,0,0-.8.494,6.724,6.724,0,0,1,.505-2.474l-1.2-.391,2.725-1.524a4.049,4.049,0,0,1,.7-.392c1.691-.719,4.021-.413,6.6,1.079l8.42,4.891c3.284,1.91,6.57,3.82,8.43,4.9a20.059,20.059,0,0,1,6.59,6.576A16.143,16.143,0,0,1,1565.809,360.554Z" transform="translate(-1525.847 -296.07)" fill="#595969"/>
            <path id="Trazado_297723" data-name="Trazado 297723" d="M1563.235,361.856c0,.022-1.062-.6-1.062-.6l-1.056-.612a12.477,12.477,0,0,0-2.116-6.356,15.394,15.394,0,0,0-5.1-5.085c-1.988-1.158-5.209-3.024-8.425-4.892s-6.432-3.739-8.42-4.891a7.579,7.579,0,0,0-3.328-1.117,3.886,3.886,0,0,0-1.775.274,3.077,3.077,0,0,0-.8.492,3.35,3.35,0,0,0-.533.585,4.845,4.845,0,0,0-.773,2.827l-1.062-.617-1.056-.606c0-2.6,1.04-4.334,2.731-5.053.074-.032.144-.058.219-.086,1.669-.606,3.913-.263,6.377,1.165,1.851,1.078,5.135,2.988,8.42,4.892l8.425,4.9a20.012,20.012,0,0,1,6.6,6.577A16.192,16.192,0,0,1,1563.235,361.856Z" transform="translate(-1526.698 -295.474)" fill="#303036"/>
            <g id="Grupo_840885" data-name="Grupo 840885" transform="translate(109.878 77.045)">
              <g id="Grupo_840882" data-name="Grupo 840882" transform="translate(21.873)">
                <path id="Trazado_297724" data-name="Trazado 297724" d="M1621.767,361.592l-.741.382-.264.137-.806-.491.424-.248.424-.244a.162.162,0,0,1,.157-.023Z" transform="translate(-1616.717 -361.092)" fill="#f50025"/>
                <path id="Trazado_297725" data-name="Trazado 297725" d="M1621.771,361.947l-.806,1.1v.96l-1.226.712-.87,1.188-.267.368-.806-.492a.114.114,0,0,1-.07-.119v-2.1a.357.357,0,0,1,.07-.195.45.45,0,0,1,.158-.16l3.011-1.75Z" transform="translate(-1617.726 -360.928)" fill="#ffb204"/>
                <path id="Trazado_297726" data-name="Trazado 297726" d="M1618.9,365.57l-.142.084a.188.188,0,0,1-.158.025l-.806-.492a.114.114,0,0,1-.07-.119v-2.1a.358.358,0,0,1,.07-.195l.806.488.267,2.054Z" transform="translate(-1617.726 -360.333)" fill="#ff7d00"/>
                <path id="Trazado_297727" data-name="Trazado 297727" d="M1620.511,364.51v-2.554l.424-.245.424-.247a.183.183,0,0,1,.158-.025.121.121,0,0,1,.065.122v2.1a.383.383,0,0,1-.065.2.459.459,0,0,1-.158.158l-.424.247Z" transform="translate(-1616.466 -360.939)" fill="#ff4750"/>
                <path id="Trazado_297728" data-name="Trazado 297728" d="M1621.518,361.794v2.552l-1.5.876-1.365.79-.142.084a.188.188,0,0,1-.158.025.126.126,0,0,1-.064-.124v-2.1a.413.413,0,0,1,.064-.2.538.538,0,0,1,.158-.16l1.508-.87Z" transform="translate(-1617.473 -360.774)" fill="#fff"/>
              </g>
              <g id="Grupo_840884" data-name="Grupo 840884" transform="translate(0 12.699)">
                <g id="Grupo_840883" data-name="Grupo 840883">
                  <path id="Trazado_297729" data-name="Trazado 297729" d="M1604.575,371.547l-1.01,3.069-.835-.482a.124.124,0,0,1-.064-.123v-2.1a.389.389,0,0,1,.064-.2.476.476,0,0,1,.158-.16l.426-.244.42-.248Z" transform="translate(-1602.667 -369.28)" fill="#f50025"/>
                  <path id="Trazado_297730" data-name="Trazado 297730" d="M1607.252,370.352l.16-.025-.809-.471a.178.178,0,0,0-.187.01l-3.011,1.749.837.487,3.011-1.749Z" transform="translate(-1602.333 -369.835)" fill="#ffb204"/>
                  <path id="Trazado_297731" data-name="Trazado 297731" d="M1607.216,370.288v2.1a.3.3,0,0,1-.019.1.412.412,0,0,1-.048.1.5.5,0,0,1-.158.16l-.752.437-.754.437-.752.437-.752.437v-2.554l.752-.437.752-.437.754-.437.752-.437C1607.209,370.23,1607.216,370.256,1607.216,370.288Z" transform="translate(-1602.073 -369.673)" fill="#fff"/>
                </g>
                <path id="Trazado_297732" data-name="Trazado 297732" d="M1603.566,372v2.417l-.835-.482a.125.125,0,0,1-.064-.123v-2.1a.389.389,0,0,1,.064-.2Z" transform="translate(-1602.667 -369.077)" fill="#e80026"/>
              </g>
            </g>
          </g>
          <g id="Grupo_840889" data-name="Grupo 840889" transform="translate(98.8 68.087)">
            <g id="Grupo_840887" data-name="Grupo 840887">
              <path id="Trazado_297733" data-name="Trazado 297733" d="M1595.04,365.18l.19.115.19.115.19.115.19.115v-8.757l-.19-.115-.19-.115-.19-.115-.19-.115v8.757Z" transform="translate(-1595.04 -354.246)" fill="#ffc201"/>
              <path id="Trazado_297734" data-name="Trazado 297734" d="M1599.309,364l-1.249.725-1.249.725-1.249.725v-8.757l1.249-.725,1.249-.725,1.249-.725V364Z" transform="translate(-1594.803 -354.78)" fill="#fff"/>
              <path id="Trazado_297735" data-name="Trazado 297735" d="M1595.04,357.1l1.249-.726,1.249-.726,1.249-.726.19.116.19.116.19.116.19.116-1.249.725-1.249.725-1.248.725Z" transform="translate(-1595.04 -354.924)" fill="#ffc201"/>
            </g>
            <g id="Grupo_840888" data-name="Grupo 840888" transform="translate(2.509 0.839)">
              <path id="Trazado_297736" data-name="Trazado 297736" d="M1597.439,363.232a.668.668,0,0,0,.337-.092l2.591-1.5-.2-.353-2.591,1.5a.268.268,0,0,1-.4-.234v-4.687a.271.271,0,0,1,.134-.234l3.062-1.778-.2-.353-3.062,1.778a.68.68,0,0,0-.337.587v4.687a.677.677,0,0,0,.673.678Z" transform="translate(-1596.767 -355.502)" fill="#303036"/>
            </g>
          </g>
        </g>
        <path id="Trazado_297737" data-name="Trazado 297737" d="M1604.316,371.4v2.553l-.212.122-.212.123-.212.123-.352.147c-.122-.035-.084-.645-.084-.645v-1.576a.343.343,0,0,1,.017-.1.493.493,0,0,1,.048-.1.52.52,0,0,1,.072-.09.411.411,0,0,1,.087-.068l.212-.123.212-.124.212-.123Z" transform="translate(-1492.53 -279.384)" fill="#ff4750"/>
      </g>
      <g id="Grupo_840899" data-name="Grupo 840899" transform="translate(1693.829 369.273)">
        <g id="Grupo_840895" data-name="Grupo 840895" transform="translate(0 10.248)">
          <g id="Grupo_840892" data-name="Grupo 840892">
            <path id="Trazado_297738" data-name="Trazado 297738" d="M1649.76,359.816s-.015.052-.041.139c-.047.163-.121.411-.189.652-.016.059-.033.118-.047.177a8.446,8.446,0,0,0-.18.947,4.971,4.971,0,0,1-2.731,3.406,14.731,14.731,0,0,1-13.345,0,5.079,5.079,0,0,1-2.709-3.257c-.059-.317-.125-.633-.2-.946-.061-.245-.129-.487-.211-.725l-.1-.289-.036-.106c.109.006.448.007.973.01.558,0,1.331,0,2.247,0,.135,0,.274,0,.415,0h1.528a15.625,15.625,0,0,1,9.5-.007h1.542c1.113,0,2.042,0,2.675,0,.485,0,.795,0,.879,0Z" transform="translate(-1629.974 -341.62)" fill="#48caff"/>
            <path id="Trazado_297739" data-name="Trazado 297739" d="M1649.76,358.778v2.1a3.271,3.271,0,0,1-.022.373c0,.045-.012.093-.019.139a3.62,3.62,0,0,1-.235.829,5.44,5.44,0,0,1-2,2.3c-.193.137-.4.266-.622.394-.182.1-.367.2-.559.3a14.742,14.742,0,0,1-6.435,1.376,14.327,14.327,0,0,1-6.956-1.652l-.038-.022a6.038,6.038,0,0,1-2.556-2.546,3.645,3.645,0,0,1-.306-1.014c-.007-.035-.01-.07-.015-.106a3.272,3.272,0,0,1-.022-.373,3.386,3.386,0,0,1,.036-.465v-1.637l.848-.073,2.37-.206,1.486-.129a15.639,15.639,0,0,1,5.152-.837c1.788,0,3.576-2.083,5.152-1.528l4.044,2.366Z" transform="translate(-1629.974 -343.057)" fill="#d1f0ff"/>
            <path id="Trazado_297740" data-name="Trazado 297740" d="M1649.776,359.305a3.3,3.3,0,0,1-.028.428,3.977,3.977,0,0,1-.9,2,7.009,7.009,0,0,1-1.967,1.615,15.45,15.45,0,0,1-13.986,0,6.976,6.976,0,0,1-1.959-1.608,3.834,3.834,0,0,1-.937-2.432v-.054a3.6,3.6,0,0,1,.51-1.755c.054-.093.11-.184.173-.275l.016-.022,1.377.388.9,0c.081-.047.164-.092.247-.137.3-.158.61-.305.931-.437a15.3,15.3,0,0,1,5.74-1.06c2.478,0,4.953-1.826,6.866-.758l.863-.087.193.276c.006.007,1.22,1.736,1.22,1.736.016.022.03.041.043.062.07.1.128.193.183.288A3.6,3.6,0,0,1,1649.776,359.305Z" transform="translate(-1629.962 -343.531)" fill="#92dcff"/>
            <path id="Trazado_297741" data-name="Trazado 297741" d="M1649.1,351.409v7.873a3.247,3.247,0,0,1-.206,1.127,5.45,5.45,0,0,1-2.542,2.7c-.039.023-.08.045-.121.068-.069.039-.144.077-.216.116a10.418,10.418,0,0,1-.965.439,14.53,14.53,0,0,1-5.329.962,13.884,13.884,0,0,1-6.281-1.392c-.118-.064-.235-.128-.352-.193l-.029-.017a5.728,5.728,0,0,1-2.37-2.352,3.32,3.32,0,0,1-.349-1.461c0-.073,0-.145.01-.221s.012-.147.023-.221v-7.431l.487.193,1.877.747,2.1.835a15.418,15.418,0,0,1,9.771,0l.444-.176,1.181-.468,2.266-.893Z" transform="translate(-1629.807 -345.095)" fill="#48caff"/>
            <path id="Trazado_297742" data-name="Trazado 297742" d="M1649.76,350.03s-.015.052-.041.139c-.047.163-.121.411-.189.652-.016.059-.033.118-.047.177a8.438,8.438,0,0,0-.18.95c-.009.065-.022.129-.035.193a5.109,5.109,0,0,1-2.7,3.21,1.968,1.968,0,0,1-.173.094,9.544,9.544,0,0,1-1.181.553,14.685,14.685,0,0,1-5.319.948,13.651,13.651,0,0,1-6.672-1.6l-.318-1.634-.038-.022a7.111,7.111,0,0,1-1.843-1.47,4.553,4.553,0,0,1-.714-1.076c-.064-.25-.132-.489-.211-.725l-.1-.289-.036-.106.025.019a9.316,9.316,0,0,0,2.908,1.437,7.927,7.927,0,0,0,2.231.331,15.6,15.6,0,0,1,9.5-.007,8.952,8.952,0,0,0,5.1-1.763A.112.112,0,0,0,1649.76,350.03Z" transform="translate(-1629.974 -345.719)" fill="#48caff"/>
            <path id="Trazado_297743" data-name="Trazado 297743" d="M1649.759,347.9V351a3.161,3.161,0,0,1-.023.389c0,.041-.009.081-.016.124a3.622,3.622,0,0,1-.237.829,4.521,4.521,0,0,1-.818,1.272,6.613,6.613,0,0,1-1.182,1.03c-.194.138-.4.267-.622.4-.151.087-.308.17-.468.25-.03.017-.061.032-.093.048-.349.173-.713.328-1.088.471a15.58,15.58,0,0,1-5.345.9,14.331,14.331,0,0,1-6.958-1.65l-.038-.022a7.124,7.124,0,0,1-1.842-1.47,4.51,4.51,0,0,1-.714-1.076,3.562,3.562,0,0,1-.308-1.014c0-.03-.009-.058-.012-.087a3.258,3.258,0,0,1-.023-.392,3.564,3.564,0,0,1,.035-.463V347.9h4.706a15.627,15.627,0,0,1,5.152-.837,16.578,16.578,0,0,1,2.622.206,14.171,14.171,0,0,1,1.588.337c.073.019.145.041.219.061.245.071.487.15.722.232Z" transform="translate(-1629.974 -347.062)" fill="#d1f0ff"/>
          </g>
          <path id="Trazado_297744" data-name="Trazado 297744" d="M1633.122,355a5.153,5.153,0,0,1-2.686-3.149c-.009-.035-.016-.071-.023-.106-.059-.317-.125-.635-.2-.947a4.55,4.55,0,0,0,.713,1.076,7.113,7.113,0,0,0,1.843,1.47l.038.022Z" transform="translate(-1629.867 -345.37)" fill="#009ad4"/>
          <path id="Trazado_297745" data-name="Trazado 297745" d="M1632.911,354.8l-.038-.022a7.112,7.112,0,0,1-1.843-1.47,4.555,4.555,0,0,1-.714-1.076,3.511,3.511,0,0,1-.306-1.014l-.036-.106.025.019a2.984,2.984,0,0,1-.025-.392,3.328,3.328,0,0,1,.036-.463v-2.638c0,1.463.966,2.924,2.9,4.039v3.1Z" transform="translate(-1629.974 -346.801)" fill="#00a9e8"/>
          <path id="Trazado_297746" data-name="Trazado 297746" d="M1633.122,364.562a5.079,5.079,0,0,1-2.709-3.257c-.059-.317-.125-.633-.2-.946a6.036,6.036,0,0,0,2.557,2.546l.038.022Z" transform="translate(-1629.867 -341.044)" fill="#009ad4"/>
          <path id="Trazado_297747" data-name="Trazado 297747" d="M1632.911,364.031l-.038-.022a6.038,6.038,0,0,1-2.556-2.546,3.645,3.645,0,0,1-.306-1.014l-.036-.106c.008-.125,0-.248,0-.373a3.385,3.385,0,0,1,.036-.465v-1.583a3.834,3.834,0,0,0,.937,2.431,6.98,6.98,0,0,0,1.96,1.608v2.048Z" transform="translate(-1629.974 -342.148)" fill="#00a9e8"/>
          <path id="Trazado_297748" data-name="Trazado 297748" d="M1633.218,360.711c0,.017-.035.208-.035.208l-.288,1.606a6.977,6.977,0,0,1-1.959-1.608,3.834,3.834,0,0,1-.937-2.431v-.054a3.6,3.6,0,0,1,.51-1.755c-.007.076-.01.148-.01.221a3.323,3.323,0,0,0,.348,1.461A5.728,5.728,0,0,0,1633.218,360.711Z" transform="translate(-1629.962 -342.711)" fill="#00bced"/>
          <path id="Trazado_297749" data-name="Trazado 297749" d="M1633.062,354.675v8.366a5.728,5.728,0,0,1-2.37-2.352,3.32,3.32,0,0,1-.349-1.461c0-.073,0-.145.01-.221s.012-.147.023-.221v-7.261A5.154,5.154,0,0,0,1633.062,354.675Z" transform="translate(-1629.807 -345.042)" fill="#00a9e8"/>
          <g id="Grupo_840893" data-name="Grupo 840893" transform="translate(15.253 18.084)" opacity="0.2" style="mix-blend-mode: color-dodge;isolation: isolate">
            <path id="Trazado_297750" data-name="Trazado 297750" d="M1642.73,360.931V362.9c-.193.137-.4.266-.622.394-.182.1-.367.2-.559.3v-2.022l-1.075-1.493a6.962,6.962,0,0,1,1.172-.561Z" transform="translate(-1640.475 -359.512)" fill="#2cd3ff"/>
          </g>
          <g id="Grupo_840894" data-name="Grupo 840894" transform="translate(15.246 9.728)" opacity="0.2" style="mix-blend-mode: color-dodge;isolation: isolate">
            <path id="Trazado_297751" data-name="Trazado 297751" d="M1641.651,353.759v8.358c-.07.039-.144.077-.216.116a10.418,10.418,0,0,1-.965.439v-8.359A9.559,9.559,0,0,0,1641.651,353.759Z" transform="translate(-1640.47 -353.759)" fill="#2cd3ff"/>
          </g>
        </g>
        <path id="Trazado_297752" data-name="Trazado 297752" d="M1649.777,349.633c0,1.463-.966,2.924-2.9,4.039a15.456,15.456,0,0,1-13.983,0c-1.933-1.116-2.9-2.577-2.9-4.039a3.488,3.488,0,0,1,.046-.561,3.872,3.872,0,0,1,.636-1.524.081.081,0,0,1,.019-.025c-.019,0,.1-.173.1-.173a7.863,7.863,0,0,1,3.293-2.678l3.313-1.444h5l3.475,1.6a7.924,7.924,0,0,1,1.746,1.105,7.817,7.817,0,0,1,1.4,1.519c.016.02.03.039.045.061A3.726,3.726,0,0,1,1649.777,349.633Z" transform="translate(-1629.962 -338.549)" fill="#a6e2ff"/>
        <path id="Trazado_297753" data-name="Trazado 297753" d="M1633.953,349.785l-1.059,2.925c-1.931-1.116-2.9-2.577-2.9-4.039a3.3,3.3,0,0,1,.052-.559.2.2,0,0,1,0-.03c.019-.1.042-.2.071-.306.006-.022.01-.044.016-.065a3.91,3.91,0,0,1,.131-.37c.028-.067.057-.131.09-.2s.057-.119.087-.176.076-.132.114-.2.075-.122.118-.184l.019-.025c-.019,0,.1-.173.1-.173a7.948,7.948,0,0,1,.873-1.034,2.876,2.876,0,0,0-.183,1C1631.494,347.6,1632.313,348.841,1633.953,349.785Z" transform="translate(-1629.963 -337.587)" fill="#48caff"/>
        <path id="Trazado_297754" data-name="Trazado 297754" d="M1637.395,346.118l-3.457,4.629-.6.5-3.3-2.174a3.633,3.633,0,0,1,.225-.771c.028-.067.056-.131.09-.2s.056-.119.087-.176.075-.132.113-.2.078-.122.12-.184a.08.08,0,0,1,.019-.025c-.019,0,.1-.173.1-.173a7.964,7.964,0,0,1,.873-1.034,7.79,7.79,0,0,1,2.42-1.644l3.313-1.444h1.033c0,.611.033,1.271.189,1.285C1638.907,344.541,1637.395,346.118,1637.395,346.118Z" transform="translate(-1629.947 -338.549)" fill="#48caff"/>
        <g id="Grupo_840896" data-name="Grupo 840896" transform="translate(6.41 4.083)">
          <path id="Trazado_297755" data-name="Trazado 297755" d="M1641.462,344.86a1.742,1.742,0,0,1-1.014,1.429l-.023.014a4.3,4.3,0,0,1-1.147.445,5.937,5.937,0,0,1-1.351.152,5.11,5.11,0,0,1-2.5-.6,1.763,1.763,0,0,1-1.037-1.444,1.317,1.317,0,0,1,.247-.747,2.344,2.344,0,0,1,.79-.7,5.535,5.535,0,0,1,5,0A1.755,1.755,0,0,1,1641.462,344.86Z" transform="translate(-1634.387 -342.818)" fill="#2db9f2"/>
        </g>
        <g id="Grupo_840897" data-name="Grupo 840897" transform="translate(7.472)">
          <path id="Trazado_297756" data-name="Trazado 297756" d="M1640,340.977v4.177a1.214,1.214,0,0,1-.714,1,3.822,3.822,0,0,1-3.454,0,1.214,1.214,0,0,1-.715-1v-4.177Z" transform="translate(-1635.118 -339.568)" fill="#173dc2"/>
          <path id="Trazado_297757" data-name="Trazado 297757" d="M1635.869,340.977l-.036,1v4.176a1.214,1.214,0,0,1-.715-1v-4.177Z" transform="translate(-1635.118 -339.568)" fill="#00239c"/>
          <path id="Trazado_297758" data-name="Trazado 297758" d="M1639.287,340.419a1.053,1.053,0,0,1,0,1.994,3.822,3.822,0,0,1-3.454,0,1.053,1.053,0,0,1,0-1.994,3.822,3.822,0,0,1,3.454,0Z" transform="translate(-1635.118 -340.007)" fill="#002eba"/>
        </g>
        <g id="Grupo_840898" data-name="Grupo 840898" transform="translate(11.301 7.555)" opacity="0.2" style="mix-blend-mode: color-dodge;isolation: isolate">
          <path id="Trazado_297759" data-name="Trazado 297759" d="M1642.873,356.128c-.031.017-.061.032-.093.048-.349.173-.713.328-1.088.471v-3.073l-2.724-5.466-1.214-2.44a4.307,4.307,0,0,0,1.147-.445l.024-.014,1.631,3.236,2.305,4.578Z" transform="translate(-1637.754 -345.208)" fill="#2cd3ff"/>
        </g>
      </g>
      <g id="Grupo_840907" data-name="Grupo 840907" transform="translate(1614.237 402.781)">
        <g id="Grupo_840903" data-name="Grupo 840903" transform="translate(0 10.249)">
          <g id="Grupo_840900" data-name="Grupo 840900">
            <path id="Trazado_297760" data-name="Trazado 297760" d="M1594.965,382.886s-.014.052-.041.139c-.048.163-.121.411-.189.652-.017.06-.033.118-.048.177a8.7,8.7,0,0,0-.179.947,4.975,4.975,0,0,1-2.731,3.406,14.742,14.742,0,0,1-13.344,0,5.079,5.079,0,0,1-2.709-3.257c-.06-.317-.127-.633-.2-.946-.063-.246-.131-.487-.211-.725l-.1-.289-.035-.106c.109,0,.446.007.973.01.558,0,1.33,0,2.247,0,.134,0,.273,0,.416,0h1.528a15.623,15.623,0,0,1,9.5-.007c.543,0,1.062,0,1.542,0h2.677c.484,0,.793,0,.879,0Z" transform="translate(-1575.177 -364.69)" fill="#48caff"/>
            <path id="Trazado_297761" data-name="Trazado 297761" d="M1594.965,381.848v2.1a3.164,3.164,0,0,1-.022.373c0,.045-.011.093-.019.139a3.628,3.628,0,0,1-.237.829,5.456,5.456,0,0,1-2,2.3c-.195.137-.4.266-.622.394-.182.1-.369.2-.559.3a14.748,14.748,0,0,1-6.435,1.374,14.332,14.332,0,0,1-6.958-1.65l-.038-.022a6.042,6.042,0,0,1-2.555-2.546,3.668,3.668,0,0,1-.308-1.014c-.007-.035-.009-.07-.013-.106a3.244,3.244,0,0,1-.022-.373,3.649,3.649,0,0,1,.035-.465v-1.637l.848-.074,2.372-.2,1.486-.131a15.677,15.677,0,0,1,5.152-.835c1.788,0,3.576-2.084,5.152-1.528l4.044,2.366Z" transform="translate(-1575.177 -366.128)" fill="#d1f0ff"/>
            <path id="Trazado_297762" data-name="Trazado 297762" d="M1594.982,382.375a3.259,3.259,0,0,1-.027.428,3.99,3.99,0,0,1-.9,2,7.02,7.02,0,0,1-1.968,1.615,15.45,15.45,0,0,1-13.986,0,6.972,6.972,0,0,1-1.958-1.608,3.836,3.836,0,0,1-.938-2.432v-.054a3.617,3.617,0,0,1,.511-1.755c.054-.093.11-.184.171-.274l.018-.022,1.377.388.895,0,.248-.137c.3-.158.61-.3.931-.437a15.288,15.288,0,0,1,5.739-1.06c2.478,0,4.955-1.826,6.868-.758l.863-.087.193.276c0,.007,1.219,1.736,1.219,1.736.017.022.031.041.045.061.069.1.128.195.182.289A3.6,3.6,0,0,1,1594.982,382.375Z" transform="translate(-1575.166 -366.601)" fill="#92dcff"/>
            <path id="Trazado_297763" data-name="Trazado 297763" d="M1594.306,374.479v7.873a3.243,3.243,0,0,1-.2,1.127,5.463,5.463,0,0,1-2.542,2.7c-.041.023-.08.044-.12.068-.071.039-.144.077-.218.115a10.046,10.046,0,0,1-.963.44,14.539,14.539,0,0,1-5.329.962,13.9,13.9,0,0,1-6.281-1.392c-.119-.064-.237-.128-.353-.193l-.027-.017a5.733,5.733,0,0,1-2.372-2.353,3.326,3.326,0,0,1-.347-1.46c0-.073,0-.145.01-.221a2.147,2.147,0,0,1,.023-.221v-7.431l.486.193,1.875.747,2.1.834a15.447,15.447,0,0,1,9.772,0l.445-.174,1.181-.468,2.266-.893Z" transform="translate(-1575.011 -368.165)" fill="#48caff"/>
            <path id="Trazado_297764" data-name="Trazado 297764" d="M1594.965,373.1s-.014.052-.041.139c-.048.163-.121.411-.189.652-.017.058-.033.118-.048.177a8.619,8.619,0,0,0-.179.95c-.01.065-.022.129-.036.193a5.1,5.1,0,0,1-2.695,3.21c-.057.033-.113.067-.173.094a9.686,9.686,0,0,1-1.181.553,14.692,14.692,0,0,1-5.321.949,13.644,13.644,0,0,1-6.67-1.6l-.32-1.634-.038-.022a7.137,7.137,0,0,1-1.842-1.47,4.575,4.575,0,0,1-.713-1.076c-.064-.251-.132-.49-.211-.725l-.1-.289-.035-.106.023.019a9.342,9.342,0,0,0,2.908,1.437,7.93,7.93,0,0,0,2.232.33,15.606,15.606,0,0,1,9.5-.006,8.943,8.943,0,0,0,5.1-1.763A.1.1,0,0,0,1594.965,373.1Z" transform="translate(-1575.177 -368.789)" fill="#48caff"/>
            <path id="Trazado_297765" data-name="Trazado 297765" d="M1594.964,370.969v3.1a3.161,3.161,0,0,1-.023.389c-.006.041-.01.081-.018.123a3.614,3.614,0,0,1-.235.829,4.591,4.591,0,0,1-.818,1.272,6.637,6.637,0,0,1-1.184,1.03c-.193.138-.4.267-.62.4-.153.087-.308.17-.468.25-.032.017-.062.031-.093.048-.35.173-.713.328-1.089.471a15.575,15.575,0,0,1-5.345.9,14.343,14.343,0,0,1-6.956-1.65l-.038-.022a7.121,7.121,0,0,1-1.843-1.47,4.616,4.616,0,0,1-.713-1.076,3.517,3.517,0,0,1-.307-1.014c0-.031-.01-.06-.012-.087a2.962,2.962,0,0,1-.025-.392,3.347,3.347,0,0,1,.036-.463v-2.638h4.7a15.64,15.64,0,0,1,5.152-.837,16.548,16.548,0,0,1,2.622.206,13.72,13.72,0,0,1,1.588.337c.074.019.147.041.219.061.247.071.487.15.724.232Z" transform="translate(-1575.178 -370.132)" fill="#d1f0ff"/>
          </g>
          <path id="Trazado_297766" data-name="Trazado 297766" d="M1578.327,378.073a5.149,5.149,0,0,1-2.686-3.149c-.01-.035-.016-.071-.023-.106-.06-.317-.126-.635-.2-.947a4.579,4.579,0,0,0,.713,1.076,7.137,7.137,0,0,0,1.842,1.47l.038.022Z" transform="translate(-1575.07 -368.44)" fill="#009ad4"/>
          <path id="Trazado_297767" data-name="Trazado 297767" d="M1578.114,377.87l-.038-.022a7.136,7.136,0,0,1-1.842-1.47,4.575,4.575,0,0,1-.713-1.076,3.567,3.567,0,0,1-.308-1.014l-.035-.106.023.019a3.233,3.233,0,0,1-.023-.392,3.588,3.588,0,0,1,.035-.463v-2.638c0,1.461.968,2.924,2.9,4.039v3.1Z" transform="translate(-1575.177 -369.871)" fill="#00a9e8"/>
          <path id="Trazado_297768" data-name="Trazado 297768" d="M1578.327,387.632a5.079,5.079,0,0,1-2.709-3.257c-.06-.317-.126-.633-.2-.946a6.043,6.043,0,0,0,2.555,2.546l.038.022Z" transform="translate(-1575.07 -364.114)" fill="#009ad4"/>
          <path id="Trazado_297769" data-name="Trazado 297769" d="M1578.114,387.1l-.038-.022a6.042,6.042,0,0,1-2.555-2.546,3.668,3.668,0,0,1-.308-1.014l-.035-.106c.007-.125,0-.248,0-.373a3.648,3.648,0,0,1,.035-.465v-1.583a3.835,3.835,0,0,0,.938,2.432,6.97,6.97,0,0,0,1.958,1.608v2.048Z" transform="translate(-1575.177 -365.218)" fill="#00a9e8"/>
          <path id="Trazado_297770" data-name="Trazado 297770" d="M1578.423,383.781c0,.017-.035.208-.035.208l-.289,1.606a6.971,6.971,0,0,1-1.958-1.608,3.836,3.836,0,0,1-.938-2.432V381.5a3.617,3.617,0,0,1,.511-1.755c-.007.076-.01.148-.01.221a3.33,3.33,0,0,0,.347,1.46A5.736,5.736,0,0,0,1578.423,383.781Z" transform="translate(-1575.166 -365.781)" fill="#00bced"/>
          <path id="Trazado_297771" data-name="Trazado 297771" d="M1578.267,377.745v8.366a5.733,5.733,0,0,1-2.372-2.353,3.326,3.326,0,0,1-.347-1.46c0-.073,0-.145.01-.221a2.15,2.15,0,0,1,.023-.221V374.6A5.147,5.147,0,0,0,1578.267,377.745Z" transform="translate(-1575.011 -368.112)" fill="#00a9e8"/>
          <g id="Grupo_840901" data-name="Grupo 840901" transform="translate(15.254 18.084)" opacity="0.2" style="mix-blend-mode: color-dodge;isolation: isolate">
            <path id="Trazado_297772" data-name="Trazado 297772" d="M1587.936,384v1.967c-.195.137-.4.266-.622.394-.182.1-.369.2-.56.3v-2.022l-1.075-1.493a6.8,6.8,0,0,1,1.172-.561Z" transform="translate(-1585.68 -382.582)" fill="#2cd3ff"/>
          </g>
          <g id="Grupo_840902" data-name="Grupo 840902" transform="translate(15.247 9.728)" opacity="0.2" style="mix-blend-mode: color-dodge;isolation: isolate">
            <path id="Trazado_297773" data-name="Trazado 297773" d="M1586.856,376.829v8.358c-.071.039-.144.077-.218.115a10.046,10.046,0,0,1-.963.44v-8.359A9.713,9.713,0,0,0,1586.856,376.829Z" transform="translate(-1585.675 -376.829)" fill="#2cd3ff"/>
          </g>
        </g>
        <path id="Trazado_297774" data-name="Trazado 297774" d="M1594.983,372.7c0,1.461-.966,2.924-2.9,4.039a15.458,15.458,0,0,1-13.985,0c-1.932-1.116-2.9-2.578-2.9-4.039a3.423,3.423,0,0,1,.048-.561,3.84,3.84,0,0,1,.635-1.524.2.2,0,0,1,.019-.025c-.019,0,.1-.173.1-.173a7.877,7.877,0,0,1,3.293-2.678l3.315-1.444h5l3.474,1.6a7.966,7.966,0,0,1,1.746,1.105,7.829,7.829,0,0,1,1.4,1.519c.016.02.031.039.045.061A3.726,3.726,0,0,1,1594.983,372.7Z" transform="translate(-1575.166 -361.617)" fill="#a6e2ff"/>
        <path id="Trazado_297775" data-name="Trazado 297775" d="M1579.157,372.856l-1.057,2.925c-1.93-1.116-2.9-2.578-2.9-4.039a3.282,3.282,0,0,1,.051-.559.11.11,0,0,1,.006-.03c.018-.1.042-.2.07-.307.006-.022.01-.044.017-.065a3.456,3.456,0,0,1,.129-.37c.029-.067.058-.131.09-.2s.057-.119.087-.176.076-.132.113-.2.077-.122.119-.184l.019-.025c-.019,0,.1-.173.1-.173a8.09,8.09,0,0,1,.874-1.036,2.911,2.911,0,0,0-.184,1.005C1576.7,370.668,1577.518,371.911,1579.157,372.856Z" transform="translate(-1575.166 -360.656)" fill="#48caff"/>
        <path id="Trazado_297776" data-name="Trazado 297776" d="M1582.6,369.188l-3.458,4.629-.6.5-3.3-2.174a3.634,3.634,0,0,1,.223-.771c.029-.067.058-.131.09-.2s.057-.119.087-.176.076-.132.113-.2.079-.122.121-.184a.175.175,0,0,1,.019-.025c-.019,0,.1-.173.1-.173a8.077,8.077,0,0,1,.875-1.036,7.826,7.826,0,0,1,2.418-1.643l3.315-1.444h1.033c0,.612.032,1.271.189,1.285C1584.112,367.611,1582.6,369.188,1582.6,369.188Z" transform="translate(-1575.151 -361.617)" fill="#48caff"/>
        <g id="Grupo_840904" data-name="Grupo 840904" transform="translate(6.412 4.085)">
          <path id="Trazado_297777" data-name="Trazado 297777" d="M1586.667,367.93a1.745,1.745,0,0,1-1.014,1.429l-.023.015a4.322,4.322,0,0,1-1.149.444,5.929,5.929,0,0,1-1.351.152,5.1,5.1,0,0,1-2.5-.6,1.761,1.761,0,0,1-1.037-1.444,1.327,1.327,0,0,1,.245-.747,2.326,2.326,0,0,1,.792-.7,5.535,5.535,0,0,1,5,0A1.758,1.758,0,0,1,1586.667,367.93Z" transform="translate(-1579.592 -365.888)" fill="#2db9f2"/>
        </g>
        <g id="Grupo_840905" data-name="Grupo 840905" transform="translate(7.472)">
          <path id="Trazado_297778" data-name="Trazado 297778" d="M1585.207,364.047v4.176a1.214,1.214,0,0,1-.716,1,3.818,3.818,0,0,1-3.452,0,1.211,1.211,0,0,1-.715-1v-4.176Z" transform="translate(-1580.322 -362.637)" fill="#173dc2"/>
          <path id="Trazado_297779" data-name="Trazado 297779" d="M1581.074,364.047l-.036,1v4.176a1.211,1.211,0,0,1-.715-1v-4.176Z" transform="translate(-1580.322 -362.637)" fill="#00239c"/>
          <path id="Trazado_297780" data-name="Trazado 297780" d="M1584.49,363.49a1.052,1.052,0,0,1,0,1.994,3.818,3.818,0,0,1-3.452,0,1.052,1.052,0,0,1,0-1.994,3.806,3.806,0,0,1,3.452,0Z" transform="translate(-1580.322 -363.076)" fill="#002eba"/>
        </g>
        <g id="Grupo_840906" data-name="Grupo 840906" transform="translate(11.301 7.556)" opacity="0.2" style="mix-blend-mode: color-dodge;isolation: isolate">
          <path id="Trazado_297781" data-name="Trazado 297781" d="M1588.078,379.2c-.032.017-.063.031-.093.048-.35.173-.713.328-1.089.471v-3.074l-2.723-5.466-1.214-2.44a4.321,4.321,0,0,0,1.149-.444l.023-.015,1.629,3.236,2.306,4.578Z" transform="translate(-1582.958 -368.278)" fill="#2cd3ff"/>
        </g>
      </g>
      <g id="Grupo_840915" data-name="Grupo 840915" transform="translate(1558.906 381.829)">
        <g id="Grupo_840911" data-name="Grupo 840911" transform="translate(0 10.249)">
          <g id="Grupo_840908" data-name="Grupo 840908">
            <path id="Trazado_297782" data-name="Trazado 297782" d="M1556.871,368.462s-.015.051-.041.139c-.048.163-.121.411-.189.651-.017.06-.033.119-.048.177a8.712,8.712,0,0,0-.179.949,4.974,4.974,0,0,1-2.731,3.406,14.741,14.741,0,0,1-13.344,0,5.077,5.077,0,0,1-2.709-3.258c-.06-.317-.125-.633-.2-.946-.061-.245-.131-.487-.211-.725l-.1-.288-.037-.106c.109,0,.446.007.973.009.558,0,1.33,0,2.247,0h1.944a15.612,15.612,0,0,1,9.5-.006c.543,0,1.06,0,1.541,0,1.113,0,2.044,0,2.677,0h.9Z" transform="translate(-1537.085 -350.266)" fill="#48caff"/>
            <path id="Trazado_297783" data-name="Trazado 297783" d="M1556.871,367.422v2.1a3.21,3.21,0,0,1-.022.373c0,.045-.012.091-.019.139a3.6,3.6,0,0,1-.237.828,5.428,5.428,0,0,1-2,2.3c-.193.137-.4.267-.622.4-.182.1-.367.2-.559.3a14.763,14.763,0,0,1-6.435,1.374,14.327,14.327,0,0,1-6.956-1.652l-.037-.02a6.038,6.038,0,0,1-2.557-2.548,3.633,3.633,0,0,1-.306-1.012c-.007-.036-.01-.071-.015-.106a3.321,3.321,0,0,1-.022-.373,3.386,3.386,0,0,1,.037-.466v-1.637l.847-.073,2.372-.206,1.486-.129a15.642,15.642,0,0,1,5.152-.837c1.788,0,3.576-2.083,5.152-1.528l4.044,2.368Z" transform="translate(-1537.085 -351.703)" fill="#d1f0ff"/>
            <path id="Trazado_297784" data-name="Trazado 297784" d="M1556.887,367.951a3.253,3.253,0,0,1-.028.427,3.984,3.984,0,0,1-.9,2,7,7,0,0,1-1.968,1.617,15.462,15.462,0,0,1-13.986,0,6.978,6.978,0,0,1-1.958-1.609,3.83,3.83,0,0,1-.937-2.43V367.9a3.6,3.6,0,0,1,.51-1.755c.054-.092.11-.184.171-.275l.017-.02,1.377.386.895.006c.083-.048.166-.093.248-.138.3-.158.61-.3.931-.436A15.261,15.261,0,0,1,1547,364.6c2.478,0,4.953-1.826,6.866-.758l.863-.087.193.276,1.219,1.737a.632.632,0,0,1,.045.061c.068.1.128.193.181.288A3.6,3.6,0,0,1,1556.887,367.951Z" transform="translate(-1537.073 -352.176)" fill="#92dcff"/>
            <path id="Trazado_297785" data-name="Trazado 297785" d="M1556.212,360.054v7.873a3.258,3.258,0,0,1-.2,1.127,5.46,5.46,0,0,1-2.542,2.7l-.12.068c-.071.041-.144.078-.218.116a10.346,10.346,0,0,1-.963.439,14.532,14.532,0,0,1-5.329.962,13.881,13.881,0,0,1-6.281-1.391c-.118-.062-.237-.126-.352-.193l-.029-.016a5.742,5.742,0,0,1-2.372-2.353,3.335,3.335,0,0,1-.347-1.46c0-.074,0-.147.01-.222a2.191,2.191,0,0,1,.023-.219v-7.431l.487.193,1.875.747,2.1.834a15.422,15.422,0,0,1,9.772,0l.445-.174,1.181-.468,2.266-.893Z" transform="translate(-1536.918 -353.74)" fill="#48caff"/>
            <path id="Trazado_297786" data-name="Trazado 297786" d="M1556.871,358.675s-.015.051-.041.138c-.048.164-.121.411-.189.652-.017.06-.033.119-.048.177a8.739,8.739,0,0,0-.179.95c-.01.067-.022.129-.036.193a5.1,5.1,0,0,1-2.695,3.21,1.952,1.952,0,0,1-.173.094,9.375,9.375,0,0,1-1.181.553,14.66,14.66,0,0,1-5.319.95,13.65,13.65,0,0,1-6.671-1.6l-.318-1.634-.037-.022a7.139,7.139,0,0,1-1.843-1.468,4.57,4.57,0,0,1-.713-1.078c-.064-.25-.132-.488-.211-.725l-.1-.288-.037-.106.023.019a9.389,9.389,0,0,0,2.908,1.435,7.94,7.94,0,0,0,2.233.331,15.626,15.626,0,0,1,9.5-.007,8.943,8.943,0,0,0,5.094-1.762A.215.215,0,0,0,1556.871,358.675Z" transform="translate(-1537.085 -354.364)" fill="#48caff"/>
            <path id="Trazado_297787" data-name="Trazado 297787" d="M1556.87,356.542v3.1a3.149,3.149,0,0,1-.023.389c0,.041-.01.08-.017.122a3.534,3.534,0,0,1-.235.829,4.549,4.549,0,0,1-.818,1.274,6.626,6.626,0,0,1-1.184,1.03c-.193.137-.4.267-.62.394-.151.089-.308.171-.468.251l-.093.046c-.349.173-.713.328-1.088.471a15.557,15.557,0,0,1-5.347.9,14.327,14.327,0,0,1-6.956-1.652l-.037-.022a7.166,7.166,0,0,1-1.843-1.469,4.614,4.614,0,0,1-.713-1.078,3.507,3.507,0,0,1-.306-1.012c0-.031-.01-.06-.012-.087a2.991,2.991,0,0,1-.023-.392,3.293,3.293,0,0,1,.035-.463v-2.639h4.7a15.639,15.639,0,0,1,5.152-.835,16.723,16.723,0,0,1,2.622.2,13.733,13.733,0,0,1,1.588.338c.074.019.147.039.22.061q.369.107.722.231Z" transform="translate(-1537.085 -355.707)" fill="#d1f0ff"/>
          </g>
          <path id="Trazado_297788" data-name="Trazado 297788" d="M1540.233,363.647a5.146,5.146,0,0,1-2.686-3.148c-.009-.036-.016-.071-.023-.107-.059-.315-.125-.635-.2-.947a4.564,4.564,0,0,0,.713,1.078,7.139,7.139,0,0,0,1.843,1.469l.038.022Z" transform="translate(-1536.978 -354.016)" fill="#009ad4"/>
          <path id="Trazado_297789" data-name="Trazado 297789" d="M1540.022,363.444l-.037-.022a7.14,7.14,0,0,1-1.843-1.468,4.569,4.569,0,0,1-.713-1.078,3.5,3.5,0,0,1-.306-1.012l-.037-.106.023.019a3.1,3.1,0,0,1,.013-.856v-2.639c0,1.463.966,2.925,2.895,4.039v3.1Z" transform="translate(-1537.085 -355.447)" fill="#00a9e8"/>
          <path id="Trazado_297790" data-name="Trazado 297790" d="M1540.233,373.208a5.077,5.077,0,0,1-2.709-3.258c-.059-.317-.125-.633-.2-.946a6.039,6.039,0,0,0,2.556,2.548l.038.02Z" transform="translate(-1536.978 -349.69)" fill="#009ad4"/>
          <path id="Trazado_297791" data-name="Trazado 297791" d="M1540.022,372.675l-.037-.02a6.039,6.039,0,0,1-2.557-2.548,3.631,3.631,0,0,1-.306-1.012l-.037-.106c.008-.126,0-.248,0-.373a3.387,3.387,0,0,1,.037-.466v-1.582a3.829,3.829,0,0,0,.937,2.43,6.979,6.979,0,0,0,1.958,1.609v2.048Z" transform="translate(-1537.085 -350.793)" fill="#00a9e8"/>
          <path id="Trazado_297792" data-name="Trazado 297792" d="M1540.329,369.356c0,.016-.035.208-.035.208L1540,371.17a6.978,6.978,0,0,1-1.958-1.609,3.83,3.83,0,0,1-.937-2.43v-.055a3.6,3.6,0,0,1,.51-1.755c-.007.076-.01.148-.01.222a3.339,3.339,0,0,0,.347,1.46A5.745,5.745,0,0,0,1540.329,369.356Z" transform="translate(-1537.073 -351.356)" fill="#00bced"/>
          <path id="Trazado_297793" data-name="Trazado 297793" d="M1540.173,363.319v8.368a5.743,5.743,0,0,1-2.372-2.353,3.336,3.336,0,0,1-.347-1.46c0-.074,0-.147.01-.222a2.192,2.192,0,0,1,.023-.219v-7.261A5.146,5.146,0,0,0,1540.173,363.319Z" transform="translate(-1536.918 -353.687)" fill="#00a9e8"/>
          <g id="Grupo_840909" data-name="Grupo 840909" transform="translate(15.253 18.082)" opacity="0.2" style="mix-blend-mode: color-dodge;isolation: isolate">
            <path id="Trazado_297794" data-name="Trazado 297794" d="M1549.842,369.575v1.965c-.193.137-.4.267-.622.4-.182.1-.368.2-.559.3V370.21l-1.075-1.492a6.8,6.8,0,0,1,1.172-.562Z" transform="translate(-1547.586 -368.156)" fill="#2cd3ff"/>
          </g>
          <g id="Grupo_840910" data-name="Grupo 840910" transform="translate(15.246 9.726)" opacity="0.2" style="mix-blend-mode: color-dodge;isolation: isolate">
            <path id="Trazado_297795" data-name="Trazado 297795" d="M1548.762,362.4v8.358c-.071.041-.144.078-.218.116a10.384,10.384,0,0,1-.963.439v-8.359A9.364,9.364,0,0,0,1548.762,362.4Z" transform="translate(-1547.581 -362.403)" fill="#2cd3ff"/>
          </g>
        </g>
        <path id="Trazado_297796" data-name="Trazado 297796" d="M1556.889,358.277c0,1.463-.966,2.925-2.9,4.039a15.446,15.446,0,0,1-13.985,0c-1.932-1.114-2.895-2.577-2.895-4.039a3.457,3.457,0,0,1,.046-.559,3.841,3.841,0,0,1,.636-1.524.086.086,0,0,1,.019-.026c-.019,0,.1-.173.1-.173a7.862,7.862,0,0,1,3.293-2.678l3.313-1.444h5l3.474,1.6a7.909,7.909,0,0,1,1.746,1.107,7.762,7.762,0,0,1,1.4,1.518c.016.022.031.041.045.062A3.724,3.724,0,0,1,1556.889,358.277Z" transform="translate(-1537.073 -347.193)" fill="#a6e2ff"/>
        <path id="Trazado_297797" data-name="Trazado 297797" d="M1541.063,358.431l-1.057,2.924c-1.93-1.114-2.9-2.577-2.9-4.039a3.316,3.316,0,0,1,.052-.558.121.121,0,0,1,0-.032c.019-.1.042-.2.07-.305l.017-.067a3.389,3.389,0,0,1,.131-.37c.028-.065.057-.129.089-.2s.057-.118.089-.174.075-.132.113-.2.076-.123.118-.185l.019-.026c-.019,0,.1-.173.1-.173a8.052,8.052,0,0,1,.873-1.034,2.9,2.9,0,0,0-.185,1C1538.6,356.243,1539.424,357.485,1541.063,358.431Z" transform="translate(-1537.074 -346.231)" fill="#48caff"/>
        <path id="Trazado_297798" data-name="Trazado 297798" d="M1544.506,354.762l-3.458,4.631-.6.5-3.3-2.173a3.578,3.578,0,0,1,.225-.773c.028-.065.057-.129.089-.2s.057-.118.089-.174.075-.132.113-.2.077-.124.121-.185a.081.081,0,0,1,.019-.026c-.019,0,.1-.173.1-.173a8.051,8.051,0,0,1,.873-1.034,7.814,7.814,0,0,1,2.42-1.644l3.313-1.444h1.033c0,.613.033,1.271.189,1.286C1546.018,353.185,1544.506,354.762,1544.506,354.762Z" transform="translate(-1537.058 -347.193)" fill="#48caff"/>
        <g id="Grupo_840912" data-name="Grupo 840912" transform="translate(6.41 4.083)">
          <path id="Trazado_297799" data-name="Trazado 297799" d="M1548.573,353.506a1.749,1.749,0,0,1-1.014,1.429l-.023.013a4.277,4.277,0,0,1-1.147.444,5.948,5.948,0,0,1-1.352.154,5.106,5.106,0,0,1-2.5-.6,1.759,1.759,0,0,1-1.037-1.442,1.322,1.322,0,0,1,.246-.747,2.341,2.341,0,0,1,.791-.7,5.535,5.535,0,0,1,5,0A1.76,1.76,0,0,1,1548.573,353.506Z" transform="translate(-1541.498 -351.462)" fill="#2db9f2"/>
        </g>
        <g id="Grupo_840913" data-name="Grupo 840913" transform="translate(7.472)">
          <path id="Trazado_297800" data-name="Trazado 297800" d="M1547.112,349.622V353.8a1.211,1.211,0,0,1-.716,1,3.807,3.807,0,0,1-3.453,0,1.209,1.209,0,0,1-.715-1v-4.176Z" transform="translate(-1542.229 -348.212)" fill="#173dc2"/>
          <path id="Trazado_297801" data-name="Trazado 297801" d="M1542.98,349.622l-.036,1v4.176a1.209,1.209,0,0,1-.715-1v-4.176Z" transform="translate(-1542.229 -348.212)" fill="#00239c"/>
          <path id="Trazado_297802" data-name="Trazado 297802" d="M1546.4,349.064a1.053,1.053,0,0,1,0,1.994,3.822,3.822,0,0,1-3.454,0,1.053,1.053,0,0,1,0-1.994,3.822,3.822,0,0,1,3.454,0Z" transform="translate(-1542.229 -348.651)" fill="#002eba"/>
        </g>
        <g id="Grupo_840914" data-name="Grupo 840914" transform="translate(11.301 7.556)" opacity="0.2" style="mix-blend-mode: color-dodge;isolation: isolate">
          <path id="Trazado_297803" data-name="Trazado 297803" d="M1549.984,364.773l-.093.046c-.349.173-.713.328-1.088.471v-3.074l-2.725-5.466-1.213-2.44a4.281,4.281,0,0,0,1.147-.444l.023-.013,1.63,3.236,2.307,4.577Z" transform="translate(-1544.865 -353.853)" fill="#2cd3ff"/>
        </g>
      </g>
    </g>
  </g>
</svg>
