<svg xmlns="http://www.w3.org/2000/svg" xmlns:xlink="http://www.w3.org/1999/xlink" width="324.018" height="188.563" viewBox="0 0 324.018 188.563">
  <defs>
    <linearGradient id="linear-gradient" x1="0.746" y1="1.313" x2="0.322" y2="-0.097" gradientUnits="objectBoundingBox">
      <stop offset="0.076" stop-color="#f0eff2"/>
      <stop offset="1" stop-color="#fff"/>
    </linearGradient>
    <linearGradient id="linear-gradient-2" x1="0.003" y1="1.072" x2="0.995" y2="-0.095" gradientUnits="objectBoundingBox">
      <stop offset="0.035" stop-color="#138bbd"/>
      <stop offset="0.226" stop-color="#169ac6"/>
      <stop offset="0.595" stop-color="#1ec2df"/>
      <stop offset="1" stop-color="#2af6ff"/>
    </linearGradient>
    <linearGradient id="linear-gradient-3" x1="0.579" y1="0.473" x2="-0.269" y2="-0.384" gradientUnits="objectBoundingBox">
      <stop offset="0.035" stop-color="#ffa98c"/>
      <stop offset="0.317" stop-color="#feb892"/>
      <stop offset="0.86" stop-color="#fee0a3"/>
      <stop offset="1" stop-color="#feeca8"/>
    </linearGradient>
    <linearGradient id="linear-gradient-4" x1="0.981" y1="0.917" x2="-39.407" y2="-34.069" gradientUnits="objectBoundingBox">
      <stop offset="0.035" stop-color="#9f19ab"/>
      <stop offset="0.244" stop-color="#ae24b0"/>
      <stop offset="0.645" stop-color="#d643bf"/>
      <stop offset="1" stop-color="#ff63ce"/>
    </linearGradient>
    <linearGradient id="linear-gradient-5" x1="1.772" y1="1.753" x2="-26.97" y2="-26.558" xlink:href="#linear-gradient-4"/>
    <linearGradient id="linear-gradient-6" x1="2.776" y1="3.195" x2="-26.166" y2="-29.605" xlink:href="#linear-gradient-4"/>
    <linearGradient id="linear-gradient-7" x1="1.5" y1="1.513" x2="-7.231" y2="-7.336" xlink:href="#linear-gradient-4"/>
    <linearGradient id="linear-gradient-8" x1="4.814" y1="5.333" x2="-23.893" y2="-27.473" xlink:href="#linear-gradient-4"/>
    <linearGradient id="linear-gradient-9" x1="1.191" y1="1.824" x2="-1.238" y2="-2.739" xlink:href="#linear-gradient-4"/>
    <linearGradient id="linear-gradient-10" x1="12.633" y1="13.157" x2="-16.793" y2="-17.679" xlink:href="#linear-gradient-4"/>
    <linearGradient id="linear-gradient-11" x1="4.476" y1="3.663" x2="-3.537" y2="-2.712" xlink:href="#linear-gradient-4"/>
    <linearGradient id="linear-gradient-12" x1="25.505" y1="13.488" x2="-17.614" y2="-9.07" xlink:href="#linear-gradient-4"/>
    <linearGradient id="linear-gradient-13" x1="7.48" y1="6.731" x2="-3.736" y2="-3.595" xlink:href="#linear-gradient-4"/>
    <linearGradient id="linear-gradient-14" x1="20.207" y1="21.155" x2="-8.993" y2="-9.479" xlink:href="#linear-gradient-4"/>
    <linearGradient id="linear-gradient-15" x1="22.553" y1="16.569" x2="-8.398" y2="-5.984" xlink:href="#linear-gradient-4"/>
    <linearGradient id="linear-gradient-16" x1="31.423" y1="18.519" x2="-9.878" y2="-5.689" xlink:href="#linear-gradient-4"/>
    <linearGradient id="linear-gradient-17" x1="5.711" y1="6.04" x2="-1.594" y2="-1.726" xlink:href="#linear-gradient-4"/>
    <linearGradient id="linear-gradient-18" x1="28.579" y1="15.047" x2="-12.732" y2="-6.307" xlink:href="#linear-gradient-4"/>
    <linearGradient id="linear-gradient-19" x1="35.665" y1="13.962" x2="-14.379" y2="-5.196" xlink:href="#linear-gradient-4"/>
    <linearGradient id="linear-gradient-20" x1="30.189" y1="16.175" x2="-10.733" y2="-5.476" xlink:href="#linear-gradient-4"/>
    <linearGradient id="linear-gradient-21" x1="25.391" y1="22.663" x2="-9.57" y2="-8.466" xlink:href="#linear-gradient-4"/>
    <linearGradient id="linear-gradient-22" x1="20.282" y1="23.244" x2="-7.847" y2="-9.097" xlink:href="#linear-gradient-4"/>
  </defs>
  <g id="Grupo_842390" data-name="Grupo 842390" transform="translate(-884.306 -23.686)">
    <g id="Grupo_842385" data-name="Grupo 842385" transform="translate(884.306 25.281)">
      <path id="Trazado_299325" data-name="Trazado 299325" d="M1009.531,25.886,884.306,98.6l197.639,114.257,126.379-73.866Z" transform="translate(-884.306 -25.886)" fill="#d1d3d4" opacity="0.1" style="mix-blend-mode: multiply;isolation: isolate"/>
      <path id="Trazado_299326" data-name="Trazado 299326" d="M1009.741,26.145,884.824,98.677l197.153,113.976,126.068-73.684Z" transform="translate(-884.449 -25.957)" fill="#d0d2d3" opacity="0.121" style="mix-blend-mode: multiply;isolation: isolate"/>
      <path id="Trazado_299327" data-name="Trazado 299327" d="M1009.952,26.4,885.342,98.757l196.667,113.695,125.758-73.5Z" transform="translate(-884.591 -26.029)" fill="#cfd1d2" opacity="0.143" style="mix-blend-mode: multiply;isolation: isolate"/>
      <path id="Trazado_299328" data-name="Trazado 299328" d="M1010.162,26.661l-124.3,72.175,196.18,113.414,125.447-73.32Z" transform="translate(-884.734 -26.1)" fill="#ced0d1" opacity="0.164" style="mix-blend-mode: multiply;isolation: isolate"/>
      <path id="Trazado_299329" data-name="Trazado 299329" d="M1010.372,26.919l-123.993,72,195.694,113.133,125.136-73.139Z" transform="translate(-884.876 -26.171)" fill="#cdcfd0" opacity="0.186" style="mix-blend-mode: multiply;isolation: isolate"/>
      <path id="Trazado_299330" data-name="Trazado 299330" d="M1010.582,27.178,886.9,98.995,1082.1,211.846l124.825-72.957Z" transform="translate(-885.019 -26.242)" fill="#cccecf" opacity="0.207" style="mix-blend-mode: multiply;isolation: isolate"/>
      <path id="Trazado_299331" data-name="Trazado 299331" d="M1010.792,27.436,887.415,99.074l194.722,112.57,124.514-72.775Z" transform="translate(-885.162 -26.313)" fill="#cbcdce" opacity="0.229" style="mix-blend-mode: multiply;isolation: isolate"/>
      <path id="Trazado_299332" data-name="Trazado 299332" d="M1011,27.694,887.933,99.154l194.236,112.289,124.2-72.594Z" transform="translate(-885.305 -26.384)" fill="#cacccd" opacity="0.25" style="mix-blend-mode: multiply;isolation: isolate"/>
      <path id="Trazado_299333" data-name="Trazado 299333" d="M1011.212,27.953,888.452,99.233,1082.2,211.241l123.892-72.412Z" transform="translate(-885.447 -26.455)" fill="#c9cbcc" opacity="0.271" style="mix-blend-mode: multiply;isolation: isolate"/>
      <path id="Trazado_299334" data-name="Trazado 299334" d="M1011.423,28.211,888.97,99.313,1082.233,211.04l123.581-72.23Z" transform="translate(-885.59 -26.526)" fill="#c8cacb" opacity="0.293" style="mix-blend-mode: multiply;isolation: isolate"/>
      <path id="Trazado_299336" data-name="Trazado 299336" d="M1011.843,28.727,890.006,99.471,1082.3,210.636l122.96-71.867Z" transform="translate(-885.875 -26.669)" fill="#c6c8c9" opacity="0.336" style="mix-blend-mode: multiply;isolation: isolate"/>
      <path id="Trazado_299337" data-name="Trazado 299337" d="M1012.053,28.986,890.524,99.551l191.8,110.884,122.649-71.685Z" transform="translate(-886.018 -26.74)" fill="#c5c7c8" opacity="0.357" style="mix-blend-mode: multiply;isolation: isolate"/>
      <path id="Trazado_299340" data-name="Trazado 299340" d="M892.079,99.789,1082.425,209.83l121.716-71.14Z" transform="translate(-886.446 -26.953)" fill="#c2c4c5" opacity="0.421" style="mix-blend-mode: multiply;isolation: isolate"/>
      <path id="Trazado_299351" data-name="Trazado 299351" d="M1015,32.6,897.779,100.662l185,106.949,118.3-69.141Z" transform="translate(-888.015 -27.735)" fill="#b8babb" opacity="0.657" style="mix-blend-mode: multiply;isolation: isolate"/>
      <path id="Trazado_299352" data-name="Trazado 299352" d="M1015.205,32.86,898.3,100.742,1082.809,207.41l117.985-68.959Z" transform="translate(-888.158 -27.806)" fill="#b7b9ba" opacity="0.679" style="mix-blend-mode: multiply;isolation: isolate"/>
      <path id="Trazado_299353" data-name="Trazado 299353" d="M1015.416,33.118l-116.6,67.7,184.026,106.387,117.674-68.778Z" transform="translate(-888.301 -27.877)" fill="#b6b8b9" opacity="0.7" style="mix-blend-mode: multiply;isolation: isolate"/>
      <path id="Trazado_299354" data-name="Trazado 299354" d="M1015.626,33.377,899.334,100.9l183.539,106.106,117.364-68.6Z" transform="translate(-888.443 -27.949)" fill="#b5b7b8" opacity="0.721" style="mix-blend-mode: multiply;isolation: isolate"/>
      <path id="Trazado_299355" data-name="Trazado 299355" d="M1015.836,33.635,899.852,100.98,1082.906,206.8l117.053-68.414Z" transform="translate(-888.586 -28.02)" fill="#b4b6b7" opacity="0.743" style="mix-blend-mode: multiply;isolation: isolate"/>
      <path id="Trazado_299356" data-name="Trazado 299356" d="M1016.046,33.893,900.37,101.06,1042.447,183.2l40.49,23.408,116.742-68.233Z" transform="translate(-888.729 -28.091)" fill="#b3b5b6" opacity="0.764" style="mix-blend-mode: multiply;isolation: isolate"/>
      <path id="Trazado_299357" data-name="Trazado 299357" d="M1016.256,34.151,900.889,101.139,1082.969,206.4,1199.4,138.351Z" transform="translate(-888.871 -28.162)" fill="#b2b4b5" opacity="0.786" style="mix-blend-mode: multiply;isolation: isolate"/>
      <path id="Trazado_299358" data-name="Trazado 299358" d="M1016.466,34.41l-115.06,66.809L1083,206.2l116.12-67.869Z" transform="translate(-889.014 -28.233)" fill="#b1b3b4" opacity="0.807" style="mix-blend-mode: multiply;isolation: isolate"/>
      <path id="Trazado_299359" data-name="Trazado 299359" d="M1016.677,34.668,901.925,101.3,1083.034,206l115.809-67.688Z" transform="translate(-889.157 -28.304)" fill="#b0b2b3" opacity="0.829" style="mix-blend-mode: multiply;isolation: isolate"/>
      <path id="Trazado_299360" data-name="Trazado 299360" d="M1016.887,34.926,902.443,101.377,1083.066,205.8l115.5-67.506Z" transform="translate(-889.299 -28.375)" fill="#afb1b2" opacity="0.85" style="mix-blend-mode: multiply;isolation: isolate"/>
      <path id="Trazado_299361" data-name="Trazado 299361" d="M1017.1,35.184,902.962,101.457,1083.1,205.595l115.187-67.324Z" transform="translate(-889.442 -28.446)" fill="#aeb0b1" opacity="0.871" style="mix-blend-mode: multiply;isolation: isolate"/>
      <path id="Trazado_299362" data-name="Trazado 299362" d="M1017.307,35.443,903.48,101.536l179.65,103.857,114.876-67.142Z" transform="translate(-889.585 -28.517)" fill="#adafb0" opacity="0.893" style="mix-blend-mode: multiply;isolation: isolate"/>
      <path id="Trazado_299363" data-name="Trazado 299363" d="M1017.517,35.7,904,101.615l179.164,103.576,114.566-66.961Z" transform="translate(-889.728 -28.589)" fill="#acaeaf" opacity="0.914" style="mix-blend-mode: multiply;isolation: isolate"/>
      <path id="Trazado_299364" data-name="Trazado 299364" d="M1017.727,35.959,904.516,101.695l178.677,103.3,114.255-66.779Z" transform="translate(-889.87 -28.66)" fill="#abadae" opacity="0.936" style="mix-blend-mode: multiply;isolation: isolate"/>
      <path id="Trazado_299365" data-name="Trazado 299365" d="M1017.938,36.218l-112.9,65.557,178.191,103.014,113.944-66.6Z" transform="translate(-890.013 -28.731)" fill="#aaacad" opacity="0.957" style="mix-blend-mode: multiply;isolation: isolate"/>
      <path id="Trazado_299366" data-name="Trazado 299366" d="M1018.148,36.476l-112.6,65.378,177.705,102.733,113.633-66.416Z" transform="translate(-890.156 -28.802)" fill="#a9abac" opacity="0.979" style="mix-blend-mode: multiply;isolation: isolate"/>
      <path id="Trazado_299367" data-name="Trazado 299367" d="M1018.358,36.734l-112.287,65.2L1083.29,204.385l113.322-66.234Z" transform="translate(-890.298 -28.873)" fill="#a8aaab" style="mix-blend-mode: multiply;isolation: isolate"/>
    </g>
    <path id="Trazado_299368" data-name="Trazado 299368" d="M1081.945,210.655l126.379-73.866-46.233-37.766-47.638-15.9-46.688-36.209-58.235-23.225L884.306,96.4l57.272,23.226,47.416,37.049,46.7,15.787Z" fill="#fff"/>
    <path id="Trazado_299369" data-name="Trazado 299369" d="M1040.61,170.767l-46.751-15.8L946.53,117.983,895.64,97.346l117.307-68.114,56.123,22.383,46.771,36.274,47.593,15.888,41.677,34.044-119.689,69.955Z" transform="translate(-3.121 -1.527)" fill="url(#linear-gradient)"/>
    <g id="Grupo_842388" data-name="Grupo 842388" transform="translate(901.374 26.517)">
      <path id="Trazado_299370" data-name="Trazado 299370" d="M1061.08,81.259l-4.348,2.657,5.314,6.281,7.73-3.865Z" transform="translate(-948.847 -42.368)" fill="#d1d3d4"/>
      <g id="Grupo_842386" data-name="Grupo 842386" transform="translate(0 32.234)">
        <path id="Trazado_299371" data-name="Trazado 299371" d="M1021.562,186.373l26.643-16.729,9.047,6.728a1.113,1.113,0,0,0,.3.157l5.592,1.892L1049.5,186.4l1.1,1.877,15.7-9.18a1.087,1.087,0,0,0-.2-1.968l-7.687-2.6-8.231-6.121L1058,163.5l-1.157-1.841-37.1,23.295Z" transform="translate(-938.662 -96.736)" fill="#d1d3d4"/>
        <path id="Trazado_299372" data-name="Trazado 299372" d="M932.041,106.635l-24.182,14.312,2.533,1.027,24.138-14.286-.094-.159,11,4.106.76-2.037L925.6,101.911l-2.432,1.412Z" transform="translate(-907.859 -80.287)" fill="#d1d3d4"/>
        <path id="Trazado_299373" data-name="Trazado 299373" d="M1009.77,103.2a1.086,1.086,0,0,0,1.021-.072l9.028-5.665,3.382,1.443,19.427,17.989,1.478-1.6-4.547-4.21,23.822-14.6a1.087,1.087,0,0,0,.151-1.742l-13.286-11.715a1.084,1.084,0,0,0-.135-.1l-14.252-9.058-1.167,1.835,14.18,9.013,6.693,5.9-22.95,14.037-8.075-7.477a1.085,1.085,0,0,0-.312-.2L993.791,84l-.854,2,24.447,10.428-7.258,4.555L972.551,84.221l14.669-8.8L986.1,73.556l-15.974,9.585-6.121-2.73-2.32,1.346Zm47.5-11.074,3.719,3.28L1037.9,109.554l-3.629-3.36Z" transform="translate(-922.679 -72.48)" fill="#d1d3d4"/>
        <path id="Trazado_299374" data-name="Trazado 299374" d="M1210.865,220.843l-1.5,1.568,10.469,10.045,1.951-1.14Z" transform="translate(-990.869 -113.032)" fill="#d1d3d4"/>
        <path id="Trazado_299375" data-name="Trazado 299375" d="M1095.83,213.156l-1.189-1.82-10.364,6.774,2.619.885Z" transform="translate(-956.431 -110.414)" fill="#d1d3d4"/>
        <path id="Trazado_299376" data-name="Trazado 299376" d="M1221.262,154.225a1.087,1.087,0,0,0,.773.862l16.909,4.831.6-2.091-16.251-4.643-.931-5.465,26.466-15.185-1.8-1.472-25.052,14.373-.5-2.931a1.086,1.086,0,0,0-.577-.786l-5.137-2.622,20.686-11.9-2.758-.921-20.237,11.646-15.743-8.036-.989,1.936,22.7,11.588Z" transform="translate(-987.388 -86.995)" fill="#d1d3d4"/>
        <path id="Trazado_299377" data-name="Trazado 299377" d="M1147.237,72.072l-8.253,4.749,1.084,1.884,9.025-5.193Z" transform="translate(-971.493 -72.072)" fill="#d1d3d4"/>
      </g>
      <path id="Trazado_299378" data-name="Trazado 299378" d="M1097.211,124.022l29.47-1.208,26.813-5.556,13.044,6.764-22.707,14.01-8.213-2.174-37.2,13.286-11.353-21.016Z" transform="translate(-957.198 -52.279)" fill="#cfe4bd"/>
      <path id="Trazado_299379" data-name="Trazado 299379" d="M1038.641,27.592,991.9,55.492l17.392,8.7,19.566-7.971,13.769,1.087,23.19-12.682-2.174-6.884Z" transform="translate(-930.997 -27.592)" fill="#cfe4bd"/>
      <path id="Trazado_299380" data-name="Trazado 299380" d="M1108.226,165.824,1085.4,173.8l.362,4.71,3.261,9.058,18.117,7.971,3.261,2.174,1.812,1.449,33.335,7.247,7.971,5.435,16.668-10.145-7.971-13.407,7.971-15.581-7.609-6.16-26.451-11.957Z" transform="translate(-956.739 -62.558)" fill="#cfe4bd"/>
      <path id="Trazado_299381" data-name="Trazado 299381" d="M1099.077,188.383l19.658,16.234c1.969-10.325,5.485-31.719,6.652-46.883,1.094-14.222-11.017-21.185-17.392-28.021-3.92-4.2-5.4-8.2-7-13.114-2.051-6.3-.858-12.083.524-18.779,1.419-6.88,4.979-15.535,2.61-24.149-2.656-9.66-16.065-14.591-29.332-21.293a69.833,69.833,0,0,1-25.427-22.366l-17.9,10.39c9.082,10.932,25.788,16.048,38.837,22.64,8.014,4.048,16.941,11.864,17.893,15.328,1.445,5.255.368,10.476-.88,16.521-1.571,7.613-5.6,16.768-2.363,26.72,2.594,7.969,7.806,13.557,12.4,18.488,6.367,6.828,12.194,10.532,11.616,18.044C1108.193,168.4,1103.03,180.458,1099.077,188.383Z" transform="translate(-941.893 -28.258)" fill="url(#linear-gradient-2)"/>
      <path id="Trazado_299382" data-name="Trazado 299382" d="M1112.969,189.938l53.874-33.317a2.176,2.176,0,0,0,1.03-1.907l-.693-25.986,14.657-9.94-3.514-2.87-14.569,9.88a2.176,2.176,0,0,0-.953,1.857l.691,25.925-54.012,33.4.042.068-7.648-6.408a2.174,2.174,0,0,0-.983-.467l-34.856-6.758-3.516-3.515a2.173,2.173,0,0,0-.781-.5l-44.558-16.53L980.97,121.4l42.725-25.635a2.174,2.174,0,0,0,.914-2.636L1017.541,74.5l30.922-17.33,16.135,6.387,45.768,36.037a2.195,2.195,0,0,0,.334.217l12.465,6.545L1097.509,122.5l2.316,3.68,41.37-26.028-5.334-1.781-8.832,5.557.186-.354L1112.9,96.052l-45.86-36.111a2.152,2.152,0,0,0-.544-.312L1049.1,52.745a2.171,2.171,0,0,0-1.863.125L1014.69,71.111l-24.635,1.735-17.638-9.062-4.466,2.594,17.205,8.839L924.336,112.21l5.02,2.036,60.926-37.058,23.016-1.621,6.6,17.4-43.734,26.24a2.175,2.175,0,0,0-.307,3.505l38.77,33.7a2.179,2.179,0,0,0,.67.4l13.315,4.94-8.754,5.765,5.226,1.766,8.587-5.655,26.112,9.687,3.65,3.649a2.176,2.176,0,0,0,1.123.6l34.958,6.778,18.458,15.465,3.989-2.331Z" transform="translate(-912.395 -34.475)" fill="#fee2a6"/>
      <path id="Trazado_299383" data-name="Trazado 299383" d="M1129.793,143.248a2.878,2.878,0,0,0-.769-.5l-30.436-13.407a2.892,2.892,0,0,0-2.131-.082l-49.921,17.578-15.786-12.833a6.354,6.354,0,0,0,1.628-4.165,5.961,5.961,0,0,0-.383-2.057L1053.339,116l32.706-2.489a2.893,2.893,0,0,0,1.26-.4l30.106-17.875-4.924-3.819-27.558,16.363-32.659,2.485a2.894,2.894,0,0,0-1.181.352l-23.225,12.826a16.064,16.064,0,0,0-7.349-1.677,17.516,17.516,0,0,0-4.2.5l-13.085-10.638a2.934,2.934,0,0,0-.707-.424L951.1,89.636l-6.285,3.649,55.083,23.107,10.868,8.836a6.482,6.482,0,0,0-2,4.55,6.107,6.107,0,0,0,.875,3.092l-29.144,17.7,4.885,3.817,29.082-17.667a16.774,16.774,0,0,0,6.166,1.128,17.22,17.22,0,0,0,4.83-.678l18.682,15.189a2.89,2.89,0,0,0,2.792.485l50.371-17.735,28.963,12.757,40.85,36.7,5.255-3.071Zm-104.352-12.3a9.979,9.979,0,0,1-4.815,1.107,10.11,10.11,0,0,1-4.887-1.13c-.883-.509-1.18-1-1.18-1.148s.287-.613,1.14-1.106a9.968,9.968,0,0,1,4.814-1.107,10.119,10.119,0,0,1,4.887,1.129c.883.51,1.18,1,1.18,1.149S1026.294,130.456,1025.441,130.948Z" transform="translate(-918.033 -44.674)" fill="url(#linear-gradient-3)"/>
      <path id="Trazado_299384" data-name="Trazado 299384" d="M1257.008,197.2l-7.609-7.609,10.145-6.522L1271.5,151.9l4.348-1.812,25.726,21.016Z" transform="translate(-1001.892 -61.319)" fill="#cfe4bd"/>
      <path id="Trazado_299385" data-name="Trazado 299385" d="M982.661,154.573,964.182,140.8l-1.812-13.769-7.972-5.073,17.392-10.87L998.6,121.6l-1.812,5.073-14.131,8.334-6.16,3.986,9.421,2.536,2.9,10.508Z" transform="translate(-920.672 -50.581)" fill="#cfe4bd"/>
      <g id="Grupo_842387" data-name="Grupo 842387" transform="translate(86.809 44.87)">
        <path id="Trazado_299386" data-name="Trazado 299386" d="M1206.385,141.429a.9.9,0,0,1-.369-.079l-1.323-.591a.906.906,0,1,1,.738-1.654l1.323.591a.906.906,0,0,1-.37,1.733Z" transform="translate(-1076.245 -103.142)" fill="url(#linear-gradient-4)"/>
        <path id="Trazado_299387" data-name="Trazado 299387" d="M1200.5,138.8a.917.917,0,0,1-.369-.079l-2.594-1.157a.906.906,0,0,1,.739-1.655l2.594,1.158a.906.906,0,0,1-.37,1.733Z" transform="translate(-1074.274 -102.262)" fill="url(#linear-gradient-5)"/>
        <path id="Trazado_299388" data-name="Trazado 299388" d="M1190.79,135.98a.906.906,0,0,1-.47-1.681l1.24-.751a.908.908,0,0,1,.839-.052l1.323.591a.906.906,0,1,1-.739,1.654l-.89-.4-.835.505A.9.9,0,0,1,1190.79,135.98Z" transform="translate(-1072.315 -101.598)" fill="url(#linear-gradient-6)"/>
        <path id="Trazado_299389" data-name="Trazado 299389" d="M1169.77,146.075a.906.906,0,0,1-.47-1.681l2.539-1.538a.906.906,0,0,1,.938,1.55l-2.539,1.538A.905.905,0,0,1,1169.77,146.075Zm5.078-3.076a.906.906,0,0,1-.469-1.681l2.538-1.538a.906.906,0,0,1,.938,1.55l-2.539,1.538A.907.907,0,0,1,1174.847,143Zm5.078-3.075a.906.906,0,0,1-.47-1.681l2.538-1.538a.906.906,0,1,1,.938,1.549l-2.538,1.538A.9.9,0,0,1,1179.925,139.925Z" transform="translate(-1066.528 -102.467)" fill="url(#linear-gradient-7)"/>
        <path id="Trazado_299390" data-name="Trazado 299390" d="M1164.038,151.868a.922.922,0,0,1-.314-.056l-1.359-.5a.906.906,0,0,1,.627-1.7l.95.351.867-.525a.906.906,0,0,1,.938,1.55l-1.24.751A.91.91,0,0,1,1164.038,151.868Z" transform="translate(-1064.576 -105.972)" fill="url(#linear-gradient-8)"/>
        <path id="Trazado_299391" data-name="Trazado 299391" d="M1089.6,165.391a.905.905,0,0,1-.3-1.76l2.65-.933a.905.905,0,0,1,.6,1.708l-2.649.933A.9.9,0,0,1,1089.6,165.391Zm5.3-1.866a.905.905,0,0,1-.3-1.76l2.65-.933a.906.906,0,0,1,.6,1.709l-2.65.933A.892.892,0,0,1,1094.9,163.525Zm5.3-1.865a.906.906,0,0,1-.3-1.76l2.65-.933a.906.906,0,0,1,.6,1.709l-2.65.933A.9.9,0,0,1,1100.195,161.66Zm5.3-1.866a.906.906,0,0,1-.3-1.76l2.649-.933a.905.905,0,1,1,.6,1.708l-2.649.933A.911.911,0,0,1,1105.493,159.794Zm5.3-1.865a.906.906,0,0,1-.3-1.76l2.65-.933a.905.905,0,0,1,.6,1.708l-2.649.933A.9.9,0,0,1,1110.793,157.928Zm5.3-1.867a.905.905,0,0,1-.3-1.76l2.649-.933a.905.905,0,1,1,.6,1.708l-2.649.933A.893.893,0,0,1,1116.091,156.062Zm5.3-1.865a.905.905,0,0,1-.3-1.76l2.649-.933a.906.906,0,1,1,.6,1.709l-2.649.933A.9.9,0,0,1,1121.391,154.2Zm5.3-1.866a.906.906,0,0,1-.3-1.76l2.649-.933a.906.906,0,0,1,.6,1.709l-2.649.933A.894.894,0,0,1,1126.689,152.33Zm5.3-1.865a.906.906,0,0,1-.3-1.76l2.649-.933a.905.905,0,1,1,.6,1.708l-2.649.933A.915.915,0,0,1,1131.988,150.465Zm7.933-.712a.9.9,0,0,1-.314-.056l-2.636-.971a.906.906,0,1,1,.628-1.7l2.635.971a.905.905,0,0,1-.313,1.755Z" transform="translate(-1044.455 -105.329)" fill="url(#linear-gradient-9)"/>
        <path id="Trazado_299392" data-name="Trazado 299392" d="M1083.627,173.306a.909.909,0,0,1-.573-.2l-1.124-.914a.906.906,0,0,1,1.144-1.406l.731.595.888-.313a.905.905,0,1,1,.6,1.708l-1.367.481A.9.9,0,0,1,1083.627,173.306Z" transform="translate(-1042.501 -111.829)" fill="url(#linear-gradient-10)"/>
        <path id="Trazado_299393" data-name="Trazado 299393" d="M1074.428,165.828a.9.9,0,0,1-.57-.2l-2-1.625a.905.905,0,1,1,1.142-1.405l2,1.625a.906.906,0,0,1-.572,1.609Zm-4-3.251a.9.9,0,0,1-.57-.2l-2-1.625a.906.906,0,0,1,1.143-1.406l2,1.625a.905.905,0,0,1-.572,1.608Zm-4-3.249a.9.9,0,0,1-.57-.2l-2-1.625a.906.906,0,0,1,1.142-1.406l2,1.625a.906.906,0,0,1-.572,1.609Zm-4-3.25a.9.9,0,0,1-.57-.2l-2-1.625a.905.905,0,0,1,1.142-1.405l2,1.625a.906.906,0,0,1-.572,1.609Z" transform="translate(-1036.426 -106.89)" fill="url(#linear-gradient-11)"/>
        <path id="Trazado_299394" data-name="Trazado 299394" d="M1057.251,151.482a.9.9,0,0,1-.571-.2l-1.125-.915a.905.905,0,0,1,.021-1.423,7.493,7.493,0,0,0,.917-.881.906.906,0,0,1,1.356,1.2c-.115.13-.228.251-.336.36l.309.251a.906.906,0,0,1-.572,1.608Z" transform="translate(-1035.24 -105.545)" fill="url(#linear-gradient-12)"/>
        <path id="Trazado_299395" data-name="Trazado 299395" d="M1055.917,144.07a.907.907,0,0,1-.861-1.187,3.063,3.063,0,0,0,.159-.941,2.55,2.55,0,0,0-.205-1.005.906.906,0,0,1,1.672-.7,4.4,4.4,0,0,1,.345,1.7,4.87,4.87,0,0,1-.248,1.5A.907.907,0,0,1,1055.917,144.07Zm-1.715-4.6a.9.9,0,0,1-.553-.188,6.606,6.606,0,0,0-2.058-1.038.906.906,0,0,1,.544-1.728,8.41,8.41,0,0,1,2.621,1.333.906.906,0,0,1-.554,1.623Zm-4.925-1.67c-.025,0-.05,0-.075,0a17.579,17.579,0,0,0-2.5-.015.887.887,0,0,1-.962-.846.905.905,0,0,1,.846-.961,19.386,19.386,0,0,1,2.768.017.906.906,0,0,1-.075,1.809Z" transform="translate(-1032.628 -102.289)" fill="url(#linear-gradient-13)"/>
        <path id="Trazado_299396" data-name="Trazado 299396" d="M1040.633,138.3a.906.906,0,0,1-.583-.212l-1.109-.932a.906.906,0,0,1,1.165-1.388l.76.638c.254-.058.6-.13,1.025-.206a.906.906,0,1,1,.317,1.783c-.816.145-1.332.284-1.337.286A.941.941,0,0,1,1040.633,138.3Z" transform="translate(-1030.668 -102.186)" fill="url(#linear-gradient-14)"/>
        <path id="Trazado_299397" data-name="Trazado 299397" d="M1035.511,134a.9.9,0,0,1-.582-.212l-2.279-1.915a.906.906,0,1,1,1.165-1.387l2.279,1.915a.906.906,0,0,1-.583,1.6Z" transform="translate(-1028.936 -100.731)" fill="url(#linear-gradient-15)"/>
        <path id="Trazado_299398" data-name="Trazado 299398" d="M1029.663,128.81a.9.9,0,0,1-.583-.212l-1.11-.933a.905.905,0,0,1,.129-1.477l1.254-.728a.906.906,0,0,1,.909,1.567l-.138.08.123.1a.906.906,0,0,1-.583,1.6Z" transform="translate(-1027.648 -99.373)" fill="url(#linear-gradient-16)"/>
        <path id="Trazado_299399" data-name="Trazado 299399" d="M1033.345,121.947a.906.906,0,0,1-.456-1.689l2.217-1.287a.906.906,0,0,1,.91,1.567l-2.218,1.287A.9.9,0,0,1,1033.345,121.947Zm4.435-2.575a.906.906,0,0,1-.456-1.689l2.217-1.288a.906.906,0,0,1,.91,1.567l-2.217,1.288A.912.912,0,0,1,1037.781,119.373Zm4.435-2.576a.906.906,0,0,1-.456-1.689l2.217-1.287a.906.906,0,1,1,.91,1.567l-2.217,1.287A.911.911,0,0,1,1042.215,116.8Zm4.435-2.576a.906.906,0,0,1-.456-1.689l2.218-1.287a.906.906,0,0,1,.91,1.567L1047.1,114.1A.9.9,0,0,1,1046.651,114.222Z" transform="translate(-1028.967 -95.459)" fill="url(#linear-gradient-17)"/>
        <path id="Trazado_299400" data-name="Trazado 299400" d="M1057.825,110.351a.906.906,0,0,1-.456-1.69l.649-.376-.2-.722a.906.906,0,0,1,1.745-.486l.389,1.4a.906.906,0,0,1-.418,1.026l-1.253.728A.907.907,0,0,1,1057.825,110.351Z" transform="translate(-1035.707 -94.163)" fill="url(#linear-gradient-18)"/>
        <path id="Trazado_299401" data-name="Trazado 299401" d="M1057.753,103.693a.905.905,0,0,1-.872-.662l-.718-2.576a.906.906,0,1,1,1.745-.486l.718,2.576a.905.905,0,0,1-.629,1.116A.887.887,0,0,1,1057.753,103.693Z" transform="translate(-1035.49 -92.206)" fill="url(#linear-gradient-19)"/>
        <path id="Trazado_299402" data-name="Trazado 299402" d="M1055.9,96.775a.905.905,0,0,1-.872-.663l-.389-1.4a.905.905,0,0,1,.451-1.044L1056.37,93a.906.906,0,1,1,.843,1.6l-.635.334.193.692a.905.905,0,0,1-.63,1.115A.917.917,0,0,1,1055.9,96.775Z" transform="translate(-1035.07 -90.44)" fill="url(#linear-gradient-20)"/>
        <path id="Trazado_299403" data-name="Trazado 299403" d="M1061.224,92.209a.906.906,0,0,1-.422-1.707l1.81-.889a.906.906,0,0,1,.843,1.6l-1.81.889A.907.907,0,0,1,1061.224,92.209Z" transform="translate(-1036.643 -89.509)" fill="url(#linear-gradient-21)"/>
      </g>
      <path id="Trazado_299404" data-name="Trazado 299404" d="M1066.577,90.555a3.516,3.516,0,0,1-3.184-.006.97.97,0,0,1-.01-1.838,3.52,3.52,0,0,1,3.183.006A.97.97,0,0,1,1066.577,90.555Z" transform="translate(-950.498 -44.316)" fill="url(#linear-gradient-22)"/>
      <path id="Trazado_299405" data-name="Trazado 299405" d="M1209.979,206.482l13.044-7.73-15.7-14.494-4.589,3.14,8.7,9.662-5.8,3.623Z" transform="translate(-989.044 -70.726)" fill="#d1d3d4"/>
      <path id="Trazado_299406" data-name="Trazado 299406" d="M1167.08,258.663l13.044-7.73-11.958-10.508-4.59,3.14-.845,9.3Z" transform="translate(-978.031 -86.19)" fill="#d1d3d4"/>
      <path id="Trazado_299407" data-name="Trazado 299407" d="M1191.786,139.592l-10.387,6.522,6.877,3.855,6.55-1.935,7.347,4.119,7.971-4.59Z" transform="translate(-983.17 -58.428)" fill="#d1d3d4"/>
      <path id="Trazado_299408" data-name="Trazado 299408" d="M1026.3,88.592l-2.9,1.933,13.769,6.039,2.9-2.9-2.657-5.073Z" transform="translate(-939.669 -44.387)" fill="#d1d3d4"/>
      <path id="Trazado_299409" data-name="Trazado 299409" d="M1037.636,171.337l10.387-6.522-4.106-4.107-4.348,2.416-4.106-3.865-7.73,4.59Z" transform="translate(-940.862 -63.843)" fill="#d1d3d4"/>
      <path id="Trazado_299410" data-name="Trazado 299410" d="M1138.114,103.718l9.9-6.764-9.9-8.7-3.382,3.14,5.314,4.107-4.589,3.865Z" transform="translate(-970.322 -44.295)" fill="#d1d3d4"/>
      <path id="Trazado_299411" data-name="Trazado 299411" d="M1233.424,188.376l7.247-4.59-.242-11.595-5.556-.966-1.449,7.488-2.657,1.932-11.837-10.387-3.865,2.174Z" transform="translate(-992.44 -66.871)" fill="#d1d3d4"/>
      <path id="Trazado_299412" data-name="Trazado 299412" d="M1080.627,157.149l7.971-4.106-9.179-18.117-7.247,3.865-.242,5.314-3.865,2.9Z" transform="translate(-951.967 -57.143)" fill="#d1d3d4"/>
    </g>
    <path id="Trazado_299413" data-name="Trazado 299413" d="M1136.212,91.945l-46.688-36.209L963.336,128.447l47.416,37.049Z" transform="translate(-21.759 -8.824)" fill="#c8cacc" style="mix-blend-mode: multiply;isolation: isolate"/>
    <path id="Trazado_299414" data-name="Trazado 299414" d="M1093.213,201.082l46.248,38.2,126.379-73.866-46.233-37.766Z" transform="translate(-57.517 -28.622)" fill="#c8cacc" style="mix-blend-mode: multiply;isolation: isolate"/>
  </g>
</svg>
